<svg xmlns="http://www.w3.org/2000/svg" width="430" height="421" viewBox="0 0 430 421"><defs><style>.a{opacity:0.86;}.b{fill:#05103a;}.c,.f{fill:none;}.c{stroke:#26377a;}.d,.e{stroke:none;}.e{fill:#26377a;}</style></defs><g transform="translate(-1376 -6998)"><g class="a" transform="translate(1127 8)"><g class="b" transform="translate(249 6990)"><path class="d" d="M 429.5 420.5 L 0.5 420.5 L 0.5 0.5 L 429.5 0.5 L 429.5 420.5 Z"/><path class="e" d="M 1 1 L 1 420 L 429 420 L 429 1 L 1 1 M 0 0 L 430 0 L 430 421 L 0 421 L 0 0 Z"/></g><g class="c" transform="translate(249 6990)"><rect class="d" width="430" height="137"/><rect class="f" x="0.5" y="0.5" width="429" height="136"/></g><g class="c" transform="translate(459 7268)"><rect class="d" width="220" height="143"/><rect class="f" x="0.5" y="0.5" width="219" height="142"/></g><g class="c" transform="translate(249 7268)"><rect class="d" width="430" height="143"/><rect class="f" x="0.5" y="0.5" width="429" height="142"/></g><g class="c" transform="translate(459 6990)"><rect class="d" width="220" height="279"/><rect class="f" x="0.5" y="0.5" width="219" height="278"/></g></g></g></svg>