<svg xmlns="http://www.w3.org/2000/svg" width="26.55" height="26.55" viewBox="0 0 26.55 26.55"><defs><style>.a{fill:#45e68d;}.b{fill:#fff;}</style></defs><g transform="translate(-1236.433 -2119.744)"><circle class="a" cx="13.275" cy="13.275" r="13.275" transform="translate(1236.433 2119.744)"/><path class="b" d="M447.158,351.473v.681h0a8.2,8.2,0,0,1-7.625,7.624h-1.089a8.2,8.2,0,0,1-7.624-7.624h0v-1.089h0a8.2,8.2,0,0,1,7.624-7.625h1.089a8.2,8.2,0,0,1,7.624,7.625h0Zm-11.709,2.757h2.961v-2.076h-3.4A11.574,11.574,0,0,0,435.449,354.23Zm2.961,4.289v-3.2h-2.655a4.561,4.561,0,0,0,2.655,3.2Zm-3.4-7.59h3.4V348.75h-2.961a11.213,11.213,0,0,0-.306,2.178Zm9.8-3.4a7.183,7.183,0,0,0-2.927-2.587,9.192,9.192,0,0,1,1.293,2.587Zm-9.19,0h2.655v-3.2a4.562,4.562,0,0,0-2.519,3.336Zm-2.791,7.659a7.082,7.082,0,0,0,2.927,2.553,9.426,9.426,0,0,1-1.294-2.553Zm1.362-6.569h-1.906a6.807,6.807,0,0,0-.545,2.178h2.178a14.665,14.665,0,0,1,.409-2.042Zm-.272,3.4h-2.178a7.048,7.048,0,0,0,.545,2.212h1.906a15.082,15.082,0,0,1-.136-2.076Zm1.838-6.808a7.182,7.182,0,0,0-2.927,2.587H434.5a9.157,9.157,0,0,1,1.4-2.723Zm7.693,3.676a11.231,11.231,0,0,1,.272,2.179H445.9a7.824,7.824,0,0,0-.51-2.179Zm-1.566,9.122a7.081,7.081,0,0,0,2.927-2.553h-1.634a8.54,8.54,0,0,1-1.157,2.417Zm1.566-3.642h1.94a8.061,8.061,0,0,0,.51-2.212H443.72a11.566,11.566,0,0,1-.136,2.076Zm-4.085-9.769v3.2h2.689a4.6,4.6,0,0,0-2.553-3.336Zm3,4.289h-3v2.179h3.4a14.636,14.636,0,0,0-.272-2.315Zm.272,3.4h-3.4V354.5h3a15.127,15.127,0,0,0,.545-2.349Zm-3.4,3.4v3.2a4.6,4.6,0,0,0,2.689-3.2Z" transform="translate(810.753 1781.546)"/></g></svg>