<svg xmlns="http://www.w3.org/2000/svg" xmlns:xlink="http://www.w3.org/1999/xlink" width="142" height="61" viewBox="0 0 142 61"><defs><style>.a{fill:#fff;}.b{opacity:0.54;}.c{fill:#ffa000;}.d{fill:#f57c00;}.e{fill:#ffca28;}.f{fill:rgba(255,255,255,0.2);}.g{fill:#a52714;opacity:0.2;}.h{fill:url(#a);}</style><linearGradient id="a" x1="-0.035" y1="0.17" x2="1.008" y2="0.929" gradientUnits="objectBoundingBox"><stop offset="0" stop-color="#fff" stop-opacity="0.102"/><stop offset="0.14" stop-color="#fff" stop-opacity="0.078"/><stop offset="0.61" stop-color="#fff" stop-opacity="0.02"/><stop offset="1" stop-color="#fff" stop-opacity="0"/></linearGradient></defs><g transform="translate(-1631 -7315)"><rect class="a" width="142" height="61" transform="translate(1631 7315)"/><g transform="translate(1643.024 7328.259)"><path class="b" d="M157.312,56.057H155V38.2h10.5V40.4h-8.188v5.862H164.7V48.4h-7.385v7.656Zm12.535-15.285a1.646,1.646,0,0,1-2.067.206,1.618,1.618,0,0,1-.606-1.972,1.639,1.639,0,0,1,3.15.619,1.553,1.553,0,0,1-.479,1.147h0Zm0,15.285h-2.312V43.838h2.312V56.057Zm5.073,0h-2.312V43.838h2.21v1.995h.1a3.138,3.138,0,0,1,1.445-1.646,4.155,4.155,0,0,1,2.124-.649,4.433,4.433,0,0,1,1.733.3l-.879,2.143a3.52,3.52,0,0,0-1.231-.175,3.03,3.03,0,0,0-2.224.986,3.527,3.527,0,0,0-.968,2.581l0,6.684Zm11.635.39a5.957,5.957,0,0,1-4.534-1.845,6.512,6.512,0,0,1-1.747-4.654,6.7,6.7,0,0,1,1.7-4.588,5.514,5.514,0,0,1,4.333-1.921,5.7,5.7,0,0,1,4.385,1.771,6.672,6.672,0,0,1,1.644,4.738l-.026.425h-9.725a4.148,4.148,0,0,0,1.244,2.922,3.785,3.785,0,0,0,2.675,1.072,3.317,3.317,0,0,0,3.366-2.094l2.061.847a5.487,5.487,0,0,1-1.984,2.381,5.859,5.859,0,0,1-3.39.947Zm3.317-7.987a3.236,3.236,0,0,0-.968-1.995,3.425,3.425,0,0,0-2.655-.927,3.33,3.33,0,0,0-2.224.8,4.07,4.07,0,0,0-1.293,2.143l7.14-.019Zm10.814,7.987a5.261,5.261,0,0,1-2.516-.584,4.252,4.252,0,0,1-1.67-1.5h-.1v1.691h-2.212V38.2H196.5v5.636l-.1,1.695h.1a4.251,4.251,0,0,1,1.67-1.5,5.262,5.262,0,0,1,2.516-.6,5.438,5.438,0,0,1,4.122,1.87,7.074,7.074,0,0,1,0,9.277,5.4,5.4,0,0,1-4.122,1.86Zm-.377-2.094a3.688,3.688,0,0,0,2.763-1.21,5.02,5.02,0,0,0,0-6.409,3.789,3.789,0,0,0-5.539-.012,5.093,5.093,0,0,0,.012,6.443,3.7,3.7,0,0,0,2.771,1.2l-.008-.01Zm12.117,2.094a4.873,4.873,0,0,1-3.278-1.122,3.719,3.719,0,0,1-1.319-2.967,3.656,3.656,0,0,1,1.558-3.129,6.356,6.356,0,0,1,3.843-1.134,6.633,6.633,0,0,1,3.336.748v-.349a2.718,2.718,0,0,0-.93-2.157,3.352,3.352,0,0,0-2.283-.8,3.565,3.565,0,0,0-1.821.473,2.448,2.448,0,0,0-1.119,1.3l-2.11-.9a4.783,4.783,0,0,1,1.687-2.042,5.375,5.375,0,0,1,3.317-.935,5.772,5.772,0,0,1,3.925,1.364,4.812,4.812,0,0,1,1.558,3.865v7.4h-2.218V54.362h-.1a4.547,4.547,0,0,1-4.045,2.082Zm.377-2.094a3.777,3.777,0,0,0,2.6-1.05,3.279,3.279,0,0,0,1.178-2.505,4.592,4.592,0,0,0-2.944-.8,3.843,3.843,0,0,0-2.538.723,2.165,2.165,0,0,0-.854,1.695,1.629,1.629,0,0,0,.785,1.422,3.121,3.121,0,0,0,1.77.524v-.01Zm12.787,2.094a5.553,5.553,0,0,1-3.4-1,5.908,5.908,0,0,1-1.963-2.494l2.061-.847a3.4,3.4,0,0,0,3.336,2.295,3.067,3.067,0,0,0,1.766-.473,1.449,1.449,0,0,0,.691-1.247q0-1.2-1.687-1.621l-2.487-.6a5.934,5.934,0,0,1-2.235-1.134,2.72,2.72,0,0,1-1.056-2.256,3.078,3.078,0,0,1,1.445-2.63,5.833,5.833,0,0,1,3.429-1.009,5.75,5.75,0,0,1,2.913.738,4.157,4.157,0,0,1,1.833,2.108l-2.008.814a2.729,2.729,0,0,0-2.814-1.621,3.3,3.3,0,0,0-1.733.425,1.29,1.29,0,0,0-.7,1.147q0,1.048,1.633,1.422l2.436.575a4.567,4.567,0,0,1,2.563,1.364,3.3,3.3,0,0,1,.828,2.194,3.391,3.391,0,0,1-1.356,2.743,5.358,5.358,0,0,1-3.492,1.1Zm12.435,0a5.957,5.957,0,0,1-4.534-1.845,6.525,6.525,0,0,1-1.747-4.664,6.7,6.7,0,0,1,1.7-4.588,5.523,5.523,0,0,1,4.339-1.911,5.683,5.683,0,0,1,4.385,1.771,6.733,6.733,0,0,1,1.645,4.738l-.025.425h-9.733a4.148,4.148,0,0,0,1.244,2.922,3.785,3.785,0,0,0,2.681,1.068,3.317,3.317,0,0,0,3.366-2.094l2.061.847a5.485,5.485,0,0,1-1.984,2.381,5.849,5.849,0,0,1-3.393.951Zm3.317-7.987a3.236,3.236,0,0,0-.968-1.995,3.42,3.42,0,0,0-2.652-.927,3.332,3.332,0,0,0-2.224.8,4.07,4.07,0,0,0-1.293,2.143l7.136-.019Z" transform="translate(-120.42 -29.559)"/><path class="c" d="M23.833,33.838l4.251-27.2a.785.785,0,0,1,1.468-.249l4.4,8.2L35.7,11.248a.785.785,0,0,1,1.39,0L48.956,33.838H23.833Z" transform="translate(-23.82 -5.97)"/><path class="d" d="M38.521,47.307l-4.573-8.66L23.833,57.9Z" transform="translate(-23.82 -30.036)"/><path class="e" d="M48.957,53.581,45.7,33.431a.785.785,0,0,0-1.329-.424L23.834,53.58,35.2,59.953a2.355,2.355,0,0,0,2.3,0L48.957,53.58Z" transform="translate(-23.82 -25.713)"/><path class="f" d="M45.662,13.689a.785.785,0,0,0-1.329-.424l-4.076,4.087-3.205-6.1a.785.785,0,0,0-1.39,0l-1.752,3.337-4.4-8.2a.785.785,0,0,0-1.468.251L23.8,33.839h-.014l.014.016.112.055,20.42-20.444a.785.785,0,0,1,1.331.424l3.229,19.969.031-.02-3.256-20.15ZM23.832,33.8,28.046,6.83a.785.785,0,0,1,1.468-.251l4.4,8.2,1.752-3.337a.785.785,0,0,1,1.39,0l3.14,5.973L23.832,33.8Z" transform="translate(-23.781 -5.971)"/><path class="g" d="M37.494,117.395a2.355,2.355,0,0,1-2.3,0L23.861,111.04l-.027.175L35.2,117.585a2.355,2.355,0,0,0,2.3,0l11.462-6.371-.029-.181L37.494,117.4Z" transform="translate(-23.82 -83.346)"/><path class="h" d="M45.79,13.715a.782.782,0,0,0-1.324-.424L40.4,17.376l-3.194-6.1a.781.781,0,0,0-1.385,0l-1.747,3.335L29.7,6.414a.782.782,0,0,0-1.463.251L24,33.855l11.325,6.368a2.341,2.341,0,0,0,2.288,0l11.422-6.368L45.79,13.715Z" transform="translate(-23.942 -5.992)"/></g></g></svg>