<svg xmlns="http://www.w3.org/2000/svg" width="214.909" height="55.225" viewBox="0 0 214.909 55.225"><defs><style>.a{fill:#5fb832;}</style></defs><path class="a" d="M80.567-22.63A2.357,2.357,0,0,1,79.4-24.762a2.452,2.452,0,0,1,2.489-2.478,2.662,2.662,0,0,1,1.316.352A14.152,14.152,0,0,0,90.918-24.3c2.638,0,4.16-1.117,4.16-2.9v-.1c0-2.08-2.839-2.789-5.987-3.753-3.955-1.117-8.369-2.739-8.369-7.864v-.1c0-5.074,4.211-8.168,9.538-8.168A18.435,18.435,0,0,1,98.681-45a2.6,2.6,0,0,1,1.471,2.333,2.471,2.471,0,0,1-2.535,2.49,2.373,2.373,0,0,1-1.216-.306,14.621,14.621,0,0,0-6.293-1.829c-2.386,0-3.756,1.119-3.756,2.642v.1c0,1.979,2.892,2.789,6.038,3.806,3.907,1.218,8.32,2.993,8.32,7.813v.1c0,5.631-4.365,8.418-9.945,8.418a18.3,18.3,0,0,1-10.2-3.195" transform="translate(-9.778 61.035)"/><path class="a" d="M127.812-33.3v-.1c0-5.172-3.5-8.572-7.66-8.572s-7.813,3.45-7.813,8.572v.1c0,5.124,3.653,8.577,7.813,8.577,4.211,0,7.66-3.3,7.66-8.577M106.351-44.1A3.033,3.033,0,0,1,109.4-47.2a3.076,3.076,0,0,1,3.094,3.094v1.829c1.979-2.789,4.768-5.022,9.133-5.022,6.29,0,12.43,4.97,12.43,13.9v.1c0,8.88-6.088,13.9-12.43,13.9a10.954,10.954,0,0,1-9.133-4.715v9.482a3.034,3.034,0,0,1-3.094,3.051,3.025,3.025,0,0,1-3.046-3.051V-44.1" transform="translate(-13.097 61.049)"/><path class="a" d="M140.6-44.086a3.03,3.03,0,0,1,3.041-3.094,3.075,3.075,0,0,1,3.1,3.094v1.476c.306-2.3,4.057-4.57,6.747-4.57a2.849,2.849,0,0,1,3.044,3.042,2.882,2.882,0,0,1-2.436,2.942c-4.363.761-7.355,4.579-7.355,9.861v8.851a3.063,3.063,0,0,1-3.1,3.045,3.02,3.02,0,0,1-3.041-3.045v-21.6" transform="translate(-17.314 61.035)"/><path class="a" d="M161.41-44.072a3.037,3.037,0,0,1,3.046-3.1,3.077,3.077,0,0,1,3.095,3.1v21.6a3.031,3.031,0,0,1-3.095,3.04,3.019,3.019,0,0,1-3.046-3.04v-21.6" transform="translate(-19.878 61.033)"/><path class="a" d="M171.942-44.06a3.031,3.031,0,0,1,3.042-3.093,3.074,3.074,0,0,1,3.1,3.093v1.26a9.5,9.5,0,0,1,8.37-4.368c6.037,0,9.54,4.061,9.54,10.249v14.44a2.992,2.992,0,0,1-3.046,3.045,3.033,3.033,0,0,1-3.094-3.045V-35.042c0-4.158-2.08-6.544-5.733-6.544-3.551,0-6.037,2.486-6.037,6.649V-22.48a3.033,3.033,0,0,1-3.1,3.045,3.021,3.021,0,0,1-3.042-3.045V-44.06" transform="translate(-21.175 61.033)"/><path class="a" d="M215.92-24.783c-4.215,0-7.661-3.3-7.661-8.576v-.1c0-5.174,3.5-8.573,7.661-8.573s7.813,3.451,7.813,8.573v.1c0,5.125-3.652,8.576-7.813,8.576m10.75-22.476a3.076,3.076,0,0,0-3.092,3.1v1.826c-1.98-2.789-4.768-5.021-9.129-5.021-6.295,0-12.431,4.97-12.431,13.9v.1c0,8.879,6.086,13.9,12.431,13.9a10.936,10.936,0,0,0,9.1-4.677c-.307,4.824-3.261,7.371-8.441,7.371a16.384,16.384,0,0,1-8.221-2.136,2.442,2.442,0,0,0-1.112-.249,2.592,2.592,0,0,0-2.591,2.534,2.513,2.513,0,0,0,1.729,2.436,23.092,23.092,0,0,0,10.344,2.385c4.823,0,8.578-1.166,11.013-3.6,2.227-2.234,3.445-5.578,3.445-10.1v-18.67a3.035,3.035,0,0,0-3.047-3.1" transform="translate(-24.878 61.057)"/><path class="a" d="M167.572-56.034a3.1,3.1,0,0,1-3.1,3.1,3.1,3.1,0,0,1-3.094-3.1,3.09,3.09,0,0,1,3.094-3.094,3.093,3.093,0,0,1,3.1,3.094" transform="translate(-19.874 62.506)"/><path class="a" d="M50.193-23.217C43.388-14.15,28.85-17.21,19.529-16.77c0,0-1.65.092-3.312.365,0,0,.628-.268,1.43-.544,6.546-2.264,9.64-2.719,13.618-4.762C38.738-25.54,46.177-33.879,47.69-42.542c-2.845,8.332-11.5,15.5-19.375,18.415A132.012,132.012,0,0,1,13.17-20.2c0,.007-.389-.2-.394-.209C6.145-23.635,5.953-38,18-42.628c5.281-2.031,10.332-.916,16.04-2.274,6.089-1.448,13.14-6.011,16.007-11.978C53.258-47.35,57.118-32.439,50.193-23.217Zm.118-36.617a25.427,25.427,0,0,1-2.939,5.211,27.521,27.521,0,0,0-19.761-8.357A27.643,27.643,0,0,0,0-35.37,27.537,27.537,0,0,0,8.837-15.147l.6.536A2.362,2.362,0,0,1,9.1-17.928a2.362,2.362,0,0,1,3.318-.349,2.36,2.36,0,0,1,.347,3.32,2.358,2.358,0,0,1-3.316.348l.411.364A27.478,27.478,0,0,0,27.612-7.756,27.64,27.64,0,0,0,55.14-33.377c.758-7-1.31-15.887-4.828-26.457" transform="translate(0 62.981)"/><path class="a" d="M241.327-45.291h-.965v1.277h.965a.652.652,0,0,0,.654-.623A.658.658,0,0,0,241.327-45.291Zm.6,3.161-.936-1.425h-.623v1.425h-.5v-3.607h1.468a1.123,1.123,0,0,1,1.174,1.1,1.057,1.057,0,0,1-.921,1.069l.966,1.439Zm-.862-4.482a2.661,2.661,0,0,0-2.673,2.673,2.671,2.671,0,0,0,2.673,2.672,2.68,2.68,0,0,0,2.671-2.672A2.671,2.671,0,0,0,241.06-46.613Zm0,5.82a3.149,3.149,0,0,1-3.147-3.147,3.139,3.139,0,0,1,3.147-3.148,3.13,3.13,0,0,1,3.147,3.148,3.14,3.14,0,0,1-3.147,3.147" transform="translate(-29.299 61.023)"/></svg>