<svg xmlns="http://www.w3.org/2000/svg" width="16.561" height="31.876" viewBox="0 0 16.561 31.876"><defs><style>.a{fill:#f0f0f0;}</style></defs><path class="a" d="M54.519,30.244a7.234,7.234,0,0,1,3.118-1.06,4.677,4.677,0,0,1,2.479.53,4.194,4.194,0,0,1,1.637,1.7,5.285,5.285,0,0,1,.608,2.417,1.559,1.559,0,0,1-.172.733,1.029,1.029,0,0,1-.39.5l-3.508,2.027a1.107,1.107,0,0,1-.608.187.951.951,0,0,1-.468-.234l-.249-.265a1.559,1.559,0,0,0-.5-.312,1.668,1.668,0,0,0-.811,0,3.259,3.259,0,0,0-1.185.452,7.686,7.686,0,0,0-.967.67,5.924,5.924,0,0,0-.842.811,3.835,3.835,0,0,0-.592.982,3.118,3.118,0,0,0-.218,1.154,1.232,1.232,0,0,0,.249.889,1.107,1.107,0,0,0,.858.265,7.453,7.453,0,0,0,1.559-.234l2.463-.639a8.061,8.061,0,0,1,2.573-.327,3.118,3.118,0,0,1,1.84.686,3.757,3.757,0,0,1,1.2,1.762,11.708,11.708,0,0,1,.343,3.118,13.658,13.658,0,0,1-.624,4.116,15.9,15.9,0,0,1-1.731,3.82,17.431,17.431,0,0,1-2.619,3.321,16.121,16.121,0,0,1-3.321,2.526,7.874,7.874,0,0,1-3.321,1.185,4.568,4.568,0,0,1-2.588-.468,4.163,4.163,0,0,1-1.715-1.762,6.018,6.018,0,0,1-.639-2.728,1.746,1.746,0,0,1,.187-.655,1.138,1.138,0,0,1,.39-.5l3.508-2.042a1.107,1.107,0,0,1,.592-.2.842.842,0,0,1,.421.187,4.489,4.489,0,0,1,.327.359,1.9,1.9,0,0,0,.577.421,1.559,1.559,0,0,0,.9.156,3.243,3.243,0,0,0,1.356-.483,9.713,9.713,0,0,0,2.37-1.855,3.227,3.227,0,0,0,.967-2.276.889.889,0,0,0-.343-.826,1.809,1.809,0,0,0-1.045-.172,10.476,10.476,0,0,0-1.777.359l-2.573.639a3.882,3.882,0,0,1-4.038-.717,7.375,7.375,0,0,1-1.278-4.942,14.032,14.032,0,0,1,.53-3.7,16.994,16.994,0,0,1,1.559-3.726,17.524,17.524,0,0,1,2.4-3.352A13.5,13.5,0,0,1,54.519,30.244Z" transform="translate(-46.38 -29.174)"/></svg>