<svg xmlns="http://www.w3.org/2000/svg" xmlns:xlink="http://www.w3.org/1999/xlink" width="1460" height="1460" viewBox="0 0 1460 1460"><defs><style>.a{mix-blend-mode:color;isolation:isolate;fill:url(#a);}.b,.c{stroke:none;}.c{fill:#707070;}</style><linearGradient id="a" x1="0.982" y1="0.624" x2="0.098" y2="0.258" gradientUnits="objectBoundingBox"><stop offset="0" stop-color="#2e4ccb"/><stop offset="1" stop-color="#000f71"/></linearGradient></defs><g class="a"><path class="b" d="M 730 1459.5 C 705.1160278320313 1459.5 680.0211181640625 1458.232788085938 655.4121704101563 1455.733642578125 C 631.1596069335938 1453.270751953125 606.789794921875 1449.551513671875 582.9797973632813 1444.679077148438 C 559.4778442382813 1439.869995117188 535.9563598632813 1433.822021484375 513.0689086914063 1426.703247070313 C 490.4374694824219 1419.664184570313 467.8876342773438 1411.410766601563 446.0458068847656 1402.172485351563 C 424.4058227539063 1393.019409179688 402.9510803222656 1382.684204101563 382.2772827148438 1371.45361328125 C 361.7505493164063 1360.302734375 341.5141906738281 1348.008666992188 322.1300048828125 1334.9130859375 C 302.8394470214844 1321.880737304688 283.9447326660156 1307.75146484375 265.9705505371094 1292.917846679688 C 248.0401763916016 1278.12060546875 230.6105499267578 1262.279296875 214.1656341552734 1245.834350585938 C 197.7207336425781 1229.389404296875 181.8794555664063 1211.959838867188 167.0821838378906 1194.029418945313 C 152.2485504150391 1176.055297851563 138.1192779541016 1157.160522460938 125.0869064331055 1137.869995117188 C 111.9912719726563 1118.48583984375 99.69727325439453 1098.24951171875 88.54636383056641 1077.722778320313 C 77.31581878662109 1057.048950195313 66.98054504394531 1035.59423828125 57.82745361328125 1013.954162597656 C 48.58927154541016 992.1123657226563 40.33581924438477 969.5625610351563 33.29672622680664 946.9310913085938 C 26.17799949645996 924.0436401367188 20.1299991607666 900.5221557617188 15.32090950012207 877.0202026367188 C 10.44854545593262 853.210205078125 6.729272842407227 828.8403930664063 4.266363620758057 804.5878295898438 C 1.767272710800171 779.9788818359375 0.5 754.8839721679688 0.5 730 C 0.5 705.1160278320313 1.767272710800171 680.0211181640625 4.266363620758057 655.4121704101563 C 6.729272842407227 631.1596069335938 10.44854545593262 606.789794921875 15.32090950012207 582.9797973632813 C 20.1299991607666 559.4778442382813 26.17799949645996 535.9563598632813 33.29672622680664 513.0689086914063 C 40.33581924438477 490.4374694824219 48.58927154541016 467.8876342773438 57.82745361328125 446.0458068847656 C 66.98054504394531 424.4058227539063 77.31581878662109 402.9510803222656 88.54636383056641 382.2772827148438 C 99.69727325439453 361.7505493164063 111.9912719726563 341.5141906738281 125.0869064331055 322.1300048828125 C 138.1192779541016 302.8394470214844 152.2485504150391 283.9447326660156 167.0821838378906 265.9705505371094 C 181.8794555664063 248.0401763916016 197.7207336425781 230.6105499267578 214.1656341552734 214.1656341552734 C 230.6105499267578 197.7207336425781 248.0401763916016 181.8794555664063 265.9705505371094 167.0821838378906 C 283.9447326660156 152.2485504150391 302.8394470214844 138.1192779541016 322.1300048828125 125.0869064331055 C 341.5141906738281 111.9912719726563 361.7505493164063 99.69727325439453 382.2772827148438 88.54636383056641 C 402.9510803222656 77.31581878662109 424.4058227539063 66.98054504394531 446.0458068847656 57.82745361328125 C 467.8876342773438 48.58927154541016 490.4374694824219 40.33581924438477 513.0689086914063 33.29672622680664 C 535.9563598632813 26.17799949645996 559.4778442382813 20.1299991607666 582.9797973632813 15.32090950012207 C 606.789794921875 10.44854545593262 631.1596069335938 6.729272842407227 655.4121704101563 4.266363620758057 C 680.0211181640625 1.767272710800171 705.1160278320313 0.5 730 0.5 C 745.5665283203125 0.5 761.30419921875 0.996363639831543 776.7758178710938 1.975454568862915 C 792.101806640625 2.94527268409729 807.5752563476563 4.41454553604126 822.7659912109375 6.342545509338379 C 837.8223876953125 8.253273010253906 853.00146484375 10.66545486450195 867.8816528320313 13.51181793212891 C 882.6390991210938 16.33472633361816 897.4940185546875 19.65981864929199 912.0336303710938 23.39454460144043 C 926.4630737304688 27.10090827941895 940.963623046875 31.3087272644043 955.1331176757813 35.90127182006836 C 969.2048950195313 40.46236419677734 983.3214721679688 45.52327346801758 997.0906982421875 50.94327163696289 C 1010.775634765625 56.33018112182617 1024.478149414063 62.2140007019043 1037.817626953125 68.4312744140625 C 1051.086181640625 74.61545562744141 1064.344604492188 81.29218292236328 1077.224487304688 88.2760009765625 C 1190.884155273438 149.9054565429688 1286.502197265625 240.92236328125 1353.741577148438 351.4872741699219 C 1387.707275390625 407.3383483886719 1413.96533203125 467.4496459960938 1431.786499023438 530.151611328125 C 1436.298583984375 546.0261840820313 1440.317626953125 562.2681884765625 1443.732055664063 578.426025390625 C 1447.177124023438 594.7283935546875 1450.09765625 611.3754272460938 1452.412353515625 627.9050903320313 C 1454.749633789063 644.5950927734375 1456.531494140625 661.6074829101563 1457.708129882813 678.469482421875 C 1458.897094726563 695.507080078125 1459.5 712.8443603515625 1459.5 730 C 1459.5 754.8839721679688 1458.232788085938 779.9788818359375 1455.733642578125 804.5878295898438 C 1453.270751953125 828.8403930664063 1449.551513671875 853.210205078125 1444.679077148438 877.0202026367188 C 1439.869995117188 900.5221557617188 1433.822021484375 924.0436401367188 1426.703247070313 946.9310913085938 C 1419.664184570313 969.5625610351563 1411.410766601563 992.1123657226563 1402.172485351563 1013.954162597656 C 1393.019409179688 1035.59423828125 1382.684204101563 1057.048950195313 1371.45361328125 1077.722778320313 C 1360.302734375 1098.24951171875 1348.008666992188 1118.48583984375 1334.9130859375 1137.869995117188 C 1321.880737304688 1157.160522460938 1307.75146484375 1176.055297851563 1292.917846679688 1194.029418945313 C 1278.12060546875 1211.959838867188 1262.279296875 1229.389404296875 1245.834350585938 1245.834350585938 C 1229.389404296875 1262.279296875 1211.959838867188 1278.12060546875 1194.029418945313 1292.917846679688 C 1176.055297851563 1307.75146484375 1157.160522460938 1321.880737304688 1137.869995117188 1334.9130859375 C 1118.48583984375 1348.008666992188 1098.24951171875 1360.302734375 1077.722778320313 1371.45361328125 C 1057.048950195313 1382.684204101563 1035.59423828125 1393.019409179688 1013.954162597656 1402.172485351563 C 992.1123657226563 1411.410766601563 969.5625610351563 1419.664184570313 946.9310913085938 1426.703247070313 C 924.0436401367188 1433.822021484375 900.5221557617188 1439.869995117188 877.0202026367188 1444.679077148438 C 853.210205078125 1449.551513671875 828.8403930664063 1453.270751953125 804.5878295898438 1455.733642578125 C 779.9788818359375 1458.232788085938 754.8839721679688 1459.5 730 1459.5 Z"/><path class="c" d="M 730 1 C 705.1329345703125 1 680.054931640625 2.266357421875 655.4627075195313 4.7637939453125 C 631.2267456054688 7.22509765625 606.8738403320313 10.9417724609375 583.0800170898438 15.8106689453125 C 559.5941772460938 20.6165771484375 536.089111328125 26.660400390625 513.21728515625 33.774169921875 C 490.6016235351563 40.80859375 468.0672607421875 49.05615234375 446.2405395507813 58.2879638671875 C 424.615478515625 67.4346923828125 403.1754150390625 77.762939453125 382.5159912109375 88.98583984375 C 362.00341796875 100.12890625 341.78076171875 112.41455078125 322.4097900390625 125.5010986328125 C 303.132568359375 138.5247802734375 284.250732421875 152.6444091796875 266.2886962890625 167.4677734375 C 248.3707275390625 182.255126953125 230.952880859375 198.08544921875 214.51904296875 214.51904296875 C 198.08544921875 230.952880859375 182.255126953125 248.3707275390625 167.4677734375 266.2886962890625 C 152.6444091796875 284.250732421875 138.5247802734375 303.132568359375 125.5010986328125 322.4097900390625 C 112.41455078125 341.78076171875 100.12890625 362.00341796875 88.98583984375 382.5159912109375 C 77.762939453125 403.1754150390625 67.4346923828125 424.615478515625 58.2879638671875 446.2405395507813 C 49.05615234375 468.0672607421875 40.80859375 490.6016235351563 33.774169921875 513.21728515625 C 26.660400390625 536.089111328125 20.6165771484375 559.5941772460938 15.8106689453125 583.0800170898438 C 10.9417724609375 606.8738403320313 7.22509765625 631.2267456054688 4.7637939453125 655.4627075195313 C 2.266357421875 680.054931640625 1 705.1329345703125 1 730 C 1 754.8670654296875 2.266357421875 779.945068359375 4.7637939453125 804.5372924804688 C 7.22509765625 828.7732543945313 10.9417724609375 853.1261596679688 15.8106689453125 876.9199829101563 C 20.6165771484375 900.4058227539063 26.660400390625 923.910888671875 33.774169921875 946.78271484375 C 40.80859375 969.3983764648438 49.05615234375 991.9327392578125 58.2879638671875 1013.759460449219 C 67.4346923828125 1035.384521484375 77.762939453125 1056.824584960938 88.98583984375 1077.484008789063 C 100.12890625 1097.99658203125 112.41455078125 1118.21923828125 125.5010986328125 1137.590209960938 C 138.5247802734375 1156.867431640625 152.6444091796875 1175.749267578125 167.4677734375 1193.711303710938 C 182.255126953125 1211.629272460938 198.08544921875 1229.047119140625 214.51904296875 1245.48095703125 C 230.952880859375 1261.91455078125 248.3707275390625 1277.744873046875 266.2886962890625 1292.5322265625 C 284.250732421875 1307.355590820313 303.132568359375 1321.475219726563 322.4097900390625 1334.498901367188 C 341.78076171875 1347.58544921875 362.00341796875 1359.87109375 382.5159912109375 1371.01416015625 C 403.1754150390625 1382.237060546875 424.615478515625 1392.565307617188 446.2405395507813 1401.712036132813 C 468.0672607421875 1410.94384765625 490.6016235351563 1419.19140625 513.21728515625 1426.225830078125 C 536.089111328125 1433.339599609375 559.5941772460938 1439.383422851563 583.0800170898438 1444.189331054688 C 606.8738403320313 1449.058227539063 631.2267456054688 1452.77490234375 655.4627075195313 1455.236206054688 C 680.054931640625 1457.733642578125 705.1329345703125 1459 730 1459 C 754.8670654296875 1459 779.945068359375 1457.733642578125 804.5372924804688 1455.236206054688 C 828.7732543945313 1452.77490234375 853.1261596679688 1449.058227539063 876.9199829101563 1444.189331054688 C 900.4058227539063 1439.383422851563 923.910888671875 1433.339599609375 946.78271484375 1426.225830078125 C 969.3983764648438 1419.19140625 991.9327392578125 1410.94384765625 1013.759460449219 1401.712036132813 C 1035.384521484375 1392.565307617188 1056.824584960938 1382.237060546875 1077.484008789063 1371.01416015625 C 1097.99658203125 1359.87109375 1118.21923828125 1347.58544921875 1137.590209960938 1334.498901367188 C 1156.867431640625 1321.475219726563 1175.749267578125 1307.355590820313 1193.711303710938 1292.5322265625 C 1211.629272460938 1277.744873046875 1229.047119140625 1261.91455078125 1245.48095703125 1245.48095703125 C 1261.91455078125 1229.047119140625 1277.744873046875 1211.629272460938 1292.5322265625 1193.711303710938 C 1307.355590820313 1175.749267578125 1321.475219726563 1156.867431640625 1334.498901367188 1137.590209960938 C 1347.58544921875 1118.21923828125 1359.87109375 1097.99658203125 1371.01416015625 1077.484008789063 C 1382.237060546875 1056.824584960938 1392.565307617188 1035.384521484375 1401.712036132813 1013.759460449219 C 1410.94384765625 991.9327392578125 1419.19140625 969.3983764648438 1426.225830078125 946.78271484375 C 1433.339599609375 923.910888671875 1439.383422851563 900.4058227539063 1444.189331054688 876.9199829101563 C 1449.058227539063 853.1261596679688 1452.77490234375 828.7732543945313 1455.236206054688 804.5372924804688 C 1457.733642578125 779.945068359375 1459 754.8670654296875 1459 730 C 1459 712.8560180664063 1458.397583007813 695.5303344726563 1457.20947265625 678.5043334960938 C 1456.033447265625 661.65380859375 1454.2529296875 644.653076171875 1451.917236328125 627.974365234375 C 1449.60400390625 611.4561767578125 1446.685424804688 594.820556640625 1443.242919921875 578.529296875 C 1439.830688476563 562.382568359375 1435.814575195313 546.1519775390625 1431.3056640625 530.2882080078125 C 1413.496704101563 467.629638671875 1387.256591796875 407.5596923828125 1353.314331054688 351.7469482421875 C 1286.120849609375 241.2576904296875 1190.568115234375 150.3028564453125 1076.986206054688 88.715576171875 C 1064.115112304688 81.736572265625 1050.865844726563 75.0643310546875 1037.606323242188 68.8843994140625 C 1024.276123046875 62.6715087890625 1010.583129882813 56.7918701171875 996.907470703125 51.4085693359375 C 983.1478271484375 45.9921875 969.0410766601563 40.9349365234375 954.9788818359375 36.376953125 C 940.8192749023438 31.78759765625 926.3287353515625 27.58251953125 911.9093017578125 23.8787841796875 C 897.379638671875 20.146728515625 882.5350952148438 16.823974609375 867.7876586914063 14.0029296875 C 852.9178466796875 11.1585693359375 837.7490844726563 8.748046875 822.7030639648438 6.8385009765625 C 807.5225219726563 4.9119873046875 792.059814453125 3.443603515625 776.7442016601563 2.4744873046875 C 761.2830810546875 1.4959716796875 745.55615234375 1 730 1 M 730 0 C 855.7882080078125 0 974.1456298828125 31.8150634765625 1077.462890625 87.8365478515625 C 1305.295776367188 211.373779296875 1460 452.620361328125 1460 730 C 1460 1133.167846679688 1133.167846679688 1460 730 1460 C 326.8321533203125 1460 0 1133.167846679688 0 730 C 0 326.8321533203125 326.8321533203125 0 730 0 Z"/></g></svg>