<svg xmlns="http://www.w3.org/2000/svg" width="84.967" height="75.979" viewBox="0 0 84.967 75.979"><defs><style>.a{fill:#4386fb;}.b{fill:#4079db;opacity:0.904;}.b,.c{fill-rule:evenodd;}.c{fill:#fff;}</style></defs><g transform="translate(0 0)"><g transform="translate(0 0)"><path class="a" d="M1.021,41.7a7.668,7.668,0,0,1,0-7.645L18.446,3.823A7.626,7.626,0,0,1,25.058,0H59.909a7.633,7.633,0,0,1,6.612,3.823L83.946,34.05a7.666,7.666,0,0,1,0,7.645L66.521,71.924a7.625,7.625,0,0,1-6.612,3.822H25.058a7.639,7.639,0,0,1-6.612-3.822Z" transform="translate(0)"/><path class="b" d="M93.25,62.886,73.767,43.4,63.325,47.12l3.87,3.87.239,1.341-7.753-7.747-6.89.9L50.5,50.34l-5.583-5.589-8.231,1.48L34.961,61.844,63.9,90.792l12.792-.119Z" transform="translate(-11.934 -14.813)"/></g><g transform="translate(22.988 28.623)"><g transform="translate(0 0)"><path class="c" d="M4.286.131A3.926,3.926,0,0,0,.635,3.782V18.545H4.286v-7.3H7.937v7.3h3.651V3.782A3.926,3.926,0,0,0,7.937.131Zm0,7.461V3.775H7.937V7.592Z" transform="translate(-0.635 -0.124)"/><path class="c" d="M26.962.128a3.926,3.926,0,0,0-3.651,3.651V18.542h3.651v-7.3h3.651a3.926,3.926,0,0,0,3.651-3.651V3.772A3.926,3.926,0,0,0,30.613.121H26.962Zm0,7.461V3.772h3.651V7.589Z" transform="translate(-8.375 -0.121)"/><path class="c" d="M47.194,3.782V14.894H43.709v3.651H54.33V14.894H50.845V3.782H54.33V.131H43.709V3.782Z" transform="translate(-15.338 -0.124)"/></g></g></g></svg>