<svg xmlns="http://www.w3.org/2000/svg" width="102.6" height="91.37" viewBox="0 0 102.6 91.37"><defs><style>.a{fill:#61dafb;}</style></defs><g transform="translate(-175.7 -78)"><path class="a" d="M278.3,123.7c0-6.8-8.512-13.238-21.561-17.232,3.012-13.3,1.673-23.883-4.224-27.271a9.169,9.169,0,0,0-4.685-1.171v4.664a4.843,4.843,0,0,1,2.384.544c2.844,1.631,4.078,7.842,3.116,15.831-.23,1.966-.606,4.036-1.067,6.148a101.351,101.351,0,0,0-13.28-2.28,102.017,102.017,0,0,0-8.7-10.457c6.818-6.337,13.217-9.808,17.567-9.808V78h0c-5.751,0-13.28,4.1-20.892,11.209-7.612-7.069-15.141-11.126-20.892-11.126v4.664c4.329,0,10.749,3.451,17.567,9.746A98.772,98.772,0,0,0,215,102.929a97.661,97.661,0,0,0-13.3,2.3c-.481-2.091-.837-4.12-1.087-6.065-.983-7.989.23-14.2,3.053-15.852a4.654,4.654,0,0,1,2.405-.544V78.1h0a9.325,9.325,0,0,0-4.726,1.171c-5.877,3.388-7.194,13.949-4.162,27.208C184.17,110.5,175.7,116.919,175.7,123.7c0,6.8,8.512,13.238,21.561,17.232-3.012,13.3-1.673,23.883,4.224,27.271a9.193,9.193,0,0,0,4.705,1.171c5.751,0,13.28-4.1,20.892-11.209,7.612,7.069,15.141,11.126,20.892,11.126a9.325,9.325,0,0,0,4.726-1.171c5.877-3.388,7.194-13.949,4.162-27.208C269.83,136.912,278.3,130.471,278.3,123.7Zm-27.229-13.949c-.774,2.7-1.736,5.479-2.823,8.261-.857-1.673-1.757-3.346-2.74-5.019-.962-1.673-1.987-3.3-3.011-4.894C245.466,108.533,248.332,109.077,251.071,109.746Zm-9.578,22.273c-1.631,2.823-3.3,5.5-5.04,7.989-3.116.272-6.274.418-9.453.418-3.158,0-6.316-.146-9.411-.4q-2.6-3.733-5.061-7.947-2.384-4.109-4.35-8.323c1.3-2.8,2.761-5.6,4.329-8.344,1.631-2.823,3.3-5.5,5.04-7.989,3.116-.272,6.274-.418,9.453-.418,3.158,0,6.316.146,9.411.4q2.6,3.733,5.061,7.947,2.384,4.109,4.35,8.323C244.5,126.477,243.061,129.279,241.493,132.019Zm6.755-2.719c1.129,2.8,2.091,5.6,2.886,8.323-2.74.669-5.626,1.234-8.616,1.673,1.025-1.61,2.049-3.262,3.012-4.956C246.491,132.667,247.39,130.973,248.248,129.3Zm-21.206,22.314a86.214,86.214,0,0,1-5.814-6.692c1.882.084,3.806.146,5.751.146,1.966,0,3.911-.042,5.814-.146A81.622,81.622,0,0,1,227.042,151.614ZM211.483,139.3c-2.97-.439-5.835-.983-8.574-1.652.774-2.7,1.736-5.479,2.823-8.261.857,1.673,1.757,3.346,2.74,5.019S210.458,137.707,211.483,139.3Zm15.455-43.52a86.222,86.222,0,0,1,5.814,6.692c-1.882-.084-3.806-.146-5.751-.146-1.966,0-3.911.042-5.814.146A81.629,81.629,0,0,1,226.937,95.776Zm-15.476,12.318c-1.025,1.61-2.049,3.262-3.012,4.956-.962,1.673-1.861,3.346-2.719,5.019-1.129-2.8-2.091-5.6-2.886-8.323C205.585,109.1,208.471,108.533,211.462,108.094Zm-18.926,26.183c-7.4-3.158-12.192-7.3-12.192-10.582s4.789-7.445,12.192-10.582c1.8-.774,3.764-1.464,5.793-2.112a100.449,100.449,0,0,0,4.705,12.736,99.027,99.027,0,0,0-4.643,12.673C196.32,135.762,194.355,135.051,192.535,134.277Zm11.251,29.885c-2.844-1.631-4.078-7.842-3.116-15.831.23-1.966.606-4.036,1.067-6.148a101.355,101.355,0,0,0,13.28,2.28,102.013,102.013,0,0,0,8.7,10.457c-6.818,6.337-13.217,9.808-17.567,9.808A4.99,4.99,0,0,1,203.786,164.162Zm49.606-15.936c.983,7.989-.23,14.2-3.053,15.852a4.655,4.655,0,0,1-2.405.544c-4.329,0-10.749-3.451-17.567-9.746A98.782,98.782,0,0,0,239,144.441a97.655,97.655,0,0,0,13.3-2.3A58.551,58.551,0,0,1,253.392,148.226Zm8.052-13.949c-1.8.774-3.764,1.464-5.793,2.112a100.445,100.445,0,0,0-4.705-12.736,99.027,99.027,0,0,0,4.643-12.673c2.07.648,4.036,1.359,5.877,2.133,7.4,3.158,12.192,7.3,12.192,10.582C273.636,126.979,268.847,131.14,261.444,134.277Z" transform="translate(0)"/><path class="a" d="M320.8,78.4Z" transform="translate(-114.755 -0.316)"/><circle class="a" cx="9.557" cy="9.557" r="9.557" transform="translate(217.422 114.138)"/><path class="a" d="M520.5,78.1Z" transform="translate(-272.691 -0.079)"/></g></svg>