<svg xmlns="http://www.w3.org/2000/svg" width="248.865" height="243.949" viewBox="0 0 248.865 243.949"><defs><style>.a,.j{fill:#92e3a9;}.b{fill:#69f3db;opacity:0.8;}.c{fill:#37be5d;}.d{fill:none;}.d,.e,.f,.g,.i,.j{stroke:#263238;stroke-miterlimit:10;}.e,.h{fill:#263238;}.f,.g{fill:#fff;}.g{stroke-width:0.998px;}.i{fill:#d1d1d1;}</style></defs><g transform="translate(15.36 11.264)"><g transform="translate(-7.445 12.868)"><path class="a" d="M99.493,38.257c-31,5.59-61.919,27.185-80.565,52.819C2.87,113.148-2.233,139.7.843,163.787,4.391,191.73,18.5,217.773,41.123,233.91c5.955,4.242,11.644,8.455,18.533,11.511,28.262,12.534,55.61-14.03,71.771-14.232,13.6-.172,19.96,13.966,32.446,16.639,33.691,7.2,72.288-39.739,72.918-74.537C237.528,132.774,176.3,24.409,99.493,38.257Z" transform="translate(0.007 -37.043)"/><path class="b" d="M99.493,38.257c-31,5.59-61.919,27.185-80.565,52.819C2.87,113.148-2.233,139.7.843,163.787,4.391,191.73,18.5,217.773,41.123,233.91c5.955,4.242,11.644,8.455,18.533,11.511,28.262,12.534,55.61-14.03,71.771-14.232,13.6-.172,19.96,13.966,32.446,16.639,33.691,7.2,72.288-39.739,72.918-74.537C237.528,132.774,176.3,24.409,99.493,38.257Z" transform="translate(0.007 -37.043)"/></g><g transform="translate(-1.045 114.433)"><path class="c" d="M16.665,279.243c1.5.325,4.862-.433,4.862-.433s-1.171-2.067-1.26-2.185c-1.058-1.4-3.937-3.484-5.773-2.84A2.318,2.318,0,0,0,13.25,277,4.9,4.9,0,0,0,16.665,279.243Z" transform="translate(-12.998 -258.784)"/><path class="c" d="M84,264.052c.034,0,.162-2.367.153-2.52-.108-1.752-1.343-5.064-3.248-5.551a2.318,2.318,0,0,0-2.815,2,4.848,4.848,0,0,0,1.614,3.75C80.776,262.851,84,264.047,84,264.052Z" transform="translate(-46.041 -249.773)"/><path class="c" d="M60.958,243.434c-1.968.177-3.7,3.258-4.075,4.97-.034.148-.285,2.52-.246,2.51h.039c-.281.492-.571,1.009-.881,1.585-.561,1.068-1.186,2.283-1.777,3.652a41.127,41.127,0,0,0-1.708,4.493,30.882,30.882,0,0,0-1.166,5.256.28.28,0,0,1,0,.064c-.1-.566-.448-2.136-.492-2.254-.566-1.658-2.633-4.527-4.591-4.5a2.328,2.328,0,0,0-2.195,2.672,4.842,4.842,0,0,0,2.549,3.194,16.229,16.229,0,0,0,4.71,1.1,41.063,41.063,0,0,0-.207,5.477c0,1.068.084,2.141.153,3.214-.1-.492-.2-.915-.221-.984-.566-1.658-2.633-4.532-4.6-4.5a2.323,2.323,0,0,0-2.19,2.672,4.844,4.844,0,0,0,2.549,3.189,16.294,16.294,0,0,0,4.572,1.083c.03.413.059.827.094,1.235.157,1.969.325,3.937.433,5.905.039.684.049,1.358.064,2.032-.094-.433-.177-.8-.2-.851-.566-1.658-2.633-4.528-4.6-4.493a2.323,2.323,0,0,0-2.19,2.672,4.844,4.844,0,0,0,2.549,3.189,14.13,14.13,0,0,0,4.429,1.068c0,.694,0,1.383-.049,2.052-.034.458-.039.9-.1,1.358s-.1.9-.153,1.343c-.128.856-.256,1.737-.4,2.564-.094.576-.2,1.127-.3,1.678-.03-.684-.118-2.013-.138-2.121a8.986,8.986,0,0,0-2.052-4.06,2.843,2.843,0,0,0-.133-.492,2.323,2.323,0,0,0-3.174-1.368c-1.757.871-2.279,4.37-2.018,6.1,0,.1.305,1.2.492,1.88-.172-.384-.34-.763-.527-1.156-.359-.782-.743-1.55-1.152-2.382l-.645-1.2c-.2-.4-.492-.8-.709-1.206-.571-.93-1.2-1.845-1.845-2.756a15.385,15.385,0,0,0,3.962-2.461,4.829,4.829,0,0,0,1.4-3.834,2.328,2.328,0,0,0-2.953-1.836c-1.87.6-2.913,3.976-2.918,5.728,0,.108.138,1.368.226,2.057-.394-.541-.787-1.088-1.2-1.624-1.206-1.545-2.461-3.076-3.725-4.606-.384-.492-.763-.94-1.147-1.412a16.054,16.054,0,0,0,4.114-2.544,4.812,4.812,0,0,0,1.393-3.839,2.318,2.318,0,0,0-2.928-1.831c-1.87.6-2.913,3.976-2.918,5.728,0,.133.2,1.944.271,2.4-.837-1.038-1.658-2.082-2.431-3.14a41.914,41.914,0,0,1-2.8-4.493,16.249,16.249,0,0,0,4.139-2.554,4.833,4.833,0,0,0,1.4-3.839A2.323,2.323,0,0,0,29.8,263.4c-1.87.6-2.913,3.976-2.918,5.728,0,.113.153,1.476.236,2.146l-.1.034a29.2,29.2,0,0,1-2.018-4.921c-.3-.935-.536-1.845-.748-2.731a15.641,15.641,0,0,0,4.286-2.052,4.71,4.71,0,0,0,1.811-3.661,2.323,2.323,0,0,0-2.712-2.141c-1.924.384-3.332,3.632-3.529,5.374v1.777c-.089-.4-.187-.817-.261-1.206-.3-1.452-.492-2.805-.62-4-.079-.679-.133-1.3-.182-1.875a15.206,15.206,0,0,0,2.844-3.779,4.8,4.8,0,0,0-.084-4.08,2.323,2.323,0,0,0-3.4-.655c-1.526,1.23-1.28,4.759-.655,6.4.054.138,1.152,2.254,1.176,2.229l.03-.03c.034.556.079,1.152.143,1.806.118,1.2.271,2.559.531,4.026a41.406,41.406,0,0,0,1.063,4.695,30.81,30.81,0,0,0,1.929,5.025l.03.059c-.4-.418-1.55-1.535-1.649-1.614-1.388-1.068-4.695-2.323-6.314-1.216a2.323,2.323,0,0,0-.354,3.445,4.845,4.845,0,0,0,3.888,1.255,16.069,16.069,0,0,0,4.532-1.683,41.646,41.646,0,0,0,2.849,4.685c.61.876,1.25,1.737,1.9,2.593-.359-.344-.679-.655-.728-.689-1.388-1.073-4.695-2.328-6.314-1.216a2.318,2.318,0,0,0-.354,3.445A4.851,4.851,0,0,0,28,281.824a15.877,15.877,0,0,0,4.429-1.619l.763.984c1.22,1.56,2.461,3.115,3.607,4.675.408.546.792,1.1,1.176,1.658-.32-.31-.586-.566-.63-.6-1.417-1.107-4.719-2.367-6.343-1.25a2.318,2.318,0,0,0-.354,3.445,4.861,4.861,0,0,0,3.883,1.26,14.376,14.376,0,0,0,4.3-1.56c.379.576.753,1.156,1.093,1.737a12.291,12.291,0,0,1,.664,1.186l.62,1.181c.359.782.743,1.59,1.078,2.357.236.536.453,1.048.669,1.57-.4-.556-1.206-1.619-1.28-1.7-1.211-1.27-4.291-3.012-6.058-2.16a2.323,2.323,0,0,0-.871,3.376,4.853,4.853,0,0,0,3.652,1.831,15.377,15.377,0,0,0,4.71-.984c.359.856.7,1.693,1.014,2.49.531,1.348.984,2.6,1.388,3.716l1.24-.251c-.438-1.166-.955-2.461-1.55-3.9-.364-.871-.768-1.8-1.191-2.741a24.229,24.229,0,0,0,2.4-1.767,17.081,17.081,0,0,0,4.336,1.7c-.172.91-.349,1.8-.527,2.633-.276,1.294-.556,2.461-.817,3.548l1.334-.271c.2-.935.413-1.969.62-3.046.177-.93.354-1.924.522-2.953a16.253,16.253,0,0,0,4.774-.586,4.858,4.858,0,0,0,2.874-2.9,2.318,2.318,0,0,0-1.89-2.889c-1.968-.246-4.311,2.387-5.054,3.976-.039.094-.4,1.161-.62,1.841.069-.418.138-.822.2-1.255.128-.851.236-1.7.349-2.623.044-.443.084-.9.123-1.348s.049-.93.074-1.4c.039-1.093,0-2.2,0-3.312a14.675,14.675,0,0,0,4.67.123,4.92,4.92,0,0,0,3.282-2.431,2.323,2.323,0,0,0-1.457-3.135c-1.89-.536-4.626,1.708-5.6,3.164-.059.094-.64,1.216-.95,1.841-.03-.669-.054-1.339-.1-2.018-.153-1.968-.364-3.937-.566-5.905-.064-.605-.118-1.206-.172-1.811a16.014,16.014,0,0,0,4.828.148,4.847,4.847,0,0,0,3.282-2.431,2.323,2.323,0,0,0-1.432-3.145c-1.89-.536-4.621,1.713-5.6,3.169-.074.108-.905,1.727-1.1,2.151-.123-1.329-.236-2.653-.3-3.962a41.176,41.176,0,0,1,.059-5.276c.123,0,3.405.551,4.862.153a4.872,4.872,0,0,0,3.282-2.431,2.323,2.323,0,0,0-1.437-3.145c-1.885-.536-4.621,1.708-5.59,3.164-.064.1-.7,1.329-.984,1.924l-.108-.03a29.567,29.567,0,0,1,1.043-5.231c.261-.945.566-1.836.886-2.692a15.628,15.628,0,0,0,4.7.655,4.783,4.783,0,0,0,3.529-2.052,2.328,2.328,0,0,0-1.078-3.287c-1.821-.738-4.783,1.2-5.905,2.534-.064.074-.6.886-.984,1.476.153-.384.3-.782.448-1.152.556-1.373,1.156-2.6,1.693-3.676.31-.61.6-1.156.881-1.668a15.545,15.545,0,0,0,4.454-1.58,4.8,4.8,0,0,0,2.185-3.445,2.323,2.323,0,0,0-2.485-2.431Z" transform="translate(-15.401 -243.427)"/><path class="c" d="M462.207,279.243c-1.5.325-4.862-.433-4.867-.433s1.176-2.067,1.265-2.185c1.053-1.4,3.937-3.484,5.768-2.84a2.318,2.318,0,0,1,1.25,3.218A4.885,4.885,0,0,1,462.207,279.243Z" transform="translate(-238.67 -258.784)"/><path class="c" d="M397.392,264.051c-.034,0-.162-2.367-.153-2.52.108-1.752,1.344-5.064,3.243-5.551a2.318,2.318,0,0,1,2.82,2,4.848,4.848,0,0,1-1.614,3.75C400.615,262.85,397.392,264.046,397.392,264.051Z" transform="translate(-208.146 -249.772)"/><path class="c" d="M379.533,243.433c1.968.177,3.7,3.258,4.075,4.97.034.148.281,2.52.246,2.51h-.039c.281.492.571,1.009.881,1.585.561,1.068,1.186,2.283,1.777,3.652a41.149,41.149,0,0,1,1.7,4.5,29.966,29.966,0,0,1,1.152,5.246.284.284,0,0,1,0,.064c.1-.566.448-2.136.492-2.254.561-1.658,2.628-4.528,4.591-4.5a2.323,2.323,0,0,1,2.19,2.672,4.849,4.849,0,0,1-2.544,3.194,16.22,16.22,0,0,1-4.714,1.1,41.063,41.063,0,0,1,.212,5.477c-.025,1.068-.084,2.141-.157,3.214.108-.492.207-.915.226-.984.566-1.658,2.633-4.532,4.591-4.5a2.323,2.323,0,0,1,2.195,2.672,4.844,4.844,0,0,1-2.549,3.189,16.3,16.3,0,0,1-4.572,1.083c-.034.413-.059.827-.094,1.235-.157,1.968-.33,3.937-.433,5.905-.039.684-.049,1.358-.064,2.032.094-.433.177-.8.2-.851.566-1.658,2.633-4.527,4.591-4.493a2.323,2.323,0,0,1,2.195,2.672,4.872,4.872,0,0,1-2.549,3.189,14.1,14.1,0,0,1-4.429,1.068c0,.694,0,1.383.049,2.052.034.458.039.9.1,1.358s.1.9.153,1.344c.128.856.256,1.737.4,2.564.1.576.2,1.127.305,1.678.03-.684.113-2.013.133-2.121a9,9,0,0,1,2.057-4.06,2.845,2.845,0,0,1,.133-.492,2.323,2.323,0,0,1,3.174-1.368c1.757.871,2.274,4.37,2.018,6.1,0,.1-.305,1.2-.492,1.88.177-.384.344-.763.527-1.156.364-.782.748-1.55,1.156-2.382.212-.394.428-.792.64-1.2s.492-.8.714-1.206c.571-.93,1.2-1.845,1.845-2.756a15.385,15.385,0,0,1-3.962-2.461,4.812,4.812,0,0,1-1.4-3.834,2.323,2.323,0,0,1,2.928-1.836c1.87.6,2.913,3.976,2.923,5.728,0,.108-.138,1.368-.226,2.057.394-.541.782-1.088,1.2-1.624,1.206-1.545,2.461-3.076,3.725-4.606.384-.492.763-.94,1.142-1.412a16.047,16.047,0,0,1-4.109-2.544,4.816,4.816,0,0,1-1.4-3.839,2.328,2.328,0,0,1,2.953-1.831c1.865.6,2.908,3.976,2.918,5.728,0,.133-.2,1.944-.276,2.4.837-1.038,1.663-2.082,2.461-3.14a41.089,41.089,0,0,0,2.854-4.468c-.113-.049-3.145-1.417-4.134-2.554a4.816,4.816,0,0,1-1.4-3.839,2.323,2.323,0,0,1,2.928-1.831c1.87.6,2.913,3.976,2.923,5.728,0,.113-.153,1.476-.241,2.146l.108.034a30.023,30.023,0,0,0,2.018-4.921c.3-.935.536-1.845.743-2.731a15.622,15.622,0,0,1-4.281-2.052,4.787,4.787,0,0,1-1.811-3.661,2.323,2.323,0,0,1,2.712-2.141c1.924.384,3.332,3.632,3.529,5.374v1.777c.084-.4.182-.817.261-1.206.29-1.452.467-2.805.615-4,.079-.679.138-1.3.187-1.875a15.2,15.2,0,0,1-2.844-3.779,4.8,4.8,0,0,1,.084-4.08,2.318,2.318,0,0,1,3.391-.655c1.53,1.23,1.284,4.759.659,6.4-.054.138-1.156,2.254-1.181,2.229a.161.161,0,0,0-.029-.03c-.034.556-.074,1.152-.138,1.806-.123,1.2-.271,2.559-.531,4.026a40.432,40.432,0,0,1-1.068,4.695,30.334,30.334,0,0,1-1.924,5.025l-.034.059c.4-.418,1.555-1.535,1.654-1.614,1.388-1.068,4.695-2.323,6.314-1.216a2.328,2.328,0,0,1,.354,3.445,4.851,4.851,0,0,1-3.888,1.255,16.113,16.113,0,0,1-4.537-1.683,40.246,40.246,0,0,1-2.849,4.685c-.605.876-1.245,1.737-1.9,2.593.354-.345.679-.655.728-.689,1.383-1.073,4.695-2.328,6.309-1.216a2.318,2.318,0,0,1,.354,3.445,4.835,4.835,0,0,1-3.883,1.255,15.878,15.878,0,0,1-4.429-1.619c-.251.33-.492.655-.758.984-1.225,1.56-2.461,3.115-3.607,4.675-.408.546-.792,1.1-1.176,1.658.315-.31.586-.566.63-.6,1.388-1.073,4.695-2.328,6.314-1.216a2.318,2.318,0,0,1,.354,3.445,4.866,4.866,0,0,1-3.888,1.26,14.292,14.292,0,0,1-4.291-1.56c-.379.576-.758,1.156-1.1,1.737-.221.4-.463.773-.664,1.186s-.408.807-.615,1.206c-.364.782-.743,1.59-1.078,2.357-.236.536-.453,1.048-.674,1.57.4-.556,1.206-1.619,1.284-1.7,1.211-1.27,4.286-3.012,6.058-2.16a2.328,2.328,0,0,1,.871,3.346,4.87,4.87,0,0,1-3.652,1.831,15.379,15.379,0,0,1-4.715-.984c-.359.856-.7,1.693-1.009,2.49-.531,1.348-.984,2.6-1.388,3.716l-1.24-.251c.438-1.166.955-2.461,1.55-3.9.359-.871.768-1.8,1.191-2.741a24.7,24.7,0,0,1-2.382-1.767,17.064,17.064,0,0,1-4.331,1.7c.172.91.349,1.8.527,2.633.276,1.294.551,2.461.817,3.548l-1.334-.271c-.2-.935-.413-1.969-.62-3.046-.182-.93-.354-1.924-.522-2.953a16.236,16.236,0,0,1-4.774-.586,4.845,4.845,0,0,1-2.874-2.9,2.318,2.318,0,0,1,1.89-2.889c1.968-.246,4.311,2.387,5.049,3.976.044.094.4,1.161.62,1.841-.064-.418-.133-.822-.2-1.255-.133-.851-.236-1.7-.354-2.623-.039-.443-.079-.9-.123-1.348s-.044-.93-.069-1.4c-.039-1.093-.025-2.2,0-3.312a14.637,14.637,0,0,1-4.665.123,4.92,4.92,0,0,1-3.282-2.431,2.318,2.318,0,0,1,1.432-3.145c1.89-.536,4.621,1.708,5.6,3.164.059.094.64,1.216.945,1.841.03-.669.059-1.339.108-2.018.148-1.968.364-3.937.566-5.905.059-.605.118-1.206.172-1.811a16.047,16.047,0,0,1-4.833.148,4.838,4.838,0,0,1-3.278-2.431,2.318,2.318,0,0,1,1.432-3.145c1.885-.536,4.621,1.713,5.6,3.169.069.108.906,1.727,1.093,2.151.128-1.329.241-2.653.3-3.962a40.289,40.289,0,0,0-.084-5.3c-.123,0-3.405.551-4.857.153a4.872,4.872,0,0,1-3.282-2.431,2.323,2.323,0,0,1,1.432-3.145c1.89-.536,4.626,1.708,5.6,3.164.064.1.7,1.329.984,1.924l.108-.03a30.015,30.015,0,0,0-1.068-5.266c-.266-.945-.571-1.836-.886-2.692a15.628,15.628,0,0,1-4.7.654,4.783,4.783,0,0,1-3.529-2.052,2.328,2.328,0,0,1,1.078-3.287c1.821-.738,4.783,1.2,5.905,2.534.059.074.6.886.984,1.476-.148-.384-.3-.782-.443-1.152-.561-1.373-1.156-2.6-1.693-3.676-.31-.61-.605-1.156-.881-1.668a15.494,15.494,0,0,1-4.454-1.58,4.815,4.815,0,0,1-2.185-3.445,2.318,2.318,0,0,1,2.5-2.416Z" transform="translate(-197.885 -243.426)"/></g><g transform="translate(-14.653 -10.557)"><circle class="d" cx="14.542" cy="14.542" r="14.542" transform="matrix(0.973, -0.233, 0.233, 0.973, 191.024, 83.38)"/><circle class="d" cx="13.469" cy="13.469" r="13.469" transform="matrix(0.975, -0.222, 0.222, 0.975, 192.429, 70.146)"/><circle class="d" cx="13.469" cy="13.469" r="13.469" transform="matrix(0.975, -0.222, 0.222, 0.975, 192.429, 97.313)"/><circle class="d" cx="15.59" cy="15.59" r="15.59" transform="translate(177.243 88.752) rotate(-9.13)"/><circle class="d" cx="15.59" cy="15.59" r="15.59" transform="translate(203.534 90.039) rotate(-13.1)"/><circle class="d" cx="15.59" cy="15.59" r="15.59" transform="translate(203.588 75.533) rotate(-15.57)"/><circle class="d" cx="15.59" cy="15.59" r="15.59" transform="matrix(0.972, -0.233, 0.233, 0.972, 175.781, 74.825)"/><circle class="e" cx="1.762" cy="1.762" r="1.762" transform="translate(194.645 84.314)"/><path class="e" d="M409.164,149.4a1.762,1.762,0,1,0-1.762,1.762,1.762,1.762,0,0,0,1.762-1.762Z" transform="translate(-198.805 -69.788)"/><circle class="e" cx="1.762" cy="1.762" r="1.762" transform="translate(194.645 100.032)"/><circle class="e" cx="1.762" cy="1.762" r="1.762" transform="translate(218.582 84.314)"/><circle class="e" cx="1.762" cy="1.762" r="1.762" transform="translate(218.582 100.032)"/><path class="e" d="M409.164,178.952a1.762,1.762,0,1,0-1.762,1.762,1.762,1.762,0,0,0,1.762-1.762Z" transform="translate(-198.805 -84.796)"/><path class="e" d="M409.164,208.792a1.762,1.762,0,1,0-1.762,1.762,1.762,1.762,0,0,0,1.762-1.762Z" transform="translate(-198.805 -99.951)"/><circle class="d" cx="42.096" cy="42.096" r="42.096" transform="translate(79.317 121.542) rotate(-9.22)"/><circle class="d" cx="22.475" cy="22.475" r="22.475" transform="translate(95.834 156.347) rotate(-45)"/><path class="d" d="M134.652,215.2A59.148,59.148,0,1,0,199.72,191.43" transform="translate(-56.014 -92.028)"/><circle class="d" cx="41.614" cy="41.614" r="41.614" transform="translate(0 58.851) rotate(-45)"/><circle class="d" cx="29.419" cy="29.419" r="29.419" transform="translate(29.43 41.627)"/><circle class="d" cx="17.219" cy="17.219" r="17.219" transform="translate(34.495 83.246) rotate(-45)"/><circle class="d" cx="11.791" cy="11.791" r="11.791" transform="translate(47.058 42.119)"/><circle class="d" cx="11.791" cy="11.791" r="11.791" transform="translate(44.58 20.88) rotate(-13.82)"/><circle class="d" cx="9.217" cy="9.217" r="9.217" transform="translate(20.759 36.445)"/><circle class="d" cx="9.217" cy="9.217" r="9.217" transform="translate(78.77 36.445)"/><circle class="f" cx="10.01" cy="10.01" r="10.01" transform="translate(35.026 177.669)"/><circle class="f" cx="8.46" cy="8.46" r="8.46" transform="translate(36.576 179.219)"/><circle class="f" cx="6.909" cy="6.909" r="6.909" transform="translate(38.126 180.769)"/><circle class="f" cx="5.359" cy="5.359" r="5.359" transform="translate(39.676 182.32)"/><circle class="f" cx="3.809" cy="3.809" r="3.809" transform="translate(41.227 183.87)"/><circle class="f" cx="2.259" cy="2.259" r="2.259" transform="translate(42.777 185.42)"/><circle class="f" cx="10.01" cy="10.01" r="10.01" transform="translate(15.513 188.929)"/><circle class="g" cx="8.445" cy="8.445" r="8.445" transform="matrix(0.982, -0.19, 0.19, 0.982, 15.073, 192.062)"/><path class="f" d="M33.594,380.588a6.89,6.89,0,1,0,3.23,4.2A6.89,6.89,0,0,0,33.594,380.588Z" transform="translate(-4.611 -187.634)"/><circle class="f" cx="5.359" cy="5.359" r="5.359" transform="translate(18.069 200.253) rotate(-55.06)"/><path class="f" d="M35.193,386.473a3.809,3.809,0,1,0,1.393,5.207,3.809,3.809,0,0,0-1.393-5.207Z" transform="translate(-7.761 -190.827)"/><path class="f" d="M36.015,389.409a2.254,2.254,0,1,0,1.057,1.373A2.259,2.259,0,0,0,36.015,389.409Z" transform="translate(-9.36 -192.424)"/><circle class="f" cx="10.01" cy="10.01" r="10.01" transform="translate(11.552 219.192) rotate(-35.74)"/><circle class="f" cx="8.46" cy="8.46" r="8.46" transform="matrix(0.989, -0.149, 0.149, 0.989, 15.909, 214.359)"/><circle class="f" cx="6.909" cy="6.909" r="6.909" transform="translate(15.754 221.469) rotate(-45)"/><circle class="f" cx="5.359" cy="5.359" r="5.359" transform="translate(20.164 216.109)"/><circle class="f" cx="3.809" cy="3.809" r="3.809" transform="translate(21.714 217.659)"/><path class="f" d="M33.754,435.177A2.259,2.259,0,1,0,36.84,436,2.259,2.259,0,0,0,33.754,435.177Z" transform="translate(-9.358 -215.668)"/><circle class="f" cx="10.01" cy="10.01" r="10.01" transform="translate(35.026 222.723)"/><circle class="f" cx="8.46" cy="8.46" r="8.46" transform="translate(36.576 224.273)"/><circle class="f" cx="6.909" cy="6.909" r="6.909" transform="translate(38.126 225.823)"/><circle class="f" cx="5.359" cy="5.359" r="5.359" transform="translate(39.676 227.373)"/><circle class="f" cx="3.809" cy="3.809" r="3.809" transform="translate(41.227 228.923)"/><circle class="f" cx="2.259" cy="2.259" r="2.259" transform="translate(42.777 230.474)"/><circle class="f" cx="10.01" cy="10.01" r="10.01" transform="translate(51.955 227.942) rotate(-72.23)"/><path class="f" d="M103.534,438.06a8.464,8.464,0,1,0-3.1-11.56,8.464,8.464,0,0,0,3.1,11.56Z" transform="translate(-43.223 -209.264)"/><circle class="f" cx="6.909" cy="6.909" r="6.909" transform="matrix(0.648, -0.762, 0.762, 0.648, 54.8, 222.253)"/><circle class="f" cx="5.359" cy="5.359" r="5.359" transform="translate(58.355 225.844) rotate(-80.27)"/><circle class="f" cx="3.809" cy="3.809" r="3.809" transform="translate(60.734 217.659)"/><path class="f" d="M113.034,439.091a2.264,2.264,0,1,0-.827-3.09,2.264,2.264,0,0,0,.827,3.09Z" transform="translate(-49.622 -215.665)"/><circle class="f" cx="10.01" cy="10.01" r="10.01" transform="translate(54.533 188.929)"/><circle class="f" cx="8.46" cy="8.46" r="8.46" transform="translate(56.084 190.479)"/><path class="f" d="M112.836,392.6a6.89,6.89,0,1,0-5.245.7,6.89,6.89,0,0,0,5.245-.7Z" transform="translate(-44.838 -187.674)"/><path class="f" d="M113.7,392.8a5.359,5.359,0,1,0-4.072.536A5.364,5.364,0,0,0,113.7,392.8Z" transform="translate(-46.448 -189.214)"/><path class="f" d="M114.47,393.066a3.809,3.809,0,1,0-5.207-1.393A3.809,3.809,0,0,0,114.47,393.066Z" transform="translate(-48.022 -190.825)"/><path class="f" d="M115.3,393.322a2.259,2.259,0,1,0-1.717.228A2.259,2.259,0,0,0,115.3,393.322Z" transform="translate(-49.624 -192.425)"/><circle class="e" cx="19.399" cy="19.399" r="19.399" transform="translate(25.636 190.804)"/><circle class="f" cx="16.393" cy="16.393" r="16.393" transform="translate(28.643 193.811)"/><circle class="e" cx="13.391" cy="13.391" r="13.391" transform="matrix(0.974, -0.227, 0.227, 0.974, 28.942, 200.207)"/><circle class="f" cx="10.389" cy="10.389" r="10.389" transform="matrix(0.974, -0.227, 0.227, 0.974, 32.549, 202.451)"/><circle class="e" cx="7.382" cy="7.382" r="7.382" transform="translate(37.654 202.821)"/><circle class="f" cx="4.38" cy="4.38" r="4.38" transform="translate(40.656 205.823)"/><path class="h" d="M381.527,418.514a29.527,29.527,0,1,1,29.527-29.527,29.527,29.527,0,0,1-29.527,29.527Zm0-51.9a22.352,22.352,0,1,0,22.352,22.352,22.352,22.352,0,0,0-22.352-22.352Z" transform="translate(-171.562 -177.367)"/><path class="h" d="M391.771,418.833a19.6,19.6,0,1,1,19.591-19.595,19.6,19.6,0,0,1-19.591,19.595Zm0-31.988a12.43,12.43,0,1,0,0-.025Z" transform="translate(-181.806 -187.616)"/><path class="h" d="M402.02,419.15a9.67,9.67,0,1,1,9.67-9.67A9.67,9.67,0,0,1,402.02,419.15Zm0-12.544a2.874,2.874,0,1,0,2.874,2.874A2.874,2.874,0,0,0,402.02,406.606Z" transform="translate(-192.055 -197.86)"/></g><g transform="translate(60.958 -5.15)"><path class="i" d="M248.669,125.539a6.988,6.988,0,0,0,2.593-3.327c.443-1.85-4.729-2.387-5.635-2.682s-2.106.817-2.352,2.072-.591,2.313-.187,2.613A19.155,19.155,0,0,0,248.669,125.539Z" transform="translate(-191.765 -60.894)"/><path class="i" d="M238.84,131.284s6.289,3.228,8.44,1.26.03-3.666-1.432-4.813a33.193,33.193,0,0,0-3.878-2.461Z" transform="translate(-189.702 -63.834)"/><path class="h" d="M243.8,301.179l.428,2.884.221-2.972Z" transform="translate(-192.221 -153.129)"/><path class="e" d="M239.463,210.782a97.326,97.326,0,0,1,.059,18.159L238.508,240.1a.335.335,0,0,1-.63-.113l-5.718-58.961,4.38-.423Z" transform="translate(-186.309 -91.935)"/><path class="e" d="M156.96,206.266,159.9,209.3l32.446-32.441L189.4,173.82Z" transform="translate(-148.117 -88.491)"/><rect class="j" width="2.549" height="1.949" transform="translate(8.218 105.99) rotate(45.68)"/><rect class="j" width="1.949" height="3.898" transform="translate(7.97 104.347) rotate(45.68)"/><path class="j" d="M148.606,215.785l-9.616,6.25,6.471-9.468,18.455-18.017,3.14,3.218Z" transform="translate(-138.99 -99.02)"/><path class="f" d="M148.606,234.378l-3.145-3.218-6.471,9.468Z" transform="translate(-138.99 -117.613)"/><path class="e" d="M141.938,245.484l-.965-.984-1.983,2.9Z" transform="translate(-138.99 -124.388)"/><path class="f" d="M158.512,218.447a2.249,2.249,0,0,0-3.154,3.081l3.976,6.176,5.256-5.133Zm1.265,7.027-3.076-4.183a1.1,1.1,0,1,1,1.545-1.506l4.1,3.174Z" transform="translate(-147.119 -110.958)"/><path class="j" d="M236.2,152.658l-4.847-1.585,4.921-11.363a1.4,1.4,0,0,1,1.722-.773h0a1.4,1.4,0,0,1,.93,1.639Z" transform="translate(-185.898 -70.74)"/><path class="j" d="M224.544,159.86h1.476a10.443,10.443,0,0,1,6.348,2.19l1.2.925-1.476,4.528a18.475,18.475,0,0,1-2.593,5.089l-1.26,1.717-.541,1.968h-.32a8.533,8.533,0,0,1-5.044-1.668l-.65-.492.689-2.1.108-2.461a18.449,18.449,0,0,1,.566-3.809Z" transform="translate(-180.987 -81.401)"/><path class="e" d="M230.966,167.21a1.319,1.319,0,1,1-.074-1.009A1.319,1.319,0,0,1,230.966,167.21Z" transform="translate(-184.397 -84.254)"/><path class="e" d="M238.785,169.725a1.319,1.319,0,1,1-.842-1.663A1.319,1.319,0,0,1,238.785,169.725Z" transform="translate(-188.367 -85.533)"/><path class="i" d="M306.834,40s-8.081,5.905-14.729,6.722-29.316,1.757-38.041,3.937-24.911,8.715-30.762,12.8-5.438,6.4-4.961,11.575,4.021,10.679,4.021,10.679-3.169,8.15-2.111,9.5,4.724.379,7.018-2.544,6.112-12.534,10.4-17.48,9.965-5.905,12.421-6.289,6.836,1.57,6.959,5.787a10.236,10.236,0,0,1-5.074,9.35c-3.1,1.826-16.944,5.31-19.685,8.588s2.49,6.166,6.3,5.743,6.865-2.6,12.475-4.921a63.976,63.976,0,0,1,18.509-4.464c5.822-.433,18.971-1.3,24.916-7.21s11.083-12.913,15.94-15.5,11.019-5.108,11.019-5.108Z" transform="translate(-179.164 -20.527)"/><path class="h" d="M393.785,74.838l.438-.231-11.2-17.716-.822,1.639L388.3,79.2a24.762,24.762,0,0,1,5.487-4.36Z" transform="translate(-262.511 -29.105)"/><path class="d" d="M241.039,74.64s-13.656,10.566-15.192,14.237.123,14.414.123,14.414,6.4-14.449,9.5-18.277,11.747-10.335,11.747-10.335" transform="translate(-182.772 -38.12)"/><path class="f" d="M377.63,42.674l15.034,29.64,12.716-6.663L392.669,35.09Z" transform="translate(-260.19 -18.033)"/><path class="f" d="M412.634,95.814a1.476,1.476,0,1,1-.08-1.144A1.476,1.476,0,0,1,412.634,95.814Z" transform="translate(-276.508 -47.882)"/><path class="f" d="M443.6,39.209s-20.443,10.335-21.993,11.525a4.483,4.483,0,0,1-5.074.177c-1.358-.95-16.84-33.258-16.84-33.258a7.255,7.255,0,0,1,0-3.514C400.21,12.63,420.037.43,420.037.43" transform="translate(-271.279 -0.43)"/></g></g></svg>