<svg xmlns="http://www.w3.org/2000/svg" width="905.09" height="694.261" viewBox="0 0 905.09 694.261"><defs><style>.a{fill:#9ff7ff;opacity:0.62;}.b{fill:#30c5cc;}.c{fill:#3d9cff;}.d{fill:#0b9b9b;}.e{fill:#c6f4ff;}.f{fill:#db5a28;}.g{fill:#2f2f8e;}.h{fill:#4c49a2;}.i{fill:#fff;}.j{fill:#e67750;}.k{fill:#efefef;}.l{fill:#fd9e71;}.m{fill:#201251;}.n{fill:#31d0a8;}.o{fill:#feba40;}.p{fill:#fedb9b;}.q{fill:#4cb0dd;}.r{fill:#75d5ef;}.s{fill:#fdbe44;}.t{fill:#98dbe5;}.u{fill:#86d2e8;}.v{fill:#f6fffa;}.w{fill:#ffe780;}.x{fill:#1fb288;}.y{fill:#9e472d;}.z{fill:#262845;}.aa{fill:#6aa5cc;}.ab{fill:#96c4ea;}.ac{fill:#1a133a;}.ad{fill:#e79673;}</style></defs><g transform="translate(-278.514 -144)"><g transform="translate(278.514 144)"><path class="a" d="M123.215,0A123.215,123.215,0,1,1,0,123.215,123.215,123.215,0,0,1,123.215,0Z"/><path class="b" d="M300.4,294.57c0,7.837-48.26,14.25-107.8,14.25S84.8,302.455,84.8,294.57s48.26-14.25,107.8-14.25S300.4,286.685,300.4,294.57Z" transform="translate(116.6 385.441)"/><path class="b" d="M108.989,0c60.193,0,108.989,4.774,108.989,10.664s-48.8,10.664-108.989,10.664S0,16.553,0,10.664,48.8,0,108.989,0Z" transform="translate(687.112 651.582)"/><path class="b" d="M70.774,235.519H57.949V222.67h-8v12.849H37.12v8H49.945v12.825h8V243.523H70.774Z" transform="translate(51.04 306.172)"/><path class="c" d="M65.4,222.723a7.909,7.909,0,1,1-2.316-5.616,7.933,7.933,0,0,1,2.316,5.616Z" transform="translate(68.104 295.337)"/><rect class="b" width="691.648" height="554.421" rx="18.48" transform="translate(148.224 66.334)"/><rect class="d" width="514.948" height="649.848" rx="12.01" transform="translate(818.972 86.094) rotate(90)"/><rect class="e" width="615.791" height="485.166" rx="7.76" transform="translate(186.153 100.985)"/><path class="d" d="M44.92,246.34A79.23,79.23,0,0,0,112.536,284.6H752.03a79.23,79.23,0,0,0,67.616-38.261Z" transform="translate(61.765 338.718)"/><path class="b" d="M53.209,257.574H811.357a80.171,80.171,0,0,0,8.289-11.234H44.92a78.374,78.374,0,0,0,8.289,11.234Z" transform="translate(61.765 338.718)"/><rect class="f" width="172.164" height="96.354" transform="translate(234.555 389.358)"/><rect class="b" width="64.766" height="8.93" transform="translate(402.967 142.714)"/><rect class="b" width="39.544" height="8.93" transform="translate(319.224 142.714)"/><rect class="b" width="78.328" height="8.93" transform="translate(228.95 142.714)"/><rect class="b" width="16.981" height="8.93" transform="translate(371.142 142.714)"/><rect class="b" width="39.401" height="8.93" transform="translate(484.216 142.714)"/><rect class="b" width="24.296" height="8.93" transform="translate(402.967 168.791)"/><rect class="b" width="24.296" height="8.93" transform="translate(436.929 168.791)"/><rect class="b" width="39.544" height="8.93" transform="translate(278.944 168.791)"/><rect class="b" width="38.784" height="8.93" transform="translate(228.95 168.791)"/><rect class="b" width="65.123" height="8.93" transform="translate(329.342 168.791)"/><path class="g" d="M208.043,345.963C203.934,332.83,196,277.231,194.22,255.452c-.38-4.608-51.039-24.391-51.039-24.391-29.664-.76-44.911,10.878-44.911,10.878L169.52,266c0,32.11,27.384,80.56,27.384,80.56Z" transform="translate(135.122 317.66)"/><path class="h" d="M154.057,274.706,132.9,348.331l12.089,2.613c5.272-17.361,35.625-76.9,36.528-83.98.356-3.016.142-5.344-1-6.294s-35.269-21.375-45.125-23.584c-13.3-2.969-33.013-7.766-33.013-7.766a39.805,39.805,0,0,0-8.954,30.543C95.537,278.815,154.057,274.706,154.057,274.706Z" transform="translate(128.022 315.316)"/><path class="i" d="M121.256,193.934s-23.18,2.042-24.225,8.36,11.044,46.313,11.044,46.313L96.2,280.027s33.416,8.217,49.709,2.09c1.544.713,4.18-32.989,4.18-32.989l5.8-16.625,7.363,24.985,16.863,23.75,11.044-8.954L178.874,250.72s-19-43.368-24.059-48.426C145.458,192.817,121.256,193.934,121.256,193.934Z" transform="translate(132.275 266.603)"/><path class="j" d="M125.877,208.36,124.1,184.61H106.711v22.3c-2.185.238,2.375,18,16.388,18C123.1,224.8,129.63,222.42,125.877,208.36Z" transform="translate(146.013 253.839)"/><path class="k" d="M104.418,211.61c2.019,7.125,3.657,12.635,3.657,12.635L96.2,255.666s25.436,6.246,42.75,3.776c-1.544-1.14-22.064-14.962-23.061-20.995C113.87,225.813,104.418,211.61,104.418,211.61Z" transform="translate(132.275 290.964)"/><path class="l" d="M147.21,178.348c-1.473-6.1-11-7.861-26.125-6.1-10.236,1.211-12.54,10.616-12.825,17.623h-.451a8.36,8.36,0,0,0-5.866,8.265,8.122,8.122,0,0,0,2.019,5.083,8.574,8.574,0,0,0,6.2,3.943,8,8,0,0,0,2.137,0c4.275,8.859,12.089,19.926,23.038,18.6C151.509,214.567,147.21,178.348,147.21,178.348Z" transform="translate(140.165 235.947)"/><path class="m" d="M112.57,198.4a11.637,11.637,0,0,1,4.18-13.585c7.505-5.629,8,2.684,15.913,3.681s15.7.38,14.844,5.605c4.75-11.875-2.137-18.549-9.856-22.254s-19.855-5.3-28.263,1.734-7.268,23.869-7.268,23.869C107.654,194.768,109.15,196.953,112.57,198.4Z" transform="translate(140.344 231.949)"/><path class="m" d="M129.758,179.347s-6.983-18.762-20.211-14.108-7.268,31.326-8.645,42.893-9.761,12.113-12.754,6.959c-5.534,10.5,16.15,21.185,23.2,11.091s2.993-35.625,7.505-38.333a8.764,8.764,0,0,1,9.049.784Z" transform="translate(119.974 226.185)"/><path class="i" d="M105.914,197.506c-5.558,3.23-15.794,41.586-15.794,47.9s49.329,37.763,49.329,37.763,2.375-7.766,7.529-9.334c-1.045-.523-36.86-34.746-36.86-34.746l9.5-26.838S119.594,189.621,105.914,197.506Z" transform="translate(123.915 269.278)"/><path class="b" d="M109.3,235.544,159.579,234l32.633,12.113-55.266,2.921Z" transform="translate(150.288 321.751)"/><path class="d" d="M136.945,248.14,109.3,237.429V234.65l29.83,10.759Z" transform="translate(150.288 322.644)"/><path class="d" d="M120.94,266.593l16.625-45.363,54.958,2.945-16.316,40.541Z" transform="translate(166.293 304.192)"/><path class="b" d="M135.72,232.136c-1.639,3.278-1.14,6.816,1.092,7.956s5.391-.617,7.125-3.9,1.14-6.816-1.116-7.956S137.358,228.859,135.72,232.136Z" transform="translate(185.286 313.354)"/><path class="l" d="M118.419,228.68s20.021,15.794,17.908,16.839-11.067,1.069-15.794-1.568-9.643-5.937-9.643-5.937S112.624,229.2,118.419,228.68Z" transform="translate(152.474 314.436)"/><path class="m" d="M125.5,279.147c3.563,3.61,15.628,9.073,21.589,10.545,6.389,1.568,5.273,6.935.594,6.935-9.144,0-29.521-1.164-39.568-1.164-1.568-4.75,1.14-11.068,4.346-15.343C113.435,278.838,125.1,278.648,125.5,279.147Z" transform="translate(148.029 383.479)"/><path class="m" d="M155.862,279.147c3.563,3.61,15.651,9.073,21.589,10.545,6.389,1.568,5.273,6.935.594,6.935-9.144,0-29.521-1.164-39.544-1.164-1.591-4.75,1.14-11.068,4.323-15.343C143.8,278.838,155.363,278.648,155.862,279.147Z" transform="translate(189.796 383.479)"/><rect class="n" width="48.284" height="13.3" transform="translate(235.505 351.904)"/><rect class="n" width="48.284" height="13.3" transform="translate(358.459 351.904)"/><rect class="n" width="48.284" height="13.3" transform="translate(296.97 351.904)"/><rect class="o" width="157.534" height="58.686" transform="matrix(0.971, -0.238, 0.238, 0.971, 397.718, 132.826)"/><rect class="p" width="116.019" height="8.123" transform="matrix(0.971, -0.238, 0.238, 0.971, 407.689, 138.542)"/><rect class="p" width="96.948" height="8.123" transform="matrix(0.971, -0.238, 0.238, 0.971, 411.154, 152.575)"/><rect class="p" width="46.004" height="8.123" transform="matrix(0.971, -0.238, 0.238, 0.971, 414.887, 167.895)"/><rect class="i" width="24.629" height="8.099" transform="matrix(0.971, -0.238, 0.238, 0.971, 509.987, 128.536)"/><rect class="i" width="171.831" height="140.22" transform="translate(233.677 197.03)"/><rect class="q" width="337.915" height="63.223" transform="translate(418.381 277.899)"/><rect class="i" width="91.438" height="44.935" transform="translate(654.741 287.043)"/><rect class="r" width="211.375" height="8.669" transform="translate(430.731 289.774)"/><rect class="r" width="211.375" height="8.669" transform="translate(430.731 305.188)"/><rect class="r" width="142.31" height="8.669" transform="translate(430.731 320.602)"/><rect class="i" width="324.734" height="152.356" transform="translate(418.452 386.294)"/><rect class="s" width="324.734" height="25.27" transform="translate(418.452 386.294)"/><rect class="t" width="187.506" height="12.849" transform="translate(426.313 447.498)"/><rect class="t" width="168.15" height="12.873" transform="translate(426.313 470.346)"/><rect class="t" width="113.406" height="12.873" transform="translate(426.313 493.217)"/><rect class="t" width="67.593" height="12.873" transform="translate(426.313 426.432)"/><rect class="u" width="98.088" height="98.088" transform="translate(632.107 425.791)"/><path class="v" d="M313.921,215.528a12.351,12.351,0,0,0,2.375-7.41v-7.505a12.493,12.493,0,0,0-24.985,0v7.5a12.469,12.469,0,0,0,2.707,7.743,29.45,29.45,0,0,0-19.689,27.788h61.75S333.848,221.3,313.921,215.528Z" transform="translate(377.205 258.666)"/><circle class="f" cx="6.365" cy="6.365" r="6.365" transform="translate(428.854 393.206)"/><circle class="w" cx="6.365" cy="6.365" r="6.365" transform="translate(449.279 393.206)"/><circle class="x" cx="6.365" cy="6.365" r="6.365" transform="translate(472.982 393.206)"/><rect class="f" width="113.739" height="113.739" transform="translate(632.63 136.634)"/><path class="y" d="M352.165,270.566s1,2.992-8.194,7.125-18.905,2.779-21.28,6.294a19,19,0,0,0-2.921,6.84h52.25s-.4-14.416-6.317-20.805C366.463,271.4,352.165,270.566,352.165,270.566Z" transform="translate(439.685 371.278)"/><path class="y" d="M375.363,270.543s.95,2.9-7.885,6.911-18.121,2.612-20.4,5.985a18.122,18.122,0,0,0-2.826,6.579h50.184s-.38-13.846-6.056-20C389.09,271.326,375.363,270.543,375.363,270.543Z" transform="translate(473.345 371.278)"/><path class="i" d="M366.453,185.783l-37.905,6.674L301.9,135.385l40.8-3.325Z" transform="translate(415.113 181.583)"/><path class="z" d="M309.212,152.25Z" transform="translate(425.044 209.344)"/><path class="l" d="M343.031,112.075a50.588,50.588,0,0,0-5.011,19.166c0,6.413.831,15.651,1.306,20.639a2.9,2.9,0,0,0,3.729,2.375l7.481-2.375-.428,10.83,20.853-.38,4.56-43.771S358.018,99.582,343.031,112.075Z" transform="translate(464.779 148.249)"/><path class="m" d="M345.166,137.916s1.188-8.669,7.719-6.864-.95,10.545-.95,10.545l6.246,11.234a19.143,19.143,0,0,0,14.559-.4s6.959-21.114,6.959-27.788-6.08-11.163-6.08-11.163-16.269-8.123-25.033-7.719a10.165,10.165,0,0,0-9.5,9.168s-3.325,6.674,0,9.5S345.166,137.916,345.166,137.916Z" transform="translate(464.212 145.398)"/><path class="aa" d="M365.311,128.34l-.95,6.009H342.82S346.976,127.77,365.311,128.34Z" transform="translate(471.379 176.42)"/><path class="l" d="M323.171,161.389s1.52-4.75-4.584-7.505a17.505,17.505,0,0,0-2.494-7.909c-1.282-1.283-2.066,5.842-2.066,5.842s-5.985-10.64-7.505-7.933,13.466,23.608,13.87,24.439S323.171,161.389,323.171,161.389Z" transform="translate(421.321 197.236)"/><path class="m" d="M345.464,180.375,331,302.545l2.921,94.691,18.193-1.306s5.13-49.875,5.534-62.3-3.325-31.659-3.325-31.659l18.335-75.525,3.04.57.831,74.409,16.625,94.5,15.271.736s.38-48.735-.855-60.824-7.7-36.219-7.7-36.219l6.674-77.045a59.375,59.375,0,0,0-5.273-43.059C399.875,179.663,345.464,180.375,345.464,180.375Z" transform="translate(455.126 246.841)"/><path class="ab" d="M386.573,130.917s-25.7,8.336-30.448,13.039-18.264,53.39-18.264,53.39L317.46,176.9,311,191.718s23.869,35.625,31.374,36.67,24.486-44.959,24.486-44.959,1.52,25.175,4.441,37.763a78.942,78.942,0,0,1,1.663,26.125c23.109,4.18,42.75,3.325,55.813-.855l6.46-48.5s8.811,1.021,11.59-2.019-10-53.319-12.778-57.214-25.935-7.861-25.935-7.861Z" transform="translate(427.626 179.947)"/><path class="aa" d="M356.257,145.29c0-.974-1.757-.736-1.71.238a317.429,317.429,0,0,1-3.206,61.893c-.238,1.377,1.829,2.019,2.137.594a179.69,179.69,0,0,0,2.779-62.724Z" transform="translate(483.069 198.919)"/><path class="aa" d="M368.33,151.691c-.142-.689-1.187-.5-1.211.166a206.635,206.635,0,0,1-4.038,35.839,126.655,126.655,0,0,0-3.254,32.181,1.188,1.188,0,0,0,2.375,0c-.523-12.564,2.019-24.7,4.323-36.979C368.449,172.686,370.4,162.022,368.33,151.691Z" transform="translate(494.699 207.98)"/><path class="aa" d="M351.475,151.34c-6.935,4.394-9.5,13.015-12.184,20.354-3.586,9.927-7.125,19.689-15.01,27.146-1.164,1.093.594,2.826,1.757,1.757,14.44-12.991,13.751-34.248,26.125-48.45C352.473,151.72,352,151.007,351.475,151.34Z" transform="translate(445.362 207.975)"/><path class="y" d="M393.164,179.279s-34.984,4.465-56.074-2.209c.546,0,0,6.674,0,6.674a105.973,105.973,0,0,0,57.76,2.209,68.688,68.688,0,0,1-1.686-6.674Z" transform="translate(463.5 243.472)"/><path class="ac" d="M225.811,237.88s-2.9,6.318-7.885,7.363-18.169,3.943-20.283,5.8-2.114,6.579-2.114,6.579h41.8s0-12.659-2.517-19.214C235.81,238.4,225.811,237.88,225.811,237.88Z" transform="translate(268.854 327.086)"/><path class="ac" d="M259.731,237.88s-2.9,6.318-7.885,7.363-18.169,3.943-20.283,5.8-2.114,6.579-2.114,6.579h41.8s0-12.659-2.517-19.214C269.73,238.4,259.731,237.88,259.731,237.88Z" transform="translate(315.494 327.086)"/><path class="ad" d="M247.147,75.4s-11.637-2.969-12.326-1.116S252.8,81.673,252.8,81.673l16.839,46.669-6.294,14.915,11.566,12.659s12.635-17.124,13.7-22.135-30.02-55.266-30.02-55.266S252.443,58.92,251.47,57.97s-12.065-.356-14.606-.309S244.2,67.684,244.2,67.684Z" transform="translate(322.854 78.973)"/><path class="ad" d="M225.141,84.15a42.607,42.607,0,0,0-6.721,16.055,54.338,54.338,0,0,0,.38,16.2l10.141-.261v9.5h20.235a105.249,105.249,0,0,1,1.164-11.163c.807-3.942,6.341-11.447,6.341-11.447l-9.1-25.674L234.546,76.17Z" transform="translate(299.734 104.734)"/><path class="m" d="M226.542,102.227s3.563-8.289,7.909-5.13-1.187,9.88-1.187,9.88,2.779,11.448,7.505,13.015l4.75,1.591s12.231-11.447,14.25-14.606-3.159-21.375-6.7-25.27-19-3.562-20.14-5.534-5.2-5.534-9.073-3.942S220.7,86.837,220.7,86.837s4.893,4.2,5.2,7.125a14.8,14.8,0,0,1-1.924,7.125Z" transform="translate(303.392 98.77)"/><path class="m" d="M233.562,103.981s20.188-2.945,31.778-3.206,30,5.8,30,5.8l13.419-14.25,17.076,15.865S311.3,129.56,306.618,134.643s-8.123,28.5-9.168,35.625-3.681,48.688-3.681,48.688-12.374,14.749-63.2-1.306c-.523-.522,2.114-30.543,1.852-38s-6.84-32.4-8.17-38.451-22.3-18.169-22.3-18.169-2.589-14.749,7.125-21.85C210.311,102.1,233.562,103.981,233.562,103.981Z" transform="translate(277.253 126.94)"/><path class="ad" d="M211.22,83.609s-7.624,7.125-8.146,10,10.5,35.886,10.5,35.886l20.093,11.756-7.125,21.85s-21.921-15.248-25.08-19.736-8.693-49.234-8.693-49.234-7.125-8.954-7.624-11.305-2.185-10.118-.974-11.661,9.381-9.951,10.569-7.434,5.581,20.734,5.581,20.734S209.391,80.45,211.22,83.609Z" transform="translate(252.642 86.987)"/><path class="h" d="M223.871,145.594,212.424,253.538l-5.914,114.5,19.736.808s12.255-76,12.445-87.566-.19-25.389-.19-25.389l12.635-57.641h7.125l14.606,75.026,15.01,93.2,15.794.784s2.375-58.045,0-69.9-5.914-23.3-5.914-23.3l-7.125-77.781s6.318-27.645-3.539-49.376C285.1,142.981,223.871,145.594,223.871,145.594Z" transform="translate(283.952 199.019)"/><path class="s" d="M182.528,100.839H169.679V87.99h-8v12.849H148.85v8h12.825v12.825h8V108.843h12.849Z" transform="translate(204.669 120.987)"/><path class="b" d="M124.349,158.338a20.069,20.069,0,1,1,20.069-20.069A20.069,20.069,0,0,1,124.349,158.338Zm0-29.664a9.5,9.5,0,1,0,9.5,9.5,9.5,9.5,0,0,0-9.5-9.5Z" transform="translate(143.385 162.525)"/><path class="b" d="M392.027,64.905H379.2V52.08h-8.028V64.905H358.35v8h12.825V85.758H379.2V72.909h12.825Z" transform="translate(492.732 71.61)"/><path class="c" d="M354.705,25.193a7.909,7.909,0,1,1-2.316-5.616A7.933,7.933,0,0,1,354.705,25.193Z" transform="translate(465.906 23.733)"/><path class="o" d="M291.949,102.468A20.069,20.069,0,1,1,312.018,82.4a20.069,20.069,0,0,1-20.069,20.069Zm0-29.664a9.5,9.5,0,1,0,9.5,9.5,9.5,9.5,0,0,0-9.5-9.5Z" transform="translate(373.836 85.704)"/><path class="o" d="M336.863,46.6a20.069,20.069,0,1,1,20.045-20.045A20.069,20.069,0,0,1,336.863,46.6Zm0-29.64a9.5,9.5,0,1,0,9.5,9.5,9.619,9.619,0,0,0-9.5-9.5Z" transform="translate(435.56 8.883)"/></g></g></svg>