<svg xmlns="http://www.w3.org/2000/svg" width="93.414" height="93.454" viewBox="0 0 93.414 93.454"><defs><style>.a{fill:#fff;}.b{fill:#49a32b;}.c{fill:rgba(0,0,0,0);}</style></defs><g transform="translate(0.093)"><path class="a" d="M46.318,93.32C21.453,93.148-.166,72.513,0,46.3A46.931,46.931,0,0,1,47.065,0c25.21.168,46.479,21.093,46.254,46.73.209,25.4-21.165,46.768-47,46.589Zm0,0C21.453,93.148-.166,72.513,0,46.3A46.931,46.931,0,0,1,47.065,0c25.21.168,46.479,21.093,46.254,46.73.209,25.4-21.165,46.768-47,46.589Z" transform="translate(0 0)"/><path class="b" d="M57.166,97.925A40.464,40.464,0,1,1,57.814,17c21.862.145,40.306,18.292,40.111,40.524.181,22.03-18.354,40.556-40.759,40.4Zm0,0A40.464,40.464,0,1,1,57.814,17c21.862.145,40.306,18.292,40.111,40.524.181,22.03-18.354,40.556-40.759,40.4Z" transform="translate(-10.803 -10.803)"/><path class="a" d="M93.5,86.043c-.1,1.928-1.788,3.53-3.448,3.251h-.025a3.329,3.329,0,0,1-3.334-3.326,3.405,3.405,0,0,1,6.807.075ZM63.926,104.731c.693.02,1.387.005,2.187.005v5.025c-4.97.84-9.065-.571-10.069-4.772a27.887,27.887,0,0,1-.633-4.7c-.107-1.674.078-3.366-.05-5.038-.354-4.6-.949-6.167-5.361-6.384V83.149a8.261,8.261,0,0,1,.959-.165c2.419-.119,3.439-.861,3.98-3.244a27.184,27.184,0,0,0,.435-4.054c.192-2.631.124-5.3.562-7.893.633-3.743,2.957-5.561,6.795-5.765,1.092-.058,2.188-.009,3.425-.009v5.136c-.509.036-.976.11-1.44.1-3.128-.1-3.289.97-3.518,3.559-.142,1.624.054,3.275-.057,4.9a39.048,39.048,0,0,1-.649,4.828,8.956,8.956,0,0,1-3.84,5.487c3.821,2.487,4.256,6.351,4.5,10.276.133,2.108.073,4.232.287,6.33.167,1.628.8,2.044,2.482,2.094ZM67.147,82.7h.059a3.309,3.309,0,0,1,3.255,3.363,3.239,3.239,0,0,1-3.425,3.226,3.3,3.3,0,1,1,.112-6.59Zm11.387,0a3.1,3.1,0,0,1,3.336,3.255,3.065,3.065,0,0,1-3.233,3.335,3.1,3.1,0,0,1-3.36-3.232A3.161,3.161,0,0,1,78.534,82.7Zm23.841-2.5c.532,1.986,1.567,2.684,3.657,2.779.343.016.684.074,1.153.126v5.72a4.842,4.842,0,0,1-.779.187c-2.8.174-4.078,1.323-4.361,4.132-.181,1.793-.166,3.606-.29,5.405a45.86,45.86,0,0,1-.538,5.9c-.714,3.537-2.923,5.3-6.572,5.517-1.174.069-2.357.011-3.623.011v-5.113c.682-.042,1.283-.1,1.886-.114,2.18-.052,2.951-.755,3.058-2.92.118-2.379.17-4.76.276-7.14.154-3.439,1.1-6.511,4.3-8.656a8.1,8.1,0,0,1-3.686-5.024c-.461-2.587-.61-5.231-.858-7.855-.122-1.311-.117-2.634-.245-3.945-.138-1.414-1.11-1.9-2.4-1.936-.738-.018-1.478,0-2.421,0V62.275c6.018-1,10.175,1,10.562,6.761.161,2.418.138,4.847.293,7.265a20.107,20.107,0,0,0,.588,3.9Z" transform="translate(-31.773 -39.399)"/><rect class="c" width="93" height="93" transform="translate(-0.093 0.453)"/></g></svg>