<svg xmlns="http://www.w3.org/2000/svg" xmlns:xlink="http://www.w3.org/1999/xlink" width="85.367" height="76.497" viewBox="0 0 85.367 76.497"><defs><style>.a{fill:url(#a);}</style><linearGradient id="a" x1="0.5" x2="0.5" y2="1" gradientUnits="objectBoundingBox"><stop offset="0" stop-color="#f88a36"/><stop offset="1" stop-color="#fd2020"/></linearGradient></defs><path class="a" d="M64.391,71.2c-10.056,5.809-23.882,6.406-37.792.444A59.1,59.1,0,0,1,0,48.884a44.817,44.817,0,0,0,9.825,5.99c14.365,6.733,28.728,6.272,38.835.017a.108.108,0,0,1-.015-.017c-14.378-11.023-26.6-25.4-35.7-37.142a41.012,41.012,0,0,1-4.793-6.47C19.17,21.327,36.663,34.026,42.892,37.622A256.035,256.035,0,0,1,18.45,6.949,243.05,243.05,0,0,0,58.71,40.018c.642.362,1.138.664,1.536.933a31.53,31.53,0,0,0,1.1-3.329C64.7,25.4,60.866,11.5,52.478,0,71.887,11.742,83.391,33.787,78.6,52.239q-.187.747-.407,1.472.084.1.168.207C87.941,65.9,85.306,78.6,84.108,76.2c-5.2-10.174-14.824-7.063-19.717-5Z"/></svg>