<svg xmlns="http://www.w3.org/2000/svg" width="26.55" height="26.55" viewBox="0 0 26.55 26.55"><defs><style>.a{fill:#00ace8;}.b{fill:#fff;}</style></defs><g transform="translate(-1555.131 -2063.207)"><circle class="a" cx="13.275" cy="13.275" r="13.275" transform="translate(1555.131 2063.207)"/><path class="b" d="M540.514,330.621a2.1,2.1,0,0,1,0,.477,10.518,10.518,0,0,1-10.586,10.586,10.926,10.926,0,0,1-5.718-1.668h.885a7.284,7.284,0,0,0,4.629-1.6,3.71,3.71,0,0,1-3.4-2.587,2.547,2.547,0,0,0,.715,0,2.92,2.92,0,0,0,.953,0,3.71,3.71,0,0,1-2.961-3.608h0a3.95,3.95,0,0,0,1.668.477,3.744,3.744,0,0,1-1.634-3.1,3.406,3.406,0,0,1,.51-1.872,10.415,10.415,0,0,0,7.659,3.88,3.387,3.387,0,0,1,0-.851,3.744,3.744,0,0,1,6.433-2.553,7.789,7.789,0,0,0,2.349-.885,3.608,3.608,0,0,1-1.634,2.042,7.688,7.688,0,0,0,2.144-.579,7.794,7.794,0,0,1-1.872,1.94Z" transform="translate(1035.244 1742.185)"/></g></svg>