<svg xmlns="http://www.w3.org/2000/svg" width="26.55" height="26.55" viewBox="0 0 26.55 26.55"><defs><style>.a{fill:#00ace8;}.b{fill:#fff;}</style></defs><g transform="translate(-1555.131 -2119.744)"><circle class="a" cx="13.275" cy="13.275" r="13.275" transform="translate(1555.131 2119.744)"/><path class="b" d="M529.821,344.56a4.221,4.221,0,1,0,4.221,4.221,4.221,4.221,0,0,0-4.221-4.221Zm0,7.012a2.774,2.774,0,1,1,0-5.548,2.757,2.757,0,0,1,2.757,2.757,2.791,2.791,0,0,1-2.757,2.791Z" transform="translate(1038.585 1784.238)"/><path class="b" d="M528.875,344.2a1.055,1.055,0,0,0-1.055,1.055,1.087,1.087,0,0,0,.306.783,1.055,1.055,0,0,0,1.5,0,1.089,1.089,0,0,0,.306-.783,1.055,1.055,0,0,0-1.055-1.055Z" transform="translate(1043.921 1783.373)"/><path class="b" d="M536.309,343.4h-7.352a4.527,4.527,0,0,0-4.527,4.527v7.318a4.561,4.561,0,0,0,4.527,4.527h7.352a4.527,4.527,0,0,0,4.493-4.527v-7.318a4.493,4.493,0,0,0-4.493-4.527Zm3.064,11.845a3.063,3.063,0,0,1-3.064,3.063h-7.352a3.063,3.063,0,0,1-3.063-3.063v-7.318a3.063,3.063,0,0,1,3.063-3.1h7.352a3.1,3.1,0,0,1,3.063,3.1Z" transform="translate(1035.772 1781.45)"/></g></svg>