<svg xmlns="http://www.w3.org/2000/svg" width="104.417" height="103.815" viewBox="0 0 104.417 103.815"><defs><style>.a{fill:#0065a9;}.b{fill:#007acc;}.c{fill:#1f9cf0;}.d{opacity:0.25;}.e{fill:#fff;fill-rule:evenodd;}</style></defs><path class="a" d="M100.568,11.659,79.067,1.306a6.5,6.5,0,0,0-7.416,1.26L1.262,66.744a4.348,4.348,0,0,0,0,6.43L7.016,78.4a4.348,4.348,0,0,0,5.553.247l84.763-64.3a4.318,4.318,0,0,1,6.928,3.44v-.25A6.522,6.522,0,0,0,100.568,11.659Z" transform="translate(0.156 -0.661)"/><g transform="translate(0 24.945)"><path class="b" d="M100.568,129.729l-21.5,10.353a6.5,6.5,0,0,1-7.416-1.26L1.262,74.644a4.348,4.348,0,0,1,0-6.43l5.75-5.227a4.348,4.348,0,0,1,5.553-.247l84.763,64.3a4.318,4.318,0,0,0,6.928-3.44v.25A6.523,6.523,0,0,1,100.568,129.729Z" transform="translate(0.156 -61.856)"/></g><g transform="translate(71.807 0)"><path class="c" d="M183.417,103.833A6.5,6.5,0,0,1,176,102.571a3.821,3.821,0,0,0,6.522-2.7V5.266A3.821,3.821,0,0,0,176,2.565,6.5,6.5,0,0,1,183.417,1.3l21.5,10.338a6.522,6.522,0,0,1,3.7,5.878v70.1a6.522,6.522,0,0,1-3.7,5.878Z" transform="translate(-176 -0.66)"/></g><g class="d" transform="translate(0 0)"><path class="e" d="M73.843,104.032a6.5,6.5,0,0,0,5.177-.2L100.5,93.495a6.522,6.522,0,0,0,3.694-5.878v-70.1a6.523,6.523,0,0,0-3.693-5.878L79.019,1.3a6.494,6.494,0,0,0-7.413,1.262L30.477,40.089l-17.915-13.6a4.343,4.343,0,0,0-5.549.247L1.266,31.963a4.35,4.35,0,0,0,0,6.43L16.8,52.568,1.261,66.742a4.35,4.35,0,0,0,0,6.43L7.012,78.4a4.343,4.343,0,0,0,5.549.247l17.915-13.6,41.13,37.524A6.489,6.489,0,0,0,73.843,104.032Zm4.282-75.154L46.917,52.568,78.125,76.257Z" transform="translate(0.156 -0.66)"/></g></svg>