<svg xmlns="http://www.w3.org/2000/svg" width="699.199" height="719.751" viewBox="0 0 699.199 719.751"><defs><style>.a{fill:#f5f5f5;}.b{fill:#e6e6e6;}.c{fill:#37474f;}.d{fill:#455a64;}.e,.f,.g,.h{fill:#3f45ff;}.f,.r,.s,.w{opacity:0.6;}.ag,.g,.o,.p{opacity:0.5;}.ad,.af,.h{opacity:0.4;}.i{opacity:0.15;}.j,.q{fill:#263238;}.al,.k,.w{fill:#27debf;}.l{fill:#e0e0e0;}.m{fill:#ebebeb;}.ak,.n,.o,.r,.t{fill:#fff;}.q,.v{opacity:0.9;}.t,.u{opacity:0.8;}.x{fill:#0700ff;}.y{opacity:0.7;}.am,.z{opacity:0.3;}.aa{opacity:0.25;}.ab,.al{opacity:0.1;}.ac{fill:#ffa8a7;}.ae{fill:#fafafa;}.ah{fill:#f28f8f;}.ai,.aj{fill:none;stroke:#263238;stroke-miterlimit:10;}.ai{stroke-width:1.21px;}.aj{stroke-width:1.03px;}.ak{opacity:0.75;}.an{fill:#fb4e7b;}.an,.ap{opacity:0.2;}.ao{fill:#ff4a78;}.aq{fill:#f0f0f0;}</style></defs><g transform="translate(0 0.002)"><g transform="translate(0 332.622)"><ellipse class="a" cx="349.599" cy="193.564" rx="349.599" ry="193.564"/></g><g transform="translate(94.357 330.428)"><path class="b" d="M599,377.724,404.115,490.308a5.847,5.847,0,0,1-5.239,0L117.893,328.16a1.559,1.559,0,0,1,0-3.025L312.782,212.552a5.815,5.815,0,0,1,5.223,0L598.988,374.7a1.559,1.559,0,0,1,.016,3.025Z" transform="translate(-29.102 -211.933)"/><ellipse class="b" cx="117.058" cy="67.587" rx="117.058" ry="67.587" transform="translate(0 206.173)"/><ellipse class="b" cx="92.143" cy="53.197" rx="92.143" ry="53.197" transform="translate(167.448 142.202)"/><ellipse class="b" cx="57.843" cy="33.396" rx="57.843" ry="33.396" transform="translate(406.663 233.301)"/></g><g transform="translate(202.887 18.869)"><g transform="translate(0 141.178)"><path class="c" d="M308.956,261.936V434.9a3.82,3.82,0,0,1-1.746,3.025L303.5,440.08a3.929,3.929,0,0,1-3.492,0l-3.711-2.152a3.82,3.82,0,0,1-1.746-3.025V261.936c0-1.107.78-1.559,1.746-1.013l3.711,2.152a3.929,3.929,0,0,0,3.492,0l3.711-2.152C308.177,260.377,308.956,260.829,308.956,261.936Z" transform="translate(-38.201 -14.291)"/><path class="d" d="M300.007,440.08l-3.711-2.152a3.82,3.82,0,0,1-1.746-3.025V261.936c0-1.107.78-1.559,1.746-1.013l3.711,2.152a3.82,3.82,0,0,1,1.746,3.025V439.067C301.753,440.174,300.974,440.626,300.007,440.08Z" transform="translate(-38.201 -14.291)"/><path class="c" d="M410.466,203.3V376.268a3.867,3.867,0,0,1-1.746,3.025l-3.711,2.136a3.835,3.835,0,0,1-3.492,0l-3.711-2.136a3.866,3.866,0,0,1-1.746-3.025V203.3c0-1.123.779-1.559,1.746-1.013l3.711,2.136a3.835,3.835,0,0,0,3.492,0l3.711-2.136C409.687,201.725,410.466,202.177,410.466,203.3Z" transform="translate(18.554 -47.081)"/><path class="d" d="M401.517,381.426l-3.711-2.136a3.866,3.866,0,0,1-1.746-3.025V203.3c0-1.123.779-1.559,1.746-1.013l3.711,2.136a3.867,3.867,0,0,1,1.746,3.025V380.506C403.263,381.535,402.484,381.987,401.517,381.426Z" transform="translate(18.554 -47.078)"/><path class="c" d="M172.2,183.047V356.015a3.867,3.867,0,0,1-1.731,3.025l-3.726,2.136a3.835,3.835,0,0,1-3.492,0l-3.633-2.136a3.867,3.867,0,0,1-1.731-3.025V183.047c0-1.123.78-1.559,1.731-1.013l3.726,2.152a3.9,3.9,0,0,0,3.477,0l3.711-2.074C171.423,181.473,172.2,181.925,172.2,183.047Z" transform="translate(-114.609 -58.4)"/><path class="d" d="M163.253,361.176l-3.633-2.136a3.867,3.867,0,0,1-1.731-3.025V183.047c0-1.123.78-1.559,1.731-1.013l3.726,2.152a3.851,3.851,0,0,1,1.731,3.009V360.256C165,361.285,164.3,361.737,163.253,361.176Z" transform="translate(-114.609 -58.4)"/><path class="e" d="M593.591,271.173V269.91a7,7,0,0,0-3.118-5.5L311.392,103.413a7,7,0,0,0-6.346,0l-171.8,99.175a7.047,7.047,0,0,0-3.118,5.5v1.263a7.047,7.047,0,0,0,3.118,5.5L412.329,375.836a7,7,0,0,0,6.346,0l171.7-99.159A7.047,7.047,0,0,0,593.591,271.173Z" transform="translate(-130.13 -102.652)"/><path class="f" d="M593.591,271.173V269.91a7,7,0,0,0-3.118-5.5L311.392,103.413a7,7,0,0,0-6.346,0l-171.8,99.175a7.047,7.047,0,0,0-3.118,5.5v1.263a7.047,7.047,0,0,0,3.118,5.5L412.329,375.836a7,7,0,0,0,6.346,0l171.7-99.159A7.047,7.047,0,0,0,593.591,271.173Z" transform="translate(-130.13 -102.652)"/><path class="e" d="M313.19,309.842v8.606a6.735,6.735,0,0,0,3.118-.748l171.7-99.175a7.032,7.032,0,0,0,3.118-5.5v-1.263a7.032,7.032,0,0,0-2.6-5.1c1.154.982.967,2.354-.577,3.259l-171.6,99.175A6.377,6.377,0,0,1,313.19,309.842Z" transform="translate(-27.779 -44.501)"/><path class="g" d="M313.19,309.842v8.606a6.735,6.735,0,0,0,3.118-.748l171.7-99.175a7.032,7.032,0,0,0,3.118-5.5v-1.263a7.032,7.032,0,0,0-2.6-5.1c1.154.982.967,2.354-.577,3.259l-171.6,99.175A6.377,6.377,0,0,1,313.19,309.842Z" transform="translate(-27.779 -44.501)"/><path class="e" d="M589.753,268.07,418.048,367.23a7,7,0,0,1-6.346,0L132.622,206.252a1.933,1.933,0,0,1,0-3.664l171.7-99.175a7,7,0,0,1,6.346,0L589.753,264.406a1.933,1.933,0,0,1,0,3.664Z" transform="translate(-129.472 -102.652)"/><path class="h" d="M589.753,268.07,418.048,367.23a7,7,0,0,1-6.346,0L132.622,206.252a1.933,1.933,0,0,1,0-3.664l171.7-99.175a7,7,0,0,1,6.346,0L589.753,264.406a1.933,1.933,0,0,1,0,3.664Z" transform="translate(-129.472 -102.652)"/></g><g transform="translate(97.942 227.957)"><path class="i" d="M359.323,233.366,318.63,256.924a4.989,4.989,0,0,1-4.553,0L193.9,187.59a1.388,1.388,0,0,1,0-2.635L234.594,161.4a4.989,4.989,0,0,1,4.553,0l120.192,69.287a1.4,1.4,0,0,1-.016,2.682Z" transform="translate(-192.949 -156.893)"/><g transform="translate(3.415)"><path class="j" d="M195.14,182.242a1.559,1.559,0,0,1,.935-1.325L234.3,158.855a5.036,5.036,0,0,1,4.553,0L355.51,226.3a1.559,1.559,0,0,1,.935,1.31v4.007a1.559,1.559,0,0,1-.951,1.325l-38.2,22.061a5.036,5.036,0,0,1-4.553,0L196.107,187.683a1.559,1.559,0,0,1-.935-1.31Z" transform="translate(-195.14 -158.311)"/><path class="c" d="M317.26,250.884,355.5,228.931a1.388,1.388,0,0,0,0-2.635L238.883,158.865a5.036,5.036,0,0,0-4.553,0L196.1,180.926a1.388,1.388,0,0,0,0,2.635L312.738,250.9a5.036,5.036,0,0,0,4.521-.016Z" transform="translate(-195.135 -158.306)"/><path class="j" d="M272.1,226.521v4.1a4.817,4.817,0,0,0,2.152-.53l38.229-22a1.637,1.637,0,0,0,.951-1.31V202.76a1.559,1.559,0,0,1-.951,1.31L274.3,226.053A4.818,4.818,0,0,1,272.1,226.521Z" transform="translate(-152.111 -133.459)"/><path class="k" d="M199.68,181l3.789-2.183,5.129,2.962-3.742,2.2-5.129-2.947Zm5.909-3.43h0l3.789-2.183,4.022,2.339-3.8,2.245-4.022-2.323Zm1.247,7.562h0l3.789-2.183,4.023,2.323-3.773,2.2-4.022-2.323Zm4.677-10.914h0l3.773-2.183,6.517,3.757-3.8,2.261-6.5-3.757Zm.156,6.922,3.789-2.183,3.2,1.84-3.8,2.261-3.118-1.84ZM212.9,188.7l3.789-2.183,4.023,2.323-3.8,2.261-4.022-2.323Zm3.991-4.537h0l3.789-2.183,3.2,1.855-3.773,2.074-3.2-1.84Zm.546-13.362h0l3.773-2.183,5.129,2.962-3.8,2.261-5.129-2.962ZM219,192.211h0l3.789-2.183,29.124,16.823-3.82,2.245-29.109-16.948Zm1.076-13.05,3.789-2.183,3.2,1.84-3.8,2.261-3.2-1.84Zm2.089,8.029,3.789-2.183,3.2,1.855-3.8,2.167-3.118-1.84Zm1.216-19.8,3.773-2.183,3.2,1.855-3.8,2.261-3.118-1.84Zm1.247,7.546h0l3.789-2.183,3.118,1.855-3.8,2.261-3.2-1.855Zm.686,7.25L229.1,180l3.2,1.84-3.8,2.261-3.118-1.84Zm2.089,8.029,3.789-2.183,3.2,1.855-3.8,2.245-3.2-1.84Zm1.216-19.8,3.773-2.167,3.2,1.84-3.8,2.261-3.181-2.027Zm1.247,7.546h0l3.773-2.183,3.2,1.855-3.8,2.261L229.8,177.93Zm.686,7.25,3.789-2.183,3.2,1.84-3.8,2.261-3.2-1.84Zm0-21.968h0l3.789-2.183,4.022,2.339-3.8,2.245-4.023-2.323Zm2.074,30,3.789-2.183,3.2,1.855-3.8,2.245-3.2-1.84Zm1.216-19.8,3.773-2.167,3.2,1.84-3.8,2.261-3.118-1.84ZM235.087,181l3.773-2.183,3.118,1.855-3.7,2.12-3.2-1.855Zm.7,7.234,3.789-2.183,3.2,1.84-3.8,2.261-3.118-1.84Zm2.074,8.029,3.789-2.183,3.118,1.855-3.8,2.245-3.2-1.84Zm1.029-28.2h0l3.773-2.2,3.212,1.855-3.82,2.261-3.118-1.855Zm.187,8.4,3.773-2.183,3.2,1.855-3.773,2.136-3.118-1.855Zm1.247,7.546h0l3.773-2.183,3.212,1.855-3.789,2.229-3.2-1.855Zm.686,7.25,3.789-2.183,3.2,1.84-3.8,2.261-3.2-1.84Zm2.074,8.029h0l3.789-2.183,3.2,1.746-3.8,2.245-3.2-1.84Zm1.045-28.2L247.9,168.9l3.212,1.855-3.82,2.261-3.2-1.855Zm.187,8.4,3.789-2.183,3.2,1.84-3.789,2.089-3.2-1.84Zm1.247,7.562,3.773-2.183,3.212,1.855-3.82,2.261-3.118-1.855Zm.686,7.234,3.789-2.183,3.2,1.84-3.8,2.261-3.2-1.84Zm2.089,8.029h0l3.789-2.183,3.118,1.855-3.8,2.245-3.2-1.84Zm1.029-28.2,3.82-2.23,3.212,1.855L252.581,176l-3.118-1.855Zm.187,8.4,3.773-2.167,3.118,1.84-3.7,2.167Zm.577,27.674h0L253.906,208l4.038,2.323-3.789,2.089-4.085-2.261Zm.67-20.128h0l3.773-2.183,3.212,1.855-3.82,2.261-3.2-1.855Zm.686,7.25,3.789-2.183,3.118,1.84-3.648,2.152-3.2-1.84Zm2.089,8.029,3.789-2.183,3.2,1.855-3.8,2.245-3.2-1.84Zm1.029-28.2h0l3.773-2.2,3.212,1.855-3.726,2.152-3.2-1.855Zm.187,8.4,3.773-2.183,3.2,1.855-3.8,2.261-3.212-1.98Zm1.247,7.546h0l3.773-2.183,3.212,1.855-3.82,2.261-3.118-1.855ZM256.2,213.7h0l3.773-2.183,4.038,2.323-3.8,2.261-4.022-2.323Zm.53-13.362,3.789-2.183,3.2,1.84-3.8,2.261-3.2-1.84Zm2.089,8.029,3.789-2.183,3.118,1.855-3.8,2.245-3.118-1.84Zm1.216-19.8,3.789-2.183,3.118,1.84-3.8,2.261-3.2-1.84Zm1.247,7.546h0l3.773-2.183,3.2,1.855-3.8,2.261-3.2-1.855Zm.686,7.25,3.789-2.183,3.118,1.84-3.8,2.261-3.2-1.84Zm.156-21.828h0l3.773-2.183,3.212,1.84-3.8,2.261-3.118-1.84Zm.14,35.735,3.773-2.183,4.038,2.339-3.8,2.245-4.007-2.573Zm1.84-5.94,3.789-2.183,3.2,1.855-3.867,2.2-3.118-1.84Zm1.216-19.8,3.773-2.167,3.2,1.84-3.8,2.261-3.2-1.855Zm1.247,7.546h0l3.773-2.245,3.212,1.855-3.82,2.261-3.118-1.855Zm.686,7.25,3.789-2.183,3.2,1.84-3.8,2.261-3.212-1.887Zm.156-21.828h0l3.773-2.183,3.212,1.84-3.8,2.261-3.2-1.84Zm.967,36.2h0l3.789-2.183,5.129,2.962-3.835,2.152-5.114-2.962Zm.967-6.236,3.789-2.183,10.1,5.831-3.851,2.1-10.087-5.831Zm1.216-19.8,3.773-2.183,3.118,1.855-3.8,2.261-3.118-1.855ZM271.8,202.2h0l3.773-2.183,3.212,1.855-3.773,2.1-3.2-1.855Zm.7,7.25,3.789-2.183,3.118,1.84-3.8,2.261-3.118-1.84Zm.14-21.828h0l3.773-2.183,3.212,1.84-3.8,2.261-3.118-1.84Zm3.118,10.119,3.773-2.183,3.212,1.855-3.82,2.261-3.2-1.84Zm.858,27.846,3.789-2.2,3.118,1.855-3.8,2.261-3.118-1.855Zm.39-20.268h0l3.773-2.183L283.9,205l-3.8,2.261-3.118-1.855Zm.7,7.25,3.789-2.183,2.931,1.684a2.386,2.386,0,0,0,1.887,0l4.958-2.869,3.757,2.167-9.729,5.675-7.608-4.631Zm.14-21.828h0l3.789-2.183,3.2,1.84-3.8,2.261-3.181-2.074Zm3.118,10.119h0l3.773-2.183,3.212,1.84-3.82,2.261-3.118-1.855Zm.858,27.846,3.773-2.183,3.2,1.855-3.8,2.261-3.2-1.855Zm.39-20.268h0l3.773-2.183,3.212,1.855-3.82,2.261-3.2-1.855Zm3.118-13.33h0l3.789-2.183,3.2,1.855-3.8,2.261-3.2-1.855Zm.873,8.809,3.773-2.167,3.212,1.84-3.82,2.261-3.2-1.855Zm.858,27.846,3.773-2.183,3.2,1.855-3.8,2.261-3.2-1.855Zm.67-6.455h0l3.789-2.183,3.2,1.855-3.8,2.245-3.2-1.84Zm2.869-27.472h0l3.789-2.183,3.2,1.855-3.8,2.261-3.181-1.9Zm.857,8.809,3.773-2.167,5.691,3.274-3.82,2.261-5.675-3.29Zm1.964,28.469h0l3.789-2.183,8.435,4.88-3.8,2.261-8.435-4.88Zm.935-19.957,3.773-2.183,3.212,1.855-3.773,2.261-3.212-1.84Zm1.481-14.3h0l3.789-2.183,3.2,1.855-3.8,2.261-3.2-1.855Zm3.492,30.839,3.789-2.183,3.2,1.84-3.8,2.261-3.2-1.84Zm.265-13.518,3.773-2.167,3.212,1.84-3.8,2.261-3.2-1.84Zm.686-6.455h0l3.773-2.183,3.212,1.855-3.82,2.261-3.2-1.855Zm.8-7.8h0l3.789-2.183,3.118,1.855-3.8,2.261-3.118-1.855Zm2.822,37.278h0l3.851-2.292,3.118,1.855-3.8,2.261-3.2-1.855Zm.67-6.439,3.789-2.183,3.118,1.84-3.726,2.167-3.118-1.84Zm.265-13.517,3.773-2.183,3.212,1.855-3.8,2.261-3.2-1.84Zm.421,7.078h0l3.773-2.183,3.212,1.84-3.8,2.261-3.118-1.84Zm.265-13.533h0l3.773-2.183,3.212,1.855-3.82,2.261-3.2-1.855Zm1.949-7.172h0l3.773-2.183,3.212,1.855-3.82,2.261-3.2-1.855Zm1.668,36.608h0l9.713-5.6,3.2,1.84-9.729,5.691-3.2-1.855Zm.67-6.439,3.789-2.183,3.2,1.84-3.8,2.261-3.2-1.84Zm.686-6.439h0l3.773-2.183,3.212,1.84-3.8,2.261-3.2-1.84Zm.265-13.533h0l3.773-2.183,3.212,1.855-3.758,2.167-3.2-1.855Zm.421,7.094h0l3.773-2.2,3.2,1.855-3.8,2.261-3.165-1.949Zm1.559-14.266h0l3.773-2.183,3.212,1.855-3.82,2.261-3.2-1.855Zm3.025,23.73h0l3.773-2.183,3.212,1.84-3.8,2.261-3.2-1.84Zm.686-6.439h0l3.773-2.2,3.212,1.855-3.82,2.261-3.2-1.855Zm.686-6.455h0l3.789-2.183,3.2,1.855-3.82,2.167-3.2-1.855Zm.842-7.8h0l3.773-2.183,3.212,1.855-3.82,2.167-3.118-1.855Zm2.993,23.667h0l9.7-5.613,3.212,1.855-9.729,5.675-3.165-1.918Zm.686-6.439h0l3.773-2.2,3.212,1.855-3.742,2.214-3.2-1.855Zm.686-6.455h0l3.789-2.183,3.2,1.855-3.8,2.245-3.2-1.84Zm3.461-8.045h0l1.559-.951,3.2,1.84-1.637,1.029-3.118-1.84Zm1.777,11.07h0l3.789-2.183,3.118,1.855-3.8,2.245-3.118-1.84Zm3.461-8.045h0l1.559-.951,3.2,1.84-1.637,1.029-3.118-1.84Zm1.777,11.07,3.789-2.183,3.2,1.855-3.8,2.245-3.2-1.84Zm3.461-8.045h0l1.559-.951,3.118,1.84-1.559,1.029-3.118-1.84Zm5.239,3.025h0l1.559-.951,3.2,1.84-1.637,1.029-3.118-1.84Z" transform="translate(-192.602 -156.774)"/></g></g><g transform="translate(179.376 28.977)"><path class="i" d="M424.119,254.745,459.9,234.087,280.977,130.78l-35.8,20.658Z" transform="translate(-245.18 25.275)"/><g transform="translate(6.029)"><path class="b" d="M305.578,215.032l-25.554-14.765c-2.635-1.559-3.945-3.524-3.945-5.5v-3.555l24.042-13.658a5.613,5.613,0,0,0,2.541-4.4V141.66l44.622,25.772v31.51a5.582,5.582,0,0,1-2.557,4.4l-20.081,11.693a21.079,21.079,0,0,1-19.068,0Z" transform="translate(-233.932 31.358)"/><path class="l" d="M314.83,197.068v3.539l8.185-4.677a5.644,5.644,0,0,0,2.541-4.4V159.961l-8.5-4.911c-.187,2.152-.374,4.4-.546,6.564l5.956,3.446v24.618a5.566,5.566,0,0,1-2.541,4.4Z" transform="translate(-212.267 38.845)"/><path class="a" d="M344.16,195.336a5.644,5.644,0,0,1-2.541,4.412l-16.994,9.9a21.11,21.11,0,0,1-19.083,0l-25.554-14.718c-5.27-3.04-5.27-7.967,0-11.007L297,174.007a5.644,5.644,0,0,0,2.541-4.412V144.93l44.622,25.788Z" transform="translate(-233.958 33.186)"/><path class="m" d="M286.16,176.954h0l5.176-2.978a5.644,5.644,0,0,0,2.541-4.412V144.93L338.5,170.718v24.618a5.644,5.644,0,0,1-2.541,4.412l-5.083,2.978Z" transform="translate(-228.297 33.186)"/><path class="m" d="M276,173.44v3.555c0,2,1.31,3.976,3.945,5.5l25.679,14.765a19.208,19.208,0,0,0,9.105,2.261v-3.539a19.208,19.208,0,0,1-9.105-2.261L280.007,178.99C277.372,177.431,276,175.436,276,173.44Z" transform="translate(-233.977 49.127)"/><path class="d" d="M430.906,293.2a6.813,6.813,0,0,1-6.159-.125L252.17,193.447a7,7,0,0,1-3.118-5.5V36.881a5.956,5.956,0,0,1,9.136-5.27l172.578,99.627a7,7,0,0,1,3.118,5.5V287.8a6.844,6.844,0,0,1-2.978,5.395Z" transform="translate(-249.047 -30.688)"/><path class="c" d="M424.731,291.7,252.168,192.072a7.032,7.032,0,0,1-3.118-5.519V35.475c0-2.027,1.419-2.853,3.118-1.84l172.562,99.643a7,7,0,0,1,3.118,5.5V289.828C427.911,291.855,426.492,292.682,424.731,291.7Z" transform="translate(-249.045 -29.282)"/><path class="l" d="M362,207.42a5.94,5.94,0,0,0,8.684-5.519V185l-5.956,3.446V205.44C364.775,207.2,363.559,208.044,362,207.42Z" transform="translate(-185.894 55.59)"/><path class="n" d="M427.889,224.207v16.979c0,2.027-1.419,2.853-3.118,1.84L252.208,143.4a7.031,7.031,0,0,1-3.118-5.519V120.9Z" transform="translate(-249.023 19.751)"/><path class="k" d="M419.914,256.808V137.255A4.21,4.21,0,0,0,418,133.95L254.742,39.733c-1.06-.608-1.9-.109-1.9,1.107V160.346a4.209,4.209,0,0,0,1.918,3.305l163.192,94.2C418.979,258.57,419.914,258.024,419.914,256.808Z" transform="translate(-246.926 -25.775)"/><path class="o" d="M419.914,256.808V137.255A4.21,4.21,0,0,0,418,133.95L254.742,39.733c-1.06-.608-1.9-.109-1.9,1.107V160.346a4.209,4.209,0,0,0,1.918,3.305l163.192,94.2C418.979,258.57,419.914,258.024,419.914,256.808Z" transform="translate(-246.926 -25.775)"/><path class="d" d="M307.458,158.335a6.61,6.61,0,0,1,2.993,5.176c0,1.9-1.341,2.666-2.993,1.715a6.611,6.611,0,0,1-2.978-5.161C304.48,158.164,305.821,157.384,307.458,158.335Z" transform="translate(-218.054 40.455)"/><path class="j" d="M363.17,100.124a6.751,6.751,0,0,1,.951,3.118V237.7l5.956-3.336V99.828a6.674,6.674,0,0,0-.936-3.118Z" transform="translate(-185.24 6.226)"/></g></g><g transform="translate(213.567)"><path class="d" d="M267.126,15.265a.811.811,0,0,1,0-.281h0a.733.733,0,0,1,0-.265,1.559,1.559,0,0,1,.187-.39.934.934,0,0,1,.094-.172.123.123,0,0,1,.094-.109.763.763,0,0,1,.2-.187h0a.873.873,0,0,1,.265-.14,2.214,2.214,0,0,1,2.042.249L471.541,130.109a6.735,6.735,0,0,1,3.118,5.27V281.842a2.058,2.058,0,0,1-1.107,1.824l-.125.078-.156.094a.763.763,0,0,1-.265.094,1.666,1.666,0,0,1-.39,0,2.043,2.043,0,0,1-1.013-.281h-.078l-2.9-1.684L270.15,167.419a6.688,6.688,0,0,1-3.04-5.27V15.592a2.875,2.875,0,0,1,.016-.327Z" transform="translate(-267.11 -11.276)"/><path class="k" d="M267.75,14.452a2.214,2.214,0,0,1,2.042.249l201.39,116.232a6.736,6.736,0,0,1,3.118,5.27v9.947l3.882-2.276v-9.869a6.688,6.688,0,0,0-3.04-5.27L273.675,12.5a2.12,2.12,0,0,0-2.2-.171C270.915,12.66,268.389,14.109,267.75,14.452Z" transform="translate(-266.752 -12.101)"/><path class="k" d="M267.11,15.66c0-1.918,1.372-2.7,3.04-1.731l201.39,116.216a6.735,6.735,0,0,1,3.118,5.27v9.947L267.11,25.638Z" transform="translate(-267.11 -11.313)"/><g class="p" transform="translate(0.998)"><path class="n" d="M269.792,14.718l201.39,116.216a6.144,6.144,0,0,1,2.152,2.261l3.867-2.245a6.049,6.049,0,0,0-2.12-2.214L273.675,12.5a2.136,2.136,0,0,0-2.214-.171c-.546.327-3.118,1.762-3.711,2.1a2.23,2.23,0,0,1,2.042.281Z" transform="translate(-267.75 -12.102)"/></g><path class="i" d="M404.4,101.3V91.4a6.237,6.237,0,0,0-.92-3.118L399.6,90.51a6.236,6.236,0,0,1,.9,3.025v9.947Z" transform="translate(-193.033 30.49)"/><path class="d" d="M396.411,89.735a4.553,4.553,0,0,1,1.715,3.633c0,1.466-.78,2.2-1.715,1.653a4.521,4.521,0,0,1-1.731-3.633C394.68,89.922,395.46,89.189,396.411,89.735Z" transform="translate(-195.784 31.203)"/><path class="d" d="M392.441,87.439a4.584,4.584,0,0,1,1.715,3.648c0,1.45-.78,2.2-1.715,1.653a4.553,4.553,0,0,1-1.731-3.648C390.71,87.641,391.49,86.862,392.441,87.439Z" transform="translate(-198.004 29.913)"/><path class="d" d="M388.471,85.145a4.506,4.506,0,0,1,1.715,3.633c0,1.466-.764,2.2-1.715,1.653A4.521,4.521,0,0,1,386.74,86.8C386.74,85.332,387.52,84.6,388.471,85.145Z" transform="translate(-200.224 28.636)"/><path class="q" d="M399.5,237.252l.156-.094,3.2-1.855a3.227,3.227,0,0,0,1.559-2.354,2.217,2.217,0,0,0,0-.452V96.62L400.525,98.9V235.4a2,2,0,0,1-.951,1.731h-.094Z" transform="translate(-193.1 35.153)"/><g transform="translate(4.943 25.803)"><path class="k" d="M307.071,54.615l42.455,24.478a2.308,2.308,0,0,1,1.076,1.793c0,.639-.483.889-1.076.546L307.071,56.97a2.339,2.339,0,0,1-1.091-1.809C306.011,54.522,306.463,54.272,307.071,54.615Z" transform="translate(-250.32 -14.222)"/><path class="b" d="M317.466,84.655l16.106,9.261a2.323,2.323,0,0,1,1.076,1.793c0,.655-.483.9-1.076.546l-16.106-9.246a2.323,2.323,0,0,1-1.076-1.793C316.39,84.562,316.873,84.312,317.466,84.655Z" transform="translate(-244.499 2.574)"/><path class="b" d="M317.466,90.665l16.106,9.261a2.323,2.323,0,0,1,1.076,1.793c0,.655-.483.889-1.076.546L317.466,93.02a2.354,2.354,0,0,1-1.076-1.809C316.39,90.572,316.873,90.322,317.466,90.665Z" transform="translate(-244.499 5.934)"/><path class="k" d="M336.986,71.866l85,48.956a2.307,2.307,0,0,1,1.091,1.793c0,.655-.483.889-1.091.546l-85-48.956a2.323,2.323,0,0,1-1.076-1.793C335.91,71.757,336.393,71.523,336.986,71.866Z" transform="translate(-233.586 -4.578)"/><path class="k" d="M317.7,126.8l25.881,14.967a2.323,2.323,0,0,1,1.076,1.793c0,.655-.483.9-1.076.561L317.7,129.135a2.385,2.385,0,0,1-1.091-1.793C316.61,126.687,317.109,126.453,317.7,126.8Z" transform="translate(-244.376 26.134)"/><path class="k" d="M336.986,137.945l85,49.018a2.339,2.339,0,0,1,1.091,1.809c0,.639-.483.889-1.091.546l-85-49.018a2.339,2.339,0,0,1-1.076-1.809C335.91,137.852,336.393,137.6,336.986,137.945Z" transform="translate(-233.586 32.369)"/><path class="k" d="M307.071,60.649l21.375,12.286a2.276,2.276,0,0,1,1.091,1.793c0,.639-.483.889-1.091.546L307.071,62.988a2.308,2.308,0,0,1-1.091-1.793C306.011,60.54,306.463,60.29,307.071,60.649Z" transform="translate(-250.32 -10.854)"/><path class="r" d="M307.071,60.649l21.375,12.286a2.276,2.276,0,0,1,1.091,1.793c0,.639-.483.889-1.091.546L307.071,62.988a2.308,2.308,0,0,1-1.091-1.793C306.011,60.54,306.463,60.29,307.071,60.649Z" transform="translate(-250.32 -10.854)"/><path class="k" d="M307.071,66.635,317.081,72.4a2.339,2.339,0,0,1,1.076,1.809c0,.639-.483.889-1.076.546l-10.009-5.784a2.276,2.276,0,0,1-1.091-1.793C306.011,66.542,306.463,66.292,307.071,66.635Z" transform="translate(-250.32 -7.501)"/><path class="r" d="M307.071,66.635,317.081,72.4a2.339,2.339,0,0,1,1.076,1.809c0,.639-.483.889-1.076.546l-10.009-5.784a2.276,2.276,0,0,1-1.091-1.793C306.011,66.542,306.463,66.292,307.071,66.635Z" transform="translate(-250.32 -7.501)"/><path class="k" d="M307.06,78.656l10.01,5.769a2.323,2.323,0,0,1,1.076,1.793c0,.655-.483.889-1.076.546l-10.01-5.769A2.308,2.308,0,0,1,306,79.279C306,78.546,306.452,78.313,307.06,78.656Z" transform="translate(-250.309 -0.781)"/><path class="r" d="M307.06,78.656l10.01,5.769a2.323,2.323,0,0,1,1.076,1.793c0,.655-.483.889-1.076.546l-10.01-5.769A2.308,2.308,0,0,1,306,79.279C306,78.546,306.452,78.313,307.06,78.656Z" transform="translate(-250.309 -0.781)"/><path class="k" d="M307.06,84.666l10.01,5.769a2.308,2.308,0,0,1,1.076,1.793c0,.639-.483.889-1.076.546L307.06,87A2.307,2.307,0,0,1,306,85.274C306,84.557,306.452,84.323,307.06,84.666Z" transform="translate(-250.309 2.579)"/><path class="r" d="M307.06,84.666l10.01,5.769a2.308,2.308,0,0,1,1.076,1.793c0,.639-.483.889-1.076.546L307.06,87A2.307,2.307,0,0,1,306,85.274C306,84.557,306.452,84.323,307.06,84.666Z" transform="translate(-250.309 2.579)"/><path class="k" d="M323.466,70.044,336.3,77.466a2.354,2.354,0,0,1,1.076,1.809c0,.639-.483.889-1.076.546l-12.832-7.437a2.323,2.323,0,0,1-1.076-1.793C322.39,70.044,322.873,69.733,323.466,70.044Z" transform="translate(-241.145 -5.578)"/><path class="r" d="M323.466,70.044,336.3,77.466a2.354,2.354,0,0,1,1.076,1.809c0,.639-.483.889-1.076.546l-12.832-7.437a2.323,2.323,0,0,1-1.076-1.793C322.39,70.044,322.873,69.733,323.466,70.044Z" transform="translate(-241.145 -5.578)"/><path class="n" d="M336.186,113.5l86.25,49.658a2.307,2.307,0,0,1,1.092,1.793c0,.655-.483.9-1.092.561l-86.25-49.6a2.354,2.354,0,0,1-1.076-1.809C335.11,113.411,335.593,113.162,336.186,113.5Z" transform="translate(-234.033 18.705)"/><path class="n" d="M383.291,134.576l12.816,7.437a2.276,2.276,0,0,1,1.091,1.793c0,.639-.483.889-1.091.546l-12.816-7.468a2.276,2.276,0,0,1-1.091-1.793C382.2,134.482,382.683,134.233,383.291,134.576Z" transform="translate(-207.704 30.484)"/><path class="n" d="M325.276,101.175l86.25,49.7a2.323,2.323,0,0,1,1.076,1.793c0,.655-.483.889-1.076.546l-86.25-49.658a2.308,2.308,0,0,1-1.076-1.793C324.2,101.081,324.683,100.832,325.276,101.175Z" transform="translate(-240.133 11.811)"/><path class="k" d="M317.466,72.645l21.391,12.286a2.323,2.323,0,0,1,1.076,1.793c0,.655-.483.9-1.076.561l-21.391-12.3a2.307,2.307,0,0,1-1.076-1.793C316.39,72.552,316.873,72.3,317.466,72.645Z" transform="translate(-244.499 -4.141)"/><path class="r" d="M317.466,72.645l21.391,12.286a2.323,2.323,0,0,1,1.076,1.793c0,.655-.483.9-1.076.561l-21.391-12.3a2.307,2.307,0,0,1-1.076-1.793C316.39,72.552,316.873,72.3,317.466,72.645Z" transform="translate(-244.499 -4.141)"/><path class="k" d="M333.876,82.044l89.212,51.622a2.307,2.307,0,0,1,1.091,1.793c0,.655-.483.889-1.091.546L333.876,84.4a2.323,2.323,0,0,1-1.076-1.793C332.8,82.044,333.283,81.732,333.876,82.044Z" transform="translate(-235.324 1.131)"/><path class="r" d="M333.876,82.044l89.212,51.622a2.307,2.307,0,0,1,1.091,1.793c0,.655-.483.889-1.091.546L333.876,84.4a2.323,2.323,0,0,1-1.076-1.793C332.8,82.044,333.283,81.732,333.876,82.044Z" transform="translate(-235.324 1.131)"/><path class="b" d="M317.466,108.815,432.84,175.389a2.276,2.276,0,0,1,1.091,1.793c0,.639-.483.889-1.091.546L317.466,111.154a2.307,2.307,0,0,1-1.076-1.793C316.39,108.722,316.873,108.472,317.466,108.815Z" transform="translate(-244.499 16.082)"/><path class="k" d="M307.071,102.819l10.009,5.769a2.307,2.307,0,0,1,1.076,1.793c0,.639-.483.889-1.076.546l-10.009-5.769a2.308,2.308,0,0,1-1.091-1.793C306.011,102.71,306.463,102.46,307.071,102.819Z" transform="translate(-250.32 12.724)"/><path class="r" d="M307.071,102.819l10.009,5.769a2.307,2.307,0,0,1,1.076,1.793c0,.639-.483.889-1.076.546l-10.009-5.769a2.308,2.308,0,0,1-1.091-1.793C306.011,102.71,306.463,102.46,307.071,102.819Z" transform="translate(-250.32 12.724)"/><path class="b" d="M317.466,114.826,432.84,181.385a2.339,2.339,0,0,1,1.091,1.809c0,.639-.483.889-1.091.546L317.466,117.165a2.323,2.323,0,0,1-1.076-1.793C316.39,114.717,316.873,114.483,317.466,114.826Z" transform="translate(-244.499 19.441)"/><path class="k" d="M307.071,108.815l10.009,5.769a2.323,2.323,0,0,1,1.076,1.793c0,.655-.483.9-1.076.546l-10.009-5.769a2.276,2.276,0,0,1-1.091-1.793C306.011,108.722,306.463,108.472,307.071,108.815Z" transform="translate(-250.32 16.082)"/><path class="r" d="M307.071,108.815l10.009,5.769a2.323,2.323,0,0,1,1.076,1.793c0,.655-.483.9-1.076.546l-10.009-5.769a2.276,2.276,0,0,1-1.091-1.793C306.011,108.722,306.463,108.472,307.071,108.815Z" transform="translate(-250.32 16.082)"/><path class="b" d="M317.466,120.825,432.84,187.4a2.308,2.308,0,0,1,1.091,1.793c0,.655-.483.889-1.091.546L317.466,123.18a2.354,2.354,0,0,1-1.076-1.809C316.39,120.732,316.873,120.482,317.466,120.825Z" transform="translate(-244.499 22.797)"/><path class="k" d="M307.071,114.826l10.009,5.769a2.323,2.323,0,0,1,1.076,1.793c0,.639-.483.889-1.076.546l-10.009-5.769a2.308,2.308,0,0,1-1.091-1.793C306.011,114.717,306.463,114.483,307.071,114.826Z" transform="translate(-250.32 19.441)"/><path class="r" d="M307.071,114.826l10.009,5.769a2.323,2.323,0,0,1,1.076,1.793c0,.639-.483.889-1.076.546l-10.009-5.769a2.308,2.308,0,0,1-1.091-1.793C306.011,114.717,306.463,114.483,307.071,114.826Z" transform="translate(-250.32 19.441)"/><g class="s" transform="translate(40.085 30.861)"><path class="n" d="M297.05,48.593l5.878,3.4A2.37,2.37,0,0,1,304,53.831V56c0,.686-.483.967-1.076.624l-5.878-3.4a2.354,2.354,0,0,1-1.06-1.855V49.216C296.006,48.53,296.458,48.249,297.05,48.593Z" transform="translate(-295.99 -48.446)"/><path class="n" d="M297.05,54.65l5.878,3.4A2.37,2.37,0,0,1,304,59.9v2.167c0,.67-.483.951-1.076.608l-5.878-3.4a2.323,2.323,0,0,1-1.06-1.84V55.274C296.006,54.588,296.458,54.323,297.05,54.65Z" transform="translate(-295.99 -45.055)"/><path class="n" d="M297.05,60.723l5.878,3.4A2.37,2.37,0,0,1,304,65.961v2.167c0,.686-.483.951-1.076.624l-5.878-3.4a2.354,2.354,0,0,1-1.06-1.855V61.331C296.006,60.66,296.458,60.38,297.05,60.723Z" transform="translate(-295.99 -41.664)"/><path class="n" d="M297.05,66.78l5.878,3.4A2.37,2.37,0,0,1,304,72.034V74.2c0,.67-.483.951-1.076.608l-5.878-3.4a2.354,2.354,0,0,1-1.06-1.84V67.4C296.006,66.718,296.458,66.453,297.05,66.78Z" transform="translate(-295.99 -38.273)"/><path class="n" d="M297.05,72.853l5.878,3.43A2.339,2.339,0,0,1,304,78.122V80.29c0,.686-.483.951-1.076.624l-5.878-3.4a2.354,2.354,0,0,1-1.06-1.855v-2.2C296.006,72.79,296.458,72.51,297.05,72.853Z" transform="translate(-295.99 -34.882)"/><path class="n" d="M297.05,78.912l5.878,3.337A2.37,2.37,0,0,1,304,84.1v2.152c0,.686-.483.967-1.076.624l-5.878-3.4a2.354,2.354,0,0,1-1.06-1.84v-2.1C296.006,78.85,296.458,78.569,297.05,78.912Z" transform="translate(-295.99 -31.494)"/><path class="n" d="M297.05,84.983l5.878,3.4A2.339,2.339,0,0,1,304,90.221v2.167c0,.686-.483.951-1.076.624l-5.878-3.4a2.354,2.354,0,0,1-1.06-1.855V85.591C296.006,84.92,296.458,84.64,297.05,84.983Z" transform="translate(-295.99 -28.1)"/><path class="n" d="M297.05,91.051l5.878,3.4A2.37,2.37,0,0,1,304,96.305v2.152c0,.686-.483.967-1.076.624l-5.878-3.352a2.354,2.354,0,0,1-1.06-1.84v-2.23C296.006,91.051,296.458,90.693,297.05,91.051Z" transform="translate(-295.99 -24.705)"/><path class="n" d="M297.05,97.115l5.878,3.4a2.339,2.339,0,0,1,1.076,1.84v2.167c0,.686-.483.951-1.076.608l-5.878-3.43a2.354,2.354,0,0,1-1.06-1.855v-2.12C296.006,97.021,296.458,96.772,297.05,97.115Z" transform="translate(-295.99 -21.32)"/><path class="n" d="M297.05,103.173l5.878,3.4A2.37,2.37,0,0,1,304,108.427v2.152c0,.686-.483.967-1.076.624l-5.878-3.4a2.354,2.354,0,0,1-1.06-1.855V103.8C296.006,103.11,296.458,102.829,297.05,103.173Z" transform="translate(-295.99 -17.93)"/><path class="n" d="M297.045,109.235l5.878,3.383A2.37,2.37,0,0,1,304,114.474v2.167c0,.686-.483.951-1.076.608l-5.878-3.383A2.354,2.354,0,0,1,296,112.057V109.89C296,109.173,296.452,108.939,297.045,109.235Z" transform="translate(-295.984 -14.528)"/><path class="n" d="M297.045,115.31l5.878,3.4A2.37,2.37,0,0,1,304,120.565v2.152c0,.686-.483.967-1.076.624l-5.878-3.4a2.354,2.354,0,0,1-1.045-1.9v-2.152C296,115.248,296.452,114.921,297.045,115.31Z" transform="translate(-295.984 -11.156)"/></g><path class="c" d="M272.416,28.945l31.806,18.366a4.677,4.677,0,0,1,2.136,3.711V87.739c0,1.356-.967,1.9-2.136,1.232L272.416,70.6a4.677,4.677,0,0,1-2.136-3.711V30.177C270.28,28.82,271.231,28.259,272.416,28.945Z" transform="translate(-270.28 -28.652)"/><path class="k" d="M273.926,52.239l2.931,1.684a2.355,2.355,0,0,1,1.076,1.809c0,.639-.483.889-1.076.546l-2.931-1.7a2.323,2.323,0,0,1-1.076-1.793C272.85,52.13,273.333,51.943,273.926,52.239Z" transform="translate(-268.843 -15.541)"/><path class="r" d="M273.926,52.239l2.931,1.684a2.355,2.355,0,0,1,1.076,1.809c0,.639-.483.889-1.076.546l-2.931-1.7a2.323,2.323,0,0,1-1.076-1.793C272.85,52.13,273.333,51.943,273.926,52.239Z" transform="translate(-268.843 -15.541)"/><path class="k" d="M273.926,32.956l2.931,1.715a2.354,2.354,0,0,1,1.076,1.809c0,.639-.483.889-1.076.546l-2.931-1.7a2.323,2.323,0,0,1-1.076-1.793C272.85,32.847,273.333,32.613,273.926,32.956Z" transform="translate(-268.843 -26.333)"/><path class="r" d="M273.926,32.956l2.931,1.715a2.354,2.354,0,0,1,1.076,1.809c0,.639-.483.889-1.076.546l-2.931-1.7a2.323,2.323,0,0,1-1.076-1.793C272.85,32.847,273.333,32.613,273.926,32.956Z" transform="translate(-268.843 -26.333)"/><path class="k" d="M276.566,38.325l2.931,1.7a2.308,2.308,0,0,1,1.076,1.793c0,.639-.483.889-1.076.546l-2.931-1.7a2.307,2.307,0,0,1-1.076-1.793C275.49,38.232,275.973,37.982,276.566,38.325Z" transform="translate(-267.367 -23.33)"/><path class="r" d="M276.566,38.325l2.931,1.7a2.308,2.308,0,0,1,1.076,1.793c0,.639-.483.889-1.076.546l-2.931-1.7a2.307,2.307,0,0,1-1.076-1.793C275.49,38.232,275.973,37.982,276.566,38.325Z" transform="translate(-267.367 -23.33)"/><path class="k" d="M276.566,42.175l2.931,1.7a2.308,2.308,0,0,1,1.076,1.793c0,.639-.483.889-1.076.546l-2.931-1.7a2.307,2.307,0,0,1-1.076-1.793C275.49,42.082,275.973,41.832,276.566,42.175Z" transform="translate(-267.367 -21.177)"/><path class="r" d="M276.566,42.175l2.931,1.7a2.308,2.308,0,0,1,1.076,1.793c0,.639-.483.889-1.076.546l-2.931-1.7a2.307,2.307,0,0,1-1.076-1.793C275.49,42.082,275.973,41.832,276.566,42.175Z" transform="translate(-267.367 -21.177)"/><path class="k" d="M273.926,44.525l2.931,1.7a2.307,2.307,0,0,1,1.076,1.793c0,.639-.483.889-1.076.546l-2.931-1.653a2.307,2.307,0,0,1-1.076-1.793C272.85,44.431,273.333,44.182,273.926,44.525Z" transform="translate(-268.843 -19.863)"/><path class="r" d="M273.926,44.525l2.931,1.7a2.307,2.307,0,0,1,1.076,1.793c0,.639-.483.889-1.076.546l-2.931-1.653a2.307,2.307,0,0,1-1.076-1.793C272.85,44.431,273.333,44.182,273.926,44.525Z" transform="translate(-268.843 -19.863)"/><path class="k" d="M276.566,49.906,279.5,51.59a2.323,2.323,0,0,1,1.076,1.793c0,.655-.483.9-1.076.546l-2.931-1.684a2.323,2.323,0,0,1-1.076-1.793C275.49,49.8,275.973,49.563,276.566,49.906Z" transform="translate(-267.367 -16.856)"/><path class="r" d="M276.566,49.906,279.5,51.59a2.323,2.323,0,0,1,1.076,1.793c0,.655-.483.9-1.076.546l-2.931-1.684a2.323,2.323,0,0,1-1.076-1.793C275.49,49.8,275.973,49.563,276.566,49.906Z" transform="translate(-267.367 -16.856)"/><path class="k" d="M279.066,35.925l17.883,10.321a2.323,2.323,0,0,1,1.076,1.793c0,.655-.483.889-1.076.546L279.066,38.264a2.323,2.323,0,0,1-1.076-1.793C278.006,35.832,278.473,35.582,279.066,35.925Z" transform="translate(-265.969 -24.672)"/><path class="t" d="M279.066,35.925l17.883,10.321a2.323,2.323,0,0,1,1.076,1.793c0,.655-.483.889-1.076.546L279.066,38.264a2.323,2.323,0,0,1-1.076-1.793C278.006,35.832,278.473,35.582,279.066,35.925Z" transform="translate(-265.969 -24.672)"/><path class="k" d="M279.066,55.216l17.883,10.321a2.324,2.324,0,0,1,1.076,1.793c0,.655-.483.889-1.076.546L279.066,57.555a2.323,2.323,0,0,1-1.076-1.793C278.006,55.107,278.473,54.873,279.066,55.216Z" transform="translate(-265.969 -13.887)"/><path class="t" d="M279.066,55.216l17.883,10.321a2.324,2.324,0,0,1,1.076,1.793c0,.655-.483.889-1.076.546L279.066,57.555a2.323,2.323,0,0,1-1.076-1.793C278.006,55.107,278.473,54.873,279.066,55.216Z" transform="translate(-265.969 -13.887)"/><path class="k" d="M281.706,41.3l13.767,7.967a2.323,2.323,0,0,1,1.076,1.793c0,.655-.483.889-1.076.546l-13.767-7.967a2.308,2.308,0,0,1-1.076-1.793C280.63,41.207,281.113,40.926,281.706,41.3Z" transform="translate(-264.493 -21.674)"/><path class="t" d="M281.706,41.3l13.767,7.967a2.323,2.323,0,0,1,1.076,1.793c0,.655-.483.889-1.076.546l-13.767-7.967a2.308,2.308,0,0,1-1.076-1.793C280.63,41.207,281.113,40.926,281.706,41.3Z" transform="translate(-264.493 -21.674)"/><path class="k" d="M281.706,45.16l13.767,7.967a2.307,2.307,0,0,1,1.076,1.793c0,.639-.483.889-1.076.546L281.706,47.5a2.308,2.308,0,0,1-1.076-1.793C280.63,45,281.113,44.817,281.706,45.16Z" transform="translate(-264.493 -19.516)"/><path class="t" d="M281.706,45.16l13.767,7.967a2.307,2.307,0,0,1,1.076,1.793c0,.639-.483.889-1.076.546L281.706,47.5a2.308,2.308,0,0,1-1.076-1.793C280.63,45,281.113,44.817,281.706,45.16Z" transform="translate(-264.493 -19.516)"/><path class="k" d="M279.066,47.495l17.883,10.321a2.354,2.354,0,0,1,1.076,1.809c0,.639-.483.889-1.076.546L279.066,49.927a2.354,2.354,0,0,1-1.076-1.809C278.006,47.4,278.473,47.152,279.066,47.495Z" transform="translate(-265.969 -18.202)"/><path class="t" d="M279.066,47.495l17.883,10.321a2.354,2.354,0,0,1,1.076,1.809c0,.639-.483.889-1.076.546L279.066,49.927a2.354,2.354,0,0,1-1.076-1.809C278.006,47.4,278.473,47.152,279.066,47.495Z" transform="translate(-265.969 -18.202)"/><path class="k" d="M281.706,52.876l13.767,7.951a2.323,2.323,0,0,1,1.076,1.793c0,.655-.483.9-1.076.546l-13.767-7.951a2.323,2.323,0,0,1-1.076-1.793C280.63,52.767,281.113,52.533,281.706,52.876Z" transform="translate(-264.493 -15.196)"/><path class="t" d="M281.706,52.876l13.767,7.951a2.323,2.323,0,0,1,1.076,1.793c0,.655-.483.9-1.076.546l-13.767-7.951a2.323,2.323,0,0,1-1.076-1.793C280.63,52.767,281.113,52.533,281.706,52.876Z" transform="translate(-264.493 -15.196)"/><path class="c" d="M272.416,60.109l31.806,18.366a4.677,4.677,0,0,1,2.136,3.7v72.577c0,1.356-.967,1.9-2.136,1.232l-31.806-18.366a4.678,4.678,0,0,1-2.136-3.7V61.325C270.28,59.968,271.231,59.407,272.416,60.109Z" transform="translate(-270.28 -11.234)"/><path class="k" d="M273.926,64.1l2.931,1.7a2.307,2.307,0,0,1,1.076,1.793c0,.639-.483.889-1.076.546l-2.931-1.7a2.307,2.307,0,0,1-1.076-1.793C272.85,64.026,273.333,63.761,273.926,64.1Z" transform="translate(-268.843 -8.915)"/><path class="r" d="M273.926,64.1l2.931,1.7a2.307,2.307,0,0,1,1.076,1.793c0,.639-.483.889-1.076.546l-2.931-1.7a2.307,2.307,0,0,1-1.076-1.793C272.85,64.026,273.333,63.761,273.926,64.1Z" transform="translate(-268.843 -8.915)"/><path class="k" d="M276.566,69.475l2.931,1.7a2.323,2.323,0,0,1,1.076,1.793c0,.655-.483.889-1.076.546l-2.931-1.684a2.354,2.354,0,0,1-1.076-1.809C275.49,69.382,275.973,69.132,276.566,69.475Z" transform="translate(-267.367 -5.913)"/><path class="r" d="M276.566,69.475l2.931,1.7a2.323,2.323,0,0,1,1.076,1.793c0,.655-.483.889-1.076.546l-2.931-1.684a2.354,2.354,0,0,1-1.076-1.809C275.49,69.382,275.973,69.132,276.566,69.475Z" transform="translate(-267.367 -5.913)"/><path class="k" d="M276.566,73.325l2.931,1.7a2.308,2.308,0,0,1,1.076,1.793c0,.639-.483.889-1.076.546l-2.931-1.7a2.307,2.307,0,0,1-1.076-1.793C275.49,73.232,275.973,72.982,276.566,73.325Z" transform="translate(-267.367 -3.761)"/><path class="r" d="M276.566,73.325l2.931,1.7a2.308,2.308,0,0,1,1.076,1.793c0,.639-.483.889-1.076.546l-2.931-1.7a2.307,2.307,0,0,1-1.076-1.793C275.49,73.232,275.973,72.982,276.566,73.325Z" transform="translate(-267.367 -3.761)"/><path class="k" d="M273.926,75.675l2.931,1.7a2.307,2.307,0,0,1,1.076,1.793c0,.639-.483.889-1.076.546l-2.931-1.7a2.307,2.307,0,0,1-1.076-1.793C272.85,75.582,273.333,75.332,273.926,75.675Z" transform="translate(-268.843 -2.447)"/><path class="r" d="M273.926,75.675l2.931,1.7a2.307,2.307,0,0,1,1.076,1.793c0,.639-.483.889-1.076.546l-2.931-1.7a2.307,2.307,0,0,1-1.076-1.793C272.85,75.582,273.333,75.332,273.926,75.675Z" transform="translate(-268.843 -2.447)"/><path class="k" d="M279.066,67.044l17.883,10.321a2.323,2.323,0,0,1,1.076,1.793c0,.655-.483.9-1.076.546L279.066,69.383a2.308,2.308,0,0,1-1.076-1.793C278.006,67.044,278.473,66.733,279.066,67.044Z" transform="translate(-265.969 -7.256)"/><path class="t" d="M279.066,67.044l17.883,10.321a2.323,2.323,0,0,1,1.076,1.793c0,.655-.483.9-1.076.546L279.066,69.383a2.308,2.308,0,0,1-1.076-1.793C278.006,67.044,278.473,66.733,279.066,67.044Z" transform="translate(-265.969 -7.256)"/><path class="k" d="M281.706,72.445l13.767,7.967a2.323,2.323,0,0,1,1.076,1.793c0,.655-.483.889-1.076.546L281.706,74.8a2.354,2.354,0,0,1-1.076-1.809C280.63,72.352,281.113,72.1,281.706,72.445Z" transform="translate(-264.493 -4.253)"/><path class="t" d="M281.706,72.445l13.767,7.967a2.323,2.323,0,0,1,1.076,1.793c0,.655-.483.889-1.076.546L281.706,74.8a2.354,2.354,0,0,1-1.076-1.809C280.63,72.352,281.113,72.1,281.706,72.445Z" transform="translate(-264.493 -4.253)"/><path class="k" d="M281.706,76.313l13.767,7.967a2.308,2.308,0,0,1,1.076,1.793c0,.639-.483.889-1.076.546l-13.767-7.967a2.308,2.308,0,0,1-1.076-1.793C280.63,76.219,281.113,75.923,281.706,76.313Z" transform="translate(-264.493 -2.102)"/><path class="t" d="M281.706,76.313l13.767,7.967a2.308,2.308,0,0,1,1.076,1.793c0,.639-.483.889-1.076.546l-13.767-7.967a2.308,2.308,0,0,1-1.076-1.793C280.63,76.219,281.113,75.923,281.706,76.313Z" transform="translate(-264.493 -2.102)"/><path class="k" d="M279.06,78.644l17.883,10.337a2.308,2.308,0,0,1,1.076,1.793c0,.639-.483.889-1.076.546L279.06,81A2.323,2.323,0,0,1,278,79.284C278,78.551,278.468,78.3,279.06,78.644Z" transform="translate(-265.964 -0.785)"/><path class="t" d="M279.06,78.644l17.883,10.337a2.308,2.308,0,0,1,1.076,1.793c0,.639-.483.889-1.076.546L279.06,81A2.323,2.323,0,0,1,278,79.284C278,78.551,278.468,78.3,279.06,78.644Z" transform="translate(-265.964 -0.785)"/><path class="k" d="M276.566,81.044l2.931,1.7a2.308,2.308,0,0,1,1.076,1.793c0,.639-.483.889-1.076.546l-2.931-1.7a2.307,2.307,0,0,1-1.076-1.793C275.49,81.044,275.973,80.733,276.566,81.044Z" transform="translate(-267.367 0.572)"/><path class="r" d="M276.566,81.044l2.931,1.7a2.308,2.308,0,0,1,1.076,1.793c0,.639-.483.889-1.076.546l-2.931-1.7a2.307,2.307,0,0,1-1.076-1.793C275.49,81.044,275.973,80.733,276.566,81.044Z" transform="translate(-267.367 0.572)"/><path class="k" d="M276.566,84.926l2.931,1.762a2.354,2.354,0,0,1,1.076,1.809c0,.639-.483.889-1.076.546l-2.931-1.7a2.323,2.323,0,0,1-1.076-1.793C275.49,84.816,275.973,84.583,276.566,84.926Z" transform="translate(-267.367 2.725)"/><path class="r" d="M276.566,84.926l2.931,1.762a2.354,2.354,0,0,1,1.076,1.809c0,.639-.483.889-1.076.546l-2.931-1.7a2.323,2.323,0,0,1-1.076-1.793C275.49,84.816,275.973,84.583,276.566,84.926Z" transform="translate(-267.367 2.725)"/><path class="k" d="M281.706,84.059l13.767,7.967a2.307,2.307,0,0,1,1.076,1.793c0,.639-.483.889-1.076.546L281.706,86.4A2.308,2.308,0,0,1,280.63,84.6C280.63,83.95,281.113,83.7,281.706,84.059Z" transform="translate(-264.493 2.235)"/><path class="t" d="M281.706,84.059l13.767,7.967a2.307,2.307,0,0,1,1.076,1.793c0,.639-.483.889-1.076.546L281.706,86.4A2.308,2.308,0,0,1,280.63,84.6C280.63,83.95,281.113,83.7,281.706,84.059Z" transform="translate(-264.493 2.235)"/><path class="k" d="M281.706,87.906l13.767,8.029a2.308,2.308,0,0,1,1.076,1.793c0,.639-.483.889-1.076.546l-13.767-7.967a2.323,2.323,0,0,1-1.076-1.793C280.63,87.8,281.113,87.563,281.706,87.906Z" transform="translate(-264.493 4.391)"/><path class="t" d="M281.706,87.906l13.767,8.029a2.308,2.308,0,0,1,1.076,1.793c0,.639-.483.889-1.076.546l-13.767-7.967a2.323,2.323,0,0,1-1.076-1.793C280.63,87.8,281.113,87.563,281.706,87.906Z" transform="translate(-264.493 4.391)"/><path class="k" d="M273.926,95.073l2.931,1.559a2.323,2.323,0,0,1,1.076,1.793c0,.655-.483.9-1.076.546l-2.931-1.684a2.323,2.323,0,0,1-1.076-1.793C272.85,94.9,273.333,94.667,273.926,95.073Z" transform="translate(-268.843 8.371)"/><path class="r" d="M273.926,95.073l2.931,1.559a2.323,2.323,0,0,1,1.076,1.793c0,.655-.483.9-1.076.546l-2.931-1.684a2.323,2.323,0,0,1-1.076-1.793C272.85,94.9,273.333,94.667,273.926,95.073Z" transform="translate(-268.843 8.371)"/><path class="k" d="M279.066,97.985l17.883,10.321a2.323,2.323,0,0,1,1.076,1.793c0,.655-.483.9-1.076.546l-17.883-10.321a2.308,2.308,0,0,1-1.076-1.793C278.006,97.892,278.473,97.642,279.066,97.985Z" transform="translate(-265.969 10.027)"/><path class="t" d="M279.066,97.985l17.883,10.321a2.323,2.323,0,0,1,1.076,1.793c0,.655-.483.9-1.076.546l-17.883-10.321a2.308,2.308,0,0,1-1.076-1.793C278.006,97.892,278.473,97.642,279.066,97.985Z" transform="translate(-265.969 10.027)"/><path class="k" d="M276.566,100.419,279.5,102.1a2.323,2.323,0,0,1,1.076,1.793c0,.655-.483.9-1.076.546l-2.931-1.684a2.323,2.323,0,0,1-1.076-1.793C275.49,100.31,275.973,100.06,276.566,100.419Z" transform="translate(-267.367 11.382)"/><path class="r" d="M276.566,100.419,279.5,102.1a2.323,2.323,0,0,1,1.076,1.793c0,.655-.483.9-1.076.546l-2.931-1.684a2.323,2.323,0,0,1-1.076-1.793C275.49,100.31,275.973,100.06,276.566,100.419Z" transform="translate(-267.367 11.382)"/><path class="k" d="M276.566,104.25l2.931,1.7a2.323,2.323,0,0,1,1.076,1.793c0,.655-.483.889-1.076.546l-2.931-1.684a2.339,2.339,0,0,1-1.076-1.809C275.49,104.157,275.973,103.939,276.566,104.25Z" transform="translate(-267.367 13.537)"/><path class="r" d="M276.566,104.25l2.931,1.7a2.323,2.323,0,0,1,1.076,1.793c0,.655-.483.889-1.076.546l-2.931-1.684a2.339,2.339,0,0,1-1.076-1.809C275.49,104.157,275.973,103.939,276.566,104.25Z" transform="translate(-267.367 13.537)"/><path class="k" d="M281.706,103.389l13.767,7.951a2.323,2.323,0,0,1,1.076,1.793c0,.655-.483.9-1.076.561l-13.767-7.967a2.323,2.323,0,0,1-1.076-1.793C280.63,103.28,281.113,103.03,281.706,103.389Z" transform="translate(-264.493 13.042)"/><path class="t" d="M281.706,103.389l13.767,7.951a2.323,2.323,0,0,1,1.076,1.793c0,.655-.483.9-1.076.561l-13.767-7.967a2.323,2.323,0,0,1-1.076-1.793C280.63,103.28,281.113,103.03,281.706,103.389Z" transform="translate(-264.493 13.042)"/><path class="k" d="M281.706,107.225l13.767,7.967a2.323,2.323,0,0,1,1.076,1.793c0,.655-.483.889-1.076.546l-13.767-7.951a2.354,2.354,0,0,1-1.076-1.809C280.63,107.132,281.113,106.945,281.706,107.225Z" transform="translate(-264.493 15.208)"/><path class="t" d="M281.706,107.225l13.767,7.967a2.323,2.323,0,0,1,1.076,1.793c0,.655-.483.889-1.076.546l-13.767-7.951a2.354,2.354,0,0,1-1.076-1.809C280.63,107.132,281.113,106.945,281.706,107.225Z" transform="translate(-264.493 15.208)"/><path class="k" d="M276.566,88.759l2.931,1.684a2.323,2.323,0,0,1,1.076,1.793c0,.655-.483.889-1.076.546L276.566,91.1A2.323,2.323,0,0,1,275.49,89.3C275.49,88.65,275.973,88.4,276.566,88.759Z" transform="translate(-267.367 4.863)"/><path class="r" d="M276.566,88.759l2.931,1.684a2.323,2.323,0,0,1,1.076,1.793c0,.655-.483.889-1.076.546L276.566,91.1A2.323,2.323,0,0,1,275.49,89.3C275.49,88.65,275.973,88.4,276.566,88.759Z" transform="translate(-267.367 4.863)"/><path class="k" d="M273.926,91.107l2.931,1.684a2.323,2.323,0,0,1,1.076,1.793c0,.655-.483.889-1.076.546l-2.931-1.684a2.323,2.323,0,0,1-1.076-1.793C272.85,91.029,273.333,90.748,273.926,91.107Z" transform="translate(-268.843 6.179)"/><path class="r" d="M273.926,91.107l2.931,1.684a2.323,2.323,0,0,1,1.076,1.793c0,.655-.483.889-1.076.546l-2.931-1.684a2.323,2.323,0,0,1-1.076-1.793C272.85,91.029,273.333,90.748,273.926,91.107Z" transform="translate(-268.843 6.179)"/><path class="k" d="M281.706,91.739l13.767,7.951a2.323,2.323,0,0,1,1.076,1.793c0,.655-.483.9-1.076.546l-13.767-7.951a2.323,2.323,0,0,1-1.076-1.793C280.63,91.63,281.113,91.38,281.706,91.739Z" transform="translate(-264.493 6.529)"/><path class="t" d="M281.706,91.739l13.767,7.951a2.323,2.323,0,0,1,1.076,1.793c0,.655-.483.9-1.076.546l-13.767-7.951a2.323,2.323,0,0,1-1.076-1.793C280.63,91.63,281.113,91.38,281.706,91.739Z" transform="translate(-264.493 6.529)"/><path class="k" d="M279.066,94.044l17.883,10.321a2.323,2.323,0,0,1,1.076,1.793c0,.655-.483.889-1.076.546L279.066,96.383a2.323,2.323,0,0,1-1.076-1.793C278.006,94.044,278.473,93.733,279.066,94.044Z" transform="translate(-265.969 7.84)"/><path class="t" d="M279.066,94.044l17.883,10.321a2.323,2.323,0,0,1,1.076,1.793c0,.655-.483.889-1.076.546L279.066,96.383a2.323,2.323,0,0,1-1.076-1.793C278.006,94.044,278.473,93.733,279.066,94.044Z" transform="translate(-265.969 7.84)"/><path class="k" d="M273.926,106.666l2.931,1.684a2.323,2.323,0,0,1,1.076,1.793c0,.655-.483.9-1.076.561l-2.931-1.7a2.323,2.323,0,0,1-1.076-1.793C272.85,106.557,273.333,106.323,273.926,106.666Z" transform="translate(-268.843 14.879)"/><path class="r" d="M273.926,106.666l2.931,1.684a2.323,2.323,0,0,1,1.076,1.793c0,.655-.483.9-1.076.561l-2.931-1.7a2.323,2.323,0,0,1-1.076-1.793C272.85,106.557,273.333,106.323,273.926,106.666Z" transform="translate(-268.843 14.879)"/><path class="k" d="M279.066,109.635l17.883,10.321a2.323,2.323,0,0,1,1.076,1.793c0,.655-.483.9-1.076.546l-17.883-10.321a2.308,2.308,0,0,1-1.076-1.793C278.006,109.542,278.473,109.292,279.066,109.635Z" transform="translate(-265.969 16.54)"/><path class="t" d="M279.066,109.635l17.883,10.321a2.323,2.323,0,0,1,1.076,1.793c0,.655-.483.9-1.076.546l-17.883-10.321a2.308,2.308,0,0,1-1.076-1.793C278.006,109.542,278.473,109.292,279.066,109.635Z" transform="translate(-265.969 16.54)"/></g></g><g transform="translate(397.604 172.701)"><g class="u" transform="translate(0 2.219)"><path class="d" d="M385.15,126.05V245.135a5.472,5.472,0,0,0,2.479,4.288l68.414,39.461a1.419,1.419,0,0,0,.811.234h.327l.2-.078.125-.078.156-.094.14-.125a1.9,1.9,0,0,0,.452-.639,3.261,3.261,0,0,0,.249-1.263V168.349a5.5,5.5,0,0,0-2.463-4.288l-68.414-39.445a1.793,1.793,0,0,0-1.668-.2.545.545,0,0,0-.2.125h0a.56.56,0,0,0-.171.156l-.078.094a.343.343,0,0,0-.078.125,1.126,1.126,0,0,0-.14.312,1.154,1.154,0,0,0,0,.218h0a.907.907,0,0,0,0,.218A.594.594,0,0,0,385.15,126.05Z" transform="translate(-385.15 -124.293)"/></g><path class="k" d="M385.67,125.208a1.793,1.793,0,0,1,1.668.2l68.414,39.43a5.5,5.5,0,0,1,2.463,4.288v8.092l3.945-2.276v-8.029a5.457,5.457,0,0,0-2.463-4.288L391.283,123.2a1.73,1.73,0,0,0-1.793-.14C389.038,123.322,386.185,124.928,385.67,125.208Z" transform="translate(-384.859 -122.871)"/><path class="k" d="M385.15,126.036c0-1.559,1.123-2.2,2.479-1.4l68.414,39.43a5.457,5.457,0,0,1,2.463,4.272v8.092L385.15,134.143Z" transform="translate(-385.15 -122.077)"/><g class="p" transform="translate(0.826)"><path class="n" d="M387.333,125.411l68.414,39.43a5.193,5.193,0,0,1,1.73,1.84l3.929-2.245a4.927,4.927,0,0,0-1.715-1.809L391.277,123.2a1.731,1.731,0,0,0-1.793-.14c-.452.265-3.29,1.871-3.8,2.136a1.824,1.824,0,0,1,1.653.218Z" transform="translate(-385.68 -122.871)"/></g><path class="i" d="M436.423,160.038v-8.029a4.973,4.973,0,0,0-.748-2.479l-3.945,2.292a5.051,5.051,0,0,1,.733,2.448v8.092Z" transform="translate(-359.107 -107.965)"/><path class="d" d="M430.4,151.986a3.679,3.679,0,0,1,1.388,2.962c0,1.185-.624,1.777-1.388,1.341a3.7,3.7,0,0,1-1.4-2.962C429,152.095,429.624,151.534,430.4,151.986Z" transform="translate(-360.633 -106.679)"/><path class="d" d="M427.173,150.111a3.7,3.7,0,0,1,1.4,2.962c0,1.185-.624,1.793-1.4,1.341a3.7,3.7,0,0,1-1.4-2.962C425.77,150.267,426.409,149.675,427.173,150.111Z" transform="translate(-362.439 -107.72)"/><path class="d" d="M423.938,148.254a3.633,3.633,0,0,1,1.4,2.947c0,1.2-.624,1.793-1.4,1.356a3.726,3.726,0,0,1-1.388-2.962C422.55,148.41,423.252,147.8,423.938,148.254Z" transform="translate(-364.239 -108.762)"/><g class="v" transform="translate(72.452 52.074)"><path class="c" d="M431.62,271.021l.312-.187.764-.421h0l.421-.234h0l.655-.374,1.325-.733a1.715,1.715,0,0,1,.312-.172,1.448,1.448,0,0,0,.421-.343,2.31,2.31,0,0,0,.327-.5,2.946,2.946,0,0,0,.281-1.31V156.27l-3.944,2.276V268.931a3.709,3.709,0,0,1-.249,1.263,1.9,1.9,0,0,1-.452.639.531.531,0,0,1-.14.125Z" transform="translate(-431.62 -156.27)"/></g><path class="k" d="M388.8,140.057a.359.359,0,0,1,.125-.327l1.777-1.559h.078a.546.546,0,0,1,.14.172.83.83,0,0,1,0,.249v1.247a.8.8,0,0,1,0,.327.405.405,0,0,1-.125.2l-.935.858.935,1.933a1.558,1.558,0,0,1,.125.343,1.265,1.265,0,0,1,0,.39v1.232a.327.327,0,0,1,0,.187.109.109,0,0,1-.14,0h0l-.078-.109-1.777-3.679a.874.874,0,0,1-.125-.468Z" transform="translate(-383.111 -114.316)"/><path class="k" d="M394.112,138.358a.531.531,0,0,1,.14-.218h.249l.67.39a.312.312,0,0,1,.14.172.531.531,0,0,1,0,.249s0,.078,0,.125l-3.118,9.464a.343.343,0,0,1-.125.2H391.8l-.639-.359a.312.312,0,0,1-.14-.171.53.53,0,0,1,0-.249.344.344,0,0,1,0-.125Z" transform="translate(-381.873 -114.333)"/><path class="k" d="M396.738,145.982a.343.343,0,0,1-.125.312l-1.777,1.637h0a.405.405,0,0,1-.14-.172.638.638,0,0,1,0-.249v-1.232a1.013,1.013,0,0,1,0-.343.437.437,0,0,1,.125-.187l.935-.858-.935-1.949a1.151,1.151,0,0,1-.125-.343,1.279,1.279,0,0,1,0-.374v-1.232a.3.3,0,0,1,0-.187.156.156,0,0,1,.14,0h0v.109l1.777,3.68a.858.858,0,0,1,.125.452Z" transform="translate(-379.822 -112.852)"/><path class="k" d="M399.525,147.4a.421.421,0,0,1,.171.218.531.531,0,0,1,.078.3v1.372a.25.25,0,0,1-.078.218h-.172l-.826-.483a.421.421,0,0,1-.172-.218.7.7,0,0,1,0-.3v-1.372a.312.312,0,0,1,0-.218h.172Z" transform="translate(-377.682 -109.424)"/><path class="k" d="M401.386,148.443a.42.42,0,0,1,.172.218.53.53,0,0,1,.078.3v1.372a.25.25,0,0,1-.078.218h-.172l-.826-.5a.328.328,0,0,1-.172-.2.765.765,0,0,1-.078-.312v-1.356a.312.312,0,0,1,.078-.218h.171Z" transform="translate(-376.674 -108.843)"/><path class="k" d="M403.147,149.478a.358.358,0,0,1,.171.218.7.7,0,0,1,.078.3v1.356a.327.327,0,0,1-.078.234h-.171l-.826-.483a.374.374,0,0,1-.171-.2.578.578,0,0,1-.078-.312v-1.356a.249.249,0,0,1,.078-.218h.171Z" transform="translate(-375.691 -108.256)"/><path class="k" d="M389.6,146.347l41.1,23.73a1.9,1.9,0,0,1,.889,1.45c0,.53-.405.733-.889.452l-41.1-23.73a1.9,1.9,0,0,1-.889-1.466C388.71,146.253,389.162,146.066,389.6,146.347Z" transform="translate(-383.16 -109.817)"/><path class="b" d="M398.059,165.875l41.1,23.73a1.886,1.886,0,0,1,.873,1.466c0,.53-.39.717-.873.437l-41.1-23.73a1.855,1.855,0,0,1-.889-1.45C397.17,165.8,397.56,165.595,398.059,165.875Z" transform="translate(-378.43 -98.897)"/><path class="b" d="M398.059,175.645l19.66,11.366a1.855,1.855,0,0,1,.889,1.45c0,.53-.39.733-.889.452l-19.66-11.366a1.871,1.871,0,0,1-.889-1.466C397.17,175.568,397.56,175.365,398.059,175.645Z" transform="translate(-378.43 -93.434)"/><path class="k" d="M418.149,162.825l16.371,9.355a1.887,1.887,0,0,1,.873,1.466c0,.515-.39.717-.873.437l-16.371-9.355a1.871,1.871,0,0,1-.889-1.466C417.26,162.748,417.65,162.545,418.149,162.825Z" transform="translate(-367.197 -100.602)"/><path class="k" d="M389.6,200.038l41.1,23.73a1.9,1.9,0,0,1,.889,1.466c0,.53-.405.717-.889.437l-41.1-23.73a1.9,1.9,0,0,1-.889-1.45A.552.552,0,0,1,389.6,200.038Z" transform="translate(-383.16 -79.784)"/><path class="k" d="M418.149,216.535l16.371,9.355a1.855,1.855,0,0,1,.873,1.45c0,.53-.39.733-.873.452l-16.371-9.355a1.871,1.871,0,0,1-.889-1.466C417.26,216.458,417.65,216.255,418.149,216.535Z" transform="translate(-367.197 -70.572)"/><path class="k" d="M418.149,201.915l16.371,9.355a1.887,1.887,0,0,1,.873,1.466c0,.515-.39.717-.873.437l-16.371-9.355a1.871,1.871,0,0,1-.889-1.466C417.26,201.838,417.65,201.635,418.149,201.915Z" transform="translate(-367.197 -78.746)"/><path class="k" d="M418.149,206.8l16.371,9.355a1.887,1.887,0,0,1,.873,1.466c0,.53-.39.717-.873.437L418.149,208.7a1.855,1.855,0,0,1-.889-1.45C417.26,206.717,417.65,206.515,418.149,206.8Z" transform="translate(-367.197 -76.018)"/><path class="k" d="M409.183,196.725l9.2,5.317a1.886,1.886,0,0,1,.873,1.466c0,.514-.39.717-.873.437l-9.2-5.317a1.839,1.839,0,0,1-.873-1.45C408.31,196.647,408.7,196.445,409.183,196.725Z" transform="translate(-372.201 -81.648)"/><path class="k" d="M389.6,151.238l23.964,13.829a1.871,1.871,0,0,1,.889,1.466c0,.53-.39.717-.889.437L389.6,153.14a1.9,1.9,0,0,1-.889-1.45A.53.53,0,0,1,389.6,151.238Z" transform="translate(-383.16 -107.085)"/><path class="r" d="M389.6,151.238l23.964,13.829a1.871,1.871,0,0,1,.889,1.466c0,.53-.39.717-.889.437L389.6,153.14a1.9,1.9,0,0,1-.889-1.45A.53.53,0,0,1,389.6,151.238Z" transform="translate(-383.16 -107.085)"/><path class="k" d="M389.6,156.118l8.123,4.677a1.871,1.871,0,0,1,.889,1.466c0,.53-.39.717-.889.437L389.6,158.02a1.9,1.9,0,0,1-.889-1.466C388.71,156.009,389.162,155.837,389.6,156.118Z" transform="translate(-383.16 -104.356)"/><path class="r" d="M389.6,156.118l8.123,4.677a1.871,1.871,0,0,1,.889,1.466c0,.53-.39.717-.889.437L389.6,158.02a1.9,1.9,0,0,1-.889-1.466C388.71,156.009,389.162,155.837,389.6,156.118Z" transform="translate(-383.16 -104.356)"/><path class="k" d="M389.6,161.064l8.123,4.677a1.855,1.855,0,0,1,.889,1.45c0,.53-.39.733-.889.452l-8.123-4.677a1.9,1.9,0,0,1-.889-1.466C388.71,160.908,389.162,160.705,389.6,161.064Z" transform="translate(-383.16 -101.616)"/><path class="r" d="M389.6,161.064l8.123,4.677a1.855,1.855,0,0,1,.889,1.45c0,.53-.39.733-.889.452l-8.123-4.677a1.9,1.9,0,0,1-.889-1.466C388.71,160.908,389.162,160.705,389.6,161.064Z" transform="translate(-383.16 -101.616)"/><path class="k" d="M389.6,165.875l8.123,4.677a1.871,1.871,0,0,1,.889,1.466c0,.514-.39.717-.889.437l-8.123-4.677a1.9,1.9,0,0,1-.889-1.45C388.71,165.8,389.162,165.595,389.6,165.875Z" transform="translate(-383.16 -98.897)"/><path class="r" d="M389.6,165.875l8.123,4.677a1.871,1.871,0,0,1,.889,1.466c0,.514-.39.717-.889.437l-8.123-4.677a1.9,1.9,0,0,1-.889-1.45C388.71,165.8,389.162,165.595,389.6,165.875Z" transform="translate(-383.16 -98.897)"/><path class="w" d="M398.059,170.755,422.022,184.6a1.9,1.9,0,0,1,.889,1.45c0,.53-.405.733-.889.452l-23.964-13.829a1.871,1.871,0,0,1-.889-1.466C397.17,170.677,397.56,170.475,398.059,170.755Z" transform="translate(-378.43 -96.168)"/><path class="w" d="M415.619,180.9l10.43,6.034a1.886,1.886,0,0,1,.873,1.466c0,.515-.39.717-.873.437l-10.43-6.034a1.9,1.9,0,0,1-.889-1.466C414.73,180.818,415.151,180.615,415.619,180.9Z" transform="translate(-368.612 -90.499)"/><path class="r" d="M398.059,170.755,422.022,184.6a1.9,1.9,0,0,1,.889,1.45c0,.53-.405.733-.889.452l-23.964-13.829a1.871,1.871,0,0,1-.889-1.466C397.17,170.677,397.56,170.475,398.059,170.755Z" transform="translate(-378.43 -96.168)"/><path class="r" d="M415.619,180.9l10.43,6.034a1.886,1.886,0,0,1,.873,1.466c0,.515-.39.717-.873.437l-10.43-6.034a1.9,1.9,0,0,1-.889-1.466C414.73,180.818,415.151,180.615,415.619,180.9Z" transform="translate(-368.612 -90.499)"/><path class="k" d="M389.6,170.766l8.123,4.677a1.871,1.871,0,0,1,.889,1.466c0,.53-.39.717-.889.452l-8.123-4.677a1.9,1.9,0,0,1-.889-1.466C388.71,170.673,389.162,170.486,389.6,170.766Z" transform="translate(-383.16 -96.164)"/><path class="r" d="M389.6,170.766l8.123,4.677a1.871,1.871,0,0,1,.889,1.466c0,.53-.39.717-.889.452l-8.123-4.677a1.9,1.9,0,0,1-.889-1.466C388.71,170.673,389.162,170.486,389.6,170.766Z" transform="translate(-383.16 -96.164)"/><path class="k" d="M407.153,161.365l10.43,6.049a1.886,1.886,0,0,1,.873,1.45c0,.53-.39.733-.873.452l-10.43-6.049a1.855,1.855,0,0,1-.873-1.45C406.28,161.287,406.67,161.085,407.153,161.365Z" transform="translate(-373.336 -101.418)"/><path class="r" d="M407.153,161.365l10.43,6.049a1.886,1.886,0,0,1,.873,1.45c0,.53-.39.733-.873.452l-10.43-6.049a1.855,1.855,0,0,1-.873-1.45C406.28,161.287,406.67,161.085,407.153,161.365Z" transform="translate(-373.336 -101.418)"/><path class="n" d="M404.393,184.176l23.979,13.814a1.886,1.886,0,0,1,.873,1.466c0,.514-.39.717-.873.437l-23.979-13.829a1.887,1.887,0,0,1-.873-1.466C403.52,184.1,403.91,183.957,404.393,184.176Z" transform="translate(-374.879 -88.65)"/><path class="n" d="M413.317,194.2l23.9,13.783a1.887,1.887,0,0,1,.873,1.466c0,.53-.39.733-.873.452l-23.9-13.8a1.855,1.855,0,0,1-.873-1.45C412.366,194.122,412.755,193.951,413.317,194.2Z" transform="translate(-369.895 -83.052)"/><path class="n" d="M421.953,194.315l10.43,6.034a1.886,1.886,0,0,1,.873,1.466c0,.53-.39.717-.873.437l-10.43-6.034a1.886,1.886,0,0,1-.873-1.45C421.08,194.237,421.47,194.035,421.953,194.315Z" transform="translate(-365.061 -82.996)"/><path class="b" d="M421.953,213.655l10.43,6.049a1.855,1.855,0,0,1,.873,1.45c0,.53-.39.733-.873.452l-10.43-6.049a1.887,1.887,0,0,1-.873-1.45C421.08,213.577,421.47,213.375,421.953,213.655Z" transform="translate(-365.061 -72.182)"/><path class="k" d="M398.059,161.064l23.964,13.829a1.9,1.9,0,0,1,.889,1.466c0,.514-.405.717-.889.436l-23.964-13.829a1.871,1.871,0,0,1-.889-1.466C397.17,160.908,397.56,160.705,398.059,161.064Z" transform="translate(-378.43 -101.616)"/><path class="r" d="M398.059,161.064l23.964,13.829a1.9,1.9,0,0,1,.889,1.466c0,.514-.405.717-.889.436l-23.964-13.829a1.871,1.871,0,0,1-.889-1.466C397.17,160.908,397.56,160.705,398.059,161.064Z" transform="translate(-378.43 -101.616)"/><path class="k" d="M415.613,171.128l10.446,6.112a1.886,1.886,0,0,1,.873,1.466c0,.53-.39.733-.873.452l-10.43-6.049a1.9,1.9,0,0,1-.889-1.45C414.725,171,415.146,170.847,415.613,171.128Z" transform="translate(-368.606 -95.964)"/><path class="r" d="M415.613,171.128l10.446,6.112a1.886,1.886,0,0,1,.873,1.466c0,.53-.39.733-.873.452l-10.43-6.049a1.9,1.9,0,0,1-.889-1.45C414.725,171,415.146,170.847,415.613,171.128Z" transform="translate(-368.606 -95.964)"/></g><g transform="translate(277.793 307.552)"><path class="i" d="M311.7,236.7l14.7,8.482a16.153,16.153,0,0,0,16.215-.858l24.229-17.7c4.334-3.118,4.085-7.8-.546-10.555l-7.375-4.256A19.972,19.972,0,0,0,341.9,211.3l-29.919,16.215C307.191,229.967,307.066,234.083,311.7,236.7Z" transform="translate(-308.304 -209.205)"/><path class="c" d="M366.387,219.149l-16.776,13.112-12.364,9.682a11.413,11.413,0,0,1-9.822-.3l-13.143-7.593H314.2a9.355,9.355,0,0,1-2.651-13.3c.125-.187.265-.359.39-.53a17.431,17.431,0,0,1,10.618-6.751l6.673-1.341c10.773-2.183,19.629-3.259,20.658-2.557l16.48,9.557Z" transform="translate(-307.443 -209.363)"/><path class="k" d="M349.3,225.763l.935-.733-14.78-8.544,12.941-4.007-1.31-.748-12.941,4.007-8.825-5.1-1.668.327Z" transform="translate(-299.724 -208.649)"/><path class="j" d="M330.312,237.631h0l11.771-8.5,15.9-11.491V215.85a.14.14,0,0,0-.078-.14h-.094c-1.185-.421-8.076,1.653-16.4,4.974l-5.519,2.183a17.009,17.009,0,0,0-4.677,2.791,17.54,17.54,0,0,0-6.377,13.533v.3a10.915,10.915,0,0,0,3.96-.951Z" transform="translate(-299.058 -205.845)"/></g></g><g transform="translate(513.572 404.794)"><path class="k" d="M353.522,415.741c-16.184-16.7-25.694-84.644-9.916-97.881h80.31c15.778,13.237,6.236,81.152-9.885,97.865-.14.156-.312.3-.452.452l-.561.546c-.452.452-.935.889-1.45,1.325l-.39.312c-.405.312-.8.624-1.232.92a19.1,19.1,0,0,1-2.089,1.356c-13.3,7.8-34.877,7.8-48.192,0h0a21.827,21.827,0,0,1-2.1-1.356c-.405-.281-.764-.577-1.138-.873l-.483-.374c-.5-.421-.967-.842-1.4-1.278l-.655-.624C353.772,415.99,353.631,415.866,353.522,415.741Z" transform="translate(-325.974 -227.074)"/><g class="p" transform="translate(9.556 90.786)"><path class="x" d="M353.522,415.741c-16.184-16.7-25.694-84.644-9.916-97.881h80.31c15.778,13.237,6.236,81.152-9.885,97.865-.14.156-.312.3-.452.452l-.561.546c-.452.452-.935.889-1.45,1.325l-.39.312c-.405.312-.8.624-1.232.92a19.1,19.1,0,0,1-2.089,1.356c-13.3,7.8-34.877,7.8-48.192,0h0a21.827,21.827,0,0,1-2.1-1.356c-.405-.281-.764-.577-1.138-.873l-.483-.374c-.5-.421-.967-.842-1.4-1.278l-.655-.624C353.772,415.99,353.631,415.866,353.522,415.741Z" transform="translate(-335.53 -317.86)"/></g><path class="k" d="M416.457,317.3c18.335,10.711,18.335,28.064,0,38.744s-48.021,10.7-66.34,0-18.32-28.064,0-38.728S398.153,306.6,416.457,317.3Z" transform="translate(-325.5 -231.862)"/><g class="y" transform="translate(10.878 77.436)"><path class="n" d="M416.457,317.3c18.335,10.711,18.335,28.064,0,38.744s-48.021,10.7-66.34,0-18.32-28.064,0-38.728S398.153,306.6,416.457,317.3Z" transform="translate(-336.378 -309.297)"/></g><path class="k" d="M403.181,319.841c13.455,7.8,13.455,20.6,0,28.454s-35.267,7.8-48.722,0-13.455-20.6,0-28.454S389.726,312,403.181,319.841Z" transform="translate(-321.032 -229.258)"/><g class="z" transform="translate(23.335 84.696)"><path d="M403.181,319.841c13.455,7.8,13.455,20.6,0,28.454s-35.267,7.8-48.722,0-13.455-20.6,0-28.454S389.726,312,403.181,319.841Z" transform="translate(-344.368 -313.954)"/></g><path class="a" d="M353.731,328.487c13.455-7.8,35.267-7.8,48.722,0a22.343,22.343,0,0,1,8.061,7.484,22.325,22.325,0,0,1-8.061,7.468c-13.455,7.8-35.267,7.8-48.722,0a22.451,22.451,0,0,1-8.061-7.468A22.483,22.483,0,0,1,353.731,328.487Z" transform="translate(-320.304 -224.402)"/><path class="k" d="M363.087,329.431a22.509,22.509,0,0,1-2.058-5.862c-.889-4.88.327-10.493,4.288-13.5,1.559-1.2,3.617-2.089,4.288-3.945a6.345,6.345,0,0,0,0-3.243c-.733-4.163-2.152-8.466-.982-12.551a14.032,14.032,0,0,1,7.8-8.341,42.3,42.3,0,0,1,11.35-2.962,18.1,18.1,0,0,0,6.112-1.668c2.245-1.247,2.931-3.461,4.334-5.41a37.091,37.091,0,0,1,5.5-5.878c4.085-3.664,9.214-6.673,14.874-6.423,11.818.53,11.475,10.7,8.061,18.4s-4.3,10.212,3.118,18.242,7.406,17.914-1.4,23.387-14.531,6.236-11.038,16.932c3.118,9.526,5.036,17.649-3.773,27.83-5.691,6.579-13.455,11.272-23.184,10.914A38.635,38.635,0,0,1,378.99,372.7c-2.682-1.325-.873-3.414-1.777-6.049q-2.916-8.528-5.831-17.041a126.281,126.281,0,0,0-4.677-13.424C365.5,333.812,364.256,331.676,363.087,329.431Z" transform="translate(-311.871 -259.631)"/><g class="aa" transform="translate(48.882)"><path d="M363.087,329.431a22.509,22.509,0,0,1-2.058-5.862c-.889-4.88.327-10.493,4.288-13.5,1.559-1.2,3.617-2.089,4.288-3.945a6.345,6.345,0,0,0,0-3.243c-.733-4.163-2.152-8.466-.982-12.551a14.032,14.032,0,0,1,7.8-8.341,42.3,42.3,0,0,1,11.35-2.962,18.1,18.1,0,0,0,6.112-1.668c2.245-1.247,2.931-3.461,4.334-5.41a37.091,37.091,0,0,1,5.5-5.878c4.085-3.664,9.214-6.673,14.874-6.423,11.818.53,11.475,10.7,8.061,18.4s-4.3,10.212,3.118,18.242,7.406,17.914-1.4,23.387-14.531,6.236-11.038,16.932c3.118,9.526,5.036,17.649-3.773,27.83-5.691,6.579-13.455,11.272-23.184,10.914A38.635,38.635,0,0,1,378.99,372.7c-2.682-1.325-.873-3.414-1.777-6.049q-2.916-8.528-5.831-17.041a126.281,126.281,0,0,0-4.677-13.424C365.5,333.812,364.256,331.676,363.087,329.431Z" transform="translate(-360.753 -259.631)"/></g><path class="n" d="M372.955,366.484a.889.889,0,0,0,.577-.842c-.5-58.326,31.65-93.157,31.977-93.547a.873.873,0,0,0,0-1.232.858.858,0,0,0-1.232,0c-.327.343-32.96,35.657-32.445,94.732a.873.873,0,0,0,.873.873Z" transform="translate(-305.68 -253.496)"/><path class="n" d="M378.964,302.08l.172-.078c10.462-6.579,29.14-11.491,29.327-11.553a.877.877,0,0,0-.437-1.7c-.78.2-19.115,5.036-29.81,11.756a.9.9,0,0,0-.281,1.216.857.857,0,0,0,1.029.359Z" transform="translate(-302.335 -243.365)"/><path class="n" d="M384.442,298.512h0a.873.873,0,0,0,.483-1.138,67.494,67.494,0,0,0-9.6-16.262A.873.873,0,0,0,374.09,281a.889.889,0,0,0-.094,1.247A67.041,67.041,0,0,1,383.351,298,.873.873,0,0,0,384.442,298.512Z" transform="translate(-304.585 -247.795)"/><path class="k" d="M388.474,366.959a49.127,49.127,0,0,1-25.616.951c-14.7-3.118-23.683-16.9-23.683-16.9s15.887-6.377,25.164-6.985a81.686,81.686,0,0,0-27.846.593s-8.5-3.118-6.891-17.54c0,0,8.014-5.893,26.5-3.586,0,0-9.246-6.6-25.429-8.544-1.278,0,.452-18.709,2-27.035s4.677-7.063,11.226-6.33,26.193,5.176,28.688,9.978,0,17.041,0,17.041A28.064,28.064,0,0,0,378,292.574s7.375,2.7,11.3,6.236a26.163,26.163,0,0,1,7.047,8.825c-.92,6.579-4.007,16.589-8.341,22.186,0,0,9.76-6.236,12.005-17.914a40.661,40.661,0,0,1,7.718,22.841C407.652,349.372,401.119,360.27,388.474,366.959Z" transform="translate(-329.4 -247.657)"/><path class="ab" d="M388.474,366.959a49.127,49.127,0,0,1-25.616.951c-14.7-3.118-23.683-16.9-23.683-16.9s15.887-6.377,25.164-6.985a81.686,81.686,0,0,0-27.846.593s-8.5-3.118-6.891-17.54c0,0,8.014-5.893,26.5-3.586,0,0-9.246-6.6-25.429-8.544-1.278,0,.452-18.709,2-27.035s4.677-7.063,11.226-6.33,26.193,5.176,28.688,9.978,0,17.041,0,17.041A28.064,28.064,0,0,0,378,292.574s7.375,2.7,11.3,6.236a26.163,26.163,0,0,1,7.047,8.825c-.92,6.579-4.007,16.589-8.341,22.186,0,0,9.76-6.236,12.005-17.914a40.661,40.661,0,0,1,7.718,22.841C407.652,349.372,401.119,360.27,388.474,366.959Z" transform="translate(-329.4 -247.657)"/><path class="n" d="M385.74,364.834a.842.842,0,0,1-.53-.717c-2.214-27.83-33.365-71.329-47.07-80.06a.842.842,0,0,1-.265-1.154.826.826,0,0,1,1.154-.265c14.032,8.871,45.651,53.01,47.911,81.354a.842.842,0,0,1-.764.9A.8.8,0,0,1,385.74,364.834Z" transform="translate(-324.733 -246.841)"/></g><g transform="translate(89.174 143.329)"><path class="ac" d="M189.655,332.844c0-.312-5-18.382-5-18.382s1.559,1.653,12.083-1.091A59.242,59.242,0,0,0,208.1,308.6l2.978,13.206c2.791,5.083,12.021,2.744,22.124,1.559,1.7-.187,3.446-.468,5.192-.78h.109c5.457-.312,10.914,2.978,5.254,7.624s-15.03,6.424-23.667,7.983C209.721,340.094,191.51,343.15,189.655,332.844Z" transform="translate(14.066 29.213)"/><path class="j" d="M260.879,323.12a10.665,10.665,0,0,1,.748,5.566c-.2,2.011-5.176,8.84-14.032,13.019s-19.676,4.459-24.774,5.925-9.76,4.4-15.763,5.862-11.927,2.23-17.945-1.731c-1.107-1.715-2.339-5.66-1.98-6.034C188.146,344.76,260.879,323.12,260.879,323.12Z" transform="translate(15.418 37.332)"/><path class="k" d="M211.869,319.164c3.867,2.682,11.88.826,20.534-.171,8.154-.92,17.353-3.789,22.888-1.871s10.2,8.45,2.7,16.823c-2.167,2.432-6.767,6.689-10.43,8-9.355,3.337-17.68,3.6-23.667,5.083-7.8,1.933-12.068,5.379-19.286,6.236-9.355,1.076-15.233-1.31-16.854-3.8s-3.118-22.592.889-22.186c0,0,1.684,6.5,16.932.187C212.228,324.684,212.119,320.63,211.869,319.164Z" transform="translate(14.864 33.617)"/><path class="ad" d="M211.869,319.164c3.867,2.682,11.88.826,20.534-.171,8.154-.92,17.353-3.789,22.888-1.871s10.2,8.45,2.7,16.823c-2.167,2.432-6.767,6.689-10.43,8-9.355,3.337-17.68,3.6-23.667,5.083-7.8,1.933-12.068,5.379-19.286,6.236-9.355,1.076-15.233-1.31-16.854-3.8s-3.118-22.592.889-22.186c0,0,1.684,6.5,16.932.187C212.228,324.684,212.119,320.63,211.869,319.164Z" transform="translate(14.864 33.617)"/><path class="ae" d="M223.022,329.078s-.873-8.5-7.156-10.742a3.29,3.29,0,0,0-3.446.452s5.815.858,7.8,10.8c0,0,.312.655,1.559.437C222.133,329.951,223.084,329.779,223.022,329.078Z" transform="translate(29.592 34.492)"/><path class="ae" d="M209,319.226s0-.281,1.466-.561a2.589,2.589,0,0,1,1.715.187s4.677,2.027,5.566,10.914a1.559,1.559,0,0,1-1.45,1.372,1.278,1.278,0,0,1-1.668-.873S213.677,320.785,209,319.226Z" transform="translate(27.68 34.802)"/><path class="ae" d="M205.77,319.26s.249-.546,1.356-.53c1.388,0,1.715.546,1.715.546s3.321,3.414,3.368,10.82c0,0,.14,1.263-1.559,1.388s-1.559-1.294-1.559-1.294S208.5,320.71,205.77,319.26Z" transform="translate(25.874 34.877)"/><path class="c" d="M195.8,245.32c7.64,22.966,27.908,102.059,27.908,102.059s-13.19,11.849-27.5,6.455l-34.1-98.489Z" transform="translate(1.463 -6.167)"/><path class="ac" d="M224.171,349.314c-1.559-2.323-7.421-18.413-7.421-18.413s6.112,3.508,16.636,1c5.348-1.263,10.337-7.078,10.337-7.078l4.49,15.466c2.666,5.145,11.241,3.446,21.375,2.541,1.715-.156,3.461-.39,5.223-.655h.094c5.473-.171,10.914,3.243,5.083,7.8s-15.2,6.034-23.854,7.39C245.7,358.949,230,357.982,224.171,349.314Z" transform="translate(32.013 38.282)"/><path class="j" d="M300.566,340.22a11.273,11.273,0,0,1,.655,5.971c-.265,2.167-5.784,9.355-15.342,13.627s-21.235,4.272-26.739,5.706-10.6,4.459-17.15,5.862-12.878,2.089-19.239-2.323c-1.138-1.871-2.354-6.127-1.964-6.533C221.925,361.439,300.566,340.22,300.566,340.22Z" transform="translate(34.229 46.893)"/><path class="k" d="M248.26,334.621c.639.421,1.263.842,1.918,1.185a5.877,5.877,0,0,0,2.136.437,30.948,30.948,0,0,0,5.1.125c4.288-.218,8.544-.857,12.8-1.247,8.793-.78,18.709-3.617,24.634-1.4s11.288,9.355,3.025,18.1c-2.385,2.541-7.312,6.845-11.085,8.419-9.807,4.1-19.972,3.321-26.5,4.755-8.419,1.871-13.081,5.457-20.845,6.236-10.056.9-16.339-1.824-18.008-4.537-.92-1.559.109-9.355-1.154-15.591-1.076-5.27-.8-8.856,1.091-8.606a9.936,9.936,0,0,0,1.481,1.855,6.815,6.815,0,0,0,2.23,1.762,17.506,17.506,0,0,0,3.757,1.279,21.937,21.937,0,0,0,7,.951,3.321,3.321,0,0,0,1.9-.592,3.96,3.96,0,0,0,1.107-2.385c.171-.78.343-1.559.5-2.323a3.632,3.632,0,0,1,.421-1.216,3.429,3.429,0,0,1,1.2-.951,10.009,10.009,0,0,0,3.82-2.916,8.778,8.778,0,0,0,1.122-3.6,1,1,0,0,1,.265-.592c.281-.234.7,0,1.013.156Z" transform="translate(33.634 42.794)"/><path class="ad" d="M248.26,334.621c.639.421,1.263.842,1.918,1.185a5.877,5.877,0,0,0,2.136.437,30.948,30.948,0,0,0,5.1.125c4.288-.218,8.544-.857,12.8-1.247,8.793-.78,18.709-3.617,24.634-1.4s11.288,9.355,3.025,18.1c-2.385,2.541-7.312,6.845-11.085,8.419-9.807,4.1-19.972,3.321-26.5,4.755-8.419,1.871-13.081,5.457-20.845,6.236-10.056.9-16.339-1.824-18.008-4.537-.92-1.559.109-9.355-1.154-15.591-1.076-5.27-.8-8.856,1.091-8.606a9.936,9.936,0,0,0,1.481,1.855,6.815,6.815,0,0,0,2.23,1.762,17.506,17.506,0,0,0,3.757,1.279,21.937,21.937,0,0,0,7,.951,3.321,3.321,0,0,0,1.9-.592,3.96,3.96,0,0,0,1.107-2.385c.171-.78.343-1.559.5-2.323a3.632,3.632,0,0,1,.421-1.216,3.429,3.429,0,0,1,1.2-.951,10.009,10.009,0,0,0,3.82-2.916,8.778,8.778,0,0,0,1.122-3.6,1,1,0,0,1,.265-.592c.281-.234.7,0,1.013.156Z" transform="translate(33.634 42.794)"/><path class="ae" d="M259.556,346.331s-.717-9.136-7.39-11.724a3.539,3.539,0,0,0-3.726.405s6.236,1.06,8.014,11.8c0,0,.312.7,1.668.5C258.668,347.173,259.6,347.017,259.556,346.331Z" transform="translate(49.731 43.557)"/><path class="ae" d="M244.75,335.282s0-.3,1.559-.561a2.775,2.775,0,0,1,1.84.249s4.974,2.308,5.675,11.849a1.7,1.7,0,0,1-1.559,1.434,1.388,1.388,0,0,1-1.777-.982S249.708,337.231,244.75,335.282Z" transform="translate(47.668 43.785)"/><path class="ae" d="M241.29,335.291s.3-.561,1.466-.53c1.559,0,1.824.639,1.824.639s3.492,3.742,3.337,11.709c0,0,.109,1.356-1.762,1.45s-1.559-1.434-1.559-1.434S244.174,336.974,241.29,335.291Z" transform="translate(45.734 43.839)"/><path class="d" d="M232.395,263.582c6.018,18.522,21.375,71.2,28.407,98.3,0,0-12.629,11.335-28.844,10.353L192.84,270.785l15.591-9.635Z" transform="translate(18.645 2.684)"/><path class="d" d="M136.511,485.379a2.526,2.526,0,0,0,2.526-2.541V319.77a2.541,2.541,0,0,0-5.067,0V482.837a2.541,2.541,0,0,0,2.541,2.541Z" transform="translate(-14.27 34.149)"/><path class="d" d="M71.8,434.157a2.557,2.557,0,0,0,2.354-1.559l50-126.553a2.541,2.541,0,0,0-4.677-1.871L69.433,430.7a2.541,2.541,0,0,0,1.434,3.29A2.431,2.431,0,0,0,71.8,434.157Z" transform="translate(-50.451 26.016)"/><path class="d" d="M75.643,415.154a2.51,2.51,0,0,0,1.84-.8L170.531,315.9l92.876,98.052a2.541,2.541,0,0,0,3.68-3.492l-94.716-99.986a2.526,2.526,0,0,0-1.84-.8h0a2.526,2.526,0,0,0-1.84.8L73.819,410.882a2.541,2.541,0,0,0,.094,3.586A2.6,2.6,0,0,0,75.643,415.154Z" transform="translate(-48.289 29.817)"/><path class="d" d="M219.1,434.173a2.4,2.4,0,0,0,.92-.172,2.541,2.541,0,0,0,1.434-3.29l-50-126.569a2.541,2.541,0,0,0-4.677,1.871l50,126.553A2.557,2.557,0,0,0,219.1,434.173Z" transform="translate(4.03 25.999)"/><path class="k" d="M274.423,303.986c1.824-10.228-6.517-18.21-22.186-28.8A370.839,370.839,0,0,0,206.8,249.667c-13.112-6.018-26.5-5.473-43.328,3.118-23.387,11.99-93.547,54.569-93.547,54.569s104.959,59.246,125.15,56.6,70.674-35.47,74.681-47.023S274.423,303.986,274.423,303.986Z" transform="translate(-50.075 -5.977)"/><g class="af" transform="translate(19.855 239.684)"><path d="M274.423,303.986c1.824-10.228-6.517-18.21-22.186-28.8A370.839,370.839,0,0,0,206.8,249.667c-13.112-6.018-26.5-5.473-43.328,3.118-23.387,11.99-93.547,54.569-93.547,54.569s104.959,59.246,125.15,56.6,70.674-35.47,74.681-47.023S274.423,303.986,274.423,303.986Z" transform="translate(-69.93 -245.661)"/></g><path class="k" d="M143.71,330.607c15.077,13.642,30.824,1.9,55.738-14.266,28.189-18.3,33.724-33.271,33.724-33.271s0,11.21-2.1,16.48-6.657,11.21-26.988,25.242-35.064,21.032-48.738,23.652l-10.789-1.559" transform="translate(-8.824 14.939)"/><path class="ag" d="M199.448,316.341c28.189-18.3,33.724-33.271,33.724-33.271s0,11.21-2.1,16.48-6.657,11.21-26.988,25.242-35.064,21.032-48.738,23.652l-10.789-1.559-.842-16.324C158.787,344.249,174.534,332.509,199.448,316.341Z" transform="translate(-8.824 14.939)"/><path class="k" d="M76.212,374.34l-7.8,17.821a1.45,1.45,0,0,0,0,.452,2.307,2.307,0,0,0,0,.327,2.152,2.152,0,0,0,.92,1.138,4.677,4.677,0,0,0,4.178.187,1.808,1.808,0,0,0,.858-.811h0v-.249l7.172-16.7Z" transform="translate(-50.932 65.969)"/><path class="k" d="M200,374.82l6.626,17.431a2.228,2.228,0,0,1,0,.452,1.045,1.045,0,0,1,0,.312,2,2,0,0,1-1,1.107,4.459,4.459,0,0,1-4.022,0,1.777,1.777,0,0,1-.78-.826h0v-.234l-6.143-16.4Z" transform="translate(19.674 66.238)"/><path class="k" d="M133.72,415.691v14.422a1.45,1.45,0,0,0,.858,1.2,4.584,4.584,0,0,0,4.132,0,1.45,1.45,0,0,0,.857-1.2V415.691A6.236,6.236,0,0,0,133.72,415.691Z" transform="translate(-14.41 88.682)"/><path class="c" d="M96.9,249.118c5.987,6.954,60.384-8.684,74.837-10.649,23.246-3.118,42.1-5.488,50.063-3.009s11.226,6.5,13.658,15.95c2.838,11.148,4.319,16.823,4.319,16.823s-38.619,14.827-69.069,18.4S96.9,249.118,96.9,249.118Z" transform="translate(-34.996 -12.257)"/><path class="d" d="M92.655,253.226c-6.034,22.966-11.459,49.689,2.495,64.329,9.355,9.854,56.627,35.454,87.076,25.367,30.013-9.932,92.221-56.019,98.458-60.7s11.912-7.8,11.319-9.791c-8.388-27.815-20.627-29.982-43.343-24.946-27.768,6.112-88.745,31-88.745,31Z" transform="translate(-40.885 -6.153)"/><path class="ac" d="M198.537,164.636l-20.954,23.7L143.75,172.276,167.4,139.55Z" transform="translate(-8.802 -65.304)"/><path class="ah" d="M195.56,126.78s8.575,12.395,7.655,13.658-6.985,2.51-6.985,2.51Z" transform="translate(20.166 -72.444)"/><circle class="ai" cx="9.323" cy="9.323" r="9.323" transform="translate(206.324 42.939)"/><path class="ac" d="M198.6,105.281c16.854,3.118,21.828,10.415,24.057,37.013,2.292,27.814-.343,36.623-3.913,40.459-2.417,2.588-16.121,3.352-23.09,1.559-8.715-2.183-28.454-8.684-37.949-22.467-11.163-16.23-14.5-38.494-3.118-47.927C170.487,100.7,191.753,104.018,198.6,105.281Z" transform="translate(-6.695 -85.199)"/><path class="ah" d="M179.544,158.005c7.25,1.653,18.273.655,21.547-1.232a24.556,24.556,0,0,1-12.192-.437,39.929,39.929,0,0,1-11.179-4.927Z" transform="translate(10.191 -58.673)"/><path class="j" d="M230.927,122.894h0c-4.677,3.243-10.43,4.677-16.09,5.472.452,4.521-.967,8.98-2.37,13.3-.967,2.978-4.475,12.348-8.294,7.2-2.76-3.711-5.27-7.094-10.54-6.236-8.7,1.559-9.635,12.66-3.976,19.3s10.727,3.913,10.727,3.913.811,12.005-5.519,20.471c0,0-9.448,5.8-22.685,1.434-8.372-2.744-20.44-13.3-24.946-21.516-12.239-22.654-12.3-44.341,2.541-51.014,1.372-10.914,9.776-15.9,19.442-18.366,13.393-3.4,27.3,5,40.241-.53,2.728-1.169,5.239-2.838,8.029-3.835a5.441,5.441,0,0,1,4.818,0,5.815,5.815,0,0,1,2.058,3.68,10.4,10.4,0,0,1-.514,7.8,22.17,22.17,0,0,1,6.081-2.245,7.624,7.624,0,0,1,6.158,1.388,7.8,7.8,0,0,1,2.463,5.363C239.159,114.163,235.6,119.651,230.927,122.894Z" transform="translate(-11.834 -91.929)"/><path class="j" d="M149.228,112.352,139,106.661a5.832,5.832,0,0,1,10.181,5.691Z" transform="translate(-11.458 -85.363)"/><line class="aj" y1="6.096" x2="32.585" transform="translate(192.277 50.875)"/><path class="ac" d="M247.165,167.475c-.889-1.466-2.838-1.746-4.444-2.307-2.993-1.045-5.332-3.446-8.217-4.677a16.012,16.012,0,0,0-10.384-.7,24.159,24.159,0,0,0-3.461,1.107,46.272,46.272,0,0,0-6.236,3.118c-8.248,4.9-14.453,15.934-22.576,21-3.025,1.9-5.847,3.617-8.637,5.317l19.4,17.291a116.571,116.571,0,0,1,9.557-7.281c4.771-2.838,9.588-2.9,14.952-3.679a73.95,73.95,0,0,0,10.914-2.744,4.677,4.677,0,0,0,3.212-2.1,3.227,3.227,0,0,0-2.074-3.991,28.281,28.281,0,0,0-5.675-.764c-1.388-.234-5.129.608-5.956-.811-.437-.733.094-1.653.639-2.323,3.352-4.178,7.608-8.684,12.987-9.947a11.178,11.178,0,0,0,4.677-1.871,3.757,3.757,0,0,0,1.325-4.631Z" transform="translate(13.261 -54.298)"/><path class="k" d="M173.162,154.094c-20.6-11.241-39.336-4.023-46.1,10.43C120.947,177.606,108.1,228.2,108.1,228.2,114.274,239.783,173.162,154.094,173.162,154.094Z" transform="translate(-28.734 -60.25)"/><path class="k" d="M179.943,157.5l3.118-4.054C159.815,142.4,139,156.912,120.7,185.428c-19.77,30.746-30.138,74.837-30.247,121.47,0,0,3.945,20.939,30.4,31.416,28.064,11.1,67.213,6.408,79.406-22.685,0,0,.249-29.062,9.09-43.359,5.722-9.261,19.052-29.841,28.968-44.591,8.637-12.847,15.342-42.1-2.7-52.776a149.2,149.2,0,0,0-14.656-7.484C204.483,172.83,177.838,164.021,179.943,157.5Z" transform="translate(-38.602 -59.607)"/><path class="ak" d="M180.032,157.613l3.009-4.163c-23.246-11.054-44.06,3.461-62.364,31.977-19.77,30.746-30.138,74.837-30.247,121.47,0,0,3.945,20.939,30.4,31.416,28.064,11.1,67.213,6.408,79.406-22.685,0,0,.249-29.062,9.09-43.359,5.722-9.261,19.052-29.841,28.968-44.591,8.637-12.847,15.342-42.1-2.7-52.776a149.2,149.2,0,0,0-14.656-7.484C204.495,172.83,177.912,164.177,180.032,157.613Z" transform="translate(-38.614 -59.607)"/><path class="al" d="M245.746,193.852a47.086,47.086,0,0,0,.717-16.932h0a91.208,91.208,0,0,1-17.556,26.817c-9.464,9.963-21.157,17.727-29.935,28.3-9.355,11.194-15.981,24.728-23.761,36.966-3.118,4.911-7.39,14.375-13.19,14.749-7.078.468-13.845-8.17-17.711-14.11-6.236-9.495-11.444-21.344-19.1-29.623-6.689-7.281-17.025-16.6-26.146-12.379h0q-1,3.633-1.918,7.343c-.608,2.495-1.185,5-1.7,7.531a1.81,1.81,0,0,0,0,.281c-.53,2.541-1.013,5.067-1.45,7.624v.405c-.437,2.51-.826,5.052-1.169,7.577a248.087,248.087,0,0,0-2.339,33.365s3.945,20.939,30.4,31.416c28.064,11.1,67.213,6.408,79.406-22.685,0,0,.249-29.062,9.09-43.359.889-1.45,1.98-3.118,3.2-5.1h0l.218-.327c1-1.559,2.1-3.321,3.274-5.161a2.553,2.553,0,0,0,.218-.343l.094-.14c2.526-3.929,5.348-8.31,8.279-12.8.452-.686.889-1.372,1.341-2.042,2.822-4.334,5.706-8.715,8.466-12.847h0c.92-1.4,1.824-2.744,2.713-4.085l1.138-1.684h0c.312-.468.608-.951.92-1.466a4.278,4.278,0,0,0,.265-.452c.234-.39.452-.764.655-1.169a4.764,4.764,0,0,1,.3-.515c.234-.452.468-.9.686-1.372l.187-.359c.281-.608.577-1.247.858-1.887V205.2c.249-.577.483-1.169.717-1.777a1.406,1.406,0,0,1,.172-.437c.218-.561.421-1.138.639-1.731v-.14a.871.871,0,0,1,0-.187c.374-1.091.717-2.2,1.029-3.336h0c.312-1.138.608-2.292.857-3.461h0Z" transform="translate(-38.58 -44.41)"/><path class="ac" d="M307.065,227.545a45.631,45.631,0,0,1-4.833,4.989c-7.11,6.439-15.435,9.526-25.086,15.809-7.8,5.067-19.848,12.473-30,18.709a151.825,151.825,0,0,1-32.741,15.108c-9.355,2.76-14.718,2.884-20.268-12.223-2.744-7.406-4.911-15-7.265-22.545q-5.254-16.807-10.352-33.692s-12.473-30.917,15.591-46.43c12.208,6.985,16.854,9.807,20.689,24.431,4.568,17.493,11.99,52.043,11.99,52.043a247.113,247.113,0,0,0,29-12.333c3.555-1.777,7.936-3.009,10.477-6.236a50.517,50.517,0,0,0,4.459-6.938c1.185-2.152,2.058-4.506,3.368-6.564a58.731,58.731,0,0,1,9.23-10.15,3.82,3.82,0,0,1,2.23-1.325,2.573,2.573,0,0,1,2.261,1.388c1.029,1.793,0,3.57-.468,5.41-.592,2.089-1.2,4.194-1.793,6.236a54.912,54.912,0,0,0,17.883-16.776,8.76,8.76,0,0,1,1.419-1.793,2.744,2.744,0,0,1,2.074-.764c1.887.234,3.742,3.274,3.835,5a26.956,26.956,0,0,0,.14,5.27c.421,1.637,1.559,2.978,2.027,4.568a25.35,25.35,0,0,1,1.076,5.051,17.353,17.353,0,0,1-2.853,10.571,23.262,23.262,0,0,1-2.089,3.181Z" transform="translate(7.976 -49.806)"/><path class="k" d="M191.293,166.47c10.7,4.334,18.4,9.214,23.262,25.523s10.165,42.47,10.165,42.47.094,5.472-12.878,13.112a31.93,31.93,0,0,1-25.117,3.383l-9.791-31.478S159.549,177.353,191.293,166.47Z" transform="translate(7.095 -50.253)"/><path class="k" d="M190.466,389.09c-8.591-.421-15.295-6.72-35.7-15.233-37.668-15.685-65.919-28.251-76.677-47.974S59.7,249.206,62.385,224.541a32.492,32.492,0,0,1,1.855-8.185l-2.65-.39,6.86-5.831h0c7.032-5.753,18.491-.624,27.129,4.069,24.65,13.424,43.936,26.5,59.246,73.543,11.475,35.423,19.037,67.728,34.862,85" transform="translate(-54.738 -27.266)"/><path class="am" d="M64.24,216.386,61.59,216l6.86-5.831h0c7.032-5.753,18.491-.624,27.129,4.069,24.65,13.424,43.936,26.5,59.246,73.543,11.475,35.423,19.037,67.728,34.862,85l.842,16.324c-8.591-.421-15.295-6.72-35.7-15.232C117.157,358.187,88.906,345.62,78.148,325.9s-18.382-76.677-15.7-101.342a32.492,32.492,0,0,1,1.793-8.17Z" transform="translate(-54.738 -27.249)"/><path class="k" d="M90.879,218.151c24.665,13.424,43.951,26.5,59.246,73.543s23.589,88.682,53.633,96.758c0,0-13.6,5.395-55.224-12.208-13.237-5.6-29.311-15.825-39.882-21.828-20.689-11.615-33.225-21.126-35.2-24.681-10.914-19.645-18.4-76.677-15.7-101.342S78.531,211.431,90.879,218.151Z" transform="translate(-57.195 -25.085)"/></g><g transform="translate(214.518 -0.002)"><path class="k" d="M174.191,95.557l-6.8-12.816,5.472-15.809V57.25L156.09,66.932v9.682l7.219,12.473a1.169,1.169,0,0,0,.437.514h0Z" transform="translate(-127.246 32.013)"/><path class="an" d="M174.191,95.557l-6.8-12.816,5.472-15.809V57.25L156.09,66.932v9.682l7.219,12.473a1.169,1.169,0,0,0,.437.514h0Z" transform="translate(-127.246 32.013)"/><path class="ao" d="M224.588,12.271a11.116,11.116,0,0,0-5.02-8.7l-4.1-2.37a11.1,11.1,0,0,0-10.056,0L142.626,37.513a11.132,11.132,0,0,0-5.036,8.715v69.147a11.132,11.132,0,0,0,5.036,8.715l4.1,2.354a11.1,11.1,0,0,0,10.056,0l20.19-11.662,7.188,12.473a1.076,1.076,0,0,0,1.949-.187l7.608-21.952,25.85-14.983a11.116,11.116,0,0,0,5.02-8.7Z" transform="translate(-137.59 0.002)"/><path class="ap" d="M137.59,100.575a11.132,11.132,0,0,0,5.036,8.715l4.1,2.354a11.21,11.21,0,0,0,9.183.405c-2.354.9-4.163-.437-4.163-3.305V39.6a10.181,10.181,0,0,1,1.559-4.958l-14.157-8.17a10.353,10.353,0,0,0-1.481,4.958Z" transform="translate(-137.59 14.803)"/><path class="o" d="M223.9,10.911c-.592-2.136-2.541-2.822-4.864-1.559l-62.8,36.327a9.947,9.947,0,0,0-3.539,3.757l-14.141-8.17a10.181,10.181,0,0,1,3.539-3.757L204.875,1.2a11.194,11.194,0,0,1,10.056,0l4.1,2.37a11.148,11.148,0,0,1,4.864,7.343Z" transform="translate(-137.053 0.006)"/><g transform="translate(23.386 42.255)"><path class="n" d="M152.59,61.366a3.57,3.57,0,0,1,.265-1.434,9.167,9.167,0,0,1,.733-1.341l13.673-22.077a1.92,1.92,0,0,1,.234-.249.5.5,0,0,1,.14-.125.441.441,0,0,1,.515,0,.858.858,0,0,1,.2.67v8.513a3.7,3.7,0,0,1-.39,1.777c-.265.483-.5.858-.7,1.154L160.23,59l7.032,3.259a2.869,2.869,0,0,1,.7.343c.265.156.39.592.39,1.294v6.049a2.073,2.073,0,0,1-.2.9,1.341,1.341,0,0,1-.515.608h-.14a.592.592,0,0,1-.234,0l-13.642-6.236a1.871,1.871,0,0,1-.733-.483,1.809,1.809,0,0,1-.265-1.138Z" transform="translate(-152.589 -22.091)"/><path class="n" d="M175.817,32.276a6.44,6.44,0,0,1,.515-1.372,2.479,2.479,0,0,1,.982-1.06l4.584-2.65a.421.421,0,0,1,.53,0,.92.92,0,0,1,.218.686,2.307,2.307,0,0,1-.094.624L171.015,77.678A5.441,5.441,0,0,1,170.547,79a2.557,2.557,0,0,1-1.029,1.123L165.043,82.7a.374.374,0,0,1-.514,0,.889.889,0,0,1-.234-.686,2.431,2.431,0,0,1,0-.515Z" transform="translate(-146.052 -27.1)"/><path class="n" d="M193.413,39.154a3.883,3.883,0,0,1-.249,1.434,10.257,10.257,0,0,1-.748,1.356L178.773,64.006l-.218.265-.156.109a.39.39,0,0,1-.514,0,.9.9,0,0,1-.2-.67V55.182a3.492,3.492,0,0,1,.39-1.746,13.063,13.063,0,0,1,.7-1.138l5.971-9.277-5.971-2.276a2.993,2.993,0,0,1-.7-.359c-.265-.187-.39-.624-.39-1.325V30.548a2.011,2.011,0,0,1,.2-.9,1.4,1.4,0,0,1,.515-.624h.374l13.642,6.236a1.9,1.9,0,0,1,.748.5,1.933,1.933,0,0,1,.249,1.138Z" transform="translate(-138.563 -26.026)"/></g></g><g transform="translate(24.431 3.122)"><g transform="translate(0)"><path class="j" d="M101.717,2.5,17.744,50.9a4.677,4.677,0,0,0-2.074,3.617v46.9A4.553,4.553,0,0,0,17.744,105l8.294,4.677a4.677,4.677,0,0,0,4.178,0l83.989-48.442a4.677,4.677,0,0,0,2.089-3.617V10.783a4.521,4.521,0,0,0-2.1-3.586L105.9,2.519a4.677,4.677,0,0,0-4.178-.016Z" transform="translate(-15.67 -1.992)"/><path class="d" d="M116.046,10.418c-.172-1.045-1.029-1.419-2.058-.826L30,58a4.163,4.163,0,0,0-1.466,1.559L16.06,52.39a4.4,4.4,0,0,1,1.45-1.559l84-48.332a4.677,4.677,0,0,1,4.194,0l8.279,4.677A4.584,4.584,0,0,1,116.046,10.418Z" transform="translate(-15.452 -2.002)"/><path class="c" d="M109.739,6.97,25.749,55.381a4.584,4.584,0,0,0-2.089,3.6v46.9c0,1.325.935,1.871,2.089,1.2l83.989-48.457a4.677,4.677,0,0,0,2.089-3.617V8.171C111.828,6.846,110.892,6.316,109.739,6.97Z" transform="translate(-11.203 0.62)"/><path class="aq" d="M38.8,50.828v7A8.731,8.731,0,0,0,39.05,59.5a2.557,2.557,0,0,0,.577,1.185,1.419,1.419,0,0,0,1.029.468,2.9,2.9,0,0,0,1.559-.483,5.878,5.878,0,0,0,1.559-1.2,7.3,7.3,0,0,0,.967-1.356,6.906,6.906,0,0,0,.577-1.388c.14-.468.234-.889.312-1.263a5.191,5.191,0,0,1,.3-1.091,1.341,1.341,0,0,1,.624-.624l3.508-2.027a.327.327,0,0,1,.421,0,.8.8,0,0,1,.172.546,16.573,16.573,0,0,1-.67,4.35,20.268,20.268,0,0,1-1.933,4.147,19.1,19.1,0,0,1-2.635,3.7,13.674,13.674,0,0,1-3.29,2.713,6.969,6.969,0,0,1-3.446,1.091,3.867,3.867,0,0,1-2.588-.92,5.8,5.8,0,0,1-1.653-2.619,13.44,13.44,0,0,1-.655-3.929V53.432a21.61,21.61,0,0,1,.639-4.677,22.716,22.716,0,0,1,1.653-4.521A18.927,18.927,0,0,1,38.66,40.32a13.549,13.549,0,0,1,3.461-2.884,7.5,7.5,0,0,1,3.29-1.091,4.459,4.459,0,0,1,2.635.639,4.88,4.88,0,0,1,1.777,2.2,9.495,9.495,0,0,1,.67,3.586,1.871,1.871,0,0,1-.172.748,1.247,1.247,0,0,1-.421.5l-3.508,2.027c-.312.187-.515.2-.624.094a1.949,1.949,0,0,1-.3-.764,6.1,6.1,0,0,0-.312-.889,1.523,1.523,0,0,0-1.544-.967,3.321,3.321,0,0,0-1.559.53A5.613,5.613,0,0,0,40.5,45.324a7.421,7.421,0,0,0-1.029,1.637,8.4,8.4,0,0,0-.577,1.871,14.032,14.032,0,0,0-.094,2Z" transform="translate(-5.545 17.193)"/><path class="aq" d="M54.519,30.244a7.234,7.234,0,0,1,3.118-1.06,4.677,4.677,0,0,1,2.479.53,4.194,4.194,0,0,1,1.637,1.7,5.285,5.285,0,0,1,.608,2.417,1.559,1.559,0,0,1-.172.733,1.029,1.029,0,0,1-.39.5l-3.508,2.027a1.107,1.107,0,0,1-.608.187.951.951,0,0,1-.468-.234l-.249-.265a1.559,1.559,0,0,0-.5-.312,1.668,1.668,0,0,0-.811,0,3.259,3.259,0,0,0-1.185.452,7.686,7.686,0,0,0-.967.67,5.924,5.924,0,0,0-.842.811,3.835,3.835,0,0,0-.592.982,3.118,3.118,0,0,0-.218,1.154,1.232,1.232,0,0,0,.249.889,1.107,1.107,0,0,0,.858.265,7.453,7.453,0,0,0,1.559-.234l2.463-.639a8.061,8.061,0,0,1,2.573-.327,3.118,3.118,0,0,1,1.84.686,3.757,3.757,0,0,1,1.2,1.762,11.708,11.708,0,0,1,.343,3.118,13.658,13.658,0,0,1-.624,4.116,15.9,15.9,0,0,1-1.731,3.82,17.431,17.431,0,0,1-2.619,3.321,16.121,16.121,0,0,1-3.321,2.526,7.874,7.874,0,0,1-3.321,1.185,4.568,4.568,0,0,1-2.588-.468,4.163,4.163,0,0,1-1.715-1.762,6.018,6.018,0,0,1-.639-2.728,1.746,1.746,0,0,1,.187-.655,1.138,1.138,0,0,1,.39-.5l3.508-2.042a1.107,1.107,0,0,1,.592-.2.842.842,0,0,1,.421.187,4.489,4.489,0,0,1,.327.359,1.9,1.9,0,0,0,.577.421,1.559,1.559,0,0,0,.9.156,3.243,3.243,0,0,0,1.356-.483,9.713,9.713,0,0,0,2.37-1.855,3.227,3.227,0,0,0,.967-2.276.889.889,0,0,0-.343-.826,1.809,1.809,0,0,0-1.045-.172,10.476,10.476,0,0,0-1.777.359l-2.573.639a3.882,3.882,0,0,1-4.038-.717,7.375,7.375,0,0,1-1.278-4.942,14.032,14.032,0,0,1,.53-3.7,16.994,16.994,0,0,1,1.559-3.726,17.524,17.524,0,0,1,2.4-3.352A13.5,13.5,0,0,1,54.519,30.244Z" transform="translate(1.5 13.191)"/><path class="aq" d="M66.973,23.055a7.032,7.032,0,0,1,3.118-1.06,4.584,4.584,0,0,1,2.495.53,4.3,4.3,0,0,1,1.559,1.7,5.285,5.285,0,0,1,.717,2.463,1.856,1.856,0,0,1-.172.733,1.122,1.122,0,0,1-.39.5l-3.508,2.027a.78.78,0,0,1-1.076,0l-.265-.265a1.232,1.232,0,0,0-.483-.312,1.871,1.871,0,0,0-.811-.078,3.243,3.243,0,0,0-1.185.468,6.579,6.579,0,0,0-.967.655,6.984,6.984,0,0,0-.842.811,4.444,4.444,0,0,0-.592.982,3.3,3.3,0,0,0-.218,1.169,1.232,1.232,0,0,0,.249.889,1.169,1.169,0,0,0,.858.265A7.2,7.2,0,0,0,67.02,34.3l2.479-.639a8.606,8.606,0,0,1,2.573-.343,3.118,3.118,0,0,1,1.84.7A3.742,3.742,0,0,1,75,35.855a11.054,11.054,0,0,1,.374,3.118,14.156,14.156,0,0,1-.624,4.116,16.183,16.183,0,0,1-1.637,3.773,17.509,17.509,0,0,1-2.635,3.321,15.591,15.591,0,0,1-3.305,2.526,8.326,8.326,0,0,1-3.321,1.185,4.568,4.568,0,0,1-2.588-.468,4.256,4.256,0,0,1-1.777-1.793A6.065,6.065,0,0,1,58.85,48.9a1.871,1.871,0,0,1,.172-.748,1.169,1.169,0,0,1,.39-.483l3.508-2.027a1.045,1.045,0,0,1,.592-.2.889.889,0,0,1,.437.187l.327.343a1.7,1.7,0,0,0,.577.437,1.746,1.746,0,0,0,.9.156,3.243,3.243,0,0,0,1.356-.5,9.978,9.978,0,0,0,2.37-1.84,3.227,3.227,0,0,0,.951-2.261.9.9,0,0,0-.343-.842,1.824,1.824,0,0,0-1.045-.156,10.618,10.618,0,0,0-1.793.343c-.717.2-1.559.421-2.557.655a3.851,3.851,0,0,1-4.054-.67,7.375,7.375,0,0,1-1.278-4.942,14.282,14.282,0,0,1,.53-3.7,17.151,17.151,0,0,1,1.559-3.711A16.433,16.433,0,0,1,63.761,25.6a13.19,13.19,0,0,1,3.212-2.541Z" transform="translate(8.472 9.17)"/></g><g transform="translate(0 97.476)"><path class="j" d="M101.717,65.017l-83.974,48.41a4.568,4.568,0,0,0-2.074,3.6v46.9a4.553,4.553,0,0,0,2.074,3.6l8.294,4.677a4.677,4.677,0,0,0,4.178,0l84.02-48.332a4.584,4.584,0,0,0,2.089-3.6V73.311a4.537,4.537,0,0,0-2.1-3.6l-8.294-4.677A4.677,4.677,0,0,0,101.717,65.017Z" transform="translate(-15.67 -64.52)"/><path class="d" d="M116.046,72.923c-.172-1.045-1.029-1.419-2.058-.826L30,120.507a4.288,4.288,0,0,0-1.466,1.559L16.06,114.91a4.256,4.256,0,0,1,1.45-1.559l84-48.332a4.677,4.677,0,0,1,4.194,0l8.279,4.677A4.677,4.677,0,0,1,116.046,72.923Z" transform="translate(-15.452 -64.522)"/><path class="c" d="M109.739,69.484,25.749,117.879a4.677,4.677,0,0,0-2.089,3.6v46.914c0,1.325.935,1.855,2.089,1.2l84.02-48.332a4.584,4.584,0,0,0,2.089-3.6V70.685C111.828,69.344,110.892,68.876,109.739,69.484Z" transform="translate(-11.203 -61.894)"/><path class="n" d="M42.635,100.973a.405.405,0,0,1,.515,0,.889.889,0,0,1,.2.655V128.32a2.167,2.167,0,0,1-.2.9,1.419,1.419,0,0,1-.515.624l-3.461,2.074a.374.374,0,0,1-.5,0,.9.9,0,0,1-.218-.67V121.132L32.5,124.578V134.7a2.136,2.136,0,0,1-.218.9,1.31,1.31,0,0,1-.5.624l-3.524,2a.405.405,0,0,1-.515,0,.858.858,0,0,1-.2-.67V110.842a2.12,2.12,0,0,1,.2-.9,1.419,1.419,0,0,1,.515-.624l3.524-2.027a.359.359,0,0,1,.5,0,.889.889,0,0,1,.218.655V117.9l5.956-3.446v-9.947a2.089,2.089,0,0,1,.218-.9,1.31,1.31,0,0,1,.5-.624Z" transform="translate(-9.036 -44.193)"/><path class="n" d="M55.2,93.712a.39.39,0,0,1,.5,0,.842.842,0,0,1,.218.67v4.381a1.933,1.933,0,0,1-.218.9,1.4,1.4,0,0,1-.5.624l-4.677,2.728v21.188a2.136,2.136,0,0,1-.218.9,1.247,1.247,0,0,1-.515.624l-3.508,2.027a.374.374,0,0,1-.514,0,.889.889,0,0,1-.2-.655V105.92l-4.677,2.728a.39.39,0,0,1-.515,0,.889.889,0,0,1-.218-.655v-4.428a2.136,2.136,0,0,1,.218-.9,1.247,1.247,0,0,1,.515-.624Z" transform="translate(-1.984 -48.251)"/><path class="n" d="M60.514,112.916a2.589,2.589,0,0,1-.359-.483l-2.526-5.348v13.627a2.183,2.183,0,0,1-.2.92,1.419,1.419,0,0,1-.515.624L53.4,124.282a.421.421,0,0,1-.514,0,.9.9,0,0,1-.218-.67V96.92a2.089,2.089,0,0,1,.218-.9,1.372,1.372,0,0,1,.514-.639l3.118-1.793c.359-.2.624-.2.811,0a2,2,0,0,1,.343.452l4.35,8.934,4.35-14.032a3.739,3.739,0,0,1,.343-.858,1.949,1.949,0,0,1,.811-.92l3.118-1.793a.374.374,0,0,1,.515,0,.889.889,0,0,1,.218.655v26.692a2.136,2.136,0,0,1-.218.9,1.247,1.247,0,0,1-.515.624l-3.508,2.027a.374.374,0,0,1-.514,0,.889.889,0,0,1-.218-.655V102l-2.51,8.263a6.831,6.831,0,0,1-.374.889,1.559,1.559,0,0,1-.624.717l-1.715,1C60.888,113.041,60.669,113.041,60.514,112.916Z" transform="translate(5.016 -52.924)"/><path class="n" d="M81.082,98.848a.374.374,0,0,1,.5,0,.842.842,0,0,1,.218.67v4.366a2,2,0,0,1-.218.92,1.559,1.559,0,0,1-.5.624L68.609,112.6a.405.405,0,0,1-.515,0,.873.873,0,0,1-.2-.655V85.253a2.182,2.182,0,0,1,.2-.92,1.559,1.559,0,0,1,.515-.624l3.524-2.027a.39.39,0,0,1,.5,0,.9.9,0,0,1,.218.67v21.219Z" transform="translate(13.525 -54.977)"/></g><g transform="translate(0 194.936)"><path class="j" d="M101.717,127.537,17.744,175.931a4.677,4.677,0,0,0-2.074,3.617v46.9a4.553,4.553,0,0,0,2.074,3.586l8.294,4.677a4.677,4.677,0,0,0,4.178,0l84.02-48.332a4.677,4.677,0,0,0,2.089-3.617V135.816a4.521,4.521,0,0,0-2.1-3.586l-8.294-4.677a4.677,4.677,0,0,0-4.21-.016Z" transform="translate(-15.67 -127.025)"/><path class="d" d="M116.046,135.448c-.172-1.045-1.029-1.434-2.058-.826L30,183.017a4.288,4.288,0,0,0-1.466,1.559L16.06,177.42a4.257,4.257,0,0,1,1.45-1.481l84-48.41a4.677,4.677,0,0,1,4.194,0l8.279,4.677a4.584,4.584,0,0,1,2.058,3.243Z" transform="translate(-15.452 -127.032)"/><path class="c" d="M109.739,132,25.749,180.4a4.677,4.677,0,0,0-2.089,3.617v46.9c0,1.325.935,1.871,2.089,1.2l84.02-48.332a4.677,4.677,0,0,0,2.089-3.617V133.2C111.828,131.878,110.892,131.333,109.739,132Z" transform="translate(-11.203 -124.413)"/></g></g></g></svg>