<svg xmlns="http://www.w3.org/2000/svg" width="325.12" height="355.603" viewBox="0 0 325.12 355.603"><defs><style>.a,.ak,.al,.g{fill:#34dce7;}.a{opacity:0.1;}.b,.w{fill:#224dc2;}.c{fill:#226fcd;}.d{fill:#479ee8;}.e{fill:#15081f;}.f{fill:#80ffff;}.h{fill:#dbff0e;}.i{fill:#ff551f;}.j{fill:#ff2995;}.k{opacity:0.17;}.l{fill:#feb187;}.m{fill:#f88b65;}.n{fill:#b7ffe7;}.o{fill:#96d2e7;}.p{fill:#14c3e7;}.q{fill:#14afe7;}.r{fill:#dc9266;}.s{fill:#0c2898;}.t{fill:#133aaf;}.u{fill:#2273db;}.v{fill:#22a4fd;}.w{opacity:0.65;}.x{fill:#52fffd;}.y{fill:#70ffe7;}.z{fill:#2293f0;}.aa{fill:#22b2ff;}.ab{fill:#7ff;}.ac{fill:#27b0d7;}.ad{fill:#5fffff;}.ae{fill:#226ee5;}.af{fill:#111f9a;}.ag{fill:#1159c9;}.ah{fill:#111b54;}.ai{fill:#34c6e7;}.aj{fill:#151586;}.ak{opacity:0.3;}.al{opacity:0.66;}.am{fill:none;stroke:#34fbe7;stroke-linecap:round;stroke-linejoin:round;}.an{fill:#34fbe7;}</style></defs><g transform="translate(0 0.001)"><g transform="translate(0 -0.001)"><ellipse class="a" cx="79.988" cy="23.987" rx="79.988" ry="23.987" transform="translate(86.377 307.63)"/><ellipse class="a" cx="58.523" cy="17.544" rx="58.523" ry="17.544" transform="translate(107.842 307.781)"/><ellipse class="a" cx="43.821" cy="13.143" rx="43.821" ry="13.143" transform="translate(122.544 310.927)"/><rect class="b" width="236.124" height="5.23" transform="translate(44.454 210.231)"/><rect class="b" width="160.591" height="109.481" rx="5.05" transform="translate(83.909 88.81)"/><path class="c" d="M250.275,99.67H98.675a4.509,4.509,0,0,0-4.455,4.455v93.852H254.775V104.17a4.509,4.509,0,0,0-4.5-4.5Z" transform="translate(-10.267 -10.86)"/><path class="d" d="M250.275,99.67H98.675a4.509,4.509,0,0,0-4.455,4.455v.321a4.509,4.509,0,0,1,4.455-4.455h151.6a4.509,4.509,0,0,1,4.5,4.455v-.321a4.509,4.509,0,0,0-4.5-4.455Z" transform="translate(-10.267 -10.86)"/><rect class="e" width="148.107" height="87.66" transform="translate(90.155 95.707)"/><rect class="f" width="85.842" height="2.067" rx="1.034" transform="translate(109.561 106.889)"/><rect class="g" width="56.01" height="2.655" rx="1.328" transform="translate(95.02 99.966)"/><rect class="g" width="7.449" height="2.067" rx="1.034" transform="translate(95.02 106.889)"/><rect class="h" width="44.418" height="1.292" rx="0.646" transform="translate(95.893 113.349)"/><rect class="h" width="44.418" height="1.292" rx="0.646" transform="translate(95.893 118.597)"/><rect class="h" width="44.418" height="1.292" rx="0.646" transform="translate(95.893 123.836)"/><rect class="h" width="44.418" height="1.292" rx="0.646" transform="translate(95.893 129.085)"/><rect class="h" width="7.868" height="1.292" rx="0.646" transform="translate(95.893 134.333)"/><rect class="h" width="7.868" height="1.292" rx="0.646" transform="translate(107.378 134.333)"/><rect class="h" width="7.868" height="1.292" rx="0.646" transform="translate(118.864 134.333)"/><rect class="h" width="7.868" height="1.292" rx="0.646" transform="translate(130.349 134.333)"/><rect class="h" width="7.868" height="1.292" rx="0.646" transform="translate(141.844 134.333)"/><rect class="h" width="7.868" height="1.292" rx="0.646" transform="translate(153.329 134.333)"/><rect class="h" width="44.418" height="1.292" rx="0.646" transform="translate(95.893 139.572)"/><rect class="i" width="54.701" height="1.791" rx="0.895" transform="translate(174.571 121.627)"/><rect class="j" width="54.701" height="1.791" rx="0.895" transform="translate(174.571 129.477)"/><rect class="j" width="54.701" height="1.791" rx="0.895" transform="translate(174.571 136.828)"/><rect class="j" width="54.701" height="1.791" rx="0.895" transform="translate(174.571 144.17)"/><rect class="j" width="54.701" height="1.791" rx="0.895" transform="translate(174.571 151.521)"/><rect class="j" width="28.976" height="1.791" rx="0.895" transform="translate(174.571 158.872)"/><rect class="j" width="28.976" height="1.791" rx="0.895" transform="translate(192.338 163.871)"/><rect class="j" width="28.976" height="1.791" rx="0.895" transform="translate(192.338 169.056)"/><rect class="j" width="14.47" height="1.791" rx="0.895" transform="translate(102.326 169.056)"/><rect class="j" width="14.47" height="1.791" rx="0.895" transform="translate(102.326 164.771)"/><rect class="j" width="14.47" height="1.791" rx="0.895" transform="translate(102.326 160.485)"/><rect class="j" width="14.47" height="1.791" rx="0.895" transform="translate(102.326 156.208)"/><rect class="j" width="5.64" height="1.791" rx="0.895" transform="translate(123.123 156.208)"/><rect class="j" width="5.64" height="1.791" rx="0.895" transform="translate(123.123 165.679)"/><g class="k" transform="translate(90.155 95.707)"><path class="d" d="M261.555,167.886V152.15l-47.795,47.8h15.727Z" transform="translate(-113.448 -112.285)"/><path class="d" d="M169.917,195.07,252.2,112.783V107.41H215.609L127.94,195.07Z" transform="translate(-104.096 -107.41)"/><path class="d" d="M101.18,145.537v35.427l73.546-73.555H139.307Z" transform="translate(-101.18 -107.41)"/></g><rect class="l" width="16.457" height="12.385" transform="translate(156.474 155.058)"/><path class="m" d="M175.61,184.92a23.666,23.666,0,0,0,16.457,0v3.564l-4.526.829-3.7.757-8.233-2.718Z" transform="translate(-19.136 -20.149)"/><rect class="n" width="54.709" height="23.015" rx="8.65" transform="translate(137.299 230.101)"/><path class="o" d="M208.586,274.062c-28.228,8.331-54.237-.062-54.246-.062a11.236,11.236,0,0,0,10.969,8.982h32.318A11.245,11.245,0,0,0,208.586,274.062Z" transform="translate(-16.818 -29.856)"/><path class="g" d="M187.84,131.45,199.325,120a12.742,12.742,0,0,1-.4,11.485l4.74-4.74s2.13,6.4-2.192,9.9l3.912-3.921s2.459,7.271-6.62,12.84Z" transform="translate(-20.468 -13.075)"/><path class="p" d="M197.237,144.666l3.618.472h0c0-.276.953-10.3-10.55-15.058l-2.495,2.495Z" transform="translate(-20.465 -14.174)"/><circle class="l" cx="5.106" cy="5.106" r="5.106" transform="translate(173.386 137.728)"/><circle class="l" cx="5.106" cy="5.106" r="5.106" transform="translate(145.924 137.728)"/><rect class="g" width="31.739" height="44.24" rx="15.869" transform="translate(148.838 118.161)"/><path class="q" d="M170.67,161.564v3.867l1.951-1.951,1.613,1.613,1.541-1.541,1.417,1.426V160.53l-.5,2.718-.909-.989-1.541,1.782-1.648-1.809-1.194,1.292Z" transform="translate(-18.597 -17.492)"/><path class="q" d="M179.05,153.619v4.963l2.5-2.5,2.067,2.067,1.969-1.969L187.417,158v-5.7l-.642,3.484-1.167-1.265-1.978,2.272-2.121-2.308-1.524,1.657Z" transform="translate(-19.511 -16.595)"/><path class="q" d="M192.99,166.85v3.092l1.559-1.559,1.292,1.292,1.23-1.23,1.132,1.141V166.03l-.392,2.174-.731-.793-1.239,1.417-1.319-1.443-.944,1.043Z" transform="translate(-21.03 -18.091)"/><path class="g" d="M181.09,180.12v4.134l1.158-1.158,1.265,1.265,1.194-1.194,1.23,1.23V180.12Z" transform="translate(-19.733 -19.626)"/><path class="g" d="M185.85,179.77l.606,3.5.953-.962,1.051,1.051.989-.989,1.016,1.016v-3.546Z" transform="translate(-20.252 -19.588)"/><path class="g" d="M176.59,179.841v3.43l.962-.962,1.042,1.051.989-.989,1.016,1.016.374-3.618Z" transform="translate(-19.243 -19.588)"/><path class="g" d="M172.527,137.366l-3.555-3.546v3.546H165.63l2.5,2.5h-2.5l2.709,2.718h4.188Z" transform="translate(-18.048 -14.581)"/><path class="l" d="M143.133,223.163l-1.773,11.067h10.452V221.782l-7.4-1.542" transform="translate(-15.404 -23.998)"/><path class="r" d="M150.087,225.774H142.95l.356-2.254Z" transform="translate(-15.577 -24.356)"/><path class="s" d="M161.363,191.62c-7.485,3.662-14.141,4.785-22.543,27.087l12.724,4.223S159.92,202.09,161.363,191.62Z" transform="translate(-15.127 -20.88)"/><path class="l" d="M224.309,223.163l1.773,11.067H215.63V221.782l7.4-1.542" transform="translate(-23.497 -23.998)"/><path class="r" d="M217.76,225.774H224.9l-.356-2.254Z" transform="translate(-23.729 -24.356)"/><path class="s" d="M204.6,191.62c7.476,3.662,14.141,4.785,22.543,27.087l-12.724,4.223S206.043,202.09,204.6,191.62Z" transform="translate(-22.295 -20.88)"/><path class="b" d="M184.883,264.513h-8.215c-14,0-22.686-6.629-22.686-22.035L151.22,212.4a25.528,25.528,0,0,1,25.448-25.457h8.215A25.528,25.528,0,0,1,210.331,212.4l-4.348,28.272C205.938,258.436,198.837,264.513,184.883,264.513Z" transform="translate(-16.478 -20.37)"/><path class="t" d="M201.654,194c-16.306,2.548-38.02.374-41.585,0a25.493,25.493,0,0,0-7.77,12.172l2.531.267,10.3,1.452,13.2,2.067,12.18.775,13.989-1.541L209,204.9a25.6,25.6,0,0,0-7.342-10.9Z" transform="translate(-16.596 -21.139)"/><path class="b" d="M162.92,359.919c0,2.263,3.181,1.916,7.128,1.916s7.128.347,7.128-1.916-3.181-4.1-7.128-4.1S162.92,357.656,162.92,359.919Z" transform="translate(-17.753 -38.772)"/><path class="n" d="M157.83,284.08l11.5,66.943a12.162,12.162,0,0,0,7.226,0V300.234Z" transform="translate(-17.198 -30.955)"/><path class="o" d="M176.84,303.089l-.615-1.132-.677-.089L160.4,300.3l2.228,11.788c1.862.1,10.274-3.787,14.087,5.952l.134-.677Z" transform="translate(-17.478 -32.722)"/><path class="b" d="M204.937,359.919c0,2.263-3.181,1.916-7.128,1.916s-7.128.347-7.128-1.916,3.181-4.1,7.128-4.1S204.937,357.656,204.937,359.919Z" transform="translate(-20.778 -38.772)"/><path class="n" d="M209.479,284.08l-11.5,66.943a12.162,12.162,0,0,1-7.226,0V300.234Z" transform="translate(-20.785 -30.955)"/><path class="o" d="M190.749,303.089l.615-1.132.677-.089,15.148-1.568-2.228,11.788c-1.862.1-10.274-3.787-14.087,5.952l-.134-.677Z" transform="translate(-20.784 -32.722)"/><rect class="u" width="45.737" height="3.644" rx="1.41" transform="translate(162.827 312.121) rotate(-90)"/><path class="v" d="M184.049,297.55h1.185a4.794,4.794,0,0,1,4.794,4.794v11.414a5.979,5.979,0,0,1-5.979,5.979h0a5.979,5.979,0,0,1-5.979-5.979V303.529a5.979,5.979,0,0,1,5.979-5.979Z" transform="translate(-19.404 -32.422)"/><path class="w" d="M190.04,303.775a14.737,14.737,0,0,0-11.94,0v-4.259a14.737,14.737,0,0,1,11.94,0Z" transform="translate(-19.407 -32.499)"/><path class="b" d="M150.9,280.51H143.31a18.373,18.373,0,0,1-1-36.711,2.163,2.163,0,0,1,.339,0h.659a2.049,2.049,0,1,1,0,4.09,14.257,14.257,0,1,0,0,28.513H150.9a2.049,2.049,0,0,1,0,4.1Z" transform="translate(-13.629 -26.565)"/><rect class="g" width="13.455" height="6.852" rx="3.426" transform="translate(121.581 215.176)"/><path class="x" d="M139.88,241.891h6.6a3.422,3.422,0,0,1,3.4,3.226,1.708,1.708,0,0,0,0-.2,3.439,3.439,0,0,0-3.43-3.43H139.88a3.439,3.439,0,0,0-3.43,3.43,1.708,1.708,0,0,0,0,.2A3.422,3.422,0,0,1,139.88,241.891Z" transform="translate(-14.868 -26.314)"/><path class="b" d="M214.265,280.51h7.556a18.373,18.373,0,0,0,1-36.711,2.163,2.163,0,0,0-.339,0h-.659a2.049,2.049,0,1,0,0,4.09,14.257,14.257,0,1,1,0,28.513h-7.592a2.049,2.049,0,0,0,0,4.1Z" transform="translate(-23.121 -26.565)"/><rect class="g" width="13.455" height="6.852" rx="3.426" transform="translate(206.835 222.028) rotate(180)"/><path class="x" d="M227.056,241.891h-6.6a3.422,3.422,0,0,0-3.4,3.226,1.7,1.7,0,0,1,0-.2,3.439,3.439,0,0,1,3.43-3.431h6.6a3.439,3.439,0,0,1,3.43,3.43,1.7,1.7,0,0,1,0,.2,3.422,3.422,0,0,0-3.457-3.226Z" transform="translate(-23.651 -26.314)"/><rect class="g" width="75.765" height="16.466" rx="8.233" transform="translate(126.767 248.18)"/><path class="y" d="M150.5,279.305h59.3a8.251,8.251,0,0,1,8.215,7.85c0-.134,0-.258,0-.392a8.26,8.26,0,0,0-8.233-8.233H150.5a8.26,8.26,0,0,0-8.233,8.233v.392A8.251,8.251,0,0,1,150.5,279.305Z" transform="translate(-15.503 -30.35)"/><path class="g" d="M191.07,262.351H169.686a15.575,15.575,0,0,1-15.531-15.531l-3.885-33.61A15.575,15.575,0,0,1,165.8,197.68h30.447a15.575,15.575,0,0,1,15.531,15.531L206.6,246.82A15.575,15.575,0,0,1,191.07,262.351Z" transform="translate(-16.374 -21.54)"/><path class="x" d="M165.8,198.33h30.447a15.566,15.566,0,0,1,15.5,15.076v-.2a15.575,15.575,0,0,0-15.531-15.531H165.8a15.575,15.575,0,0,0-15.531,15.531v.241A15.575,15.575,0,0,1,165.8,198.33Z" transform="translate(-16.374 -21.54)"/><rect class="b" width="59.601" height="7.289" rx="3.644" transform="translate(134.849 260.467)"/><rect class="b" width="31.721" height="7.289" rx="2.81" transform="translate(148.794 267.631)"/><path class="z" d="M154.984,292.556H207.3a3.644,3.644,0,0,1,3.627,3.564.454.454,0,0,0,0-.116,3.653,3.653,0,0,0-3.644-3.644H154.984A3.653,3.653,0,0,0,151.34,296s0,.08,0,.116A3.662,3.662,0,0,1,154.984,292.556Z" transform="translate(-16.491 -31.857)"/><rect class="u" width="49.622" height="3.644" rx="1.822" transform="translate(139.839 266.081)"/><path class="aa" d="M158.777,298.747h45.968a1.782,1.782,0,0,1,1.782,1.782v-.062a1.827,1.827,0,0,0-1.782-1.827H158.777a1.827,1.827,0,0,0-1.827,1.827v.062a1.782,1.782,0,0,1,1.827-1.782Z" transform="translate(-17.102 -32.541)"/><path class="v" d="M181.06,352.363V346.7a3.324,3.324,0,0,1,3.315-3.315h0A3.324,3.324,0,0,1,187.7,346.7v5.658" transform="translate(-19.73 -37.418)"/><path class="u" d="M156.843,359.373a1.3,1.3,0,0,1-.535-2.477,63.263,63.263,0,0,1,52,0,1.294,1.294,0,1,1-1.06,2.361,60.59,60.59,0,0,0-49.9,0A1.283,1.283,0,0,1,156.843,359.373Z" transform="translate(-16.951 -38.28)"/><rect class="b" width="11.441" height="4.286" rx="1.66" transform="translate(159.192 312.121)"/><rect class="u" width="1.818" height="11.485" rx="0.909" transform="translate(163.995 314.259)"/><rect class="g" width="4.936" height="9.605" rx="2.468" transform="translate(162.435 322.002)"/><circle class="g" cx="4.66" cy="4.66" r="4.66" transform="translate(188.355 317.886)"/><path class="ab" d="M216.05,356.886a4.66,4.66,0,0,1,4.66,4.6v-.054a4.66,4.66,0,1,0-9.32,0v.062A4.642,4.642,0,0,1,216.05,356.886Z" transform="translate(-23.035 -38.876)"/><circle class="ac" cx="2.78" cy="2.78" r="2.78" transform="translate(190.236 319.766)"/><circle class="u" cx="1.114" cy="1.114" r="1.114" transform="translate(191.902 321.432)"/><path class="ad" d="M216.484,360.807a1.114,1.114,0,0,1,1.114,1.087h0a1.114,1.114,0,0,0-2.228,0h0A1.1,1.1,0,0,1,216.484,360.807Z" transform="translate(-23.468 -39.312)"/><circle class="g" cx="4.66" cy="4.66" r="4.66" transform="translate(133.896 317.886)"/><path class="ab" d="M154.928,356.9a4.651,4.651,0,0,1,4.651,4.6v-.063a4.669,4.669,0,0,0-9.329,0v.062a4.66,4.66,0,0,1,4.678-4.6Z" transform="translate(-16.372 -38.89)"/><circle class="ac" cx="2.78" cy="2.78" r="2.78" transform="translate(135.776 319.766)"/><circle class="u" cx="1.114" cy="1.114" r="1.114" transform="translate(137.442 321.432)"/><path class="ad" d="M155.362,360.81a1.1,1.1,0,0,1,1.1,1.087h0a1.123,1.123,0,0,0-2.236,0h0a1.114,1.114,0,0,1,1.132-1.087Z" transform="translate(-16.806 -39.316)"/><rect class="b" width="31.721" height="15.21" rx="7.605" transform="translate(148.794 197.498)"/><path class="ae" d="M191.1,221.65H174.591a7.627,7.627,0,0,0-7.6,7.6h0v.125a7.627,7.627,0,0,1,7.6-7.476H191.1a7.636,7.636,0,0,1,7.6,7.476v-.125h0a7.627,7.627,0,0,0-7.6-7.6Z" transform="translate(-18.196 -24.152)"/><rect class="af" width="7.217" height="60.866" rx="2.79" transform="translate(161.036 203.245)"/><rect class="ag" width="5.676" height="1.568" rx="0.57" transform="translate(161.812 207.041)"/><rect class="ah" width="5.676" height="1.488" rx="0.57" transform="translate(161.812 207.041)"/><rect class="ag" width="5.676" height="1.568" rx="0.57" transform="translate(161.812 211.354)"/><rect class="ah" width="5.676" height="1.488" rx="0.57" transform="translate(161.812 211.354)"/><rect class="ag" width="5.676" height="1.568" rx="0.57" transform="translate(161.812 215.452)"/><rect class="ah" width="5.676" height="1.488" rx="0.57" transform="translate(161.812 215.452)"/><rect class="ag" width="5.676" height="1.568" rx="0.57" transform="translate(161.812 219.551)"/><rect class="ah" width="5.676" height="1.488" rx="0.57" transform="translate(161.812 219.551)"/><rect class="ag" width="5.676" height="1.568" rx="0.57" transform="translate(161.812 223.65)"/><rect class="ah" width="5.676" height="1.488" rx="0.57" transform="translate(161.812 223.65)"/><rect class="ag" width="5.676" height="1.568" rx="0.57" transform="translate(161.812 227.749)"/><rect class="ah" width="5.676" height="1.488" rx="0.57" transform="translate(161.812 227.749)"/><rect class="ag" width="5.676" height="1.568" rx="0.57" transform="translate(161.812 231.847)"/><rect class="ah" width="5.676" height="1.488" rx="0.57" transform="translate(161.812 231.847)"/><rect class="ag" width="5.676" height="1.568" rx="0.57" transform="translate(161.812 235.946)"/><rect class="ah" width="5.676" height="1.488" rx="0.57" transform="translate(161.812 235.946)"/><rect class="ag" width="5.676" height="1.568" rx="0.57" transform="translate(161.812 240.045)"/><rect class="ah" width="5.676" height="1.488" rx="0.57" transform="translate(161.812 240.045)"/><rect class="ag" width="5.676" height="1.568" rx="0.57" transform="translate(161.812 244.144)"/><rect class="ah" width="5.676" height="1.488" rx="0.57" transform="translate(161.812 244.144)"/><rect class="ag" width="5.676" height="1.568" rx="0.57" transform="translate(161.812 248.242)"/><rect class="ah" width="5.676" height="1.488" rx="0.57" transform="translate(161.812 248.242)"/><rect class="ag" width="5.676" height="1.568" rx="0.57" transform="translate(161.812 252.341)"/><rect class="ah" width="5.676" height="1.488" rx="0.57" transform="translate(161.812 252.341)"/><rect class="ag" width="5.676" height="1.568" rx="0.57" transform="translate(161.812 256.44)"/><rect class="ah" width="5.676" height="1.488" rx="0.57" transform="translate(161.812 256.44)"/><path class="ai" d="M268.455,227.66a4.455,4.455,0,1,1,4.455-4.455A4.455,4.455,0,0,1,268.455,227.66Zm0-7.583a3.136,3.136,0,1,0,3.128,3.136A3.136,3.136,0,0,0,268.455,220.078Z" transform="translate(-28.767 -23.836)"/><path class="g" d="M267.157,216.72v8.91a7.226,7.226,0,0,1-7.208,7.208h0a7.226,7.226,0,0,1-7.208-7.208v-8.91Z" transform="translate(-27.54 -23.615)"/><rect class="ai" width="14.622" height="1.96" rx="0.9" transform="translate(225.102 208.271)"/><path class="aj" d="M120.6,55.65H25.13l-.089-.428A10.692,10.692,0,0,1,41.819,44.369a27.292,27.292,0,0,1,52.3-4.232,16.039,16.039,0,0,1,26.882,11.869,15.637,15.637,0,0,1-.33,3.217ZM26.012,54.581H119.7a14.711,14.711,0,0,0,.223-2.575A14.987,14.987,0,0,0,94.274,41.474l-.606.624-.285-.829A26.214,26.214,0,0,0,42.719,45.43l-.151.945-.731-.624A9.65,9.65,0,0,0,25.87,53.075,10.692,10.692,0,0,0,26.012,54.581Z" transform="translate(-2.703 -2.446)"/><path class="aj" d="M78.078,51.581H69.417a2.058,2.058,0,0,1-2.058-2.058V44.248h-2.29a1.9,1.9,0,0,1-1.337-3.234l8.679-8.67a1.925,1.925,0,0,1,2.673,0l8.679,8.67a1.9,1.9,0,0,1-1.345,3.234H80.137v5.3a2.067,2.067,0,0,1-2.058,2.032ZM73.712,32.87a.811.811,0,0,0-.579.241L64.49,41.78a.82.82,0,0,0,.579,1.4h3.359V49.55a.989.989,0,0,0,.989.989h8.661a.989.989,0,0,0,.98-.989V43.179h3.359a.829.829,0,0,0,.588-1.4L74.327,33.1A.891.891,0,0,0,73.712,32.87Z" transform="translate(-6.885 -3.465)"/><path class="aj" d="M243.054,13.606H203.929v-.178a4.169,4.169,0,0,1-.089-.891,4.4,4.4,0,0,1,6.968-3.564,11.191,11.191,0,0,1,21.438-1.738,6.5,6.5,0,0,1,4.455-1.72,6.594,6.594,0,0,1,6.487,6.594,6.493,6.493,0,0,1-.134,1.319Zm-38.76-.446h38.4a6.88,6.88,0,0,0,.089-1.051,6.157,6.157,0,0,0-6.148-6.139A6.059,6.059,0,0,0,232.273,7.8l-.249.249-.116-.339a10.746,10.746,0,0,0-20.8,1.711V9.8l-.3-.258a3.956,3.956,0,0,0-6.531,3,3.5,3.5,0,0,0,.018.615Z" transform="translate(-22.212 0.001)"/><path class="aj" d="M225.621,11.947h-3.564a.891.891,0,0,1-.846-.846V8.926h-.936a.766.766,0,0,1-.722-.472.784.784,0,0,1,.169-.846l3.564-3.564a.793.793,0,0,1,1.1,0l3.564,3.564a.784.784,0,0,1,.169.846.766.766,0,0,1-.722.472h-.936v2.183a.891.891,0,0,1-.838.838Zm-1.782-7.681a.312.312,0,0,0-.241.1l-3.564,3.564a.334.334,0,0,0,.241.57h1.372v2.611a.419.419,0,0,0,.41.41h3.564a.41.41,0,0,0,.4-.41V8.489H227.4a.334.334,0,0,0,.241-.57l-3.564-3.564a.321.321,0,0,0-.232-.089Z" transform="translate(-23.918 -0.416)"/><path class="aj" d="M331.058,276.1H262.974l-.062-.3a8.143,8.143,0,0,1-.151-1.541,7.645,7.645,0,0,1,12.118-6.237,19.469,19.469,0,0,1,37.3-3.021,11.352,11.352,0,0,1,7.707-2.994,11.476,11.476,0,0,1,11.468,11.423,11.76,11.76,0,0,1-.232,2.3Zm-67.442-.766h66.827a10.565,10.565,0,0,0,.16-1.836,10.692,10.692,0,0,0-18.293-7.511l-.437.446-.2-.588a18.712,18.712,0,0,0-36.131,2.967l-.107.668-.517-.445a6.888,6.888,0,0,0-11.37,5.221,7.222,7.222,0,0,0,.062,1.043Z" transform="translate(-28.632 -27.503)"/><path class="aj" d="M300.7,273.18h-6.175a1.47,1.47,0,0,1-1.47-1.47v-3.8h-1.631a1.354,1.354,0,0,1-.953-2.308l6.184-6.184a1.381,1.381,0,0,1,1.916,0l6.184,6.184a1.354,1.354,0,0,1-.953,2.308h-1.631v3.778a1.47,1.47,0,0,1-1.47,1.488Zm-3.083-13.365a.579.579,0,0,0-.419.178l-6.148,6.139a.544.544,0,0,0-.125.633.561.561,0,0,0,.535.365h2.4v4.544a.713.713,0,0,0,.7.7H300.7a.713.713,0,0,0,.7-.7V267.13h2.4a.561.561,0,0,0,.535-.365.543.543,0,0,0-.071-.633l-6.237-6.148a.579.579,0,0,0-.374-.178Z" transform="translate(-31.609 -28.226)"/><rect class="ak" width="132.978" height="0.65" transform="translate(0 44)"/><path class="ak" d="M0,49.38H132.978v74.437a6.7,6.7,0,0,1-6.7,6.7H6.7A6.7,6.7,0,0,1,0,123.808Z" transform="translate(0 -5.38)"/><rect class="ak" width="70.81" height="25.421" transform="translate(11.886 61.045)"/><rect class="ak" width="24.895" height="7.886" transform="translate(11.886 91.207)"/><rect class="ak" width="42.173" height="7.886" transform="translate(40.524 91.207)"/><rect class="ak" width="38.546" height="11.004" transform="translate(87.393 61.045)"/><rect class="ak" width="114.052" height="11.004" transform="translate(11.886 103.824)"/><rect class="ak" width="38.546" height="25.038" transform="translate(87.393 74.928)"/><rect class="ak" width="132.978" height="13.267" transform="translate(0 44)"/><circle class="ak" cx="2.753" cy="2.753" r="2.753" transform="translate(2.593 47.546)"/><path class="g" d="M5.663,59.2A2.744,2.744,0,0,1,2.91,56.48h0a2.78,2.78,0,0,0,2.753,2.833,2.78,2.78,0,0,0,2.744-2.807h0A2.744,2.744,0,0,1,5.663,59.2Z" transform="translate(-0.317 -6.154)"/><circle class="ak" cx="2.753" cy="2.753" r="2.753" transform="translate(9.133 47.546)"/><path class="g" d="M13,59.2A2.744,2.744,0,0,1,10.25,56.48h0a2.753,2.753,0,1,0,5.507,0h0A2.744,2.744,0,0,1,13,59.2Z" transform="translate(-1.117 -6.154)"/><circle class="ak" cx="2.753" cy="2.753" r="2.753" transform="translate(15.629 47.546)"/><path class="g" d="M20.293,59.2a2.744,2.744,0,0,1-2.753-2.718h0a2.753,2.753,0,1,0,5.5,0h0A2.744,2.744,0,0,1,20.293,59.2Z" transform="translate(-1.911 -6.154)"/><rect class="al" width="132.978" height="0.258" transform="translate(0 57.009)"/><circle class="g" cx="2.183" cy="2.183" r="2.183" transform="translate(3.163 48.116)"/><circle class="h" cx="2.183" cy="2.183" r="2.183" transform="translate(9.703 48.116)"/><circle class="j" cx="2.183" cy="2.183" r="2.183" transform="translate(16.199 48.116)"/><rect class="ak" width="4.366" height="60.724" rx="2.183" transform="translate(3.163 59.156)"/><rect class="g" width="1.746" height="15.932" rx="0.873" transform="translate(4.313 61.045)"/><line class="am" x2="29.814" transform="translate(14.64 64.681)"/><line class="am" x2="4.856" transform="translate(47.287 64.681)"/><line class="am" x2="21.162" transform="translate(57.489 64.681)"/><line class="am" x2="36.051" transform="translate(14.64 67.737)"/><line class="am" x2="14.657" transform="translate(54.255 67.185)"/><line class="am" x2="7.467" transform="translate(71.63 67.185)"/><line class="am" x2="42.627" transform="translate(16.199 71.524)"/><line class="am" x2="11.53" transform="translate(63.834 71.524)"/><line class="am" x1="32.968" transform="translate(46.129 74.928)"/><line class="am" x1="45.63" transform="translate(14.64 79.543)"/><line class="am" x2="33.743" transform="translate(46.129 82.439)"/><line class="am" x1="27.765" transform="translate(21.955 83.891)"/><line class="am" x2="12.109" transform="translate(14.64 74.928)"/><line class="am" x1="8.358" transform="translate(25.742 93.025)"/><line class="am" x1="19.264" transform="translate(14.052 96.696)"/><line class="am" x2="3.457" transform="translate(42.672 93.025)"/><line class="am" x2="3.457" transform="translate(48.962 93.025)"/><line class="am" x2="3.448" transform="translate(55.262 93.025)"/><line class="am" x2="3.448" transform="translate(61.553 93.025)"/><line class="am" x2="3.457" transform="translate(67.843 93.025)"/><line class="am" x2="3.457" transform="translate(74.134 93.025)"/><line class="am" x2="2.228" transform="translate(42.672 95.707)"/><line class="am" x2="2.228" transform="translate(47.848 95.707)"/><line class="am" x2="2.228" transform="translate(53.034 95.707)"/><line class="am" x2="2.228" transform="translate(58.211 95.707)"/><line class="am" x2="2.228" transform="translate(63.388 95.707)"/><line class="am" x2="2.228" transform="translate(68.565 95.707)"/><line class="am" x2="2.228" transform="translate(73.751 95.707)"/><path class="am" d="M18.52,119.68l-2.45,2.45,2.361,2.361" transform="translate(-1.751 -13.04)"/><path class="am" d="M21.279,119.68l-2.459,2.45,2.361,2.361" transform="translate(-2.051 -13.04)"/><path class="am" d="M105.01,71.99l-2.45,2.45,2.352,2.361" transform="translate(-11.176 -7.844)"/><line class="am" x2="19.407" transform="translate(90.155 77.788)"/><line class="am" x2="7.627" transform="translate(90.155 80.158)"/><line class="am" x2="7.627" transform="translate(90.155 83.891)"/><line class="am" x2="7.627" transform="translate(90.155 87.616)"/><line class="am" x2="7.627" transform="translate(90.155 91.349)"/><line class="am" x1="5.168" transform="translate(115.246 82.439)"/><line class="am" x1="5.168" transform="translate(115.246 84.56)"/><line class="am" x1="5.168" transform="translate(115.246 86.68)"/><line class="am" x1="5.168" transform="translate(115.246 88.801)"/><line class="am" x1="5.168" transform="translate(115.246 90.931)"/><line class="am" x1="5.168" transform="translate(115.246 93.051)"/><line class="am" x1="5.168" transform="translate(115.246 95.172)"/><line class="am" x1="5.168" transform="translate(115.246 97.293)"/><line class="am" x2="52.295" transform="translate(25.296 106.639)"/><line class="am" x2="31.685" transform="translate(25.296 109.045)"/><line class="am" x2="31.685" transform="translate(25.296 112.431)"/><path class="ak" d="M54.36,150h62.88v52.393a6.7,6.7,0,0,1-6.7,6.7H61.061a6.7,6.7,0,0,1-6.7-6.7Z" transform="translate(-5.923 -16.344)"/><rect class="ak" width="51.537" height="18.498" transform="translate(57.088 146.112)"/><rect class="ak" width="18.124" height="5.738" transform="translate(57.088 168.058)"/><rect class="ak" width="30.696" height="5.738" transform="translate(77.93 168.058)"/><rect class="ak" width="62.88" height="9.659" transform="translate(48.437 133.7)"/><circle class="ak" cx="2.005" cy="2.005" r="2.005" transform="translate(50.317 136.275)"/><path class="g" d="M58.476,157.2a2,2,0,0,1-2-1.978h0a2,2,0,0,0,4.01,0h0a2,2,0,0,1-2.014,1.978Z" transform="translate(-6.154 -16.913)"/><circle class="ak" cx="2.005" cy="2.005" r="2.005" transform="translate(55.084 136.275)"/><path class="g" d="M63.824,157.2a2,2,0,0,1-2-1.978h0a2,2,0,1,0,4,0h0A2,2,0,0,1,63.824,157.2Z" transform="translate(-6.736 -16.913)"/><circle class="ak" cx="2.005" cy="2.005" r="2.005" transform="translate(59.806 136.275)"/><path class="g" d="M69.126,157.2a2,2,0,0,1-2-1.978h0a2,2,0,0,0,4.01,0h0a2,2,0,0,1-2.014,1.978Z" transform="translate(-7.315 -16.913)"/><rect class="al" width="62.88" height="0.187" transform="translate(48.437 143.172)"/><circle class="g" cx="1.586" cy="1.586" r="1.586" transform="translate(50.735 136.694)"/><circle class="h" cx="1.586" cy="1.586" r="1.586" transform="translate(55.502 136.694)"/><circle class="j" cx="1.586" cy="1.586" r="1.586" transform="translate(60.225 136.694)"/><rect class="ak" width="3.172" height="44.195" rx="1.58" transform="translate(50.735 144.731)"/><rect class="g" width="1.265" height="11.592" rx="0.63" transform="translate(51.573 146.112)"/><line class="am" x2="21.706" transform="translate(59.084 148.75)"/><line class="am" x2="3.528" transform="translate(82.857 148.75)"/><line class="am" x2="15.406" transform="translate(90.271 148.75)"/><line class="am" x2="26.241" transform="translate(59.084 150.977)"/><line class="am" x2="10.675" transform="translate(87.918 150.576)"/><line class="am" x2="5.426" transform="translate(100.571 150.576)"/><line class="am" x2="31.017" transform="translate(60.225 153.74)"/><line class="am" x2="8.385" transform="translate(94.895 153.74)"/><line class="am" x1="23.996" transform="translate(82.002 156.208)"/><line class="am" x1="33.218" transform="translate(59.084 159.576)"/><line class="am" x2="24.566" transform="translate(82.002 161.679)"/><line class="am" x1="20.209" transform="translate(64.413 162.73)"/><line class="am" x2="8.812" transform="translate(59.084 156.208)"/><line class="am" x1="6.077" transform="translate(67.175 169.377)"/><line class="am" x1="14.025" transform="translate(58.657 172.05)"/><line class="am" x2="2.513" transform="translate(79.489 169.377)"/><line class="am" x2="2.513" transform="translate(84.069 169.377)"/><line class="am" x2="2.513" transform="translate(88.649 169.377)"/><line class="am" x2="2.513" transform="translate(93.229 169.377)"/><line class="am" x2="2.513" transform="translate(97.809 169.377)"/><line class="am" x2="2.513" transform="translate(102.389 169.377)"/><line class="am" x2="1.622" transform="translate(79.489 171.328)"/><line class="am" x2="1.622" transform="translate(83.258 171.328)"/><line class="am" x2="1.622" transform="translate(87.027 171.328)"/><line class="am" x2="1.622" transform="translate(90.796 171.328)"/><line class="am" x2="1.622" transform="translate(94.565 171.328)"/><line class="am" x2="1.622" transform="translate(98.334 171.328)"/><line class="am" x2="1.622" transform="translate(102.103 171.328)"/><path class="am" d="M67.842,201.21,66.06,203l1.711,1.711" transform="translate(-7.198 -21.925)"/><path class="am" d="M69.842,201.21,68.06,203l1.711,1.711" transform="translate(-7.416 -21.925)"/><line class="am" x2="38.056" transform="translate(66.845 179.285)"/><line class="am" x2="23.06" transform="translate(66.845 181.041)"/><line class="am" x2="23.06" transform="translate(66.845 183.5)"/><path class="ak" d="M253,186h50.138v18.765a6.7,6.7,0,0,1-6.7,6.7H259.691a6.7,6.7,0,0,1-6.7-6.7V186Z" transform="translate(-27.568 -20.267)"/><rect class="ak" width="29.137" height="11.067" transform="translate(230.599 173.2)"/><rect class="ak" width="50.138" height="5.774" transform="translate(225.431 165.777)"/><circle class="ak" cx="1.194" cy="1.194" r="1.194" transform="translate(226.563 167.328)"/><path class="g" d="M255.462,190.325a1.2,1.2,0,0,1-1.2-1.185h0a1.2,1.2,0,1,0,2.4,0h0a1.194,1.194,0,0,1-1.194,1.185Z" transform="translate(-27.705 -20.609)"/><circle class="ak" cx="1.194" cy="1.194" r="1.194" transform="translate(229.405 167.328)"/><path class="g" d="M258.653,190.325a1.194,1.194,0,0,1-1.194-1.185h0a1.2,1.2,0,1,0,2.4,0h0a1.185,1.185,0,0,1-1.2,1.185Z" transform="translate(-28.054 -20.609)"/><circle class="ak" cx="1.194" cy="1.194" r="1.194" transform="translate(232.23 167.328)"/><path class="g" d="M261.853,190.325a1.194,1.194,0,0,1-1.194-1.185h0a1.2,1.2,0,1,0,2.4,0h0a1.2,1.2,0,0,1-1.2,1.185Z" transform="translate(-28.403 -20.609)"/><rect class="al" width="50.138" height="0.107" transform="translate(225.431 171.435)"/><circle class="g" cx="0.953" cy="0.953" r="0.953" transform="translate(226.804 167.568)"/><circle class="h" cx="0.953" cy="0.953" r="0.953" transform="translate(229.646 167.568)"/><circle class="j" cx="0.953" cy="0.953" r="0.953" transform="translate(232.47 167.568)"/><rect class="ak" width="1.898" height="16.582" rx="0.949" transform="translate(226.804 172.38)"/><rect class="g" width="0.757" height="6.932" rx="0.379" transform="translate(227.311 173.2)"/><path class="an" d="M269.177,195.672h-9.2a.156.156,0,0,1,0-.312h9.178a.157.157,0,0,1,.018.312Z" transform="translate(-28.313 -21.287)"/><path class="an" d="M272.34,195.672h-1.23a.156.156,0,1,1,0-.312h1.23a.156.156,0,0,1,0,.312Z" transform="translate(-29.525 -21.287)"/><path class="an" d="M285.136,195.672H273.98a.156.156,0,1,1,0-.312H285.1a.159.159,0,0,1,.036.312Z" transform="translate(-29.837 -21.287)"/><path class="an" d="M270.763,196.542H259.982a.156.156,0,0,1,0-.312h10.782a.156.156,0,0,1,0,.312Z" transform="translate(-28.313 -21.382)"/><path class="an" d="M282.563,196.382h-9.472a.151.151,0,0,1-.151-.151.16.16,0,0,1,.151-.16h9.472a.152.152,0,0,1,.152.16.143.143,0,0,1-.152.151Z" transform="translate(-29.741 -21.365)"/><path class="an" d="M286.4,196.382h-1.9a.151.151,0,0,1-.16-.151.16.16,0,0,1,.16-.16h1.9a.16.16,0,0,1,.151.16A.151.151,0,0,1,286.4,196.382Z" transform="translate(-30.984 -21.365)"/><path class="an" d="M272.88,197.622H260.45a.151.151,0,0,1-.16-.151.16.16,0,0,1,.16-.16h12.43a.16.16,0,0,1,.151.16A.151.151,0,0,1,272.88,197.622Z" transform="translate(-28.363 -21.5)"/><path class="an" d="M285.2,197.622H282.27a.151.151,0,0,1-.16-.151.16.16,0,0,1,.16-.16H285.2a.16.16,0,0,1,.16.16.151.151,0,0,1-.16.151Z" transform="translate(-30.741 -21.5)"/><path class="an" d="M284.9,198.593H270.772a.151.151,0,0,1,0-.3H284.9a.151.151,0,1,1,0,.3Z" transform="translate(-29.489 -21.606)"/><path class="an" d="M273.2,199.962H259.982a.156.156,0,0,1,0-.312h13.2a.156.156,0,0,1,.018.312Z" transform="translate(-28.313 -21.755)"/><path class="an" d="M285.1,200.742H270.772a.156.156,0,0,1,0-.312H285.1a.156.156,0,0,1,0,.312Z" transform="translate(-29.489 -21.84)"/><path class="an" d="M266.039,201.152h-3.947a.143.143,0,0,1-.152-.151.151.151,0,0,1,.152-.16h3.947a.16.16,0,0,1,.151.16A.151.151,0,0,1,266.039,201.152Z" transform="translate(-28.543 -21.884)"/><path class="an" d="M263.082,198.593h-3.1a.151.151,0,0,1,0-.3h3.083a.151.151,0,1,1,0,.3Z" transform="translate(-28.313 -21.606)"/><path class="ak" d="M230.11,25.53h89.4V148.573a6.7,6.7,0,0,1-6.7,6.7h-76a6.7,6.7,0,0,1-6.7-6.7Z" transform="translate(-25.074 -2.781)"/><rect class="ak" width="70.81" height="61.954" transform="translate(216.922 39.803)"/><rect class="ak" width="24.895" height="7.886" transform="translate(216.922 118.562)"/><rect class="ak" width="42.173" height="7.886" transform="translate(245.56 118.562)"/><rect class="ak" width="70.81" height="11.004" transform="translate(216.922 131.187)"/><rect class="ak" width="89.397" height="13.267" transform="translate(205.036 22.749)"/><circle class="ak" cx="2.753" cy="2.753" r="2.753" transform="translate(207.628 26.295)"/><path class="g" d="M235.771,35.357A2.753,2.753,0,0,1,233,32.63h0a2.753,2.753,0,1,0,5.507,0h0A2.744,2.744,0,0,1,235.771,35.357Z" transform="translate(-25.389 -3.555)"/><circle class="ak" cx="2.753" cy="2.753" r="2.753" transform="translate(214.169 26.295)"/><path class="g" d="M243.114,35.357a2.753,2.753,0,0,1-2.744-2.727h0a2.753,2.753,0,1,0,5.5,0h0A2.753,2.753,0,0,1,243.114,35.357Z" transform="translate(-26.192 -3.555)"/><circle class="ak" cx="2.753" cy="2.753" r="2.753" transform="translate(220.664 26.295)"/><path class="g" d="M250.4,35.357a2.744,2.744,0,0,1-2.744-2.727h0a2.753,2.753,0,1,0,5.507,0h0A2.744,2.744,0,0,1,250.4,35.357Z" transform="translate(-26.987 -3.555)"/><rect class="al" width="89.397" height="0.258" transform="translate(205.036 35.758)"/><circle class="g" cx="2.183" cy="2.183" r="2.183" transform="translate(208.199 26.865)"/><circle class="h" cx="2.183" cy="2.183" r="2.183" transform="translate(214.739 26.865)"/><circle class="j" cx="2.183" cy="2.183" r="2.183" transform="translate(221.235 26.865)"/><rect class="ak" width="4.366" height="109.33" rx="2.183" transform="translate(208.199 37.914)"/><rect class="g" width="1.746" height="15.932" rx="0.873" transform="translate(209.357 39.803)"/><line class="am" x2="29.823" transform="translate(219.675 43.43)"/><line class="am" x2="4.847" transform="translate(252.332 43.43)"/><line class="am" x2="21.162" transform="translate(262.525 43.43)"/><line class="am" x2="36.06" transform="translate(219.675 46.486)"/><line class="am" x2="14.649" transform="translate(259.299 45.933)"/><line class="am" x2="7.458" transform="translate(276.675 45.933)"/><line class="am" x2="42.627" transform="translate(221.235 50.273)"/><line class="am" x2="11.521" transform="translate(268.878 50.273)"/><line class="am" x1="32.968" transform="translate(251.164 53.677)"/><line class="am" x1="45.639" transform="translate(219.675 58.292)"/><line class="am" x2="33.752" transform="translate(251.164 61.188)"/><line class="am" x1="27.756" transform="translate(220.709 69.751)"/><line class="am" x2="12.109" transform="translate(219.675 53.677)"/><line class="am" x1="8.349" transform="translate(230.786 120.379)"/><line class="am" x1="19.273" transform="translate(219.087 124.059)"/><line class="am" x2="3.448" transform="translate(247.716 120.379)"/><line class="am" x2="3.448" transform="translate(254.007 120.379)"/><line class="am" x2="3.457" transform="translate(260.297 120.379)"/><line class="am" x2="3.457" transform="translate(266.588 120.379)"/><line class="am" x2="3.448" transform="translate(272.888 120.379)"/><line class="am" x2="3.448" transform="translate(279.178 120.379)"/><line class="am" x2="2.228" transform="translate(247.716 123.07)"/><line class="am" x2="2.228" transform="translate(252.893 123.07)"/><line class="am" x2="2.228" transform="translate(258.07 123.07)"/><line class="am" x2="2.228" transform="translate(263.247 123.07)"/><line class="am" x2="2.228" transform="translate(268.433 123.07)"/><line class="am" x2="2.228" transform="translate(273.609 123.07)"/><line class="am" x2="2.228" transform="translate(278.786 123.07)"/><path class="am" d="M248.64,150.38l-2.45,2.459,2.352,2.352" transform="translate(-26.827 -16.386)"/><path class="am" d="M251.39,150.38l-2.45,2.459,2.352,2.352" transform="translate(-27.126 -16.386)"/><path class="am" d="M273.9,84.58,268.38,90.1l5.3,5.3" transform="translate(-29.245 -9.216)"/><path class="am" d="M280.086,84.58,274.57,90.1l5.3,5.3" transform="translate(-29.919 -9.216)"/><line class="am" x2="52.286" transform="translate(230.341 133.994)"/><line class="am" x2="31.685" transform="translate(230.341 136.4)"/><line class="am" x2="31.685" transform="translate(230.341 139.786)"/><circle class="am" cx="10.915" cy="10.915" r="10.915" transform="translate(254.007 67.095)"/><path class="am" d="M292.409,90.65a4.375,4.375,0,1,0,8.741,0Z" transform="translate(-31.863 -9.877)"/><path class="am" d="M290,85.291a2.121,2.121,0,1,1,4.241,0" transform="translate(-31.6 -9.062)"/><path class="am" d="M299.84,85.291a2.121,2.121,0,0,1,4.241,0" transform="translate(-32.673 -9.062)"/><line class="am" x2="8.999" transform="translate(274.126 88.569)"/><path class="aj" d="M329.779,192.527a5.409,5.409,0,1,1,5.409-5.409,5.409,5.409,0,0,1-5.409,5.409Zm0-9.8a1.849,1.849,0,1,0,0-.045Z" transform="translate(-35.346 -19.8)"/><path class="aj" d="M32.5,165.847a5.409,5.409,0,1,1,5.409-5.409A5.409,5.409,0,0,1,32.5,165.847Zm0-9.8a1.849,1.849,0,1,0,0-.045Z" transform="translate(-2.952 -16.892)"/><rect class="aj" width="1.782" height="15.967" transform="translate(136.944 32.896) rotate(-45)"/><rect class="aj" width="15.967" height="1.782" transform="translate(136.942 42.924) rotate(-45)"/><path class="aj" d="M82.848,298.9,70.16,286.218,82.848,273.53l12.7,12.688ZM72.691,286.218l10.158,10.176,10.176-10.176L82.848,276.052Z" transform="translate(-7.645 -29.805)"/><path class="aj" d="M35.107,209.6l-12.7-12.7,12.7-12.7,12.688,12.7Zm-10.176-12.7,10.176,10.176,10.176-10.176L35.107,186.7Z" transform="translate(-2.442 -20.072)"/><path class="aj" d="M327.524,222.288l-6.344-6.344,6.344-6.344,6.344,6.344Zm-5.088-6.344,5.088,5.088,5.088-5.088-5.088-5.1Z" transform="translate(-34.998 -22.839)"/><path class="aj" d="M356.647,151.424l-7.467-7.467,7.467-7.467.775.784-6.683,6.683,6.683,6.683Z" transform="translate(-38.049 -14.872)"/><path class="aj" d="M363.088,151.424l-7.458-7.467,7.458-7.467.784.784-6.683,6.683,6.683,6.683Z" transform="translate(-38.752 -14.872)"/><path class="aj" d="M208.527,87.414l-7.467-7.467,7.467-7.467.775.784-6.683,6.683L209.3,86.63Z" transform="translate(-21.909 -7.897)"/><path class="aj" d="M214.977,87.414l-7.467-7.467,7.467-7.467.775.784-6.683,6.683,6.683,6.683Z" transform="translate(-22.612 -7.897)"/><path class="aj" d="M172.481,80.325h-5.195a1.354,1.354,0,0,1-1.363-1.363V75.905h-1.247a1.256,1.256,0,0,1-.891-2.147l5.2-5.213a1.265,1.265,0,0,1,1.782,0l5.213,5.213a1.256,1.256,0,0,1-.891,2.147h-1.247v3.056A1.363,1.363,0,0,1,172.481,80.325Zm-2.6-11.263a.383.383,0,0,0-.258.116l-5.213,5.2a.371.371,0,0,0,.267.633h2.138v3.947a.472.472,0,0,0,.472.472h5.195a.472.472,0,0,0,.472-.472V75.014h2.138a.348.348,0,0,0,.339-.232.356.356,0,0,0-.08-.4l-5.177-5.2A.383.383,0,0,0,169.879,69.062Z" transform="translate(-17.807 -7.428)"/><path class="aj" d="M350.99,112.115h-5.2a1.372,1.372,0,0,1-1.363-1.363V107.7h-1.247a1.256,1.256,0,0,1-.891-2.147l5.213-5.213a1.265,1.265,0,0,1,1.782,0l5.213,5.213a1.256,1.256,0,0,1-.891,2.147h-1.247v3.056a1.372,1.372,0,0,1-1.363,1.363Zm-2.6-11.227a.356.356,0,0,0-.258.107l-5.248,5.177a.356.356,0,0,0-.08.4.365.365,0,0,0,.339.232h2.138v3.947a.472.472,0,0,0,.472.472h5.2a.472.472,0,0,0,.472-.472V106.8h2.147a.365.365,0,0,0,.339-.232.356.356,0,0,0-.08-.4l-5.213-5.213A.356.356,0,0,0,348.388,100.888Z" transform="translate(-37.257 -10.893)"/></g></g></svg>