<svg xmlns="http://www.w3.org/2000/svg" xmlns:xlink="http://www.w3.org/1999/xlink" width="1196.21" height="1411.286" viewBox="0 0 1196.21 1411.286"><defs><style>.a,.aa,.ab,.ac,.y,.z{fill:none;stroke-miterlimit:10;}.a,.aa{stroke:#666;}.a{stroke-dasharray:8 10;}.b{fill:#e4e4e4;}.c{fill:#fe8b6c;}.d{fill:#f0f0f0;}.e{fill:#282554;}.f{fill:#373463;}.g{fill:#009bd1;}.h{fill:#00ace8;}.i{fill:#edd9cc;}.j{fill:#e5cbba;}.k{fill:#d4d4d4;}.l{fill:#e0e0e0;}.m{fill:#ffc525;}.n{fill:url(#a);}.o{fill:url(#b);}.p{fill:url(#c);}.q{fill:url(#d);}.r{fill:url(#e);}.s{fill:url(#f);}.t{fill:url(#g);}.u{fill:url(#h);}.v{fill:url(#i);}.w{fill:url(#j);}.x{fill:url(#k);}.y,.z{stroke:#cacaca;}.y{stroke-dasharray:8.22 10.28;}.ab,.ac,.z{stroke-linecap:round;stroke-width:0.5px;}.ab{stroke:#e4e4e4;}.ac{stroke:#f0f0f0;}</style><linearGradient id="a" x1="0.134" y1="0.146" x2="0.866" y2="0.854" gradientUnits="objectBoundingBox"><stop offset="0" stop-color="#00ff73"/><stop offset="1" stop-color="#00ace8"/></linearGradient><linearGradient id="b" x1="0.133" y1="0.146" x2="0.867" y2="0.853" xlink:href="#a"/><linearGradient id="c" x1="0.133" y1="0.147" x2="0.867" y2="0.854" xlink:href="#a"/><linearGradient id="d" x1="0.134" y1="0.146" x2="0.866" y2="0.854" xlink:href="#a"/><linearGradient id="e" x1="0.134" y1="0.146" x2="0.866" y2="0.854" xlink:href="#a"/><linearGradient id="f" x1="0.15" y1="0.145" x2="0.845" y2="0.84" xlink:href="#a"/><linearGradient id="g" x1="0.133" y1="0.146" x2="0.868" y2="0.854" xlink:href="#a"/><linearGradient id="h" x1="0.133" y1="0.146" x2="0.866" y2="0.854" xlink:href="#a"/><linearGradient id="i" x1="0.135" y1="0.146" x2="0.867" y2="0.854" xlink:href="#a"/><linearGradient id="j" x1="0.138" y1="0.146" x2="0.869" y2="0.854" xlink:href="#a"/><linearGradient id="k" x1="0.134" y1="0.144" x2="0.866" y2="0.852" xlink:href="#a"/></defs><g transform="translate(224.354 -956)"><path class="a" d="M899.805,979.406a731.809,731.809,0,0,0,3.949-75.7c0-399.878-324.178-724.056-724.056-724.056A725.213,725.213,0,0,0,.25,202.081" transform="translate(-224.25 1387.828)"/><ellipse class="b" cx="116.818" cy="31.757" rx="116.818" ry="31.757" transform="translate(348.791 2208.549)"/><path class="c" d="M319.845,39.485c-8.475-6.4-19.946-.817-27.23,4.833a45,45,0,0,0-11.1,13.99,45.369,45.369,0,0,0-5.446,13.309c-.851,4.391-.613,10.211,2.893,13.615a5.242,5.242,0,0,0,4.8,1.157,30.091,30.091,0,0,0,7.795-2.825,61.778,61.778,0,0,0,13.99-6.808,60.041,60.041,0,0,0,12.9-12.356,52.183,52.183,0,0,0,4.561-7.284,15.556,15.556,0,0,0,2.178-6.4,13.207,13.207,0,0,0-5.344-11.232Z" transform="translate(437.776 1044.041)"/><path class="b" d="M332.438,27.512c1.191,1.668,2.621,3.2,3.948,4.765l8.578,10.211C350.58,49.3,356.3,55.8,361.744,62.639c.681.885,1.362,1.736,2.076,2.587s.647.817.987,1.191a4.164,4.164,0,0,1,.511.613c.136.2.306.34.17.681a6.535,6.535,0,0,1-1.872,1.872c-.783.613-1.6,1.123-2.383,1.7a55.906,55.906,0,0,0-4.663,3.846l-5.038,4.391c-6.808,5.786-13.615,11.335-20.423,17.019-3.4,2.723-6.808,5.446-10.211,8s-7.114,5-10.416,7.795c-.374.306-.749.647-1.123.919a3.983,3.983,0,0,1-1.43.919c-.408,0-.851-.579-1.123-.885l-1.259-1.293c-1.464-1.532-2.859-3.131-4.221-4.765-2.757-3.4-5.378-6.808-8.033-10.041s-5.412-6.808-8.2-9.973A107.832,107.832,0,0,1,276.854,77c-1.157-1.6-2.247-3.4-3.4-4.8a93.263,93.263,0,0,0,8.952-7.42l10.211-8.578,20.253-17.019,10.211-8.509a38.276,38.276,0,0,0,3.234-3,9.223,9.223,0,0,1,3.132-2.485C330.872,24.721,331.655,26.457,332.438,27.512Z" transform="translate(432.467 1016.36)"/><path class="d" d="M298.288,75.841,310.2,77c3.846.443,7.625,1.055,11.471,1.566a52.655,52.655,0,0,0,5.684.545c.749,0,2.212.306,2.519-.408a12.8,12.8,0,0,0,.647-2.791,85.07,85.07,0,0,0,1.566-11.3,110.56,110.56,0,0,0-.715-22.5,158.757,158.757,0,0,1-1.8-17.019H329.3a9.224,9.224,0,0,0-3.131,2.485,38.3,38.3,0,0,1-3.234,3L312.72,39.08,292.467,56.1l-10.211,8.578a93.256,93.256,0,0,1-8.816,7.761l.17.272a231.057,231.057,0,0,0,24.678,3.131Z" transform="translate(432.443 1016.297)"/><path class="e" d="M275.259,403.952a191.746,191.746,0,0,0-19.81-10.722c-4.051-1.77-8.544-1.906-12.7-3.4a5.889,5.889,0,0,1-4.187-4.7,66.36,66.36,0,0,1-1.634-6.808,110.71,110.71,0,0,1-.477-13c0-.817,0-2.144-.749-2.757s-2.042-.17-2.893,0a142.255,142.255,0,0,1-17.461.272,45.772,45.772,0,0,0-12.764.2.17.17,0,0,0-.17,0v.272c0,10.45,0,20.865-.374,31.281a63.32,63.32,0,0,1-.272,7.182,59.1,59.1,0,0,0-.51,6.025c-.034,2.008,2.11,2.757,4.119,2.859,3.4.17,6.808-.272,10.007-.238,5.14,0,10.211,0,15.453.272,10.552.272,21.138.408,31.689.545,4.6,0,9.19,0,13.615.17,1.634,0,5.208.885,6.5-.477C284.858,408.854,276.586,404.667,275.259,403.952Z" transform="translate(258.937 1826.756)"/><path class="f" d="M257.943,405.668a195.28,195.28,0,0,0-19.81-10.722c-4.085-1.77-8.544-1.906-12.7-3.4a5.82,5.82,0,0,1-4.187-4.663,64.174,64.174,0,0,1-1.634-6.808,110.666,110.666,0,0,1-.476-13c0-.817,0-2.144-.749-2.757s-2.042,0-2.893,0a142.28,142.28,0,0,1-17.461.272,46.019,46.019,0,0,0-12.8.2h0a.272.272,0,0,0,0,.272c0,10.45,0,20.865-.374,31.281a63.332,63.332,0,0,1-.272,7.182,59.087,59.087,0,0,0-.511,6.025c-.034,2.008,2.11,2.757,4.119,2.859,3.4,0,6.808-.272,10.007-.238,5.14,0,10.211,0,15.453.272,10.552.272,21.1.408,31.689.545,4.561,0,9.19,0,13.615.17,1.634,0,5.208.919,6.5-.477C267.439,410.57,259.168,406.383,257.943,405.668Z" transform="translate(217.64 1831.064)"/><path class="g" d="M312.543,260.2c4.323-22.567,9.7-46.019,2.723-68.689l-19.027-.17H242.595c-8.952,0-17.87-.238-26.822-.306H202.941a66.039,66.039,0,0,1-10.211-.34c0,3.4,0,6.808,0,10.007a464.381,464.381,0,0,0,3.608,66.374c3.131,21.444,9.36,42.037,13.615,63.209a366.964,366.964,0,0,1,5.582,61.473c.477,21.648.374,43.3-.749,64.91s-2.961,43.058-4.221,64.672q-1.872,33.527-1.4,67.157c.272,22.669,1.259,45.3,2.485,68.076s3.1,44.658,3.88,67.021c.408,11.233.647,22.465,1.225,33.664a152.625,152.625,0,0,0,2.383,24.643,19.672,19.672,0,0,0,.953,3.2h38.156c4.289-4.867,5.65-13.99,6.263-20.423a256.248,256.248,0,0,0,0-36.148c-.17-4.425-.443-8.85-.34-13.275a164.327,164.327,0,0,1,4.187-29.783c4.935-22.635-1.43-44.249,4.153-66.68,11.709-46.87,25.937-93.094,32.166-141.564a442.8,442.8,0,0,0,3.4-70.459c-.783-25.154-1.77-50.308-1.43-75.53a399.978,399.978,0,0,1,5.889-71.037Z" transform="translate(238.263 1414.366)"/><path class="h" d="M198.426,391.636c.477,21.648.34,43.3-.783,64.91s-2.961,43.058-4.187,64.672c-1.293,22.363-1.7,44.76-1.43,67.157s1.259,45.3,2.519,68.076,3.1,44.658,3.846,67.021c.408,11.233.647,22.465,1.259,33.664A152.579,152.579,0,0,0,202,781.779a19.647,19.647,0,0,0,.987,3.2H241.11c4.289-4.867,5.65-13.99,6.263-20.423a256.241,256.241,0,0,0,0-36.148c-.17-4.425-.442-8.85-.306-13.275a161.329,161.329,0,0,1,4.255-29.885c4.935-22.635-1.43-44.249,4.153-66.68C267.183,571.7,281.411,525.473,287.64,477a442.81,442.81,0,0,0,3.4-70.459c-.783-25.154-1.77-50.308-1.43-75.53a403.22,403.22,0,0,1,5.923-70.8c4.323-22.567,9.7-46.019,2.723-68.688l-19.027-.17H225.589c-8.952,0-17.87-.238-26.822-.306H185.934a66.173,66.173,0,0,1-10.041-.34v10.007a459.5,459.5,0,0,0,3.608,66.374c3.1,21.444,9.326,42.037,13.445,63.208a370.609,370.609,0,0,1,5.48,61.336Z" transform="translate(197.78 1414.414)"/><path class="i" d="M581.432,64.848a.442.442,0,0,0-.443-.579,2.072,2.072,0,0,1-.238-.34.374.374,0,0,0-.647.2.613.613,0,0,1-.51.477c-3.4.272-6.808-3.642-8.782-5.684s-4.663-4.97-6.808-7.488h0a.306.306,0,0,0-.511,0,16.509,16.509,0,0,0-10.552,3.812,34.516,34.516,0,0,0-6.807,9.394c-5.854,10.484-12.594,20.423-19.027,30.634s-12.424,20.423-18.653,30.43-11.845,19.572-17.019,29.817c-.817,1.668-1.6,3.4-2.383,5.072l-.272.272-2.281,1.293c-4.765,2.723-9.531,5.514-14.058,8.612s-8.612,6.808-13.173,10.211a188.846,188.846,0,0,1-28.252,14.466,62.732,62.732,0,0,1-16.338,6.3,97.651,97.651,0,0,1-17.564.817,125.327,125.327,0,0,1-35.57-6.4.681.681,0,0,1-.409-.885,3.644,3.644,0,0,0,.306-.919.408.408,0,0,0-.783-.2,4.255,4.255,0,0,1-.375.987.647.647,0,0,1-.783.374l-2.212-.681a.409.409,0,1,0-.238.783c0,1.191,0,1.464,0,2.689a17.02,17.02,0,0,1-5.48,1.4,64.675,64.675,0,0,1-10.586,0,23.826,23.826,0,0,1-12.083-3.063,12.764,12.764,0,0,1-4.085-4.255.647.647,0,0,1,.476-.987l1.123-.2c.51,0,.306-.851-.2-.783l-1.668.272a.681.681,0,0,1-.715-.408,15.861,15.861,0,0,1-.987-6.229.408.408,0,1,0-.817,0,17.4,17.4,0,0,0,.851,6.093.647.647,0,0,1-.545.851,80.229,80.229,0,0,0-21.24,4.357,236.026,236.026,0,0,0-21.444,11.5c-7.9,4.357-15.9,8.578-23.827,12.594-7.25,3.642-14.67,6.808-21.954,10.484a103.648,103.648,0,0,0-18.755,11.233,67.087,67.087,0,0,0-13.99,15.9,116.066,116.066,0,0,0-10.552,20.048,204.236,204.236,0,0,0-7.08,22.431c-2.417,8.305-4.9,16.645-6.637,25.12s-2.689,17.325-4.051,25.937a153.71,153.71,0,0,1-6.195,25.631,208.485,208.485,0,0,0-5.514,25.086c-2.212,10.892-6.808,21.1-9.122,32-1.8,8.441-3.4,19.708,2.791,26.856a20.423,20.423,0,0,0,15.011,5.786c3.778,0,7.522,0,11.3-.306s7.9-.17,11.845-.238a123.832,123.832,0,0,0,23.827-1.974,27.914,27.914,0,0,0,8.543-3.131.647.647,0,0,1,.987.477c.681,7.012.987,14.024,1.055,21.07,0,8.135.272,16.3-.2,24.439a67.6,67.6,0,0,0,.681,18.721,13.887,13.887,0,0,0,3.131,6.569,11.539,11.539,0,0,0,7.659,2.961c3.4.306,7.148,0,10.722,0,5.072.306,10.211.919,15.215,1.157,10.211.477,20.661.374,30.975.374h62.8c11.335,0,22.737.647,34.038.443a112.311,112.311,0,0,0,29.131-3.845l.244-.172h0a4.9,4.9,0,0,0,1.634-4.323,138.464,138.464,0,0,1,0-18.789c0-8.986-1.191-17.938-1.5-26.924-.681-19.061.2-38.157.34-57.252s1.532-38.973,2.281-58.477a121.454,121.454,0,0,1,3.574-28.252c2.553-9.156,5.106-18.278,7.522-27.435,2.723-10.211,5.48-20.661,9.122-30.634,1.43-3.982,2.859-7.931,4.629-11.743v-.2c8-7.625,18.653-11.607,27.809-17.632a140.179,140.179,0,0,0,13-10.211c4.629-4.017,9.292-8.033,13.99-11.981,7.829-6.808,16.611-12.764,22.091-21.682a213.748,213.748,0,0,0,11.709-25.733c2.144-4.97,4.629-9.769,6.807-14.67,2.553-5.48,5-10.994,7.59-16.44a305.214,305.214,0,0,1,17.87-31.281,114.059,114.059,0,0,0,14.194-28.081C586.572,81.833,586.844,72.336,581.432,64.848Z" transform="translate(136.569 1079.3)"/><path class="c" d="M266.252,152.748c-.579-9.258-4.391-17.019-7.216-25.665a57.662,57.662,0,0,1-3.063-15.419c-.238-5.616,0-11.267,0-17.019-.2-9.633-9.973-7.795-16.372-8.748-5.582-.851-11.233-1.566-16.849-2.042a132.062,132.062,0,0,1-18.38-1.43h-.443a3.88,3.88,0,0,0-5.889,4.97,24.609,24.609,0,0,1,2.553,10.858c.272,5.242.17,10.586,0,15.794-.2,10.211-3.4,21.069-.919,30.975,4.051,15.9,22.057,24.167,35.74,26.55a59.944,59.944,0,0,0,12.084,1.021,26.719,26.719,0,0,0,12.7-2.417C265.844,166.84,266.627,158.909,266.252,152.748Z" transform="translate(249.665 1151.616)"/><path class="c" d="M306.979,121.427c-5.174-5.344-11.5-8.884-16.066-14.909a42.411,42.411,0,0,1-7.284-18.278c-2.587-13.071-7.318-27.23-19.878-34.038-7.318-3.948-16.1-3.4-24.2-3.029-4.9.2-17.019,0-17.734,6.808a142.965,142.965,0,0,0-14.841,6.365c-7.761,4.153-11.437,12.628-14.092,20.627a75.156,75.156,0,0,0-3.778,28.728,89.386,89.386,0,0,0,6.807,26.447A83.5,83.5,0,0,0,208.1,162.273c5.31,6.808,10.654,10.994,19.266,11.811,9.7.953,19.844,0,29.579,0h15.317c5.106,0,10.756,1.906,16.168,1.736,9.122-.272,17.223-6.263,17.666-15.76a76.761,76.761,0,0,0-1.736-15.283,34.042,34.042,0,0,0-2.042-7.761,25.217,25.217,0,0,1-2.042-6.229,29.168,29.168,0,0,0,6.808-3.676,4.085,4.085,0,0,0-.1-5.684Z" transform="translate(229.361 1078.373)"/><path class="f" d="M300.615,71.533a46.022,46.022,0,0,0-1.464-11.981,27.4,27.4,0,0,0-12.934-15.589c-2.791-1.5-14.466-5.582-12.015,1.259-2.791.613-6.127-2.11-8.816-2.723a29.613,29.613,0,0,0-8.305-.681c-1.464,0-3.4.408-3.982,1.94s1.055,2.791,2.076,4.051a25.527,25.527,0,0,1-7.386-.238,16.781,16.781,0,0,0-7.693.511,3.2,3.2,0,0,0-1.362,4.629c.851,1.736,2.655,2.723,3.642,4.357a7.42,7.42,0,0,1-2.757,9.326c-4.084,2.587-10.211,1.8-14.806,1.668a51.737,51.737,0,0,0-16.2,1.123A46.906,46.906,0,0,0,195.438,76.4a25.7,25.7,0,0,0-8.578,9.769,46.494,46.494,0,0,0-3.4,15.351,18.177,18.177,0,0,0,.885,8.1,25.423,25.423,0,0,0,2.042,4.085,7.284,7.284,0,0,0-1.8,3,42.821,42.821,0,0,0-1.77,11.947,48.878,48.878,0,0,0,6.808,24.269,144.242,144.242,0,0,0,15.147,20.865c2.825,3.4,5.684,7.012,8.748,10.211a126.418,126.418,0,0,1,8.85,11.1,79.877,79.877,0,0,1,7.386,12.39c1.123,2.281,2.621,3.778,4.255,1.327a2.927,2.927,0,0,0,2.553.374,7.727,7.727,0,0,0,2.961-3.132,27.436,27.436,0,0,0,2.008-5.106c.715-2.008,1.872-3.846,2.621-5.82a25.155,25.155,0,0,0,1.259-10.892,83,83,0,0,0-1.328-10.858,6.807,6.807,0,0,0-3.676-5.48c-1.566-.613-3.4-.579-4.833-1.327a12.969,12.969,0,0,1-4.97-4.425,19.572,19.572,0,0,1-1.736-12.152c0-3.4,1.157-9.156,4.289-11.369a8.441,8.441,0,0,1,10.45,1.4c2.008,2.315,3.608,11.369,3.778,11.641l8.169,11.913c2.587-1.089,5.276-2.825,7.556-3.812a66.412,66.412,0,0,0,6.808-3.71,34.651,34.651,0,0,0-5.412-9.5c-1.94-3.4-3.4-6.808-5.412-10.211-.851-1.634-2.144-3.71-1.157-5.48s2.11-3.029,3.029-4.629a36.419,36.419,0,0,0,3.982-11.709,40.648,40.648,0,0,0,.579-6.808,30.94,30.94,0,0,0,8.509-.919,46.632,46.632,0,0,0,10.892-5.446,32,32,0,0,0,8.85-6.808,30.632,30.632,0,0,0,5.65-10.211,39.143,39.143,0,0,0,1.191-12.8Z" transform="translate(214.587 1055.46)"/><path class="c" d="M311.546,50.071a27.23,27.23,0,0,0-7.488-5.786c-1.5-.987-3.063-1.872-4.493-2.893s-2.246-1.94-3.4-2.723a4.493,4.493,0,0,0-5.48,0,28.967,28.967,0,0,0-3.029,3.1,40.151,40.151,0,0,0-3.4,3.778,26.14,26.14,0,0,0-5.276,9.8,45.923,45.923,0,0,0,0,12.594,26.1,26.1,0,0,1,0,6.808,15.623,15.623,0,0,1-2.315,4.936c-1.872,2.825-4.221,5.344-5.957,8.271l1.191,2.621c.647.919,1.328,1.838,2.008,2.723a110.483,110.483,0,0,0,9.565,8.441,28.387,28.387,0,0,0,7.522,4.663,9.563,9.563,0,0,0,1.532-3.4,58.822,58.822,0,0,1,3.2-8.884c1.464-3.131,3.676-5.752,5.038-8.952a29.375,29.375,0,0,0,.477-20.423c-1.123-3.642-3.4-6.808-4.6-10.211-.272-.749-.817-1.77-.2-2.281s1.5,0,2.144,0c1.872.374,3.71.919,5.548,1.327s5.514,1.293,7.352,0C312.839,52.624,312.328,51.16,311.546,50.071Z" transform="translate(425.857 1046.696)"/><path class="j" d="M197.457,111.89a18.992,18.992,0,0,1,5.412,7.624,35.335,35.335,0,0,1,2.247,9.156,83.463,83.463,0,0,1,0,18.891,182.13,182.13,0,0,1-3.1,18.653c-1.293,6.161-2.859,12.254-4.561,18.313-3.4,12.117-7.386,24.065-11.675,35.91s-8.986,23.52-13.888,35.093L168.15,253.9q7.795-17.019,14.772-34.549c4.6-11.641,8.884-23.452,12.594-35.4,1.838-5.991,3.4-12.015,5.038-18.074a178.1,178.1,0,0,0,3.4-18.449,81.686,81.686,0,0,0,.681-18.687,34.958,34.958,0,0,0-1.974-9.122,18.891,18.891,0,0,0-5.208-7.727Z" transform="translate(179.348 1224.947)"/><path class="j" d="M213,154.332c-4.187.783-8.339,1.293-12.492,1.736s-8.271.817-12.39,1.157l-12.39,1.055c-4.119.34-8.237.749-12.492,1.157a48.5,48.5,0,0,1,11.981-4.323,83.012,83.012,0,0,1,12.56-1.94,104.115,104.115,0,0,1,12.628-.306A74.886,74.886,0,0,1,213,154.333Z" transform="translate(167.545 1323.285)"/><path class="k" d="M211.892,132.654c1.872.851,3.88,1.43,5.786,2.144l12.492,4.6c8.2,3.029,16.474,5.957,24.575,9.19l3.063,1.225,1.5.545.749.272c.374.17.408,0,.443.511a6.2,6.2,0,0,1-.681,2.553c-.374.919-.817,1.77-1.225,2.655a53.642,53.642,0,0,0-2.144,5.65c-.715,2.11-1.464,4.187-2.178,6.3-2.961,8.373-6.263,16.611-9.429,24.916-1.532,4.051-3.1,8.067-4.833,12.015s-3.71,7.863-5.208,11.913a9.335,9.335,0,0,1-.511,1.361,3.948,3.948,0,0,1-.783,1.5c-.34.238-1.021,0-1.43-.2l-1.7-.51q-3.063-.919-6.025-2.042c-4.05-1.464-8-3.132-11.981-4.765s-8-3.1-12.049-4.6-8.2-2.825-12.152-4.629c-1.8-.817-3.574-1.7-5.378-2.485a84.611,84.611,0,0,0,4.119-10.926c1.532-4.153,3.1-8.305,4.629-12.492,3.029-8.271,6.093-16.542,9.122-24.848l4.561-12.356a43.425,43.425,0,0,0,1.327-4.221,9.089,9.089,0,0,1,1.5-3.71C209.135,131.089,210.735,132.212,211.892,132.654Z" transform="translate(214.539 1272.633)"/><path class="l" d="M206.27,191.416c3.642-1.634,7.284-3.4,10.96-4.9s7.148-2.859,10.722-4.323a47.647,47.647,0,0,0,5.208-2.349c.647-.34,2.076-.817,1.974-1.6a12.865,12.865,0,0,0-.817-2.757A91.432,91.432,0,0,0,230.1,164.9a112.117,112.117,0,0,0-11.777-19.2,147.106,147.106,0,0,1-9.973-13.853l-.2.2a9.09,9.09,0,0,0-1.5,3.71,43.41,43.41,0,0,1-1.328,4.221l-4.7,12.356c-3.029,8.305-6.093,16.576-9.122,24.848-1.532,4.187-3.1,8.339-4.629,12.492a84.615,84.615,0,0,1-4.119,10.926h.306A233.54,233.54,0,0,0,206.27,191.416Z" transform="translate(214.443 1272.927)"/><path class="b" d="M241.54,139.541c1.293,1.566,2.859,3,4.255,4.459l9.258,9.6c6.059,6.3,12.22,12.526,18.074,18.993l2.246,2.417,1.089,1.123.579.579c.238.306.306.306.2.647a6.229,6.229,0,0,1-1.77,2.008c-.715.647-1.5,1.259-2.247,1.838a56.536,56.536,0,0,0-4.391,4.187l-4.731,4.7c-6.3,6.263-12.866,12.22-19.334,18.313-3.131,2.961-6.3,5.923-9.6,8.714s-6.808,5.446-9.837,8.475l-1.089.987c-.306.272-.885.919-1.328.987s-.885-.511-1.191-.783l-1.362-1.225c-1.532-1.43-3.063-2.927-4.527-4.459-2.961-3.1-5.82-6.3-8.68-9.5s-5.855-6.3-8.85-9.394-6.161-6.127-8.918-9.463c-1.259-1.532-2.451-3.1-3.744-4.6a85.628,85.628,0,0,0,8.475-8l9.565-9.258,19.1-18.38,9.463-9.122a38.734,38.734,0,0,0,3.029-3.234,9.088,9.088,0,0,1,3-2.689C239.8,136.92,240.723,138.622,241.54,139.541Z" transform="translate(221.414 1286.169)"/><path class="d" d="M210.668,190.187c3.982,0,8,.2,11.981.374s7.693.511,11.539.783a53.458,53.458,0,0,0,5.718,0c.749,0,2.212.17,2.485-.579a13.2,13.2,0,0,0,.443-2.825,90.737,90.737,0,0,0,.817-11.369,112.325,112.325,0,0,0-2.213-22.4,149.784,149.784,0,0,1-2.961-16.815h-.238a9.09,9.09,0,0,0-3,2.689,38.679,38.679,0,0,1-3.029,3.234l-9.463,9.122-19.1,18.38-9.531,9.6a85.632,85.632,0,0,1-8.475,8l.2.272a233.093,233.093,0,0,0,24.814,1.532Z" transform="translate(221.414 1286.171)"/><path class="c" d="M281.25,155.032a5.957,5.957,0,0,0-5.106-1.668c-3.4,0-6.808.579-9.905.851-4.323.34-8.68.681-13,1.089-5.072.511-10.211.681-15.147.885a48.033,48.033,0,0,0-6.263.477c-2.281.374-9.973,2.553-12.288,2.553,0-4.221,11.028-4.016,3.642-14.534a.408.408,0,0,0-.579,0c-7.931,7.761-17.5,13.615-25.188,21.648a101.74,101.74,0,0,0-10.211,13.99c-3.642,5.446-7.522,10.79-11.062,16.338a37.783,37.783,0,0,0-6.5,17.019,8.069,8.069,0,0,0,.443,1.566,4.7,4.7,0,0,0,2.791,2.076,19.13,19.13,0,0,0,12.56.374,30.293,30.293,0,0,0,11.743-6.808,27.5,27.5,0,0,0,5.106-6.808c3.574.238,7.148.306,10.688.34,7.386,0,14.636.715,21.954,1.157,5.65.374,12.083.987,17.019-2.042s5.991-8.2,6.808-13.615a68.894,68.894,0,0,0-1.055-22.261c4.289-1.021,8.578-1.906,12.8-3,3.4-.885,8.952-1.123,11.062-4.663A4.731,4.731,0,0,0,281.25,155.032Z" transform="translate(182.929 1303.49)"/><path class="c" d="M347.173,51.85v.2h0l-.647.34h-.408l-.715.783a1.361,1.361,0,0,0,0-1.191,1.4,1.4,0,0,0-1.872-.511,7.252,7.252,0,0,0-1.906,2.042c-.885.238-1.8.442-2.723.613h-2.621a13.615,13.615,0,0,1-5.14-.919l-.987-.374h-.647c-.749-.306-1.464-.681-2.178-1.055l-2.247-1.362-.885-.647-.34-.272-.477-.408a12.185,12.185,0,0,1-.953-.919l-.374-.477-.2-.238a3.406,3.406,0,0,0-.272-.477v-.2h0a.816.816,0,0,0,0-.272v-.238a1.906,1.906,0,0,0-1.8-1.838,1.823,1.823,0,0,0-1.838,1.8,12.458,12.458,0,0,0,6.978,8.339,23.826,23.826,0,0,0,10.28,3.3,24.849,24.849,0,0,0,7.08-.953,4.9,4.9,0,0,0,3.4,2.144,3.982,3.982,0,0,0,4.187-1.464,1.4,1.4,0,0,0-2.383-1.43h-.34a3.746,3.746,0,0,1-1.055,0,1.94,1.94,0,0,1-.851-.374c2.076-.374,4.357-1.157,4.868-3.4S347.582,50.114,347.173,51.85Z" transform="translate(539.383 1062.786)"/><path class="m" d="M318.91,45Z" transform="translate(541.744 1064.157)"/><path class="g" d="M319.189,111.941a40.2,40.2,0,0,0,9.156,1.7,39.757,39.757,0,0,0,9.837-.817,51.332,51.332,0,0,0,11.3-4.221c2.144-1.123,4.255-2.212,6.331-3.4,3.4-1.974,6.808-4.051,10.211-6.331l2.144-2.383c2.383-2.655,4.6-5.48,7.012-8.135a45.213,45.213,0,0,0,4.221-4.97,6.33,6.33,0,0,0,1.157-3.4,4.357,4.357,0,0,0-2.417-3.812,7.216,7.216,0,0,0-3.676-.749c1.566-2.349,3-4.731,4.323-7.216a61.876,61.876,0,0,0,4.867-12.083,21.921,21.921,0,0,0,.987-6.093,4.97,4.97,0,0,0-3.4-5.208c-2.825-.613-5.378,1.464-7.522,2.961-2.655,1.838-5.344,3.676-8.067,5.412a47.3,47.3,0,0,0,1.668-10.007,31.421,31.421,0,0,0-.919-8.918,9.939,9.939,0,0,0-4.187-6.808,5.344,5.344,0,0,0-4.391-.238,13.106,13.106,0,0,0-4.561,3.4c-1.361,1.361-2.655,2.825-3.914,4.289a80.153,80.153,0,0,0-1.259-13.377c-.817-4.8-1.668-11.1-6.5-13.615a3,3,0,0,0-3.914,1.157c-2.349,3.642-3.676,7.863-5.752,11.675-.613,1.157-1.259,2.315-1.906,3.4a56.305,56.305,0,0,0-1.736-6.229A41.288,41.288,0,0,0,319.7,3.087,9.668,9.668,0,0,0,316.772.5a4.527,4.527,0,0,0-5.412.987,8.885,8.885,0,0,0-2.042,4.119,28.967,28.967,0,0,0-.239,8.578c.579,6.433,1.4,12.866,2.383,19.231.545,3.4,1.157,7.148,1.7,10.722l.408,2.587v.919l.2,1.4c.272,1.77.51,3.4.715,5.378.408,3.4.715,7.012.851,10.518s0,7.114.238,10.654.511,6.808.613,10.211v7.488a4.19,4.19,0,0,0,0,.647h0a3.636,3.636,0,0,1-.2,1.464,69.86,69.86,0,0,1-2.076,9.156c-.374,1.4-.817,2.757-1.293,4.153A39.453,39.453,0,0,0,319.189,111.941Z" transform="translate(517.605 955.996)"/><path class="i" d="M341.53,32.72Z" transform="translate(596.118 1034.638)"/><path class="i" d="M349.048,27.78Z" transform="translate(614.026 1022.763)"/><path class="i" d="M326.5,37.4h0l-.272.2Z" transform="translate(559.34 1045.888)"/><path class="i" d="M322.067,30.5h0Z" transform="translate(548.186 1029.302)"/><path class="i" d="M312.29,27Z" transform="translate(525.831 1020.888)"/><path class="i" d="M331.62,35Z" transform="translate(572.296 1040.119)"/><path class="h" d="M482.238,41.946a12.356,12.356,0,0,0-8.646-3.234,31.282,31.282,0,0,0-5.65.272c1.123-.987,2.247-2.042,3.4-3.1a20.968,20.968,0,0,0,5.412-7.693,6.808,6.808,0,0,0-5.14-8.782,15.828,15.828,0,0,0-6.569,0,15.146,15.146,0,0,0-6.808,3.744,36.554,36.554,0,0,0-4.561,4.9c-.953,1.191-1.906,2.417-2.825,3.642l-.613.749-.238.34-.545.681a26.175,26.175,0,0,1-3.778,3.982h-.17l-.953.681c-.647.442-1.293.885-1.974,1.293-1.328.851-2.689,1.634-4.051,2.383-5.548,3-11.437,5.48-17.223,7.965L417.5,51.409a95.783,95.783,0,0,1-22.227,6.331,55.549,55.549,0,0,1-8.237.306,36.971,36.971,0,0,1-4.323-.34H381.52l-2.315-.477c-2.451-.579-4.9-1.259-7.284-2.008s-4.8-1.634-7.148-2.519a74.883,74.883,0,0,1-14.67-7.08l.443.272a10.211,10.211,0,0,1-3.063-3.063c-3.234-4.289-5-9.292-8.578-13.071a28.186,28.186,0,0,0-6.093-5.242,25.631,25.631,0,0,0-11.743-3.608,24.474,24.474,0,0,0-19.844,8.135,19.606,19.606,0,0,0-4.765,10.79,21.818,21.818,0,0,0,4.833,15.317c1.157,1.566,4.016,1.464,4.936,2.11a46.185,46.185,0,0,1,5.548,4.663,53.306,53.306,0,0,1,4.663,5.378c6.5,8.305,10.45,18.142,16.406,26.686,12.662,18.04,39.45,19.912,58.681,12.083a43.364,43.364,0,0,0,7.42-4.289,37.986,37.986,0,0,0,11.4-13.343,51.879,51.879,0,0,0,2.825-7.761,27.983,27.983,0,0,1,3.4-7.522h-.2c.817-.715,1.191-1.7,2.144-2.247a3.847,3.847,0,0,1,.443-.34,10.63,10.63,0,0,1,1.191-.681,11.124,11.124,0,0,1,1.838-.443,18.96,18.96,0,0,1,3.676,0h.34l1.089.2,2.485.613c3.029.783,5.991,1.77,9.02,2.519s5.616,1.327,8.441,1.8a48.029,48.029,0,0,0,13.785.579,11.233,11.233,0,0,0,9.973-7.454A8.033,8.033,0,0,0,469.61,60.7a28.359,28.359,0,0,0,3.4-1.5,27.231,27.231,0,0,0,9.8-7.693A7.693,7.693,0,0,0,482.238,41.946ZM461.816,66.692h0C462.258,67.066,462.394,67.543,461.816,66.692Z" transform="translate(487.644 1001.823)"/><path class="i" d="M391.417,45.794c-1.838,1.259-3.608,2.587-5.48,3.812a61.749,61.749,0,0,1-7.284,4.153,34.582,34.582,0,0,1-15.521,3.4c-9.735-.34-18.142-5.752-26.039-10.96L326.575,39.4a28.355,28.355,0,0,0-11.028-5.276,9.735,9.735,0,0,0-9.8,4.016,10.213,10.213,0,0,0-1.293,4.731c2.927,5.174,5.65,10.45,9.054,15.317,12.662,18.04,39.45,19.912,58.681,12.083a43.357,43.357,0,0,0,7.42-4.289,37.987,37.987,0,0,0,11.4-13.343,51.865,51.865,0,0,0,2.825-7.761.626.626,0,0,1,.17-.511,20.658,20.658,0,0,0-2.587,1.43Z" transform="translate(506.985 1037.596)"/><path class="i" d="M340.664,24.47c-.681.374-.545.408-.306.238l.272-.2Z" transform="translate(592.831 1014.807)"/><path class="c" d="M314.357,31.159l-.374-.545-.681-.647a17.018,17.018,0,0,0-4.459-2.757,5.344,5.344,0,0,0-4.221-.17,8.918,8.918,0,0,0-3.4,3.574,44.264,44.264,0,0,0-2.587,5.072,2.075,2.075,0,0,0-.17.408V36.4h0c-.2.579-.443,1.191-.647,1.8a21.529,21.529,0,0,1-1.055,2.519l-.408,1.225a18.177,18.177,0,0,0-1.191,5.14,2.893,2.893,0,0,0,2.11,2.825,4.969,4.969,0,0,0,3.4-.545,11.465,11.465,0,0,0,2.076-1.566l1.5-1.5.545-.511h0c-.579.442.408-.306.443-.306l.681-.545a61.278,61.278,0,0,0,4.833-4.085,30.444,30.444,0,0,0,3.4-3.744A5.514,5.514,0,0,0,314.357,31.159Z" transform="translate(484.654 1020.134)"/><path class="m" d="M298,32.27Z" transform="translate(491.481 1033.556)"/><path class="m" d="M318.69,18.53Z" transform="translate(541.215 1000.528)"/><path class="m" d="M320.71,1.324v-.2h0Z" transform="translate(546.071 958.678)"/><path class="m" d="M331.22,11.93Z" transform="translate(571.335 984.663)"/><path class="m" d="M319.436,32.26Z" transform="translate(542.171 1033.532)"/><path class="m" d="M331.1,26.83h0Z" transform="translate(570.974 1020.48)"/><path class="h" d="M317.164,109.62a38.972,38.972,0,0,0,8.271,4.289,40.844,40.844,0,0,0,9.633,2.076,51.329,51.329,0,0,0,12.083-.783c2.349-.443,4.663-.919,7.012-1.43q5.923-1.259,11.743-3.063c.919-.511,1.838-1.089,2.757-1.634,3.029-1.872,5.991-3.914,9.054-5.786a40.639,40.639,0,0,0,5.48-3.4,5.992,5.992,0,0,0,2.11-2.961,4.323,4.323,0,0,0-1.191-4.357,7.284,7.284,0,0,0-3.4-1.8,81.377,81.377,0,0,0,6.229-5.616,61.917,61.917,0,0,0,8.169-10.211,22.7,22.7,0,0,0,2.825-5.65,5.038,5.038,0,0,0-1.872-6.025,10.211,10.211,0,0,0-8.067.681Q383.368,65.4,378.7,66.8a45.307,45.307,0,0,0,4.459-9.122,29.978,29.978,0,0,0,1.7-8.816,9.837,9.837,0,0,0-2.076-7.556,5.378,5.378,0,0,0-4.119-1.532,13.342,13.342,0,0,0-5.276,1.8c-1.736.919-3.4,1.94-5,3A78.559,78.559,0,0,0,371.046,31.4c.613-4.833,1.634-11.13-2.281-14.909a3,3,0,0,0-4.085,0c-3.4,2.825-5.786,6.467-8.884,9.5-.919.953-1.906,1.838-2.825,2.791a58.674,58.674,0,0,0,0-6.467,45.237,45.237,0,0,0-1.77-11.3,49.547,49.547,0,0,0-2.11-5.412,10.212,10.212,0,0,0-2.076-3.4,4.459,4.459,0,0,0-5.48-.613,8.679,8.679,0,0,0-3.131,3.4,27.228,27.228,0,0,0-2.689,8.135c-1.327,6.331-2.417,12.7-3.4,19.129-.51,3.574-.953,7.148-1.43,10.722a16.342,16.342,0,0,1-.374,2.587v.851l-.2,1.43c-.272,1.77-.545,3.4-.851,5.31q-.919,5.106-2.246,10.211c-.885,3.4-2.008,6.808-2.859,10.211s-1.5,6.808-2.417,10.211c-.443,1.668-.919,3.4-1.5,4.97q-.374,1.089-.817,2.144a2.952,2.952,0,0,1-.238.579h0l-.613,1.362a79.58,79.58,0,0,1-4.629,8.135c-.783,1.225-1.634,2.417-2.485,3.608A39.21,39.21,0,0,0,317.164,109.62Z" transform="translate(524.293 958.181)"/><path class="m" d="M335.1,18.74v0Z" transform="translate(580.661 1001.033)"/><path class="c" d="M354.716,44.116a7.08,7.08,0,0,1,.34,2.315h0v.34a.614.614,0,0,1-.2.34h-.2a.34.34,0,0,0-.272.17l-.443.238h-.272l-.613.17a5.923,5.923,0,0,0-.715-6.4,1.4,1.4,0,1,0-1.974,1.94h0a1.4,1.4,0,0,0,0,.306h0a1.912,1.912,0,0,1,0,.408,3.61,3.61,0,0,1,0,1.225,3.4,3.4,0,0,1-.408,1.089,3.4,3.4,0,0,0-3.063-2.247,1.463,1.463,0,0,0-1.43,1.4,1.429,1.429,0,0,0,1.361,1.4c-.17,0,.272,0,0,0h.17v1.634a1.4,1.4,0,0,0,.374.953h0a5.511,5.511,0,0,1-.34.613l-.2.238h0a9.27,9.27,0,0,1-1.021.987h0l-.238.17-.715.477c-.443.272-.919.511-1.4.749l-.681.306-.408.17h-.17q-1.532.579-3.063,1.021c-.919.238-1.838.477-2.757.647l-1.157.238h-1.089a23.045,23.045,0,0,1-3.063,0l-.17.238h-.443a13.617,13.617,0,0,1-1.6-.374,5.481,5.481,0,0,1-.987-.306h-.647a9.807,9.807,0,0,1-1.293-.749l-.34-.2h0l-.511-.545h0l-.2-.306a1.4,1.4,0,0,1-.17-.306h0a1.872,1.872,0,0,0-2.213-1.259,1.838,1.838,0,0,0-1.293,2.212c1.838,5,8.135,6.331,12.9,6.331a24.675,24.675,0,0,0,6.093-.919,28.559,28.559,0,0,0,6.808-2.621,10.79,10.79,0,0,0,4.323-5.174,7.318,7.318,0,0,0,4.357-.987,4.153,4.153,0,0,0,2.11-2.825,8.37,8.37,0,0,0-.306-3.778,1.42,1.42,0,1,0-2.757.681Z" transform="translate(547.09 1053.91)"/><path class="m" d="M322.15,44.274Z" transform="translate(549.532 1062.194)"/><path class="f" d="M304.275,26.273a2.451,2.451,0,0,0-2.927-1.736,2.3,2.3,0,1,0,2.927,1.736Z" transform="translate(495.179 1014.808)"/><path class="f" d="M298.051,25.541a2.008,2.008,0,0,0-1.43,2.417,1.974,1.974,0,0,0,2.417,1.43,1.985,1.985,0,1,0-.987-3.846Z" transform="translate(488.026 1017.242)"/><path class="n" d="M314.779,319.6c-50.376,0-50.478,78.287,0,78.287S365.224,319.6,314.779,319.6Z" transform="translate(440.902 1724.24)"/><path class="o" d="M289.2,303.47c-15.317,0-15.351,23.827,0,23.827S304.553,303.47,289.2,303.47Z" transform="translate(442.686 1685.466)"/><path class="p" d="M133.692,174.61c-15.317,0-15.351,23.827,0,23.827S149.043,174.61,133.692,174.61Z" transform="translate(68.872 1375.713)"/><path class="q" d="M203.372,201.19c-146.772,0-147.01,228.054,0,228.054S350.382,201.19,203.372,201.19Z" transform="translate(-0.808 1439.606)"/><path class="r" d="M125.121,160.72c-44.658,0-44.726,69.437,0,69.437S169.881,160.72,125.121,160.72Z" transform="translate(-4.657 1342.324)"/><path class="s" d="M297.894,11.93a3.4,3.4,0,1,0,3.4,3.4A3.4,3.4,0,0,0,297.894,11.93Z" transform="translate(483.043 984.663)"/><path class="t" d="M298.619.88c-11.062,0-11.062,17.223,0,17.223S309.648.88,298.619.88Z" transform="translate(473.025 958.101)"/><path class="u" d="M296.569,7.67c-16.747,0-16.781,26.039,0,26.039S313.384,7.67,296.569,7.67Z" transform="translate(457.818 974.423)"/><path class="v" d="M348.339,41.53c-11.062,0-11.062,17.223,0,17.223S359.436,41.53,348.339,41.53Z" transform="translate(592.542 1055.816)"/><path class="w" d="M348.879,52.14c-16.747,0-16.781,26.073,0,26.073S365.9,52.14,348.879,52.14Z" transform="translate(583.561 1081.32)"/><path class="x" d="M328.015,298c-39.416,0-39.484,61.268,0,61.268S367.5,298,328.015,298Z" transform="translate(492.508 1672.317)"/><circle class="y" cx="100.276" cy="100.276" r="100.276" transform="translate(608.637 1680.859)"/><path class="z" d="M238.924,46.53C159.752,125.09,78.061,206.781.25,285.2" transform="translate(-224.25 1067.835)"/><line class="aa" y2="47.653" transform="translate(634.846 1602.605)"/><line class="aa" x1="47.653" transform="translate(611.02 1626.432)"/><line class="aa" y2="47.687" transform="translate(60.183 1617.071)"/><line class="aa" x1="47.653" transform="translate(36.356 1640.898)"/><path class="z" d="M508.064,87.49C428.892,166.05,347.2,247.741,269.39,326.164" transform="translate(422.708 1166.294)"/><path class="ab" d="M412.539,99.2c-45.1,45.747-89.35,90-133.259,133.259" transform="translate(446.482 1194.443)"/><path class="z" d="M207.023,375.25C127.85,453.844,151.541,430.187,73.73,508.577" transform="translate(-47.619 1858.011)"/><path class="ab" d="M157.073,387c-45.066,45.713-48.5,49.151-92.413,92.413" transform="translate(-69.421 1886.255)"/><path class="ac" d="M133.509,63.18C88.442,108.893,44.193,153.142.25,196.439" transform="translate(-224.25 1107.858)"/><path class="z" d="M158.424,37.72C105.5,91.806,51.035,142.863.25,195.894" transform="translate(-224.25 1046.657)"/></g></svg>