<svg xmlns="http://www.w3.org/2000/svg" width="26.55" height="26.55" viewBox="0 0 26.55 26.55"><defs><style>.a{fill:#45e68d;}.b{fill:#fff;}</style></defs><g transform="translate(-1236.433 -2063.207)"><circle class="a" cx="13.275" cy="13.275" r="13.275" transform="translate(1236.433 2063.207)"/><path class="b" d="M431.967,327.47h14.024a1.192,1.192,0,0,1,.817.34l-7.829,6.808-7.795-6.808a1.124,1.124,0,0,1,.783-.34Zm-1.157,1.055,5.65,4.9-5.65,4.8Zm15.181,10.654H431.967a1.225,1.225,0,0,1-.783-.306l5.786-4.97,2.008,1.77,2.042-1.77,5.786,4.969a1.328,1.328,0,0,1-.817.306Zm1.191-.953-5.514-4.8,5.65-4.9Z" transform="translate(810.729 1743.157)"/></g></svg>