<svg xmlns="http://www.w3.org/2000/svg" xmlns:xlink="http://www.w3.org/1999/xlink" width="278" height="278" viewBox="0 0 278 278"><defs><style>.a{fill:url(#a);}.b{fill:#91fbff;}.c{filter:url(#b);}</style><linearGradient id="a" x1="0.121" y1="0.197" x2="0.888" y2="0.773" gradientUnits="objectBoundingBox"><stop offset="0" stop-color="#0c2a92"/><stop offset="0.498" stop-color="#203387"/><stop offset="1" stop-color="#05103a"/></linearGradient><filter id="b" x="0" y="0" width="278" height="278" filterUnits="userSpaceOnUse"><feOffset dy="9" input="SourceAlpha"/><feGaussianBlur stdDeviation="6" result="c"/><feFlood flood-opacity="0.188"/><feComposite operator="in" in2="c"/><feComposite in="SourceGraphic"/></filter></defs><g transform="translate(-380 -1192)"><g class="c" transform="matrix(1, 0, 0, 1, 380, 1192)"><circle class="a" cx="121" cy="121" r="121" transform="translate(18 9)"/></g><g transform="translate(444 1252.771)"><g transform="translate(0 0.003)"><path class="b" d="M45.127,53.819c-4.192-1.237-12.267-2.882-20.512.586-1.05.44-3.484,1.547-8.2,5.275A89.75,89.75,0,0,0,0,76.676l20.805,1.172Z" transform="translate(0 -9.736)"/><path class="b" d="M108.037,114.73c1.148,4.216,2.637,12.316-1,20.5-.464,1.042-1.628,3.451-5.437,8.091a89.986,89.986,0,0,1-17.322,16.068l-.757-20.83Z" transform="translate(-15.536 -21.344)"/><path class="b" d="M142.17.717a67.385,67.385,0,0,0-38.387,5.568,63.938,63.938,0,0,0-14.945,10L34.92,72.217l36.043,37.508,59.486-58.607a64.647,64.647,0,0,0,9.377-17.908A65.933,65.933,0,0,0,142.17.717ZM114.332,43.142a14.253,14.253,0,1,1,10.1-4.186,14.261,14.261,0,0,1-10.1,4.186Z" transform="translate(-6.496 -0.003)"/><path class="b" d="M13,121.547,26.773,109.24" transform="translate(-2.418 -20.323)"/><path class="b" d="M12.528,123.112a1.994,1.994,0,0,1-1.547-.7,2.035,2.035,0,0,1,.155-2.873l13.773-12.307a2.038,2.038,0,0,1,2.719,3.036L13.854,122.591A2.035,2.035,0,0,1,12.528,123.112Z" transform="translate(-1.946 -19.852)"/><path class="b" d="M16.2,145.417,40.522,122.56" transform="translate(-3.013 -22.8)"/><path class="b" d="M15.736,147a2.035,2.035,0,0,1-1.392-3.516l24.322-22.857a2.035,2.035,0,0,1,2.784,2.963L17.128,146.448a2.043,2.043,0,0,1-1.392.554Z" transform="translate(-2.549 -22.35)"/><path class="b" d="M43.2,151.294,57.266,138.4" transform="translate(-8.036 -25.747)"/><path class="b" d="M42.736,152.862a2.043,2.043,0,0,1-1.376-3.541l14.066-12.894a2.037,2.037,0,0,1,2.751,3L44.112,152.325A2.035,2.035,0,0,1,42.736,152.862Z" transform="translate(-7.572 -25.28)"/></g></g></g></svg>