<svg xmlns="http://www.w3.org/2000/svg" xmlns:xlink="http://www.w3.org/1999/xlink" width="496.119" height="250.468" viewBox="0 0 496.119 250.468"><defs><style>.a{fill:#bdf;}.b{fill:url(#a);}.c{fill:url(#b);}.d{fill:url(#c);}.e{fill:url(#d);}.f{fill:url(#e);}.g{fill:url(#f);}.h{fill:url(#g);}.i{fill:url(#h);}.j{fill:url(#i);}.k{fill:url(#j);}.l{fill:url(#k);}.m{fill:url(#l);}.n{fill:#629ff9;}.o{fill:#306dc6;}.p{fill:#bddeff;}.q{fill:#55c3fe;}.r{fill:#179ecc;}.s{fill:#97dfff;}.t{fill:#35afe5;}.u{fill:#f0fbff;}.v{fill:#fff;}.w{fill:#ff64a9;}.x{fill:#ed358d;}.y{fill:#ffbddd;}.z{fill:#d1d2d3;}.aa{opacity:0.3;}.ab{fill:#f4dcbd;}.ac{fill:#39e5d4;}.ad{fill:#24c1d1;}.ae{fill:#62f9e6;}.af{fill:#49a3db;}.ag{fill:#2f96c9;}.ah{fill:#7dd6f9;}.ai{fill:#b26abf;}.aj{fill:#cc75db;}.ak{fill:#da8ce5;}.al{fill:#3e82e5;}.am{fill:#2760c4;}.an{fill:#57a0f7;}.ao{fill:#5a34d1;}.ap{fill:#4721a5;}.aq{fill:#7a5df4;}.ar{fill:#8abfff;}.as{fill:#2e4759;}.at{fill:#40b5b5;}.au{fill:#f6f5fb;}.av{fill:#235999;}.aw{fill:#2f6faf;}.ax{fill:#2b2b2b;}.ay{fill:#04467c;}.az{fill:#098eb2;}.ba{fill:#fcaf90;}.bb{fill:#dfecf2;}.bc{fill:#1067bf;}.bd{fill:#333;}.be{fill:#f789c3;}.bf{fill:#e846a3;}.bg{fill:#7a8389;}.bh{fill:#f2c555;}.bi{fill:#6daae2;}.bj{fill:#e54e8c;}.bk{fill:#02d1af;}.bl{fill:#6e777f;}.bm{fill:#f79800;}.bn{fill:#fedc78;}.bo{fill:#03f4d1;}.bp{fill:#8ec2fc;}.bq{fill:#353535;}.br{fill:#5b5b5b;}.bs{fill:#164072;}.bt{fill:#e2e2e2;}.bu{fill:#edf4f4;}.bv{fill:#f7ffff;}.bw{fill:#70380f;}.bx{fill:#a0a0a0;}.by{fill:#d6d6d6;}.bz{fill:url(#m);}.ca{fill:#efefef;}.cb{fill:#2d2d2d;}.cc{fill:#444;}.cd{fill:#113559;}.ce{fill:#1c0687;}.cf{opacity:0.4;}.cg{fill:#a3a3a3;}.ch{fill:url(#n);}.ci{fill:#f2e941;}.cj{fill:#6b79fc;}.ck{fill:#f438b1;}.cl{fill:#2c4370;}.cm{fill:#282828;}.cn{fill:#1c1c1c;}.co{fill:#17253d;}.cp{fill:#1b2a49;}.cq{fill:#27365b;}.cr{fill:#ea977a;}.cs{fill:#bc610f;}.ct{fill:#ef6fb5;}.cu,.cv{opacity:0.6;}.cu{fill:url(#o);}.cv{fill:url(#p);}.cw{fill:#d8128d;}.cx{fill:#f431a1;}.cy{fill:#86e5ff;}.cz{fill:#f3fdff;}</style><radialGradient id="a" cx="0.503" cy="0.504" r="0.829" gradientTransform="translate(-7.179 -2.066) scale(0.585 0.598)" gradientUnits="objectBoundingBox"><stop offset="0" stop-color="#7c969e"/><stop offset="0.13" stop-color="#809aa1" stop-opacity="0.969"/><stop offset="0.3" stop-color="#8da4ab" stop-opacity="0.871"/><stop offset="0.48" stop-color="#a2b5ba" stop-opacity="0.71"/><stop offset="0.67" stop-color="#bfccd0" stop-opacity="0.49"/><stop offset="0.87" stop-color="#e5eaeb" stop-opacity="0.2"/><stop offset="1" stop-color="#fff" stop-opacity="0"/></radialGradient><radialGradient id="b" cx="0.502" cy="0.502" r="0.829" gradientTransform="translate(-3.234 -2.12) scale(0.585 0.598)" gradientUnits="objectBoundingBox"><stop offset="0" stop-color="#7c969e"/><stop offset="1" stop-color="#fff" stop-opacity="0"/></radialGradient><radialGradient id="c" cx="0.504" cy="0.497" r="0.829" gradientTransform="translate(-9.395 -3.618) scale(0.585 0.598)" xlink:href="#b"/><radialGradient id="d" cx="0.505" cy="0.504" r="0.829" gradientTransform="translate(-12.895 -2.971) scale(0.585 0.598)" xlink:href="#b"/><radialGradient id="e" cx="0.503" cy="0.502" r="0.83" gradientTransform="translate(-11.012 -1.981) scale(0.584 0.598)" xlink:href="#b"/><radialGradient id="f" cx="0.503" cy="0.502" r="0.83" gradientTransform="translate(-10.138 -1.963) scale(0.584 0.598)" xlink:href="#b"/><radialGradient id="g" cx="0.503" cy="0.503" r="0.83" gradientTransform="translate(-10.138 -1.947) scale(0.584 0.598)" xlink:href="#b"/><radialGradient id="h" cx="0.503" cy="0.504" r="0.83" gradientTransform="translate(-12.088 -1.914) scale(0.584 0.598)" xlink:href="#b"/><radialGradient id="i" cx="0.503" cy="0.501" r="0.83" gradientTransform="translate(-9.589 -1.989) scale(0.584 0.598)" xlink:href="#b"/><radialGradient id="j" cx="0.504" cy="0.502" r="0.829" gradientTransform="translate(-12.006 -3.005) scale(0.585 0.598)" xlink:href="#b"/><radialGradient id="k" cx="0.504" cy="0.498" r="0.83" gradientTransform="translate(-9.66 -3.128) scale(0.584 0.598)" xlink:href="#b"/><radialGradient id="l" cx="0.504" cy="0.497" r="0.829" gradientTransform="translate(-9.219 -3.162) scale(0.585 0.598)" xlink:href="#b"/><linearGradient id="m" x1="9.872" y1="0.498" x2="8.872" y2="0.498" gradientUnits="objectBoundingBox"><stop offset="0" stop-color="#ffe2c4"/><stop offset="1" stop-color="#ffb870"/></linearGradient><linearGradient id="n" x1="0.843" y1="0.5" x2="-0.157" y2="0.5" gradientUnits="objectBoundingBox"><stop offset="0" stop-color="#4cc194"/><stop offset="0.28" stop-color="#4cd08b"/><stop offset="0.68" stop-color="#4ce083"/><stop offset="1" stop-color="#4ce580"/></linearGradient><radialGradient id="o" cx="0.499" cy="0.512" r="0.829" gradientTransform="matrix(-0.585, 0, 0, 0.598, 0.778, -3.202)" xlink:href="#a"/><radialGradient id="p" cx="0.498" cy="0.509" r="0.83" gradientTransform="matrix(-0.584, 0, 0, 0.598, 0.772, -3.271)" xlink:href="#a"/></defs><g transform="translate(77.223 35.634)"><g transform="translate(18.246 -35.634)"><g transform="translate(0 0)"><path class="a" d="M112.122,250.592c34.4-.151,99.586-2.242,40.139-31.969-89.756-43.124,93.13-61.5,185.293-61.653,68.014-.115,167.574,3.575,231.583,6.349,0,0,.4,103.4.2,108.8s1.311,18.153-1.236,20.2-13.964,1-13.964,1H74.737S62.872,251.318,112.122,250.592Z" transform="translate(-168.951 -43.118)"/><path class="b" d="M227.744,265.521c0,9.922-13.763,17.962-30.732,17.962s-30.732-8.04-30.732-17.962,13.755-17.971,30.732-17.971S227.744,255.6,227.744,265.521Z" transform="translate(-37.102 -54.795)"/><path class="c" d="M314.193,252.822c0,9.922-13.763,17.971-30.741,17.971s-30.732-8.049-30.732-17.971,13.763-17.962,30.732-17.962S314.193,242.9,314.193,252.822Z" transform="translate(-198.848 -53.16)"/><path class="d" d="M246.833,230.818c0,6.281-8.711,11.376-19.451,11.376s-19.451-5.1-19.451-11.376,8.711-11.368,19.451-11.368S246.833,224.537,246.833,230.818Z" transform="translate(-92.472 -51.173)"/><path class="e" d="M174.69,259.8c0,7.178-9.948,13-22.23,13s-22.23-5.819-22.23-13,9.957-13,22.23-13S174.69,252.619,174.69,259.8Z" transform="translate(47.355 -54.699)"/><path class="f" d="M128.8,251.024c0,10.592-14.687,19.164-32.814,19.164S63.18,261.6,63.18,251.024,77.867,231.86,95.985,231.86,128.8,240.432,128.8,251.024Z" transform="translate(151.652 -52.773)"/><path class="g" d="M149.249,255.764c0,10.592-14.687,19.164-32.805,19.164s-32.814-8.58-32.814-19.164S98.317,236.6,116.444,236.6,149.249,245.172,149.249,255.764Z" transform="translate(113.389 -53.384)"/><path class="h" d="M149.249,259.684c0,10.592-14.687,19.164-32.805,19.164s-32.814-8.58-32.814-19.164,14.687-19.164,32.814-19.164S149.249,249.092,149.249,259.684Z" transform="translate(113.389 -53.889)"/><path class="i" d="M103.619,268.064c0,10.592-14.687,19.164-32.814,19.164S38,278.648,38,268.064,52.687,248.9,70.805,248.9,103.619,257.472,103.619,268.064Z" transform="translate(198.766 -54.969)"/><path class="j" d="M162.1,249c0,10.592-14.7,19.164-32.814,19.164S96.48,259.579,96.48,249s14.687-19.164,32.805-19.164S162.1,238.412,162.1,249Z" transform="translate(89.345 -52.513)"/><path class="k" d="M188.77,254.077c0,7.178-9.948,13-22.23,13s-22.23-5.819-22.23-13,9.957-13,22.23-13S188.77,246.881,188.77,254.077Z" transform="translate(21.01 -53.961)"/><path class="l" d="M225.941,232.937c0,7.178-9.957,12.988-22.23,12.988s-22.23-5.81-22.23-12.988,9.948-13,22.23-13S225.941,225.759,225.941,232.937Z" transform="translate(-48.539 -51.236)"/><path class="m" d="M232.95,227c0,7.178-9.957,13-22.23,13s-22.23-5.819-22.23-13,9.948-13,22.239-13S232.95,219.819,232.95,227Z" transform="translate(-61.655 -50.471)"/><path class="n" d="M81.99,250.8l28.075-16.211V147.94l-28.075,16.2Z" transform="translate(154.001 -41.955)"/><path class="o" d="M114.7,199.163l81.221,46.891V159.607l-81.7-46.917Z" transform="translate(40.072 -37.411)"/><path class="p" d="M110.083,94.08,191.765,141l-28.084,16.22L81.99,110.291Z" transform="translate(72.302 -35.012)"/><path class="o" d="M84.01,176.121l24.556-14.181v4.051L84.01,180.172Z" transform="translate(153.741 -43.76)"/><path class="o" d="M84.01,183.273,108.566,169.1v4.051L84.01,187.323Z" transform="translate(153.741 -44.683)"/><path class="o" d="M84.01,241.581,108.566,227.4v4.051L84.01,245.623Z" transform="translate(153.741 -52.198)"/><path class="o" d="M84.01,248.741l24.556-14.181v4.051L84.01,252.783Z" transform="translate(153.741 -53.121)"/><path class="q" d="M145,223.926h0v-4.268l3.049,1.533L153.4,218.1a6.969,6.969,0,0,1,6.3,0l53.738,31.028,3.058-1.463v4.225h0a2.125,2.125,0,0,1-1.3,1.969l-7.091,4.094a6.969,6.969,0,0,1-6.307,0l-55.5-32.039A2.143,2.143,0,0,1,145,223.926Z" transform="translate(-7.311 -50.902)"/><path class="r" d="M153.389,253.152l3.066-1.5v4.225h0a2.125,2.125,0,0,1-1.3,1.969l-7.091,4.094a6.462,6.462,0,0,1-3.066.749V248.3Z" transform="translate(52.724 -54.892)"/><path class="s" d="M208.111,252.783a6.968,6.968,0,0,1-6.307,0l-55.5-32.039c-1.742-1.01-1.742-2.613,0-3.641l7.1-4.094a6.969,6.969,0,0,1,6.3,0l55.5,32.039c1.742,1.01,1.742,2.613,0,3.641Z" transform="translate(-7.329 -50.246)"/><path class="t" d="M119.441,104.483l3.632-2.073a.87.87,0,0,1,.244-.139h0a1.5,1.5,0,0,1,1.3.209l104.444,60.3a4.5,4.5,0,0,1,2.03,3.484v80.2a1.437,1.437,0,0,1-.592,1.315l-.174.078-3.615,2.073-.749-3.911,1.08.453L124.616,187.393a4.486,4.486,0,0,1-2.03-3.484V106.73Z" transform="translate(0.346 -36.059)"/><path class="s" d="M123.952,102.41a.87.87,0,0,1,.244-.139h0a1.5,1.5,0,0,1,1.3.209l104.444,60.3a3.937,3.937,0,0,1,1.272,1.272l-69.818,44.042-35.9-20.7a4.486,4.486,0,0,1-2.03-3.484V106.73l-3.145-2.186Z" transform="translate(-0.532 -36.059)"/><path class="q" d="M123.779,186.31a4.46,4.46,0,0,0,2.03,3.484L230.252,250.1c1.115.645,2.021.122,2.021-1.167V168.749a4.486,4.486,0,0,0-2.021-3.484L125.8,104.959c-1.124-.653-2.03-.122-2.03,1.167Z" transform="translate(-4.601 -36.378)"/><path class="u" d="M126.02,180.966l104.566,60.367v-72.2L126.02,108.77Z" transform="translate(-4.873 -36.905)"/><path class="v" d="M127.048,109.362v70.8l103.538,59.783v1.385L126.02,180.966v-72.2Z" transform="translate(-4.873 -36.905)"/><path class="w" d="M223.75,230.732l7.282-4.164V196.35H223.75Z" transform="translate(-90.452 -48.195)"/><path class="x" d="M236.352,230.732l-4.242-2.561V196.35h4.242Z" transform="translate(-103.054 -48.195)"/><path class="y" d="M231,168.345h0c2.134-1.228,5.078-1.045,8.328.828,6.507,3.754,11.777,12.892,11.777,20.41,0,3.667-1.254,6.272-3.3,7.535a4.356,4.356,0,0,1-.566.287h0l-17.666,9.242L211.28,177.752Z" transform="translate(-99.663 -44.485)"/><path class="w" d="M282.83,177.913h0c3.023-.749,5.932-1.063,8.964.767,6.42,3.894,11.777,12.892,11.777,20.41,0,3.441-1.115,5.932-2.936,7.274h0c-16.7,11.943-33.833,36.229-33.833,36.229a670.767,670.767,0,0,0-36.542-57.962C256.915,184.611,282.83,177.913,282.83,177.913Z" transform="translate(-168.661 -45.742)"/><path class="x" d="M323.065,234.568c0,16.673-11.708,23.432-26.133,15.1s-26.133-28.615-26.133-45.3,11.707-23.432,26.133-15.1S323.065,217.887,323.065,234.568Z" transform="translate(-223.47 -46.822)"/><path class="z" d="M302.944,221.219l-18.293,9.312L274.12,213.04l18.171-10.61A63.449,63.449,0,0,1,302.944,221.219Z" transform="translate(-206.241 -48.979)"/><path class="v" d="M306.988,227.259c0,4.617-3.24,6.49-7.239,4.181A15.994,15.994,0,0,1,292.51,218.9c0-4.617,3.241-6.49,7.239-4.181A16.047,16.047,0,0,1,306.988,227.259Z" transform="translate(-226.303 -50.436)"/><g class="aa" transform="translate(47.295 138.877)"><path class="ab" d="M299.908,209.6c-13.206-7.622-24.12-2.613-25.9,11.028a47.489,47.489,0,0,1-3.171-16.263c0-16.681,11.707-23.432,26.133-15.1s26.133,28.615,26.133,45.3a30.242,30.242,0,0,1-.261,4.068C318.445,226.685,309.821,215.326,299.908,209.6Z" transform="translate(-270.84 -185.7)"/></g><path class="ac" d="M179.242,222.879l-4.382-2.535V185.03l4.382,2.526Z" transform="translate(3.927 -46.736)"/><path class="ad" d="M174.212,220.344l-4.382,2.535V187.556l4.382-2.526Z" transform="translate(13.338 -46.736)"/><path class="ae" d="M174.2,187.181l-4.382-2.526,4.382-2.535,4.39,2.535Z" transform="translate(8.967 -46.361)"/><path class="af" d="M167.612,228.542l-4.382-2.535V183.42l4.382,2.535Z" transform="translate(25.687 -46.529)"/><path class="ag" d="M162.59,226.008l-4.39,2.535V185.955l4.39-2.535Z" transform="translate(35.09 -46.529)"/><path class="ah" d="M162.59,185.581l-4.39-2.535,4.39-2.526,4.382,2.526Z" transform="translate(30.709 -46.155)"/><path class="ai" d="M156,234.068l-4.39-2.526V181.48l4.39,2.535Z" transform="translate(47.421 -46.278)"/><path class="aj" d="M150.962,231.542l-4.382,2.526V184.015l4.382-2.535Z" transform="translate(56.841 -46.278)"/><path class="ak" d="M150.97,183.641l-4.39-2.535,4.39-2.526,4.382,2.526Z" transform="translate(52.451 -45.905)"/><path class="al" d="M156.01,234.148l-4.39-2.526V181.56l4.39,2.535Z" transform="translate(47.402 -46.289)"/><path class="am" d="M150.98,231.622l-4.39,2.526V184.095l4.39-2.535Z" transform="translate(56.814 -46.289)"/><path class="an" d="M150.972,183.72l-4.382-2.535,4.382-2.535,4.39,2.535Z" transform="translate(52.432 -45.914)"/><path class="ao" d="M144.372,239.75l-4.382-2.535V179.54l4.382,2.535Z" transform="translate(69.172 -46.028)"/><path class="ap" d="M139.342,237.215l-4.382,2.535V182.075l4.382-2.535Z" transform="translate(78.583 -46.028)"/><path class="aq" d="M139.342,181.7l-4.382-2.535,4.382-2.526,4.382,2.526Z" transform="translate(74.202 -45.655)"/><path class="ar" d="M182.808,142.979l-.514-.784,2.613-2.256c4.042-2.317,7.6-1.742,12.64,1.176a34.469,34.469,0,0,1,12.814,14.025,24.608,24.608,0,0,1,2.892,10.749c0,4.007-.627,5.923-2.779,7.77l-3.145,1.873-2.3-.575a16.412,16.412,0,0,1-7.483-2.43,30.739,30.739,0,0,1-7.291-6.011c-5-5.514-8.415-12.718-8.415-18.763a11.567,11.567,0,0,1,.967-4.774Z" transform="translate(-36.164 -40.739)"/><path class="as" d="M188.94,153.186c0,3.955,3.214,9.016,7.169,11.324s7.169.923,7.169-3.031-3.214-9.024-7.169-11.324S188.94,149.223,188.94,153.186Z" transform="translate(-32.375 -42.096)"/><path class="at" d="M193.83,156.371a6.1,6.1,0,0,0,2.909,4.591c1.612.923,2.909.375,2.909-1.228a6.01,6.01,0,0,0-2.909-4.591C195.145,154.211,193.83,154.768,193.83,156.371Z" transform="translate(-33.005 -42.825)"/><path class="o" d="M184.51,149.748c0,8.711,7.03,19.765,15.68,24.774s15.68,2.038,15.68-6.638-7.038-19.765-15.68-24.774S184.51,141.071,184.51,149.748Z" transform="translate(-41.107 -41.018)"/><path class="au" d="M189.28,152.9c0,6.35,5.148,14.469,11.5,18.136s11.5,1.49,11.5-4.861-5.148-14.469-11.5-18.136S189.28,146.547,189.28,152.9Z" transform="translate(-41.67 -41.738)"/><path class="o" d="M194.25,156.136c0,3.955,3.206,9.025,7.169,11.324s7.169.932,7.169-3.031-3.214-9.016-7.169-11.324S194.25,152.181,194.25,156.136Z" transform="translate(-42.31 -42.476)"/><path class="au" d="M199.14,159.322a6.01,6.01,0,0,0,2.909,4.591c1.6.932,2.909.374,2.909-1.228a6.045,6.045,0,0,0-2.909-4.591C200.438,157.17,199.14,157.719,199.14,159.322Z" transform="translate(-42.941 -43.206)"/><path class="ac" d="M230.007,170.41l-7.517,4.329,3.145,1.429,7.709-4.46Z" transform="translate(-91.666 -44.851)"/><path class="ac" d="M230.007,179.626l-7.517,4.338,3.145-5.052,7.709-4.451Z" transform="translate(-91.666 -45.374)"/><path class="av" d="M209.386,170.728l17.9-10.331h.044a.54.54,0,0,1,.444.07,1.524,1.524,0,0,1,.688,1.193.453.453,0,0,1-.244.453h0l-26.028,15.009-.984-1.655Z" transform="translate(-68.248 -43.558)"/><path class="aw" d="M231.09,178.088a1.524,1.524,0,0,0,.688,1.193c.383.218.688.044.688-.392a1.507,1.507,0,0,0-.688-1.193C231.4,177.469,231.09,177.652,231.09,178.088Z" transform="translate(-98.28 -45.778)"/><path class="ax" d="M124.528,139.386a13.256,13.256,0,0,1,.366,2.692c-.1.636-.436,1.742-3.075,1.315s-6.559-1.551-7.134-2.683,1.289-1.7,3.868-.871a3.371,3.371,0,0,0,2.787-.549Z" transform="translate(110.784 -40.84)"/><path class="ay" d="M117.977,117.443c-5.113-3.014-13.537-7.4-14.634-4.355-1.6,4.443,0,22.849,0,22.849a4.863,4.863,0,0,0,4.46.235c.348-7.335.584-15.941.584-15.941s4.486,5.3,9.582,7.213Z" transform="translate(128.11 -37.329)"/><path class="q" d="M100.58,129.19v19.826L103,154.243l9.051,1.394,6.629-3.824V131.995Z" transform="translate(129.192 -39.538)"/><path class="az" d="M120.278,130.322l-7.308-1.132v19.826l2.422,5.227,4.887.749Z" transform="translate(116.802 -39.538)"/><path class="r" d="M108.19,135.19v19.826l9.051,1.394V136.592Z" transform="translate(124.003 -40.311)"/><path class="s" d="M107.209,124.8l9.042,1.4,2.43,5.227-6.629,3.824-9.051-1.4-2.422-5.227Z" transform="translate(129.192 -38.972)"/><path class="ba" d="M99.18,80.831c-.279-4.538-.348-11.028-.366-12.944h0a26.7,26.7,0,0,1,.976-3.2c.078-.3-2.186-1.376-2.186-1.376l-.488-3.624c-.07-.505-.645-.392-.714.976a33.173,33.173,0,0,0,.174,3.868.958.958,0,0,1-.157.688,5.61,5.61,0,0,1-.061-1.664c.139-.5-.505-.531-.775.409a3.711,3.711,0,0,0,.2,2.517A11.4,11.4,0,0,1,96.1,68.06c.052.566.139,1.559.192,2.282.139,1.9.148,1.742-.078,6.855,0,.7.479,5.967.618,7.126l-1.019-2.4a57.49,57.49,0,0,0,3.65,14.329L102.56,95.2S100.216,85.038,99.18,80.831Z" transform="translate(149.782 -30.543)"/><path class="v" d="M95.46,92.755c.871,4.652,1.664,7.639,1.664,7.639l4.033-1.045s-.627-3.763-1.359-7.779a30.889,30.889,0,0,1-4.338,1.185Z" transform="translate(151.176 -34.688)"/><path class="bb" d="M112.71,111.5l17.579,7.117,7.169-8.188-15.88-7.1Z" transform="translate(99.849 -36.204)"/><path class="ax" d="M125.179,126.3a14.268,14.268,0,0,1-.47,2.517c-.253.531-.819,1.4-2.761.183s-4.669-3.484-4.8-4.669,1.472-1.1,3.267.436a2.483,2.483,0,0,0,2.317.409Z" transform="translate(108.269 -38.807)"/><path class="ax" d="M133.251,146.07a13.431,13.431,0,0,1,.575,2.613c0,.636-.287,1.742-2.953,1.559s-6.664-1.019-7.326-2.108,1.141-1.794,3.781-1.2a3.38,3.38,0,0,0,2.735-.767Z" transform="translate(94.159 -41.714)"/><path class="bc" d="M115.565,125.455s-17.805-9.826-19.042-5.227,1.794,22.779,1.794,22.779a4.851,4.851,0,0,0,4.46-.113c-.227-7.352-.679-15.941-.679-15.941s7.082,7.134,13.38,6.847,14.155-6.089,9.66-13.363C119.816,120.037,115.565,125.455,115.565,125.455Z" transform="translate(125.199 -38.225)"/><path class="v" d="M103.375,98.341a9.53,9.53,0,0,0-5.227,4.991,103.584,103.584,0,0,0-3.04,11.237l-.488,2.613s-1.568,11.673,12.692,8.624c5.758-1.237,3.711-4.2,3.842-5.139s-.54-3.972,0-8.023,1.8-17.674-5.54-16.525C102.043,97.261,103.375,98.341,103.375,98.341Z" transform="translate(141.518 -35.266)"/><path class="ba" d="M102.476,88.206v.1a4.207,4.207,0,0,0-.366,2.4,1.542,1.542,0,0,1-.958,1.673s-.3.314.261.488a5.324,5.324,0,0,1,.871.331,19.445,19.445,0,0,0,.688,2.613c.209.366,1.237.3,2.091.314s1.568,1.42,1.655,2.169a10.035,10.035,0,0,0,4.451-2.718l-.81-1.96S107.223,84.835,102.476,88.206Z" transform="translate(136.277 -34.155)"/><path class="bd" d="M104.536,92.468s-1.551-2.491-1.141-3.842-1.742-.54-1.742-.54-1.951-1.655-1.368-3.336a1.228,1.228,0,0,0,.984.253l-.392-.793a14.807,14.807,0,0,0,2.544.131,2.369,2.369,0,0,1-.81-.871s2.134.331,3.214.348,3.545-.183,4.277,1.908c1.315,1.742,2.038,6.707-.139,8.127-1.3.932-2.082.566-2.082.566a23.246,23.246,0,0,1-1.089-3.2c-.139-.871-2.152-1.341-1.742.348a3.641,3.641,0,0,1,.131,1.324Z" transform="translate(136.874 -33.644)"/><path class="ba" d="M124.868,113.271s-2.761,6.42-2.918,7.343c-1.882-.7-9.974-2.613-11.873-2.962a9.2,9.2,0,0,0-1.359-1.646A1.873,1.873,0,0,1,108,114.56c0-.357-.8-.74-.871.209a2.9,2.9,0,0,0,.409,1.638l-3.092-1.185s.793,2.979,4.756,4.5h0a98.748,98.748,0,0,0,9.234,3.868c3.824,1.281,6.411,2.265,7.84-.087s4.294-10.3,4.294-10.3Z" transform="translate(113.928 -37.478)"/><path class="v" d="M102.419,114.531s1.943-9.477,2.822-10.924,4.573-1.855,5.845,1.22-1.951,11.612-1.951,11.612Z" transform="translate(134.888 -36.098)"/><path class="u" d="M225.95,66.54l42.126,16.49-18.162,2.16Z" transform="translate(-129.412 -31.462)"/><path class="s" d="M270.72,85.155l-2.814,7.866L246.46,66.54Z" transform="translate(-149.922 -31.462)"/><path class="q" d="M267.922,86.967l3.214,6.054L249.69,66.54Z" transform="translate(-153.152 -31.462)"/><path class="u" d="M253.38,66.54l5.671,27.77,12.561-7.343Z" transform="translate(-156.842 -31.462)"/><path class="y" d="M207.69,34.18l42.135,16.49-18.171,2.16Z" transform="translate(-95.254 -27.29)"/><path class="be" d="M252.47,52.8l-2.814,7.866L228.21,34.18Z" transform="translate(-115.774 -27.29)"/><path class="bf" d="M249.672,54.607l3.214,6.054L231.44,34.18Z" transform="translate(-119.004 -27.29)"/><path class="y" d="M235.13,34.18,240.8,61.959l12.561-7.352Z" transform="translate(-122.694 -27.29)"/><path class="bg" d="M177.519,253.12h2.335a15.933,15.933,0,0,1,4.164-3.336c8.711-5.009,22.735-5.009,31.4,0a16.125,16.125,0,0,1,3.964,3.1h2.535v5.993c0,3.275-2.169,6.551-6.507,9.051-8.667,5.009-22.727,5.009-31.4,0-4.355-2.5-6.5-5.775-6.5-9.059v-5.714Z" transform="translate(-41.058 -54.599)"/><path class="bh" d="M182.98,253.87h1.089v5.993c0,3.275-2.169,6.551-6.507,9.051h-.052v-6.368C180.55,261.126,181.691,257.084,182.98,253.87Z" transform="translate(-3.209 -55.61)"/><path class="bi" d="M202.53,263.983l.253-.113v6.368c-4.869,2.787-11.411,4.007-17.753,3.659V267.59A41.168,41.168,0,0,0,202.53,263.983Z" transform="translate(-28.474 -56.899)"/><path class="bj" d="M178.76,253.12h2.335a15.933,15.933,0,0,1,4.164-3.336c8.711-5.009,22.735-5.009,31.4,0a16.125,16.125,0,0,1,3.963,3.1h1.446c-1.289,3.214-2.43,7.256-5.462,8.711h0l-.253.113a41.168,41.168,0,0,1-17.5,3.606h0a22.87,22.87,0,0,1-13.511-4.451h0a19.067,19.067,0,0,1-5.113-6.159,19.068,19.068,0,0,0,5.113,6.159v7.108l-.087-.044c-4.355-2.5-6.5-5.775-6.5-9.059v-5.714Z" transform="translate(-42.3 -54.599)"/><path class="bk" d="M218.921,267.469v6.307a31.037,31.037,0,0,1-13.511-3.65V263A22.767,22.767,0,0,0,218.921,267.469Z" transform="translate(-62.364 -56.787)"/><path class="bl" d="M183.989,261.341c8.711,5,22.736,5,31.4,0s8.711-13.127,0-18.136-22.727-5-31.4,0S175.278,256.332,183.989,261.341Z" transform="translate(-41.013 -53.751)"/><path class="bm" d="M177.56,243.205c8.711-5,22.736-5,31.4,0h0c8.659,5,8.65,13.066,0,18.119H208.9l-15.68-9.059L177.5,243.2Z" transform="translate(-34.584 -53.752)"/><path class="bn" d="M197.433,247.62c4.129,4.791,2.735,10.775-4.19,14.809h-.061l-15.68-9.059Z" transform="translate(-18.882 -54.805)"/><path class="w" d="M209.5,261.9c-8.65-5-8.667-13.066-.061-18.093l15.741,9.068-15.68,9.033Z" transform="translate(-66.526 -54.313)"/><path class="bo" d="M200.68,254.22l15.68,9.059c-8.711,4.965-22.648,4.957-31.359,0Z" transform="translate(-42.024 -55.655)"/><path class="bp" d="M187.03,254.22l15.68,9.059c-4.861,2.779-11.385,4-17.709,3.659Z" transform="translate(-28.374 -55.655)"/><path class="bq" d="M253.068,202.46a5.681,5.681,0,0,1-.383,1.342,6.188,6.188,0,0,0-.357,1.742,18.187,18.187,0,0,1,3.345,2.665c1.524,1.629,2.657,1.8,3.807,1.533.549-.113.688-1.176.279-1.646s-4.355-3.206-4.164-4.547A6.822,6.822,0,0,0,253.068,202.46Z" transform="translate(-144.309 -48.983)"/><path class="br" d="M259.483,209.6c-1.15.27-2.038.113-3.807-1.612a34.835,34.835,0,0,0-3.293-2.535,3.437,3.437,0,0,1-.052.549,14.812,14.812,0,0,1,2.979,2.343c1.794,1.855,3.023,2.038,4.173,1.742.4-.078.584-.671.488-1.159A.714.714,0,0,1,259.483,209.6Z" transform="translate(-144.312 -49.368)"/><path class="bs" d="M250.094,182s4.068,2.788,9.129,5.531c-2.5,4.059-2.814,10.741-2.613,11.934,1.559,1.455,2.692.653,2.692.653s5.227-11.516,5.906-13.354-10.035-10.2-10.035-10.2Z" transform="translate(-147.607 -45.644)"/><path class="bq" d="M259.188,215.021s-.314,2.125-.61,4.068.165,3.737,1.585,4.408c1.333,0,2.666-1.167,2.2-3.415a23.519,23.519,0,0,1-.287-5.227C262.019,213.793,259.188,215.021,259.188,215.021Z" transform="translate(-152.144 -50.525)"/><path class="bs" d="M258.784,187.364s2.5,1.411,8.171,5.41c1.7,1.246,1.742,11.133,3.4,18.154,1.228,2.186,3.232-.148,3.232-.148s.27-15.488-1.037-20.41c-.514-1.9-7.988-6.629-7.988-6.629Z" transform="translate(-163.543 -46.57)"/><path class="bt" d="M256.756,175.109a1.219,1.219,0,0,0,.462-.479l-.958.531a3.748,3.748,0,0,0,.5-.052Z" transform="translate(-144.957 -45.395)"/><path class="bu" d="M266.256,170.721c-3.031,1.054-7.927-6.1-8.85-6.838a2.334,2.334,0,0,1-.592-1.8h-2.239a23.634,23.634,0,0,0,1.742,5.227c.592.8,7.369,7.361,9,4.852C264.3,171.671,266.456,171.932,266.256,170.721Z" transform="translate(-152.54 -43.778)"/><path class="bs" d="M279.532,184.388c-.2-2.239-.462-4.443.087-5.462.462-.871-.261-3.946-.261-3.946l-10.592.409a9.842,9.842,0,0,0,.166,7.378c.941,2.465,2.369,3.127,8.868,6.472C277.476,187.193,277.049,183.813,279.532,184.388Z" transform="translate(-177.871 -45.44)"/><path class="bv" d="M279.759,171.512s1.516-16.917-3.119-18.694-8.885,2.448-10.7,6.542-1.176,12.936-1.185,14.809C271.118,178.576,279.942,173.611,279.759,171.512Z" transform="translate(-175.05 -42.53)"/><path class="ba" d="M274.275,145.087s1.159,1.847.122,5.871c-.871,3.258-.941,4.173-2.3,4.355s-4.295-.784-4.7-3.362a2.43,2.43,0,0,1-.871-2.875c.653-1.237,1.115.113,1.115.113s0-2.683,1.873-3.667S274.275,145.087,274.275,145.087Z" transform="translate(-171.37 -41.567)"/><path class="bw" d="M268.238,147.932c0-.157,1.446,1.908,3.772,1.237a1.429,1.429,0,0,1-.984-.8,2.047,2.047,0,0,0,2.108.688,3.147,3.147,0,0,1-.871-.488A2.335,2.335,0,0,0,274,148.7c-.531-.235-.453-.584-.453-.584s.47.47,1.385-.331c-.366-.052-.331-1.742-1.681-3s-2.753-2.456-4.556-2.152c.444-.462.375-.566,1.01-.47a2.613,2.613,0,0,0-2.753.584c-1.4-.54-3.145,1.594-2.273,6.707,0-.131.131-.967.627-1.124s.915.819.8,1.063a10.993,10.993,0,0,0-.165,1.742l.636.34s-.192-1.272.261-1.655S268.151,149.883,268.238,147.932Z" transform="translate(-169.809 -41.189)"/><path class="bx" d="M258.258,187.243l15.244-8.8V177.8l-24.582,3.406v.645Z" transform="translate(-154.847 -45.804)"/><path class="by" d="M258.258,185.8,273.5,177l-9.338-5.392-15.244,8.8Z" transform="translate(-154.847 -45.006)"/><path class="bz" d="M279.462,176.6c-.645,0-1.376.113-2.509.131s-1.089-.618-1.132-1.533c-.366.27-.575.984-1.159,1.4s-.871,0-.871,0l-.122.087a15.854,15.854,0,0,1-8.441-4.922c-.671-1.01.261-5.148.418-7.84a1.807,1.807,0,0,0-2.814-1.193c-2.2,1.237-1.054,10.148-1.054,11.15s8.153,4.6,12.012,4.948a5.33,5.33,0,0,0,2.213.767C279.34,179.47,280.08,176.639,279.462,176.6Z" transform="translate(-171.948 -43.816)"/><path class="ba" d="M279.812,175.943c-.645,0-1.376.113-2.509.131s-1.089-.618-1.132-1.533c-.366.27-.575.984-1.159,1.4s-.871,0-.871,0l-.122.087a15.854,15.854,0,0,1-8.441-4.922c-.436-.653-.2-2.613.07-4.652.218-1.794,1.49-4.059,1.237-6.969,0,0-.2-3.119-2.4-1.882-1.124.645-2.108,4.617-2.657,7.936a44.089,44.089,0,0,0-.3,7.561c0,.993,8.754,4.66,12.613,5.009a5.331,5.331,0,0,0,2.213.767C279.69,178.818,280.431,175.987,279.812,175.943Z" transform="translate(-172.298 -43.164)"/><path class="bu" d="M281.066,175.16c-3.362-1.159-6.62-3.223-7.169-4.051-.436-.653-.2-2.613.07-4.652.218-1.794,1.49-4.059,1.237-6.969,0,0-.2-3.119-2.4-1.882-1.124.645-2.108,4.617-2.657,7.936a44.11,44.11,0,0,0-.3,7.561c0,.819,5.95,3.946,10.2,5.044A4.756,4.756,0,0,1,281.066,175.16Z" transform="translate(-180.599 -43.164)"/><path class="v" d="M264.661,165.381l-15.244,19.582-.5-.27V173.918l15.244-8.8Z" transform="translate(-146.005 -44.169)"/><path class="ca" d="M264.164,176.2,248.92,185V174.218l15.244-8.8Z" transform="translate(-145.509 -44.208)"/><path class="q" d="M197.282,101.043h0V98.429l-1.873.941-3.284-1.9a4.277,4.277,0,0,0-3.876,0l-33,19.051-1.882-.871v2.57h0a1.333,1.333,0,0,0,.8,1.211l4.355,2.517a4.355,4.355,0,0,0,3.868,0l34.095-19.721A1.289,1.289,0,0,0,197.282,101.043Z" transform="translate(4.606 -35.389)"/><path class="r" d="M197.572,118.979l-1.882-.871v2.57h0a1.333,1.333,0,0,0,.8,1.211l4.355,2.517a3.981,3.981,0,0,0,1.882.453V116Z" transform="translate(-37.705 -37.837)"/><path class="s" d="M158.524,118.757a4.26,4.26,0,0,0,3.868,0l34.086-19.678a1.185,1.185,0,0,0,0-2.239l-4.355-2.509a4.277,4.277,0,0,0-3.876,0l-34.077,19.687a1.175,1.175,0,0,0,0,2.23Z" transform="translate(4.617 -34.984)"/><path class="t" d="M209.292,27.673l-2.23-1.272a.514.514,0,0,0-.148-.087h0a.871.871,0,0,0-.793.131L142,63.492a2.77,2.77,0,0,0-1.246,2.16v49.234a.871.871,0,0,0,.366.8l.1.052,2.213,1.272.462-2.4-.662.279,62.884-36.307a2.77,2.77,0,0,0,1.211-2.16v-47.4Z" transform="translate(3.589 -26.271)"/><path class="s" d="M206.636,26.4a.513.513,0,0,0-.148-.087h0a.871.871,0,0,0-.793.131L141.574,63.492a2.4,2.4,0,0,0-.784.784l42.875,27.047,22.03-12.744a2.77,2.77,0,0,0,1.211-2.16v-47.4l1.925-1.341Z" transform="translate(4.015 -26.271)"/><path class="q" d="M206.95,77.932a2.77,2.77,0,0,1-1.246,2.16l-64.147,37.03c-.688.4-1.237.078-1.237-.714V67.174a2.753,2.753,0,0,1,1.237-2.16L205.7,27.974c.688-.4,1.246-.078,1.246.714Z" transform="translate(6.306 -26.468)"/><path class="u" d="M205.927,74.649,141.71,111.722V67.384L205.927,30.31Z" transform="translate(6.118 -26.791)"/><path class="v" d="M205.3,30.667V74.161l-63.59,36.708v.854l64.217-37.074V30.31Z" transform="translate(6.118 -26.791)"/><path class="cb" d="M219.57,246.745a25.092,25.092,0,0,0-2.7-.645c-.427,0-1.516,0-1.672.322a32.284,32.284,0,0,0-.122,7.047c.34,1.141,4.155,1.455,4.956,1.089.557-1.028-1.272-2.3-2.012-2.666s.183-2.509,1.237-2.509S219.57,246.745,219.57,246.745Z" transform="translate(-71.863 -54.609)"/><path class="cc" d="M216.1,246.467a.357.357,0,0,1,.139-.139c.793-.1,1.368.331,1.22.671s-.967,5.592.314,6.969c.653.706,2.4.7,2.491.784-3.537,0-4.138-.723-4.286-1.22A32.479,32.479,0,0,1,216.1,246.467Z" transform="translate(-72.772 -54.636)"/><path class="bu" d="M206.581,210.51s-2.535,2.674-2.831,11.864c.505,1.742,4.869.758,5.418,0s0-2.361,0-2.361h-2.213l.671-4.425Z" transform="translate(-51.41 -50.021)"/><path class="cd" d="M192.489,243.859l12.4,2.038c.706-.967-1.385-5.74-2.091-7.291-2.247-4.19,1.193-8.075,1.193-8.075l5.6-1.612s3.049,14.6,4.094,17.788c1.864,5.688-16.063,2.509-21.377,1.577C192.437,247.527,193.447,244.878,192.489,243.859Z" transform="translate(-45.863 -52.394)"/><path class="cb" d="M211.641,252.493a24.57,24.57,0,0,0-2.692-.653c-.436,0-1.516,0-1.672.322a32.286,32.286,0,0,0-.122,7.047c.34,1.141,4.146,1.463,4.956,1.089.558-1.019-1.272-2.291-2.012-2.666s.183-2.509,1.237-2.509S211.641,252.493,211.641,252.493Z" transform="translate(-57.044 -55.348)"/><path class="cc" d="M208.176,252.188a.34.34,0,0,1,.139-.131c.793-.113,1.368.331,1.22.662s-.967,5.592.314,6.969c.653.7,2.4.7,2.483.775-3.484,0-4.129-.723-4.277-1.219A32.425,32.425,0,0,1,208.176,252.188Z" transform="translate(-57.944 -55.374)"/><path class="bs" d="M185.99,249.347l12.317-.732c.714-.976-3.1-5.035-3.815-6.585-3.328-6.281-2.822-9.12-2.822-9.12l10.349-.409s3.188,12.631,4,17.248c1.054,5.9-9.983,1.925-19.713,4.077C186.416,253.058,187.035,250.235,185.99,249.347Z" transform="translate(-32.613 -52.855)"/><path class="ba" d="M197.435,197.689a2.517,2.517,0,0,1,2.387,1.742,1.376,1.376,0,0,1,.078.871,3.563,3.563,0,0,0,.34,1.89c.427,1.089-.3,3-.993,3.937a1.559,1.559,0,0,1-1.568-.3l-.505,1.986-4.434-.993a8.092,8.092,0,0,0-.113-4c-.6-2.413-.436-3.632,1.124-4.486a7.2,7.2,0,0,1,3.685-.618" transform="translate(-32.394 -48.367)"/><path class="ce" d="M201.085,194.24s-1.141.819-4.7,1.167-3.606,2.822-3.092,4.068c-1.037.427,1.342,4.225,1.385,5.723a4.434,4.434,0,0,0,3.571-.322,3.206,3.206,0,0,0,.2-2.526c-.488-1.315.314-2.613.871-2.291.113.078.34,2.178.427,2.2a1.291,1.291,0,0,0,.261,0c.157-.044-.052-.575.087-1.49.07-.436.61-1.368.575-1.612a8.436,8.436,0,0,0-.444-1.281l.767-.148s.871.061.81-.74a7.448,7.448,0,0,0-.706-2.744" transform="translate(-34.477 -47.923)"/><path class="bv" d="M205.238,212.707a15.4,15.4,0,0,0-6.037-3.824,19.771,19.771,0,0,0-4.085-.967,6.289,6.289,0,0,0-5.671,2.561c-.679.871-1.612,3.258-.279,6.568s.967,7.413,1.193,9.077a55.2,55.2,0,0,1-.226,7.84s.122.444,3.092,1.019l1.551.3a17.675,17.675,0,0,0,11.028-1.664c-.436-2.456-1.455-7.8-1.925-10.087s1.359-10.836,1.359-10.836" transform="translate(-34.509 -49.683)"/><path class="ba" d="M169.524,200.441a7.692,7.692,0,0,0,.793-2.152,4.007,4.007,0,0,1,1.01-2.335,20.039,20.039,0,0,1,2.291-1.847c.183-.07.732.087.218.558s-1.246,1.132-1.246,1.524c0,.235,1.254,1.6.706,2.613s-.331.226-1.934,2.718C169.89,202.949,169.524,200.441,169.524,200.441Z" transform="translate(13.766 -47.904)"/><path class="bu" d="M172,211.234s1.08-1.681,4.7-.1a10.645,10.645,0,0,0,7.422.061s3.911-9.2,4.66-9.939c2.613,1.115,3.066,1.3,3.066,1.3s-2.709,9.434-4.2,11.89-7.613,2.692-10.854,2.422S171.1,213.682,172,211.234Z" transform="translate(-6.024 -48.828)"/><g class="cf" transform="translate(156.365 22.143)"><path class="cg" d="M162.12,110.035l37.9-21.882V87.84l-37.9,21.882Z" transform="translate(-162.12 -56.35)"/><path class="cg" d="M162.12,106.045l37.9-21.882V83.85l-37.9,21.882Z" transform="translate(-162.12 -55.836)"/><path class="cg" d="M162.12,102.055l37.9-21.882V79.86l-37.9,21.882Z" transform="translate(-162.12 -55.321)"/><path class="cg" d="M162.12,98.065l37.9-21.882V75.87l-37.9,21.882Z" transform="translate(-162.12 -54.807)"/><path class="cg" d="M162.12,94.075l37.9-21.882V71.88l-37.9,21.882Z" transform="translate(-162.12 -54.293)"/><path class="cg" d="M162.12,90.085l37.9-21.882V67.89l-37.9,21.882Z" transform="translate(-162.12 -53.778)"/><path class="cg" d="M162.12,86.1l37.9-21.882V63.9l-37.9,21.882Z" transform="translate(-162.12 -53.264)"/><path class="cg" d="M162.12,81.865l37.9-21.882V59.67l-37.9,21.882Z" transform="translate(-162.12 -52.719)"/><path class="cg" d="M162.12,77.875l37.9-21.882V55.68l-37.9,21.882Z" transform="translate(-162.12 -52.204)"/><path class="cg" d="M162.12,73.885,200.021,52V51.69l-37.9,21.882Z" transform="translate(-162.12 -51.69)"/></g><path class="ch" d="M163.36,107.213l5.349-26.673,4.669,6.089,4.347-9.748,4.19-2.779,4.26-7.247,3.963,15.3,5.017-9.434L199.9,85.889l.453-.165-5.113-14.2-4.948,9.3L186.348,65.61l-4.791,8.153-4.216,2.787-4.077,9.138L168.439,79.4l-5.549,27.718Z" transform="translate(-6.76 -31.342)"/><path class="ci" d="M163.36,108.354l5.322-24.687,4.669,7.709,4.321-9.425,4.19.505,4.382-7.082L190.19,83.1l4.957-7.535L199.9,87.03l.453-.183-5.113-12.309-5,7.6-3.963-7.753-4.669,7.552-4.225-.514-4.094,8.911-4.826-7.962-5.575,25.871Z" transform="translate(-6.76 -32.474)"/><path class="cj" d="M163.373,109.106l5.383-14.53,4.739.27,4.129-9.608,4.146,4.477,4.582-5.688,3.937,1.733,4.9-4.983L199.95,87.8l.4-.27-5.1-7.509-5.061,5.157-3.972-1.742-4.469,5.54-4.268-4.608-4.286,9.974-4.765-.261L162.92,108.94Z" transform="translate(-6.782 -33.199)"/><path class="ck" d="M163.408,109.718,168.8,100.1l4.765-.549,4.173-9.53,4.138,1.193,4.477-4.364,3.955,3.2,4.991-4.922,4.765,3.31.279-.4-5.1-3.537-4.974,4.9-3.955-3.2-4.573,4.46-4.277-1.228-4.233,9.66-4.739.549-5.505,9.835Z" transform="translate(-6.834 -33.777)"/><path class="ad" d="M162.44,88.546c0,.392.226.714.514.714s.514-.322.514-.714-.235-.706-.514-.706S162.44,88.162,162.44,88.546Z" transform="translate(30.519 -34.207)"/><path class="ad" d="M168.2,85.046c0,.392.226.706.514.706s.514-.314.514-.706-.235-.706-.514-.706S168.2,84.654,168.2,85.046Z" transform="translate(19.742 -33.756)"/><path class="ad" d="M168.2,80.244c0,.392.226.706.514.706s.514-.314.514-.706-.235-.714-.514-.714S168.2,79.852,168.2,80.244Z" transform="translate(19.742 -33.136)"/><path class="ad" d="M168.2,75.1c0,.383.226.706.514.706s.514-.322.514-.706-.235-.714-.514-.714S168.2,74.712,168.2,75.1Z" transform="translate(19.742 -32.474)"/><path class="ad" d="M168.2,72.946c0,.392.226.714.514.714s.514-.322.514-.714-.235-.706-.514-.706S168.2,72.562,168.2,72.946Z" transform="translate(19.742 -32.196)"/><ellipse class="ad" cx="0.514" cy="0.706" rx="0.514" ry="0.706" transform="translate(179.039 34.268)"/><path class="ad" d="M178.64,74.816c0,.392.226.706.514.706s.514-.314.514-.706-.235-.706-.514-.706S178.64,74.424,178.64,74.816Z" transform="translate(0.208 -32.437)"/><path class="ad" d="M178.42,84.234c0,.392.226.706.505.706s.514-.314.514-.706-.226-.714-.514-.714S178.42,83.842,178.42,84.234Z" transform="translate(0.628 -33.651)"/><path class="ad" d="M178.42,86.9c0,.392.226.706.505.706s.514-.314.514-.706-.226-.706-.514-.706S178.42,86.53,178.42,86.9Z" transform="translate(0.628 -33.995)"/><path class="ad" d="M183.66,91.824c0,.383.227.706.514.706s.505-.322.505-.706-.227-.714-.505-.714S183.66,91.432,183.66,91.824Z" transform="translate(-9.176 -34.629)"/><path class="ad" d="M183.66,90.406c0,.392.227.714.514.714s.505-.322.505-.714-.227-.706-.505-.706S183.66,90.014,183.66,90.406Z" transform="translate(-9.176 -34.447)"/><path class="ad" d="M183.66,83.186c0,.392.227.714.514.714s.505-.322.505-.714-.227-.706-.505-.706S183.66,82.8,183.66,83.186Z" transform="translate(-9.176 -33.516)"/><path class="ad" d="M183.66,75.1c0,.383.227.706.514.706s.505-.322.505-.706-.227-.714-.505-.714S183.66,74.712,183.66,75.1Z" transform="translate(-9.176 -32.474)"/><path class="ad" d="M188.51,78.346c0,.392.235.706.514.706s.514-.314.514-.706-.235-.706-.514-.706S188.51,77.954,188.51,78.346Z" transform="translate(-18.26 -32.893)"/><path class="ad" d="M188.51,82.606c0,.392.235.706.514.706s.514-.314.514-.706-.235-.706-.514-.706S188.51,82.214,188.51,82.606Z" transform="translate(-18.26 -33.442)"/><path class="ad" d="M188.51,85.476c0,.392.235.706.514.706s.514-.314.514-.706-.235-.706-.514-.706S188.51,85.084,188.51,85.476Z" transform="translate(-18.26 -33.812)"/><path class="ad" d="M188.51,90.646c0,.392.235.706.514.706s.514-.314.514-.706-.235-.706-.514-.706S188.51,90.254,188.51,90.646Z" transform="translate(-18.26 -34.478)"/><path class="ad" d="M193.4,101.544c0,.383.226.706.514.706s.514-.322.514-.706-.235-.714-.514-.714S193.4,101.152,193.4,101.544Z" transform="translate(-27.41 -35.882)"/><path class="ad" d="M193.4,96.614c0,.392.226.706.514.706s.514-.314.514-.706-.235-.714-.514-.714S193.4,96.222,193.4,96.614Z" transform="translate(-27.41 -35.246)"/><path class="ad" d="M193.4,92.966c0,.392.226.706.514.706s.514-.314.514-.706-.235-.706-.514-.706S193.4,92.574,193.4,92.966Z" transform="translate(-27.41 -34.777)"/><path class="ad" d="M193.4,89.024c0,.383.226.706.514.706s.514-.322.514-.706-.235-.714-.514-.714S193.4,88.632,193.4,89.024Z" transform="translate(-27.41 -34.268)"/><path class="ad" d="M198.82,81.9c0,.392.235.714.514.714s.514-.322.514-.714-.226-.706-.514-.706S198.82,81.477,198.82,81.9Z" transform="translate(-37.551 -33.35)"/><path class="ad" d="M198.82,84c0,.383.235.706.514.706s.514-.322.514-.706-.226-.714-.514-.714S198.82,83.612,198.82,84Z" transform="translate(-37.551 -33.621)"/><path class="ad" d="M198.82,96.486c0,.392.235.706.514.706s.514-.314.514-.706-.226-.706-.514-.706S198.82,96.094,198.82,96.486Z" transform="translate(-37.551 -35.231)"/><path class="ad" d="M198.82,102.056c0,.392.235.706.514.706s.514-.314.514-.706-.226-.706-.514-.706S198.82,101.664,198.82,102.056Z" transform="translate(-37.551 -35.949)"/><path class="ad" d="M205.04,113.024c0,.383.235.706.514.706s.514-.322.514-.706-.226-.714-.514-.714S205.04,112.632,205.04,113.024Z" transform="translate(-49.189 -37.362)"/><path class="ad" d="M174.03,86c0,.392.226.706.514.706s.514-.314.514-.706-.226-.714-.514-.714S174.03,85.612,174.03,86Z" transform="translate(8.833 -33.879)"/><path class="ad" d="M173.83,83.894c0,.383.226.706.505.706s.514-.322.514-.706-.226-.714-.514-.714S173.83,83.467,173.83,83.894Z" transform="translate(9.216 -33.607)"/><path class="ad" d="M173.83,90.2c0,.392.226.706.505.706s.514-.314.514-.706-.226-.706-.514-.706S173.83,89.8,173.83,90.2Z" transform="translate(9.216 -34.42)"/><path class="ba" d="M179.157,60.844s-1.063-.462-1.28-1a3.048,3.048,0,0,0-.479-.984c-.287-.357-.7-1.054-1.106-1.263s-.392.505-.183.714a1.664,1.664,0,0,1,.314.7,12.9,12.9,0,0,0-2.692-1.22c-.54,0-.1.54,0,.584-.584-.235-.758-.1-.81-.078s-.078.357.3.531c-.2-.139-.662.1.27.784-.479-.287-.523.174-.183.47a5.679,5.679,0,0,0,2.883,1.594,5.41,5.41,0,0,1,2.2.662Z" transform="translate(5.728 -30.304)"/><path class="cl" d="M151.09,59.336s9.739,3.075,10.514,4.12c.749.871,6.211-10.453,7.457-10.976s3.293,2.186,1.951,5.671c-2.674,6.847-8.45,10.592-9.7,9.965L149.7,62.306A5.958,5.958,0,0,1,151.09,59.336Z" transform="translate(33.638 -29.641)"/><path class="cm" d="M152.631,119.717s-.331.627-.793,1.324-1.742.706-2.021,1.08a3.719,3.719,0,0,0-.253,1.585,5.044,5.044,0,0,0,3.171-.531c1.481-.871,2.753-1.481,2.753-1.481a11.739,11.739,0,0,0-.122-1.916C155.244,119.491,152.631,119.717,152.631,119.717Z" transform="translate(49.719 -38.306)"/><path class="cn" d="M152.731,123.021c1.463-.871,2.718-1.463,2.753-1.481v.4s-1.272.618-2.753,1.481a5.044,5.044,0,0,1-3.171.531v-.392A5.131,5.131,0,0,0,152.731,123.021Z" transform="translate(49.723 -38.552)"/><path class="co" d="M153.158,82.81s-3.2,10.767-3.484,13.563.627,11.995-.793,18.606c-1.943.993-2.657.531-2.657.531l-.34-.871s-1.341-14.9-1.272-18.38.636-13.284.636-13.284Z" transform="translate(56.361 -33.559)"/><path class="cm" d="M146.264,122.071s-.322.636-.767,1.341-1.742,1.211-2.047,1.585a3.746,3.746,0,0,0-.218,1.594,6.1,6.1,0,0,0,3.484-.636,12.362,12.362,0,0,0,2.456-1.977,12.323,12.323,0,0,0-.157-1.908C148.877,121.784,146.264,122.071,146.264,122.071Z" transform="translate(61.557 -38.604)"/><path class="cn" d="M143.225,126.316a6.176,6.176,0,0,0,3.484-.636,12.26,12.26,0,0,0,2.439-1.96v.488a12.364,12.364,0,0,1-2.457,1.977,6.1,6.1,0,0,1-3.484.636,4.474,4.474,0,0,1,0-.531Z" transform="translate(61.598 -38.833)"/><path class="cp" d="M147.424,85s-2.962,10.871-3.223,13.676,1.132,12.2-.148,18.842c-1.916,1.037-2.727.8-2.727.8l-.671-.8s-1.507-15.4-1.516-18.877.383-13.319.383-13.319Z" transform="translate(66.859 -33.841)"/><path class="cq" d="M143.7,50.148s5.775,1.742,7.727,5.819-.575,9.382-.514,10.706-.235,14.948-.235,14.948l-10.366.192-1.1-2.483-1.385,1.855-2.23-2.091s.871-12.2.679-14.809-1.272-9.234.984-12.413A16.816,16.816,0,0,1,143.7,50.148Z" transform="translate(65.2 -29.347)"/><path class="ca" d="M146.895,50.888s2.23,1.812,2,3.023-7.648,7.544-7.936,9.329c-1.324-2.535.366-10.131,1.132-11.568S146.895,50.888,146.895,50.888Z" transform="translate(64.21 -29.425)"/><path class="cr" d="M146.454,47.08l.375,4.26-3.659,2.413-.723-.976-.287-2.361Z" transform="translate(64.824 -28.953)"/><path class="ba" d="M141.925,42.765s-1.08,6.507,2.265,8.066c1.376.287,4.3-1.62,4.242-3.746,1.159-.235,1.159-2.422.575-2.883s-.8.749-.8.749.549-2.936-1.185-2.962a28.351,28.351,0,0,0-5.1.775Z" transform="translate(62.611 -28.297)"/><path class="cs" d="M146.824,42.46s-2.709,1.446-4.146,1.211a2.317,2.317,0,0,1-2.134-1.742c-.226-.784,4.53-6.969,8.415-2.4,1.742.584,1.22,6.507-.627,7.483a3.4,3.4,0,0,0-.087-.54,2.343,2.343,0,0,0,.505-1.524c-.087-.819-.287-1.063-.462-1.08s-.531.592-.584.871a3.264,3.264,0,0,0,0,.706l-.427.07a4.487,4.487,0,0,0-.122-1.01C147.068,44.263,146.336,43.026,146.824,42.46Z" transform="translate(63.043 -27.765)"/><path class="ct" d="M149,54.75l.653,1.315-.81.523-.871,4.582-1.812,2.613a5.226,5.226,0,0,1-.488-3.171c1.315-2.213,2.3-4.146,2.3-4.146l-.209-1.063Z" transform="translate(58.991 -29.942)"/><path class="ba" d="M142.077,86.16l2.247.74s-1.089,1.359-.932,1.986a2.265,2.265,0,0,1-.253,1.594l-2.3-2.944A4.041,4.041,0,0,0,142.077,86.16Z" transform="translate(68.478 -33.991)"/><path class="cl" d="M132.614,82.793s4.033-10.531,5.227-11.42c1.028-.819-1.411-9.234-1.934-10.636s1.289-6.7,3.754-3.432,3.606,14.312,2.883,15.68S135.3,84.779,135.3,84.779A11.639,11.639,0,0,1,132.614,82.793Z" transform="translate(77.21 -30.136)"/><path class="cu" d="M122.75,287.958c0,6.342,8.807,11.49,19.661,11.49s19.661-5.148,19.661-11.49-8.8-11.5-19.661-11.5S122.75,281.608,122.75,287.958Z" transform="translate(66.49 -58.522)"/><path class="cv" d="M138,277.71c0,6.35,8.8,11.49,19.652,11.49s19.7-5.139,19.7-11.49-8.8-11.49-19.661-11.49S138,271.368,138,277.71Z" transform="translate(37.93 -57.202)"/><path class="cw" d="M135.122,287.916c-.34-.157-.662-.322-.976-.5a9.385,9.385,0,0,1-.871-.566,9.78,9.78,0,0,1,0-1.01c.793-.784,1.794-.714,1.516-1.037s-2.134-.418-3.763-.514a4.076,4.076,0,0,1-.392-1.455v-1.01c1.472-.383,3.2.226,3.293-.148s-1.315-1.045-2.526-1.681v-1.01a15.915,15.915,0,0,0,5.017-.131c.488-.287,0-1.307-.3-2.23v-1.01a17.289,17.289,0,0,0,5.227,1.8c.653-.061,1.324-1.045,1.995-1.9a20.439,20.439,0,0,1,2.535.227c.166.941.279,1.995.871,2.169s2.117-.4,3.545-.871c.331.148,1.533-.131,1.847.052v1.01c-.819.819-1.812,1.742-1.516,2.047s2.413.505,4.042.61c.226.479.07.871.1,1.368-1.49.383-3.188.767-3.293,1.15s1.385.078,2.535.671v1.01a6.684,6.684,0,0,1-1.159,1.315c-1.594-.192-3.38-.462-3.868-.174s0,.366.314,1.22v1.01a15.275,15.275,0,0,1-2.282.662c-1.1-.7-2.256-1.516-2.918-1.455s-1.324,1.037-1.995,1.9a18.663,18.663,0,0,1-2.526-.227c-.174-.932-.287-1.995-.871-2.169S136.542,287.445,135.122,287.916ZM146.9,284.91c2.335-1.341,2.335-3.484,0-4.861a9.338,9.338,0,0,0-8.432,0c-2.326,1.342-2.317,3.484,0,4.861A9.3,9.3,0,0,0,146.9,284.91Z" transform="translate(66.905 -58.401)"/><path class="cx" d="M135.186,286.764c-.34-.157-.662-.322-.976-.505a9.4,9.4,0,0,1-.871-.566c.81-.819,1.812-1.742,1.516-2.047s-2.134-.409-3.763-.514a4.076,4.076,0,0,1-.392-1.455c1.49-.392,3.188-.775,3.293-1.159s-1.315-1.045-2.526-1.681a6.621,6.621,0,0,1,1.15-1.315c1.6.2,3.38.462,3.868.183s0-1.315-.3-2.239a17.15,17.15,0,0,1,2.274-.662c1.1.706,2.256,1.516,2.918,1.463s1.324-1.045,1.995-1.908a20.444,20.444,0,0,1,2.535.226c.165.941.279,1.995.871,2.169s2.117-.4,3.545-.871c.331.157.662.322.976.505a9.361,9.361,0,0,1,.871.558c-.819.819-1.812,1.742-1.516,2.047s2.125.418,3.754.514a4.12,4.12,0,0,1,.392,1.463c-1.49.383-3.188.767-3.293,1.15s1.315,1.054,2.535,1.681a6.447,6.447,0,0,1-1.159,1.315c-1.594-.192-3.38-.453-3.868-.174s0,1.307.314,2.23a16.406,16.406,0,0,1-2.282.671c-1.1-.706-2.256-1.524-2.918-1.463s-1.324,1.045-1.995,1.908a20.172,20.172,0,0,1-2.526-.235c-.174-.932-.287-1.995-.871-2.169S136.606,286.285,135.186,286.764Zm11.777-3.014c2.335-1.341,2.335-3.484,0-4.861a9.338,9.338,0,0,0-8.432,0c-2.326,1.341-2.317,3.484,0,4.861a9.251,9.251,0,0,0,8.432,0Z" transform="translate(66.841 -58.252)"/><path class="cw" d="M156.235,277.124c-.209-.1-.409-.2-.61-.314s-.375-.226-.549-.348v-.932c.5-.5,1.132-.157.949-.357a6.587,6.587,0,0,0-2.352-.322,2.509,2.509,0,0,1-.244-.915V273c.915-.235,2,.444,2.064.209s-.828-.653-1.585-1.054v-.932a13.061,13.061,0,0,0,3.145.218c.3-.174,0-.819-.192-1.4v-.932a12.918,12.918,0,0,0,3.258,1.437c.409-.044.871-.662,1.254-1.193a10.714,10.714,0,0,1,1.585.139c.1.584.174,1.246.557,1.359a6.41,6.41,0,0,0,2.221-.549c.209.1.967-.375,1.159-.261v.932c-.514.514-1.132,1.071-.949,1.281a8.865,8.865,0,0,0,2.613.313v.923c-.932.244-2,.488-2.073.732s.871-.253,1.594.122v.932a4.438,4.438,0,0,1-.723.819,7.839,7.839,0,0,0-2.43-.1c-.087,0,0-.07.192.462v.932a9.365,9.365,0,0,1-1.429.418c-.688-.436-1.411-.95-1.821-.871s-.871.653-1.254,1.193a11.919,11.919,0,0,1-1.585-.139c-.113-.592-.183-1.254-.557-1.368a6.709,6.709,0,0,0-2.239.505Zm7.4-1.882c1.463-.871,1.463-2.213,0-3.049a5.828,5.828,0,0,0-5.288,0c-1.455.871-1.455,2.2,0,3.049a5.81,5.81,0,0,0,5.288,0Z" transform="translate(33.275 -57.575)"/><path class="cx" d="M156.245,276.1l-.61-.322c-.192-.113-.375-.226-.549-.348.514-.514,1.141-1.072.949-1.289a6.8,6.8,0,0,0-2.352-.322,2.465,2.465,0,0,1-.244-.915c.932-.235,1.995-.479,2.064-.723s-.827-.653-1.585-1.054a3.7,3.7,0,0,1,.723-.819,6.849,6.849,0,0,0,2.422.1c.3-.174,0-.819-.192-1.4a11.863,11.863,0,0,1,1.429-.418c.688.444,1.42.958,1.829.923s.871-.653,1.254-1.193a13.738,13.738,0,0,1,1.585.139c.1.592.174,1.254.557,1.359a6.218,6.218,0,0,0,2.221-.549c.209.1.418.209.61.322a5.421,5.421,0,0,1,.549.348c-.514.514-1.132,1.071-.949,1.28a6.687,6.687,0,0,0,2.361.322,2.745,2.745,0,0,1,.244.923c-.932.235-2,.479-2.073.723s.828.653,1.594,1.054a4.776,4.776,0,0,1-.723.828,6.751,6.751,0,0,0-2.43-.113c-.3.174,0,.819.192,1.394a9.344,9.344,0,0,1-1.4.4c-.688-.436-1.411-.949-1.821-.871s-.871.653-1.254,1.193a11.913,11.913,0,0,1-1.585-.139c-.113-.592-.183-1.254-.558-1.359A6.291,6.291,0,0,0,156.245,276.1Zm7.4-1.89c1.463-.871,1.463-2.2,0-3.049a5.828,5.828,0,0,0-5.287,0c-1.455.871-1.455,2.2,0,3.049A5.81,5.81,0,0,0,163.64,274.209Z" transform="translate(33.265 -57.473)"/><path class="cy" d="M63.17,265.664v-2.988H64.5a8,8,0,0,1,1.8-1.385,16.738,16.738,0,0,1,15.166,0,7.843,7.843,0,0,1,1.8,1.385h1.333v2.988c0,1.585-1.045,3.171-3.136,4.355a16.791,16.791,0,0,1-15.166,0C64.215,268.835,63.17,267.249,63.17,265.664Z" transform="translate(195.853 -56.333)"/><path class="cz" d="M66.312,266.616a16.791,16.791,0,0,0,15.166,0c4.19-2.413,4.181-6.342,0-8.754a16.764,16.764,0,0,0-15.166,0C62.122,260.283,62.113,264.195,66.312,266.616Z" transform="translate(195.847 -55.891)"/><path class="s" d="M64.057,202.845c1.246-6.9,9.843-26.255,9.843-26.255s8.563,19.364,9.808,26.255c2.143,11.855,0,48.18,0,48.18h0c0,1.446-.958,2.9-2.883,4.007a15.314,15.314,0,0,1-13.937,0c-1.925-1.106-2.883-2.57-2.883-4.024C64.013,250.38,61.923,214.6,64.057,202.845Z" transform="translate(195.863 -45.648)"/><path class="w" d="M64.158,203.995q.087-.6.183-1.15c1.254-6.9,9.852-26.255,9.852-26.255S82.756,195.954,84,202.845c.061.357.122.74.183,1.141s.1.758.139,1.15c-.052,1.463-1.037,2.9-2.962,4.016a15.906,15.906,0,0,1-14.382,0c-1.925-1.115-2.909-2.561-2.97-4.016C64.062,204.735,64.106,204.36,64.158,203.995Z" transform="translate(195.405 -45.648)"/><path class="y" d="M84.588,275.052l11.638-35.314L95.2,239.12l-9.991,10.235L83.56,274.434Z" transform="translate(166.473 -53.709)"/><path class="w" d="M95.2,263.027v-23.2l-9.983,10.244-1.655,25.07Z" transform="translate(167.501 -53.8)"/><path class="y" d="M63.988,275.052,52.35,239.739l1.028-.619,9.991,10.235,1.655,25.079Z" transform="translate(224.861 -53.709)"/><path class="w" d="M53.54,263.027v-23.2l9.983,10.244,1.655,25.07Z" transform="translate(223.671 -53.8)"/><rect class="cz" width="5.166" height="16.072" transform="translate(267.438 192.336)"/><rect class="cz" width="5.166" height="17.622" transform="translate(267.438 170.995)"/></g></g></g></svg>