<svg xmlns="http://www.w3.org/2000/svg" width="254.694" height="250.069" viewBox="0 0 254.694 250.069"><defs><style>.a{fill:#e3e3e3;}.b{fill:#e0e0e0;}.c{fill:#263238;}.d{fill:#455a64;}.e{fill:#37474f;}.f,.l,.u{fill:none;}.f,.u{stroke:#37474f;}.f{stroke-miterlimit:10;stroke-width:6px;}.g{fill:#27debf;}.h{opacity:0.1;}.i{opacity:0.15;}.j,.o,.v,.w,.x{fill:#fff;}.j{opacity:0.7;}.k{fill:#f0f0f0;}.l{stroke:#fafafa;stroke-width:1.5px;}.l,.u{stroke-linecap:round;stroke-linejoin:round;}.m{opacity:0.35;}.n{fill:#e6e6e6;}.p{opacity:0.22;}.q{fill:#a66868;}.r{fill:#854848;}.s{fill:#ffa8a7;}.t{fill:#f28f8f;}.v{opacity:0.8;}.w{opacity:0.6;}.x{opacity:0.5;}</style></defs><g transform="translate(0 -0.009)"><g transform="translate(0 103.028)"><path class="a" d="M127.347,0c70.332,0,127.347,32.918,127.347,73.525S197.679,147.05,127.347,147.05,0,114.131,0,73.525,57.015,0,127.347,0Z"/></g><g transform="translate(45.924 120.481)"><path class="b" d="M304.494,362.3l23.755,13.805a3.135,3.135,0,0,0,2.84,0l34.867-20.1a.864.864,0,0,0,0-1.638l-23.782-13.761a3.123,3.123,0,0,0-2.834,0l-34.846,20.058C303.686,361.118,303.681,361.85,304.494,362.3Z" transform="translate(-183.862 -274.93)"/><path class="b" d="M84.415,324.887l.852.491a1.677,1.677,0,0,0,1.507-.016l138.3-79.827a.459.459,0,0,0,0-.874l-.852-.491a1.688,1.688,0,0,0-1.518,0L84.415,324.013a.459.459,0,0,0,0,.874Z" transform="translate(-84.096 -231.228)"/><path class="b" d="M374.807,242.048l1.141-1.365L341.2,220.62l-2.354,1.36,12.347,7.126-11.855,6.842-12.445-7.186-2.354,1.354,35.566,20.533.377-.442.186.1,13.641-7.858.109.06.2-.24.289-.164Z" transform="translate(-193.237 -220.62)"/><ellipse class="b" cx="8.344" cy="4.816" rx="8.344" ry="4.816" transform="translate(170.916 51.512)"/></g><g transform="translate(8.081 65.395)"><path class="c" d="M44.834,125.722h0a.546.546,0,0,0-.612.06l-2.949,1.939a.852.852,0,0,1-1.185-.268,7.318,7.318,0,0,0-.546-.7,1.469,1.469,0,0,1-.349-1.4l4.658-2.965-3.5-2.021h0a.819.819,0,0,0-.235-.1l-2.223-.5a1.212,1.212,0,0,0-1.261.584l-2.064,3.992a2.184,2.184,0,0,1-1.261.95l-.131.038a4.948,4.948,0,0,0,.186-.928l-3.511-2.026h0a.584.584,0,0,0-.661.087l-3.331,2.621a1.9,1.9,0,0,0-.633,1.414l.2,3.173a2.561,2.561,0,0,1-.519,1.535q-.819.983-1.551,2.048a1.731,1.731,0,0,1-1.349.694l-2.184-.1a1.365,1.365,0,0,0-1.229.754l-2.015,4.516a.863.863,0,0,0,.344,1.092h0l2.375,1.371a1.038,1.038,0,0,1,.055.617,20.647,20.647,0,0,0-.371,2.152,2.676,2.676,0,0,1-.721,1.464l-2.954,2.73a1.791,1.791,0,0,0-.5,1.453l.546,3.222a.628.628,0,0,0,.268.437h0l3.522,2.031.044-4.03a.852.852,0,0,1,1.185.268,5.687,5.687,0,0,0,.579.7,1.452,1.452,0,0,1,.344,1.4l-1.474,4.085a.737.737,0,0,0,.295.9h0l3.528,2L24.6,158.4l1.36-3.38a2.184,2.184,0,0,1,1.267-.95,10.251,10.251,0,0,0,1.365-.453.759.759,0,0,1,1.054.481l.754,2.5a.633.633,0,0,0,.284.388h0l3.528,2.037-.617-3.9,1.092-.846a1.857,1.857,0,0,0,.633-1.414l-.2-3.173a2.49,2.49,0,0,1,.546-1.534c.546-.65,1.371-1,1.857-1.709.273-.4.546-1.048,1.048-1.027l2.141.109a1.382,1.382,0,0,0,1.229-.759l2.015-4.516a.863.863,0,0,0-.448-1.141l-1.731-.737a1.092,1.092,0,0,1-.661-1.19,20.5,20.5,0,0,0,.371-2.157,2.7,2.7,0,0,1,.721-1.485l2.954-2.73a1.824,1.824,0,0,0,.491-1.01L48.34,127.7ZM31.422,146.55c-3.61,2.84-7.066,2.07-7.722-1.726s2.3-8.617,5.914-11.468,6.515-2.621,7.165,1.169S35.037,143.71,31.422,146.55Z" transform="translate(-14.799 -119.745)"/><path class="d" d="M18.3,167.52l-2.922,2.687a1.693,1.693,0,0,0-.448.841l4.336,2.5v-.229a.852.852,0,0,1,1.185.268h0l4.178-2.414Z" transform="translate(-14.858 -141.431)"/><path class="d" d="M29.119,149.4a15.463,15.463,0,0,1,1.092-1.485l-4.161-2.4a1.49,1.49,0,0,1-.612.131l-2.173-.1a1.343,1.343,0,0,0-.885.322l6.406,3.7Z" transform="translate(-18.24 -131.44)"/><path class="d" d="M71.46,132.66a.546.546,0,0,0-.6.071L67.9,134.669a.852.852,0,0,1-1.18-.268,6.217,6.217,0,0,0-.579-.7,1.458,1.458,0,0,1-.344-1.409l.279-.748,1.267-.835a.546.546,0,0,1,.612-.06h0Z" transform="translate(-37.924 -124.662)"/><path class="d" d="M55.651,126.874a1.051,1.051,0,0,1-.1-.12,1.469,1.469,0,0,1-.349-1.4l4.685-2.971-3.5-2.021h0a.819.819,0,0,0-.235-.1l-2.223-.5a1.212,1.212,0,0,0-1.261.584l-2.064,3.992a1.808,1.808,0,0,1-.475.546l4.724,2.73Z" transform="translate(-30.836 -119.745)"/><path class="d" d="M34,128.085l4.369,2.507,3.566-3.276a5.462,5.462,0,0,0,.147-.8l-3.511-2.026h0a.584.584,0,0,0-.661.087l-3.331,2.621A1.818,1.818,0,0,0,34,128.085Z" transform="translate(-23.515 -121.868)"/><path class="e" d="M52.07,133.1l-.546-3.222a.546.546,0,0,0-.879-.377l-2.954,1.939a.846.846,0,0,1-1.18-.268,6.623,6.623,0,0,0-.579-.7,1.453,1.453,0,0,1-.344-1.4l1.5-4.074a.743.743,0,0,0-.546-1.01l-2.228-.5a1.207,1.207,0,0,0-1.256.584l-2.092,3.986a2.223,2.223,0,0,1-1.267.95,10.31,10.31,0,0,0-1.371.453.759.759,0,0,1-1.048-.481l-.759-2.49a.546.546,0,0,0-.939-.3l-3.331,2.621a1.857,1.857,0,0,0-.633,1.414l.2,3.173a2.49,2.49,0,0,1-.546,1.535,24.8,24.8,0,0,0-1.545,2.048,1.731,1.731,0,0,1-1.36.688l-2.141-.109a1.382,1.382,0,0,0-1.229.759l-2.015,4.516a.852.852,0,0,0,.448,1.141l1.731.737a1.092,1.092,0,0,1,.6,1.2,19.3,19.3,0,0,0-.371,2.152,2.665,2.665,0,0,1-.726,1.464l-2.949,2.73a1.8,1.8,0,0,0-.5,1.458l.546,3.222a.546.546,0,0,0,.879.377l2.949-1.939a.852.852,0,0,1,1.185.268,6.552,6.552,0,0,0,.573.7,1.452,1.452,0,0,1,.344,1.4l-1.5,4.068a.748.748,0,0,0,.546,1.016l2.223.5a1.212,1.212,0,0,0,1.261-.584l2.091-3.986a2.184,2.184,0,0,1,1.261-.95,10.3,10.3,0,0,0,1.371-.453.759.759,0,0,1,1.054.481l.748,2.5a.546.546,0,0,0,.939.3l3.337-2.621a1.9,1.9,0,0,0,.633-1.414l-.2-3.173a2.523,2.523,0,0,1,.546-1.535c.546-.65,1.065-1.338,1.551-2.048a1.731,1.731,0,0,1,1.354-.688l2.141.109a1.382,1.382,0,0,0,1.234-.759l2.031-4.538a.857.857,0,0,0-.448-1.141l-1.731-.737a1.092,1.092,0,0,1-.6-1.2,20.647,20.647,0,0,0,.371-2.152,2.7,2.7,0,0,1,.721-1.463l2.954-2.73a1.8,1.8,0,0,0,.491-1.442ZM37.839,150.264c-3.615,2.84-7.1,2.064-7.727-1.726s1.747-9.174,5.363-12.014,7.066-2.07,7.722,1.726S41.448,147.425,37.839,150.264Z" transform="translate(-17.704 -121.434)"/><path class="c" d="M79.27,188.111l-3.451-1.988h0a.584.584,0,0,0-.546,0l-6.242,2.812a.743.743,0,0,1-1.038-.481,13.843,13.843,0,0,0-1.393-3.1,1.715,1.715,0,0,1-.093-1.513l4.161-8.388a.95.95,0,0,0-.371-1.223l-4.516-2.6a.945.945,0,0,0-1.24.289l-5.188,7.8a1.726,1.726,0,0,1-1.354.677,12.81,12.81,0,0,0-1.813.082v-5.69l-3.462-2h0a.546.546,0,0,0-.546.055l-7.05,4.046a1.884,1.884,0,0,0-.836,1.311l-.7,7.8a2.6,2.6,0,0,1-.726,1.453,43.1,43.1,0,0,0-3.9,4.123,1.332,1.332,0,0,1-1.376.393L33.115,190.4a1.092,1.092,0,0,0-1.267.47L26.693,199.8a1.092,1.092,0,0,0,.229,1.327l3.61,3.113a1.349,1.349,0,0,1,.349,1.392,42.454,42.454,0,0,0-1.638,5.434,2.61,2.61,0,0,1-.9,1.36l-6.406,4.511a1.878,1.878,0,0,0-.715,1.376v8.077a.546.546,0,0,0,.246.519h0l3.451,2.015,5.128-2.425a12.957,12.957,0,0,0,.639,1.19,1.715,1.715,0,0,1,.093,1.513l-4.156,8.388a.939.939,0,0,0,.366,1.223l4.516,2.6a.945.945,0,0,0,1.24-.289l5.188-7.8a1.726,1.726,0,0,1,1.354-.677,13.9,13.9,0,0,0,3.38-.339.737.737,0,0,1,.934.655l.683,6.815a.573.573,0,0,0,.273.475h0l3.451,1.988,4.139-6.083a1.884,1.884,0,0,0,.836-1.311l.7-7.8a1.567,1.567,0,0,1,.9-1.18,16.508,16.508,0,0,0,5.461-3.823,1.414,1.414,0,0,1,1.393-.377l2.763.977a1.092,1.092,0,0,0,1.267-.47l5.15-8.9a1.092,1.092,0,0,0-.229-1.327l-2.37-2.048a1.458,1.458,0,0,1-.388-1.4,23.367,23.367,0,0,0,.644-6.471,1.8,1.8,0,0,1,.672-1.376l6.406-4.511a1.879,1.879,0,0,0,.715-1.376l3.064-3.67ZM48.652,220.2c-6.553,3.779-10.61,1.092-10.61-6.455s5.406-16.809,11.954-20.587,10.5-1.027,10.5,6.553S55.194,216.431,48.652,220.2Z" transform="translate(-17.715 -143.242)"/><path class="d" d="M100.7,178.252l1.376-2.774a.95.95,0,0,0-.371-1.223l-4.516-2.6a.945.945,0,0,0-1.24.289l-5.188,7.8a1.338,1.338,0,0,1-.344.333l5.8,3.347Z" transform="translate(-49.125 -143.251)"/><path class="d" d="M29.093,245.47a2.277,2.277,0,0,1-.491.546L22.2,250.527a1.6,1.6,0,0,0-.426.481l3.91,2.261,8.508-4.838Z" transform="translate(-17.963 -176.814)"/><path class="d" d="M37.176,206a1.092,1.092,0,0,0-.907.546l-5.155,8.928a1.092,1.092,0,0,0-.12.628l4.445,2.567,7.055-9.546Z" transform="translate(-22.148 -158.898)"/><path class="d" d="M63.75,178.757l5.5,3.173,6.242-3.6v-2.517l-3.462-2h0a.546.546,0,0,0-.546.055l-7.05,4.046A1.862,1.862,0,0,0,63.75,178.757Z" transform="translate(-37.019 -144.264)"/><path class="e" d="M82.39,198.394v-8.1a.546.546,0,0,0-.8-.513L75.351,192.6a.748.748,0,0,1-1.043-.481,14.083,14.083,0,0,0-1.387-3.1,1.72,1.72,0,0,1-.1-1.513l4.161-8.388a.95.95,0,0,0-.366-1.223l-4.516-2.6a.95.95,0,0,0-1.245.289l-5.193,7.8a1.726,1.726,0,0,1-1.36.677,14.127,14.127,0,0,0-3.375.339.737.737,0,0,1-.934-.655l-.688-6.815a.546.546,0,0,0-.841-.431l-7.012,4.046a1.9,1.9,0,0,0-.841,1.311l-.7,7.8a2.588,2.588,0,0,1-.732,1.453,42.482,42.482,0,0,0-3.894,4.128,1.343,1.343,0,0,1-1.376.388l-4.505-1.573a1.092,1.092,0,0,0-1.261.47l-5.155,8.956a1.092,1.092,0,0,0,.224,1.332l3.615,3.113a1.338,1.338,0,0,1,.35,1.387,41.593,41.593,0,0,0-1.638,5.461,2.6,2.6,0,0,1-.9,1.36l-6.406,4.511a1.9,1.9,0,0,0-.715,1.376v8.1a.546.546,0,0,0,.8.513l6.242-2.812a.748.748,0,0,1,1.043.481,13.97,13.97,0,0,0,1.4,3.031,1.72,1.72,0,0,1,.1,1.513l-4.161,8.388a.945.945,0,0,0,.371,1.223l4.511,2.6a.95.95,0,0,0,1.245-.289l5.182-7.8a1.709,1.709,0,0,1,1.36-.672,14.146,14.146,0,0,0,3.375-.344.737.737,0,0,1,.934.661l.688,6.81a.546.546,0,0,0,.846.431l7.012-4.046a1.906,1.906,0,0,0,.836-1.311L60,230.7a2.61,2.61,0,0,1,.732-1.453,42.42,42.42,0,0,0,3.894-4.123A1.349,1.349,0,0,1,66,224.732l4.505,1.573a1.092,1.092,0,0,0,1.261-.47l5.161-8.928a1.092,1.092,0,0,0-.224-1.327l-3.615-3.113a1.349,1.349,0,0,1-.349-1.393,42.221,42.221,0,0,0,1.638-5.434,2.583,2.583,0,0,1,.9-1.36l6.406-4.511a1.9,1.9,0,0,0,.71-1.376ZM54.96,223.858c-6.553,3.773-11.85.71-11.85-6.842s5.3-16.743,11.85-20.516,11.845-.715,11.845,6.837S61.5,220.079,54.96,223.858Z" transform="translate(-20.573 -144.903)"/><path class="d" d="M120.285,200.217h0a.546.546,0,0,0-.546,0l-6.242,2.812a.743.743,0,0,1-1.038-.481,13.65,13.65,0,0,0-.89-2.184l4.724-2.13a.589.589,0,0,1,.546,0h0Z" transform="translate(-58.725 -155.342)"/></g><g transform="translate(177.058 58.366)"><path class="e" d="M372.264,123.923l-19.506,53.09h0a.694.694,0,0,1-.344.371,1.955,1.955,0,0,1-1.775,0,.683.683,0,0,1-.366-.437.334.334,0,0,1,0-.147,1.242,1.242,0,0,1,.071-.36L369.9,123.054a1.256,1.256,0,1,1,2.359.863Z" transform="translate(-336.049 -113.843)"/><line class="f" x2="19.566" y2="11.293" transform="translate(10.139 46.607)"/><line class="f" x2="19.561" y2="11.293" transform="translate(24.37 38.394)"/><path class="d" d="M361.41,113.3l10.43-6.007a2.883,2.883,0,0,1,2.616-.2,2.85,2.85,0,0,1,1.6,2.075l17.316,81.022a.6.6,0,0,1,0,.169.628.628,0,0,1,0,.175.655.655,0,0,1-.36.431,1.966,1.966,0,0,1-1.78,0,.743.743,0,0,1-.344-.377.17.17,0,0,1,0-.071l-17.294-80.848a.47.47,0,0,0-.158-.306.453.453,0,0,0-.333.087l-10.436,6.007" transform="translate(-341.108 -106.873)"/><path class="g" d="M387.006,248.781l-6.324-3.67a.83.83,0,0,1-.382-.655V244.3a.83.83,0,0,1,.382-.655l15.247-8.8a.836.836,0,0,1,.754,0l6.356,3.67a.846.846,0,0,1,.382.655v.153a.847.847,0,0,1-.382.655l-15.258,8.8A.846.846,0,0,1,387.006,248.781Z" transform="translate(-349.682 -164.921)"/><path class="h" d="M380.365,251.56a.754.754,0,0,0-.115.371v.153a.83.83,0,0,0,.382.655l6.351,3.67a.809.809,0,0,0,.382.093v-.879Z" transform="translate(-349.66 -172.549)"/><path class="i" d="M393.28,251.374v.9a.77.77,0,0,0,.377-.093l7.645-4.4,7.645-4.4a.846.846,0,0,0,.382-.655v-.153a.753.753,0,0,0-.115-.371Z" transform="translate(-355.574 -168.3)"/><path class="g" d="M381.943,225.191l-6.357-3.67a.841.841,0,0,1-.377-.655v-.153a.842.842,0,0,1,.377-.655l15.247-8.8a.846.846,0,0,1,.759,0l6.356,3.67a.841.841,0,0,1,.377.655v.153a.841.841,0,0,1-.377.655l-15.247,8.8A.846.846,0,0,1,381.943,225.191Z" transform="translate(-347.372 -154.213)"/><path class="h" d="M375.319,228a.787.787,0,0,0-.109.371v.153a.841.841,0,0,0,.377.655l6.356,3.67a.77.77,0,0,0,.377.087v-.9Z" transform="translate(-347.372 -161.854)"/><path class="i" d="M388.23,227.74v.89a.792.792,0,0,0,.382-.087l7.645-4.4,7.645-4.4a.841.841,0,0,0,.377-.655v-.153a.786.786,0,0,0-.109-.371Z" transform="translate(-353.282 -157.57)"/><path class="g" d="M376.893,201.591l-6.351-3.664a.841.841,0,0,1-.382-.661v-.147a.83.83,0,0,1,.382-.661l15.241-8.8a.847.847,0,0,1,.759,0l6.356,3.67a.841.841,0,0,1,.377.661v.147a.852.852,0,0,1-.377.661l-15.247,8.8A.814.814,0,0,1,376.893,201.591Z" transform="translate(-345.08 -143.501)"/><path class="h" d="M370.275,204.37a.759.759,0,0,0-.115.377v.147a.841.841,0,0,0,.382.661l3.173,1.829,3.178,1.835a.791.791,0,0,0,.382.093v-.9Z" transform="translate(-345.08 -151.128)"/><path class="i" d="M383.19,204.144v.9a.769.769,0,0,0,.377-.093l7.645-4.4,7.645-4.4a.852.852,0,0,0,.377-.661v-.147a.748.748,0,0,0-.109-.377Z" transform="translate(-350.994 -146.862)"/><path class="g" d="M371.853,178l-6.356-3.67a.841.841,0,0,1-.377-.655v-.153a.841.841,0,0,1,.377-.655l15.247-8.8a.847.847,0,0,1,.759,0l6.351,3.67a.83.83,0,0,1,.382.655v.153a.83.83,0,0,1-.382.655L372.612,178A.846.846,0,0,1,371.853,178Z" transform="translate(-342.792 -132.793)"/><path class="i" d="M378.14,180.554v.9a.809.809,0,0,0,.382-.093l7.645-4.4,7.618-4.4a.83.83,0,0,0,.382-.655v-.153a.8.8,0,0,0-.109-.371Z" transform="translate(-348.702 -136.154)"/><path class="h" d="M365.229,180.78a.742.742,0,0,0-.109.371v.153a.841.841,0,0,0,.377.655l6.356,3.67a.77.77,0,0,0,.377.093v-.9Z" transform="translate(-342.792 -140.421)"/><path class="g" d="M363.308,152.391l-10.561-6.1a.841.841,0,0,1-.377-.655v-.153a.841.841,0,0,1,.377-.655l15.258-8.8a.847.847,0,0,1,.759,0l10.561,6.1a.841.841,0,0,1,.377.655v.153a.841.841,0,0,1-.377.655l-15.247,8.8A.847.847,0,0,1,363.308,152.391Z" transform="translate(-337.005 -120.065)"/><path class="i" d="M373.1,156.96v.9a.77.77,0,0,0,.377-.087l7.645-4.4,7.645-4.4a.841.841,0,0,0,.377-.655v-.153a.764.764,0,0,0-.109-.377Z" transform="translate(-346.414 -125.441)"/><path class="h" d="M352.479,152.74a.8.8,0,0,0-.109.371v.153a.841.841,0,0,0,.377.655l10.561,6.1a.776.776,0,0,0,.382.087v-.9Z" transform="translate(-337.005 -127.693)"/><path class="e" d="M346.227,139l-19.49,53.03h0l-.044.115a.825.825,0,0,1-.317.311,2,2,0,0,1-1.78,0,.694.694,0,0,1-.36-.442.617.617,0,0,1,0-.142,1.093,1.093,0,0,1,.071-.366l19.561-53.391a1.261,1.261,0,0,1,2.365.868Z" transform="translate(-324.233 -120.71)"/><path class="d" d="M360.912,120.834a1.939,1.939,0,0,0-.835,1.879L377.4,203.735a.816.816,0,0,1,.027.2v.137a.694.694,0,0,1-.366.442,1.955,1.955,0,0,1-1.775,0,.781.781,0,0,1-.35-.36h0v-.1l-17.322-80.8a4.5,4.5,0,0,1,2.042-4.593" transform="translate(-339.354 -112.219)"/></g><g transform="translate(45.473 0.009)"><path class="b" d="M225.455,3.184a1.775,1.775,0,0,0-.743-1.638L222.337.17a1.786,1.786,0,0,0-1.775.18L85.8,78.167a5.592,5.592,0,0,0-2.523,4.369V202.565a1.775,1.775,0,0,0,.743,1.638l2.375,1.376a1.758,1.758,0,0,0,1.786-.169l134.735-77.817a5.581,5.581,0,0,0,2.528-4.369Z" transform="translate(-83.272 -0.011)"/><path class="g" d="M225.342,1.55a1.753,1.753,0,0,0-1.78.175L88.8,79.541a5.188,5.188,0,0,0-1.775,1.889l-2.37-1.376a5.155,5.155,0,0,1,1.791-1.889L221.192.348a1.78,1.78,0,0,1,1.78-.18Z" transform="translate(-83.902 -0.009)"/><path class="j" d="M225.342,1.55a1.753,1.753,0,0,0-1.78.175L88.8,79.541a5.188,5.188,0,0,0-1.775,1.889l-2.37-1.376a5.155,5.155,0,0,1,1.791-1.889L221.192.348a1.78,1.78,0,0,1,1.78-.18Z" transform="translate(-83.902 -0.009)"/><path class="k" d="M90.153,80.681,224.9,2.864c1.4-.8,2.528-.153,2.528,1.458V124.357a5.581,5.581,0,0,1-2.528,4.369L90.153,206.548c-1.393.8-2.523.153-2.523-1.458V85.061A5.6,5.6,0,0,1,90.153,80.681Z" transform="translate(-85.25 -1.149)"/><path class="g" d="M86.417,147.966a5.194,5.194,0,0,0-.737,2.49v8.027l-2.37-1.371V149.08a5.133,5.133,0,0,1,.737-2.49Z" transform="translate(-83.289 -66.544)"/><path class="h" d="M86.417,147.966a5.194,5.194,0,0,0-.737,2.49v8.027l-2.37-1.371V149.08a5.133,5.133,0,0,1,.737-2.49Z" transform="translate(-83.289 -66.544)"/><path class="g" d="M227.433,4.322c0-1.611-1.13-2.261-2.528-1.458L90.153,80.681A5.6,5.6,0,0,0,87.63,85.05v8.027l139.8-80.733Z" transform="translate(-85.25 -1.149)"/><path class="g" d="M96.3,164.273v76.616l52.135-30.1V153.406l-33.175-.076Z" transform="translate(-89.186 -69.604)"/><path class="l" d="M153.53,186.639c0,2.266,1.589,3.184,3.555,2.053a7.875,7.875,0,0,0,3.555-6.16c0-2.266-1.595-3.184-3.555-2.048a7.842,7.842,0,0,0-3.555,6.154Z" transform="translate(-115.163 -81.709)"/><path class="l" d="M104.98,168.144v65.667l42.655-24.623V157.2L126.3,155.83Z" transform="translate(-93.125 -70.739)"/><path class="l" d="M150,217.741l8.59-11.8,9.48,6.842" transform="translate(-113.561 -93.484)"/><path class="l" d="M104.98,240.819,119.2,213.46l16.585,12.309" transform="translate(-93.125 -96.898)"/><path class="h" d="M131,153.33s8.191,2.485,10.687,6.837c2.184,3.79,2.261,5.461,2.261,5.461s14.018-2.965,20.205-12.238Z" transform="translate(-104.936 -69.604)"/><path class="g" d="M131,153.33s12.811,1.365,16.585,12.942c7.1-2.408,12.833-6.471,16.59-12.866Z" transform="translate(-104.936 -69.604)"/><path class="j" d="M131,153.33s12.811,1.365,16.585,12.942c7.1-2.408,12.833-6.471,16.59-12.866Z" transform="translate(-104.936 -69.604)"/><path class="g" d="M288.534,153.7a8.46,8.46,0,0,0-1.764,3.151,4.3,4.3,0,0,0,1.944-1.786c.12-.218.491-.939.229-1.305a.246.246,0,0,0-.41-.06Z" transform="translate(-175.643 -69.733)"/><path class="g" d="M276.9,150.1a.868.868,0,0,0-.481.644,3.6,3.6,0,0,0,.322,2.288,6.127,6.127,0,0,0,.59-2.73C277.286,150.064,277.2,149.949,276.9,150.1Z" transform="translate(-170.915 -68.107)"/><path class="g" d="M263.129,167.15a.256.256,0,0,0-.082.033c-.1.049-.218.164-.36.459a.923.923,0,0,0,.1,1.136c.349.339,1,.35,1.857-.147C264.1,167.451,263.517,167.063,263.129,167.15Z" transform="translate(-164.644 -75.872)"/><path class="g" d="M266.1,119.3c-7.956,4.041-14.854,15.656-15.405,25.944-.792,14.793,8.513,12.451,8.191,18.414a1.671,1.671,0,0,0,1.316,1.884c1.862.464,5.008-1.136,7.023-3.571a6.22,6.22,0,0,0,1.6-3.364h0c.317-5.958,9.884-13.21,10.676-28C280.048,120.323,274.046,115.255,266.1,119.3Zm7.017,20.156a6.335,6.335,0,0,1-3.38,2.943q-.549,1.7-1.092,4.036a81.956,81.956,0,0,0-1.868,13.161,1.392,1.392,0,0,1-.622,1.092h0c-.328.164-.573-.033-.546-.448a83.65,83.65,0,0,1,1.922-13.576c.322-1.464.683-2.823,1.065-4.046a4.33,4.33,0,0,1-1.469-.186,5.019,5.019,0,0,1-2.184-1.349,25.745,25.745,0,0,1-2.457,3.708,16.5,16.5,0,0,1-1.573,1.737,23.57,23.57,0,0,1,.683,3.156,63.345,63.345,0,0,1,.546,12.325,1.42,1.42,0,0,1-.65,1.059c-.328.158-.546-.06-.546-.486a62.388,62.388,0,0,0-.546-11.948,21.581,21.581,0,0,0-.693-3.135c-1.469,1-2.616,1.032-3.249.426a2.708,2.708,0,0,1-.087-3.047,2.938,2.938,0,0,1,1.666-1.7c.923-.235,1.769.546,2.446,2.184a13.339,13.339,0,0,0,1.425-1.556,22.9,22.9,0,0,0,2.354-3.6,5.242,5.242,0,0,1-.639-3.877,3.539,3.539,0,0,1,1.682-2.343c.786-.4,1.354-.131,1.513.715a9.5,9.5,0,0,1-1.092,4.762,4.445,4.445,0,0,0,2.086,1.343,3.6,3.6,0,0,0,1.338.153c.89-2.425,1.873-4.139,2.823-4.855.634-.47,1.2-.453,1.567.055C274.019,136.826,273.85,138.164,273.112,139.458Z" transform="translate(-159.244 -53.525)"/><path class="g" d="M278.52,105.855c-.546.273-.95-.071-.912-.77L278,97.806a2.288,2.288,0,0,1,1.049-1.764c.546-.273.945.071.907.77l-.388,7.285a2.277,2.277,0,0,1-1.043,1.758Z" transform="translate(-171.483 -43.557)"/><path class="g" d="M259.488,122.113c-.486.584-1.092.683-1.311.213l-2.474-4.877a1.988,1.988,0,0,1,.448-1.906c.486-.59,1.092-.683,1.311-.218l2.479,4.877A2.015,2.015,0,0,1,259.488,122.113Z" transform="translate(-161.505 -52.219)"/><path class="g" d="M244.624,147.2c-.306.743-.912,1.251-1.36,1.141l-4.685-1.163c-.448-.115-.546-.8-.262-1.545s.912-1.256,1.36-1.141l4.68,1.163C244.788,145.759,244.908,146.453,244.624,147.2Z" transform="translate(-153.577 -65.582)"/><path class="g" d="M238.173,172a2.266,2.266,0,0,1-1.043,1.758l-5.63,2.861c-.546.278-.95-.066-.912-.765a2.283,2.283,0,0,1,1.043-1.764l5.636-2.861C237.8,170.959,238.211,171.3,238.173,172Z" transform="translate(-150.14 -77.687)"/><path class="g" d="M241.973,191.3a2,2,0,0,1-.453,1.906l-5.073,6.122c-.486.584-1.092.683-1.311.213a2,2,0,0,1,.453-1.906l5.073-6.122C241.149,190.932,241.733,190.833,241.973,191.3Z" transform="translate(-152.171 -86.705)"/><path class="g" d="M303.943,161.948c.306-.743.912-1.256,1.36-1.141l4.685,1.163c.448.109.546.8.262,1.545s-.912,1.251-1.36,1.136l-4.68-1.163C303.762,163.379,303.642,162.685,303.943,161.948Z" transform="translate(-183.363 -72.99)"/><path class="g" d="M309.568,135.722a2.272,2.272,0,0,1,1.043-1.758l5.63-2.861c.546-.273.95.071.912.77a2.288,2.288,0,0,1-1.043,1.758l-5.636,2.861C309.934,136.765,309.53,136.421,309.568,135.722Z" transform="translate(-185.99 -59.472)"/><path class="g" d="M306.266,113.713a2,2,0,0,1,.453-1.906l5.073-6.122c.486-.584,1.092-.683,1.305-.213a1.987,1.987,0,0,1-.448,1.906l-5.073,6.122C307.091,114.085,306.507,114.183,306.266,113.713Z" transform="translate(-184.458 -47.746)"/><path class="g" d="M294.9,102.782c-.453-.109-.546-.8-.268-1.545L297.78,93.5c.306-.743.912-1.251,1.36-1.141s.546.8.268,1.545l-3.151,7.738C295.951,102.384,295.345,102.892,294.9,102.782Z" transform="translate(-179.139 -41.921)"/><path class="d" d="M278.52,105.855c-.546.273-.95-.071-.912-.77L278,97.806a2.288,2.288,0,0,1,1.049-1.764c.546-.273.945.071.907.77l-.388,7.285a2.277,2.277,0,0,1-1.043,1.758Z" transform="translate(-171.483 -43.557)"/><path class="d" d="M259.488,122.113c-.486.584-1.092.683-1.311.213l-2.474-4.877a1.988,1.988,0,0,1,.448-1.906c.486-.59,1.092-.683,1.311-.218l2.479,4.877A2.015,2.015,0,0,1,259.488,122.113Z" transform="translate(-161.505 -52.219)"/><path class="d" d="M244.624,147.2c-.306.743-.912,1.251-1.36,1.141l-4.685-1.163c-.448-.115-.546-.8-.262-1.545s.912-1.256,1.36-1.141l4.68,1.163C244.788,145.759,244.908,146.453,244.624,147.2Z" transform="translate(-153.577 -65.582)"/><path class="d" d="M238.173,172a2.266,2.266,0,0,1-1.043,1.758l-5.63,2.861c-.546.278-.95-.066-.912-.765a2.283,2.283,0,0,1,1.043-1.764l5.636-2.861C237.8,170.959,238.211,171.3,238.173,172Z" transform="translate(-150.14 -77.687)"/><path class="d" d="M241.973,191.3a2,2,0,0,1-.453,1.906l-5.073,6.122c-.486.584-1.092.683-1.311.213a2,2,0,0,1,.453-1.906l5.073-6.122C241.149,190.932,241.733,190.833,241.973,191.3Z" transform="translate(-152.171 -86.705)"/><path class="d" d="M303.943,161.948c.306-.743.912-1.256,1.36-1.141l4.685,1.163c.448.109.546.8.262,1.545s-.912,1.251-1.36,1.136l-4.68-1.163C303.762,163.379,303.642,162.685,303.943,161.948Z" transform="translate(-183.363 -72.99)"/><path class="d" d="M309.568,135.722a2.272,2.272,0,0,1,1.043-1.758l5.63-2.861c.546-.273.95.071.912.77a2.288,2.288,0,0,1-1.043,1.758l-5.636,2.861C309.934,136.765,309.53,136.421,309.568,135.722Z" transform="translate(-185.99 -59.472)"/><path class="d" d="M306.266,113.713a2,2,0,0,1,.453-1.906l5.073-6.122c.486-.584,1.092-.683,1.305-.213a1.987,1.987,0,0,1-.448,1.906l-5.073,6.122C307.091,114.085,306.507,114.183,306.266,113.713Z" transform="translate(-184.458 -47.746)"/><path class="d" d="M294.9,102.782c-.453-.109-.546-.8-.268-1.545L297.78,93.5c.306-.743.912-1.251,1.36-1.141s.546.8.268,1.545l-3.151,7.738C295.951,102.384,295.345,102.892,294.9,102.782Z" transform="translate(-179.139 -41.921)"/><path class="g" d="M275.286,195.88l-.251,4.74a6.417,6.417,0,0,1-1.638,3.468c-2.075,2.507-5.33,4.161-7.246,3.681a1.734,1.734,0,0,1-1.332-2.075l.229-4.259a1.7,1.7,0,0,0,1.36,1.595c1.911.481,5.166-1.174,7.241-3.681A6.285,6.285,0,0,0,275.286,195.88Z" transform="translate(-165.671 -88.918)"/><path class="m" d="M275.286,195.88l-.251,4.74a6.417,6.417,0,0,1-1.638,3.468c-2.075,2.507-5.33,4.161-7.246,3.681a1.734,1.734,0,0,1-1.332-2.075l.229-4.259a1.7,1.7,0,0,0,1.36,1.595c1.911.481,5.166-1.174,7.241-3.681A6.285,6.285,0,0,0,275.286,195.88Z" transform="translate(-165.671 -88.918)"/></g><g transform="translate(216.453 160.695)"><path class="e" d="M413.717,301.686,399.77,301.5l-.12,11.386h0a3.485,3.485,0,0,0,2.01,2.867,10.932,10.932,0,0,0,9.862.109,3.441,3.441,0,0,0,2.07-2.856Z" transform="translate(-397.86 -297.546)"/><path class="d" d="M401.951,295.39c-2.73,1.54-2.763,4.09-.06,5.69a10.948,10.948,0,0,0,9.862.109c2.763-1.529,2.763-4.09.06-5.7A10.881,10.881,0,0,0,401.951,295.39Z" transform="translate(-397.967 -294.26)"/><path class="c" d="M413.7,298.859a1.746,1.746,0,0,1-.1.546,3.364,3.364,0,0,1-1.671,1.758,10.3,10.3,0,0,1-9.256-.1,3.375,3.375,0,0,1-1.638-1.758,1.8,1.8,0,0,1-.1-.584,2.87,2.87,0,0,1,1.769-2.3,10.306,10.306,0,0,1,9.256.1A2.893,2.893,0,0,1,413.7,298.859Z" transform="translate(-398.446 -294.764)"/><path class="g" d="M413.685,300.341a3.364,3.364,0,0,1-1.671,1.758,10.3,10.3,0,0,1-9.256-.1,3.374,3.374,0,0,1-1.638-1.758,3.32,3.32,0,0,1,1.671-1.753,9.382,9.382,0,0,1,4.636-1.054,9.48,9.48,0,0,1,4.62,1.152,3.413,3.413,0,0,1,1.638,1.753Z" transform="translate(-398.528 -295.699)"/><path class="c" d="M417.626,309.6c.306-.175.546-.027.546.322a1.2,1.2,0,0,1-.546.945c-.306.175-.546,0-.546-.322A1.2,1.2,0,0,1,417.626,309.6Z" transform="translate(-405.772 -301.189)"/><path class="b" d="M398.261,304.216c-.764,1.513-2.294,5.106-.311,6.553.082.066.158.115.24.169v.726c-.2-.12-.4-.257-.6-.4-2.954-2.184.382-7.825.546-8.06a.284.284,0,0,1,.169-.126Z" transform="translate(-396.373 -298.264)"/><path class="b" d="M410.013,310.712c-.087.175-2.239,4.292-5.783,5.122a5.192,5.192,0,0,1-1.223.142,6.143,6.143,0,0,1-3.276-1.032v-.726a5.4,5.4,0,0,0,4.369,1.032c3.277-.765,5.363-4.778,5.379-4.816a.306.306,0,0,1,.41-.131.3.3,0,0,1,.126.41Z" transform="translate(-397.897 -301.527)"/></g><g transform="translate(168.154 184.541)"><path class="k" d="M366.164,351.532a1,1,0,0,0-.59-.819L344.01,338.267a3.123,3.123,0,0,0-2.834,0l-32.661,18.851a.988.988,0,0,0-.584.819V360.5a.994.994,0,0,0,.584.819l21.565,12.451a3.156,3.156,0,0,0,2.834,0L365.574,354.9a.988.988,0,0,0,.59-.819Z" transform="translate(-307.929 -337.927)"/><path class="n" d="M331.5,388.178v2.561a2.933,2.933,0,0,1-1.42-.339l-21.57-12.451a.983.983,0,0,1-.584-.819V374.57a.988.988,0,0,0,.584.819l21.565,12.451a2.873,2.873,0,0,0,1.425.339Z" transform="translate(-307.929 -354.56)"/><path class="o" d="M308.517,357.118l32.656-18.851a3.124,3.124,0,0,1,2.834,0l21.565,12.445a.864.864,0,0,1,0,1.638l-32.656,18.856a3.157,3.157,0,0,1-2.834,0l-21.565-12.451A.868.868,0,0,1,308.517,357.118Z" transform="translate(-307.931 -337.927)"/><path class="g" d="M344.009,338.267a3.123,3.123,0,0,0-2.834,0l-32.661,18.851a.866.866,0,0,0,0,1.638l7.722,4.456h0s8.131,1.96,11.588-.306,2.01-7.793,6.422-9.283,11.118.442,17.207-1.676,6.209-5.788,6.209-5.788h0Z" transform="translate(-307.927 -337.927)"/><path class="g" d="M344.009,338.267a3.123,3.123,0,0,0-2.834,0l-32.661,18.851a.866.866,0,0,0,0,1.638l7.722,4.456h0s8.131,1.96,11.588-.306,2.01-7.793,6.422-9.283,11.118.442,17.207-1.676,6.209-5.788,6.209-5.788h0Z" transform="translate(-307.927 -337.927)"/><path class="g" d="M307.94,374.57v2.561a.983.983,0,0,0,.584.819l7.722,4.456v-2.561h0l-7.727-4.456a.988.988,0,0,1-.579-.819Z" transform="translate(-307.933 -354.56)"/><path class="h" d="M307.94,374.57v2.561a.983.983,0,0,0,.584.819l7.722,4.456v-2.561h0l-7.727-4.456a.988.988,0,0,1-.579-.819Z" transform="translate(-307.933 -354.56)"/></g><g transform="translate(149.178 140.501)"><path class="d" d="M277.16,332.756c-.382-.857,1.589-1.638,2.993-1.474.644.066,1.48.59,2.113.617.967.049,2.135-.262,3.178-.235a1.413,1.413,0,0,1,1.48,1.988c-.273.841-2.184,1.562-2.184,1.562l-3.768-.939C279.126,334.1,277.739,333.657,277.16,332.756Z" transform="translate(-274.964 -290.861)"/><path class="c" d="M285.9,334.476c-.5,0-.191,1.786-.786,2.184-.311.218-2.266-1.2-3.337-1.518s-3.626.093-4.576-1.152a2.108,2.108,0,0,0,.633.868,26.661,26.661,0,0,0,4.139,2.681c1.5.737,4.915,1.993,4.915,1.993Z" transform="translate(-275.004 -292.1)"/><path class="g" d="M305.957,335.577c.131,3.2-5.117,3.823-9.72,1.638A40.385,40.385,0,0,1,288.045,332a9.25,9.25,0,0,1-2.3-12.647l13.33-.683c2.321,2.681,10.67,6.253,13.461,12.615,1.343,3.358-3.276,5.128-6.58,4.3Z" transform="translate(-278.166 -285.146)"/><path class="m" d="M305.995,335.577c.131,3.2-5.117,3.823-9.72,1.638A40.385,40.385,0,0,1,288.083,332c-3.921-2.932-5.095-7.372-2.3-12.647l13.33-.683c2.321,2.681,10.67,6.253,13.461,12.615,1.343,3.358-3.276,5.128-6.58,4.3Z" transform="translate(-278.204 -285.146)"/><path class="p" d="M315.155,340.13c-.35-3.02-2.643-4.511-4.614-5.969s-6.111-4-6.111-4a4.418,4.418,0,0,0,3.948-1.464,2.867,2.867,0,0,1-1.327,2.042s5.728,3.276,7.443,6.062A4.675,4.675,0,0,1,315.155,340.13Z" transform="translate(-287.364 -289.699)"/><path class="q" d="M326.395,287.963c-1.272-1.829-1.933-1.322-2.425.35a8.029,8.029,0,0,1-1.027,2.184c0-.546-1.392.273-1.48,1.425a1.743,1.743,0,0,1-.328.967c-1.092,1.393-4.265,3.784-6.5,5.5l-6.007-7.7c-2.048-2.621-2.73-3.637-5.095-3.894a4.838,4.838,0,0,1,1.835,1.442c.928,1.119-.257,6.351-.257,6.351s7.072,7.236,7.809,7.935a4.007,4.007,0,0,0,.333.284,2.021,2.021,0,0,0,2.507-.038,73.355,73.355,0,0,0,6.957-7.1c1.125-1.289,1.715-1.8,2.435-2.517C326.722,291.562,327.192,289.094,326.395,287.963Z" transform="translate(-286.956 -270.68)"/><path class="g" d="M290.8,286.875h0c-3.135.213-3.353,1.726-4.139,3.38a5.39,5.39,0,0,0-.147,4.041l2.184,6.313s-.846,1.889-2.031,4.221c5.461,3.058,12.145,2.037,13.794-.191.066-.475-.355-4.178-.617-6.6.967-2.419,1.218-3.954.814-5.554-.759-2.971-3.692-5.865-4.991-5.761Z" transform="translate(-279.084 -270.646)"/><path class="h" d="M288.224,304.854c-.191.4-.431.912-.715,1.491l-.147.311-.229.382c-.164.333-.339.688-.546,1.048.2.115.4.218.612.322a15,15,0,0,0,10.469,1.092,15.834,15.834,0,0,1-5.543-.24,3.309,3.309,0,0,1-2.468-4.036,1.587,1.587,0,0,1,.055-.169,1.092,1.092,0,0,1,1.092-.737,3.183,3.183,0,0,1-1.365-2.042l-.289-.879a10.267,10.267,0,0,1-.1-6.16v-.06l-2.332-1.327-.4.284h0a4.975,4.975,0,0,0-.224,1.261h0v.333a1.405,1.405,0,0,0,0,.153v.278a.588.588,0,0,0,.027.218l.033.235a1.32,1.32,0,0,0,.06.284c.022.093,0,.12.038.18.038.153.087.306.137.459l2.184,6.313A6.516,6.516,0,0,1,288.224,304.854Z" transform="translate(-279.038 -273.88)"/><path class="c" d="M301.206,272.665H294.33a6.635,6.635,0,0,1-6.64-6.646v-1.382a7.012,7.012,0,0,1,7.012-7.017h0a6.509,6.509,0,0,1,6.5,6.509Z" transform="translate(-279.766 -257.434)"/><path class="q" d="M300.046,264.56c.349.18,1.289,1.966,1.2,5.87-.076,3.309-1.147,4.128-1.687,4.369a5.618,5.618,0,0,1-2.588-.076v1.988s1.4,1.638,1.311,2.534-2.015,1.125-3.326.235a8.443,8.443,0,0,1-2.141-2.244v-4.789a1.272,1.272,0,0,1-1.8.175,2.38,2.38,0,0,1-.513-3.233,1.449,1.449,0,0,1,2.31.459,5.788,5.788,0,0,0,3.823-1.125C299.008,267.176,299.74,265.963,300.046,264.56Z" transform="translate(-280.85 -260.585)"/><path class="c" d="M308.553,270.713l-.923-.442a.491.491,0,0,1,.666-.251.546.546,0,0,1,.257.694Z" transform="translate(-288.817 -263.04)"/><path class="c" d="M301.516,270.6l-.863.546a.491.491,0,0,1,.142-.7A.546.546,0,0,1,301.516,270.6Z" transform="translate(-285.608 -263.219)"/><path class="c" d="M295,272.53l.055,2.026a.983.983,0,0,0,1-1.01A1.059,1.059,0,0,0,295,272.53Z" transform="translate(-283.084 -264.202)"/><path class="c" d="M292.019,259.109l-.874-1.829a.983.983,0,0,0-.513,1.327A1.092,1.092,0,0,0,292.019,259.109Z" transform="translate(-281.059 -257.28)"/><path class="c" d="M290.706,260.275l-2.02-.175a.994.994,0,0,0,.89,1.092,1.059,1.059,0,0,0,1.13-.917Z" transform="translate(-280.215 -258.56)"/><path class="c" d="M302.385,273.209a.42.42,0,1,1-.836.044.426.426,0,0,1,.393-.453A.431.431,0,0,1,302.385,273.209Z" transform="translate(-286.056 -264.325)"/><path class="r" d="M303.984,278.92l.967.311a.491.491,0,0,1-.628.344A.546.546,0,0,1,303.984,278.92Z" transform="translate(-287.153 -267.103)"/><path class="c" d="M308.31,272.895a.415.415,0,1,1-.437-.415.421.421,0,0,1,.437.415Z" transform="translate(-288.749 -264.179)"/><path class="r" d="M305.25,272.8l.066,2.507,1.316-.41Z" transform="translate(-287.736 -264.325)"/><path class="r" d="M299.7,281.8c-1.065-.142-3.276-.77-3.593-1.638a2.262,2.262,0,0,0,.764,1.092,12.152,12.152,0,0,0,2.829,1.19Z" transform="translate(-283.587 -267.666)"/><path class="q" d="M287.771,313.02c1.857-1.234,1.36-1.9-.3-2.43a7.875,7.875,0,0,1-1.977-.923,3.949,3.949,0,0,0,1.092-.087.759.759,0,0,0,.628-.825c-.033-.164-.426-.049-1.092-.2a7.965,7.965,0,0,0-2.184-.546,1.486,1.486,0,0,1-.961-.35c-1.371-1.13-3.615-4.543-5.3-6.815,1.638-1.835,5.3-7.432,5.3-7.432a5.363,5.363,0,0,0,.415-5.931c-1.573.164-3.1,1.742-5.029,4.718-4.325,6.673-6.007,8.038-4.816,9.786a88.452,88.452,0,0,0,6.389,7.334,24.924,24.924,0,0,0,2.73,2.354C285.2,313.681,286.608,313.8,287.771,313.02Z" transform="translate(-273.179 -270.988)"/><path class="d" d="M340.527,286.07v5.488a.355.355,0,0,1-.213.295,1.125,1.125,0,0,1-1.021,0,.355.355,0,0,1-.213-.295V286.07Z" transform="translate(-303.092 -270.348)"/><path class="e" d="M339.08,287.479l1.447.835V286.07H339.08Z" transform="translate(-303.092 -270.348)"/><path class="e" d="M336.956,278v1.119l-.956-.573v2.294a2.408,2.408,0,0,0,1.092,1.884l1.7.977a.8.8,0,0,0,.732.1s.857-.486,1.032-.6a.781.781,0,0,0,.289-.683v-2.3Z" transform="translate(-301.694 -266.685)"/><path class="d" d="M338.769,284.171l-1.676-.977A2.408,2.408,0,0,1,336,281.31V279l3.872,2.233v2.3C339.855,284.237,339.369,284.521,338.769,284.171Z" transform="translate(-301.694 -267.139)"/><path class="k" d="M339.846,278.476l-3.866-2.233V272.89l3.872,2.233Z" transform="translate(-301.685 -264.366)"/><path class="b" d="M343.06,279.87l.005-3.353.967-.557v3.348Z" transform="translate(-304.899 -265.759)"/><path class="g" d="M339.842,283.084l-3.866-2.234-.005.459,3.872,2.255Z" transform="translate(-301.681 -267.979)"/><path class="g" d="M343.06,284.477l.967-.557v.481l-.967.557Z" transform="translate(-304.899 -269.372)"/><path class="h" d="M343.06,284.477l.967-.557v.481l-.967.557Z" transform="translate(-304.899 -269.372)"/><path class="g" d="M344.037,277s-.328.8-.967.841v-1.294l.967-.546Z" transform="translate(-304.903 -265.777)"/><path class="h" d="M344.037,277s-.328.8-.967.841v-1.294l.967-.546Z" transform="translate(-304.903 -265.777)"/><path class="g" d="M339.852,276.429a1.392,1.392,0,0,1-1.322-.153c-.459-.344-.617-1.545-1.5-1.573a1.414,1.414,0,0,0-1.048.639V272.89l3.872,2.233Z" transform="translate(-301.685 -264.366)"/><path class="g" d="M335.98,272.422l.967-.562,3.872,2.239-.967.557Z" transform="translate(-301.685 -263.898)"/><path class="j" d="M335.98,272.422l.967-.562,3.872,2.239-.967.557Z" transform="translate(-301.685 -263.898)"/><path class="q" d="M336.289,293.086a6.748,6.748,0,0,1,.137-2.233,5.705,5.705,0,0,1,1.818-1.8c.4-.257.792,0,.584.77a6.089,6.089,0,0,1-.792,1.485,2.217,2.217,0,0,0-.24.846Z" transform="translate(-301.808 -271.657)"/></g><g transform="translate(85.283 97.435)"><path class="h" d="M170.4,184.983a1.638,1.638,0,0,0-1.687-.158l-11.823,6.826a1.638,1.638,0,0,0-.71,1.54,5.242,5.242,0,0,0,2.37,4.107,1.638,1.638,0,0,0,1.693.147l11.806-6.815a1.638,1.638,0,0,0,.715-1.545,5.237,5.237,0,0,0-2.365-4.1Z" transform="translate(-156.171 -181.251)"/><path class="s" d="M196.542,263.125s-3.773.153-4.838.136c-2.73-2.818-6.711-6.875-7.563-8.027-1.163-2.152-2.157-4.145-3.151-4.309s-3.156.377-3.675,1.311c-.366.65.448,2.517,1.152,2.059a4.277,4.277,0,0,0,2.523,2.763c2.812,3.364,6.007,7.722,7.771,9.78a2.616,2.616,0,0,0,3.391.186Z" transform="translate(-165.727 -211.317)"/><path class="c" d="M227.683,383.187c.229.093.279.546.295,1.436,0,.672.131,1.851-.666,2.064a2.475,2.475,0,0,1-2.436-.573c-.612-.8-1.021-1.513-1.9-2.5a6.7,6.7,0,0,1-1.879-2.84c-.262-1.092,0-1.529.721-1.818,1-.4,2.539,1.021,3.315,1.256C225.8,380.418,227.448,383.094,227.683,383.187Z" transform="translate(-185.597 -269.414)"/><path class="s" d="M230.746,384.851l-.027,1.092a2.676,2.676,0,0,1-2.758,0c-.049-.109-.251-1.573-.251-1.573Z" transform="translate(-188.644 -271.902)"/><path class="c" d="M206.583,397.92s.289.961.442,1.791a4.848,4.848,0,0,1,.044,2.266c-.24.491-1.152.792-2.55.748a7.827,7.827,0,0,0-3.309,1.092,8.737,8.737,0,0,1-4.145.546,3.927,3.927,0,0,1-2.7-1.442c-.191-.519.093-1.049,3.053-2.234,0,0,4.107-1.234,5.559-2.769Z" transform="translate(-173.485 -278.053)"/><path class="s" d="M213.792,395.755s0,.814-.027,1.272-.573,1.141-1.988,1.059c-.994-.055-1.682-.339-1.638-1.158l.027-1.18Z" transform="translate(-180.667 -277.068)"/><path class="e" d="M221.258,334.641a29.76,29.76,0,0,0-1.185-5.717s.5-4.915.792-9.546c.317-5.024.246-11.348.371-12.6,0,0-16.148-3.648-16.568,2.157s.18,20.615.311,23.17.546,4.827.961,8.972,1.671,13.772,1.671,13.772a3.823,3.823,0,0,0,3.61,0s1.4-11.593,1.349-14.537a25.121,25.121,0,0,0-.972-6.455s.415-4.784.781-8.945.7-6.154.8-7.967l.349-.164s.2,7.2.328,9.753.486,5.013,1.119,9.769c.546,4.128,2.261,12.871,2.261,12.871a2.432,2.432,0,0,0,2.96-.066S221.678,338.223,221.258,334.641Z" transform="translate(-178.118 -236.169)"/><path class="c" d="M220.42,323.4a34.748,34.748,0,0,0,6.007-3.555,12.976,12.976,0,0,1-4.314,3.621s-1.054,8.912-1.043,8.737l-.333-8.808Z" transform="translate(-185.335 -242.611)"/><path class="s" d="M215.26,264.575l.907,5.313,5.013-.437-1.043-5.821Z" transform="translate(-182.993 -217.097)"/><path class="g" d="M221.174,272.148a4.023,4.023,0,0,0-4.057-2.758l-1.19.2c0,.928-2.556,1.595-4.915,1.043-.7.186-1.354.377-1.939.573-1.682.546-3.238,1.966-3.5,7.454,0,0-.846,12.784-.912,15.29a20.271,20.271,0,0,0,10.922,1.327c5.04-.983,5.69-3.053,5.69-3.053s.273-9.2.213-13.183C221.463,275.638,221.479,273.142,221.174,272.148Z" transform="translate(-178.181 -219.695)"/><path class="t" d="M208,252.68s-1.469,1.742-1.349,1.944,1.01.481,1.01.481Z" transform="translate(-179.083 -212.126)"/><path class="s" d="M212.856,243.84c-2.583.229-3.823,1.147-4.292,5.237-.475,4.189-.12,5.663.36,6.3.322.42,2.146.546,3.222.41,1.343-.2,4.407-.89,6.034-2.829,1.917-2.277,2.73-5.581,1.18-7.165C217.153,243.561,213.9,243.747,212.856,243.84Z" transform="translate(-179.851 -208.092)"/><path class="c" d="M207.612,243.348a.51.51,0,0,0,.076.076c.486.464,1.092.759,1.638,1.2a3.823,3.823,0,0,1,1.152,1.835c.169.584.235,1.272.868,1.545,0,0,.4-1.556,1.715-1.36s1.5,1.879.666,2.9-1.611.633-1.611.633a6.9,6.9,0,0,0,1.027,3.479,5.962,5.962,0,0,0,7.006-3.61c1.595-3.55,1.7-6.744-.546-7.7-.246-1.638-1.534-2.37-3-2.73-2.184-.5-4.249.8-6.417.317a13.638,13.638,0,0,0-1.36-.322.312.312,0,0,0-.158,0c-.109.055-.1.213-.071.333a2.779,2.779,0,0,0,.639,1.174,6.739,6.739,0,0,1-2.463-.311A3.146,3.146,0,0,0,207.612,243.348Z" transform="translate(-179.129 -206.142)"/><path class="c" d="M230.189,244.609l1.518-.89a.88.88,0,0,0-1.518.89Z" transform="translate(-189.714 -207.861)"/><path class="c" d="M214.379,255.228l.049-1.758a.88.88,0,1,0-.049,1.758Z" transform="translate(-182.205 -212.485)"/><path class="e" d="M186.121,274.265h0l-1.8-11.555-2.419.393,1.8,11.572h0a.432.432,0,0,0,.191.284,1.851,1.851,0,0,0,1.682,0C185.968,274.773,186.159,274.5,186.121,274.265Z" transform="translate(-167.85 -216.679)"/><path class="d" d="M182.086,263.024a1.851,1.851,0,0,0,1.682,0c.546-.268.721-.7.355-.972a1.851,1.851,0,0,0-1.682,0C181.879,262.3,181.72,262.74,182.086,263.024Z" transform="translate(-167.845 -216.289)"/><path class="u" d="M183.04,183.622l.77-.442.77,5.024" transform="translate(-168.367 -180.579)"/><path class="g" d="M174.148,182.831a5.242,5.242,0,0,0-2.392-4.1,1.638,1.638,0,0,0-1.687-.153l-11.839,6.832,3.348,5.8,11.834-6.832A1.638,1.638,0,0,0,174.148,182.831Z" transform="translate(-157.106 -178.417)"/><path class="g" d="M174.148,182.831a5.242,5.242,0,0,0-2.392-4.1,1.638,1.638,0,0,0-1.687-.153l-11.839,6.832,3.348,5.8,11.834-6.832A1.638,1.638,0,0,0,174.148,182.831Z" transform="translate(-157.106 -178.417)"/><path class="v" d="M174.148,182.831a5.242,5.242,0,0,0-2.392-4.1,1.638,1.638,0,0,0-1.687-.153l-11.839,6.832,3.348,5.8,11.834-6.832A1.638,1.638,0,0,0,174.148,182.831Z" transform="translate(-157.106 -178.417)"/><path class="w" d="M172.859,179.546l-11.845,6.842a4.073,4.073,0,0,0-.972-.808,1.742,1.742,0,0,0-1.573-.224l11.757-6.782a1.676,1.676,0,0,1,1.638.169,4.477,4.477,0,0,1,.994.8Z" transform="translate(-157.215 -178.425)"/><path class="g" d="M159.37,191.242a5.231,5.231,0,0,1,2.37,4.107c0,1.507-1.059,2.124-2.37,1.365A5.242,5.242,0,0,1,157,192.6C157,191.1,158.092,190.488,159.37,191.242Z" transform="translate(-156.547 -184.092)"/><path class="w" d="M159.37,191.242a5.231,5.231,0,0,1,2.37,4.107c0,1.507-1.059,2.124-2.37,1.365A5.242,5.242,0,0,1,157,192.6C157,191.1,158.092,190.488,159.37,191.242Z" transform="translate(-156.547 -184.092)"/><path class="x" d="M158.384,191.1a1.158,1.158,0,0,0-.1.071h0Z" transform="translate(-157.128 -184.174)"/><path class="u" d="M174.09,192.38l-13.39,7.733-.77-5.024.77-.448" transform="translate(-157.877 -184.755)"/><line class="u" x1="5.313" y1="34.764" transform="translate(9.933 11.256)"/><path class="s" d="M197.026,269.276c-2.021.3-3.4,1.868-5.668,4.636-2.015,2.474-3.866,5.324-3.866,5.324s-3.435-6.122-3.752-7.443.273-1.7.617-3.566a2.48,2.48,0,0,0-.8-2.61l.131.835a1.851,1.851,0,0,1-1.327,1.4s-.939,0-1.147-1.349l-.306-1.982s-1.289.087-1.392,3.151a14.581,14.581,0,0,0,.868,5.057c.344,1.376,2.075,7.929,4.041,11.14.759,1.24,1.764,2.7,4.188.683s7.645-7.645,7.645-7.645S198.937,274.35,197.026,269.276Z" transform="translate(-166.763 -217.501)"/><path class="e" d="M205.24,272.75a6.738,6.738,0,0,0-4.412,2.348c-1.5,1.638-4.647,5.8-4.647,5.8a5.615,5.615,0,0,0,3.457,4.505l4.915-4.838a7.236,7.236,0,0,0,1.786-4.107C206.561,273.307,205.24,272.75,205.24,272.75Z" transform="translate(-174.332 -221.236)"/><path class="t" d="M180.62,252.65a4.461,4.461,0,0,1,.694,1.447c.131.453.164,1.758,1.764,1.933,0,0-.126-2.042-.825-2.73A2.293,2.293,0,0,0,180.62,252.65Z" transform="translate(-167.269 -212.112)"/><path class="s" d="M183.131,255.37c-1.638-.841-1.2-1.693-2.053-2.7-.77-.9-.846-1.185-.754-1.518.06-.218.268-.257.683-.164,1.043.235,1.731,1.332,2.261,2.184Z" transform="translate(-167.12 -211.338)"/><path class="t" d="M179.5,256.6a.437.437,0,0,0,.115-.262.5.5,0,0,0,.5.131.546.546,0,0,0,.382-.491.6.6,0,0,1-.382.622c-.431.126-.442-.065-.442-.065a.355.355,0,0,1-.1.191" transform="translate(-166.76 -213.624)"/></g></g></svg>