<svg xmlns="http://www.w3.org/2000/svg" width="430" height="421" viewBox="0 0 430 421"><defs><style>.a{fill:#05103a;}.b,.h{fill:none;}.b{stroke:#26377a;}.c{fill:#5382a1;}.d{fill:#e76f00;}.e{fill:#5fb832;}.f{fill:#5a676d;}.g{fill:#bcae79;}.i{fill:#5d87a1;}.j{fill:#f8981d;}.k{fill:#4386fb;}.l{fill:#4079db;opacity:0.904;}.l,.m{fill-rule:evenodd;}.m{fill:#fff;}.n,.o{stroke:none;}.o{fill:#26377a;}</style></defs><g transform="translate(-290 -6997)"><g class="a" transform="translate(290 6997)"><path class="n" d="M 429.5 420.5 L 0.5 420.5 L 0.5 0.5 L 429.5 0.5 L 429.5 420.5 Z"/><path class="o" d="M 1 1 L 1 420 L 429 420 L 429 1 L 1 1 M 0 0 L 430 0 L 430 421 L 0 421 L 0 0 Z"/></g><g class="b" transform="translate(290 6997)"><rect class="n" width="430" height="137"/><rect class="h" x="0.5" y="0.5" width="429" height="136"/></g><g class="b" transform="translate(290 7275)"><rect class="n" width="430" height="143"/><rect class="h" x="0.5" y="0.5" width="429" height="142"/></g><g class="b" transform="translate(500 6997)"><rect class="n" width="220" height="279"/><rect class="h" x="0.5" y="0.5" width="219" height="278"/></g><path class="c" d="M70.5,267.473s-3.616,2.1,2.573,2.814c7.5.855,11.33.733,19.593-.831A34.094,34.094,0,0,0,97.872,272c-18.523,7.939-41.921-.46-27.372-4.525" transform="translate(307.324 6816.332)"/><path class="c" d="M60.8,229.659s-4.056,3,2.138,3.643c8.01.826,14.335.894,25.28-1.214a11.222,11.222,0,0,0,3.894,2.374c-22.4,6.549-47.34.516-31.313-4.8" transform="translate(314.77 6843.995)"/><path class="d" d="M132.848,96.831c4.564,5.255-1.2,9.983-1.2,9.983s11.589-5.982,6.267-13.474c-4.971-6.986-8.783-10.458,11.854-22.426,0,0-32.393,8.09-16.921,25.917" transform="translate(261.731 6959.544)"/><path class="c" d="M64.06,293.321s2.665,2.2-2.936,3.91c-10.65,3.239-44.327,4.217-53.683.129-3.363-1.469,2.944-3.507,4.927-3.935a12.736,12.736,0,0,1,3.251-.366c-3.74-2.645-24.174,5.194-10.379,7.438,37.62,6.125,68.577-2.758,58.819-7.176" transform="translate(354.953 6798.146)"/><path class="c" d="M44.869,190.439s-17.2,4.085-6.09,5.568c4.69.628,14.039.486,22.747-.244,7.117-.6,14.263-1.877,14.263-1.877a30.193,30.193,0,0,0-4.325,2.314c-17.463,4.593-51.2,2.456-41.487-2.242a32.54,32.54,0,0,1,14.892-3.52" transform="translate(334.815 6872.57)"/><path class="c" d="M200.561,205.3c17.752-9.225,9.545-18.09,3.815-16.9a13.268,13.268,0,0,0-2.03.546,3.235,3.235,0,0,1,1.517-1.17c11.334-3.985,20.05,11.752-3.659,17.985a1.539,1.539,0,0,0,.357-.465" transform="translate(209.718 6874.899)"/><path class="d" d="M104.474.371s9.832,9.835-9.325,24.958c-15.361,12.132-3.5,19.049-.006,26.952C86.176,44.191,79.6,37.069,84.01,30.441c6.48-9.73,24.43-14.447,20.464-30.069" transform="translate(295.23 7011.008)"/><path class="c" d="M59.817,321.694c17.04,1.091,43.207-.605,43.827-8.668,0,0-1.191,3.057-14.083,5.484-14.544,2.737-32.482,2.417-43.121.663,0,0,2.178,1.8,13.377,2.521" transform="translate(321.357 6783.259)"/><g transform="translate(397.091 7323.878)"><path class="e" d="M80.567-22.63A2.357,2.357,0,0,1,79.4-24.762a2.452,2.452,0,0,1,2.489-2.478,2.662,2.662,0,0,1,1.316.352A14.152,14.152,0,0,0,90.918-24.3c2.638,0,4.16-1.117,4.16-2.9v-.1c0-2.08-2.839-2.789-5.987-3.753-3.955-1.117-8.369-2.739-8.369-7.864v-.1c0-5.074,4.211-8.168,9.538-8.168A18.435,18.435,0,0,1,98.681-45a2.6,2.6,0,0,1,1.471,2.333,2.471,2.471,0,0,1-2.535,2.49,2.373,2.373,0,0,1-1.216-.306,14.621,14.621,0,0,0-6.293-1.829c-2.386,0-3.756,1.119-3.756,2.642v.1c0,1.979,2.892,2.789,6.038,3.806,3.907,1.218,8.32,2.993,8.32,7.813v.1c0,5.631-4.365,8.418-9.945,8.418a18.3,18.3,0,0,1-10.2-3.195" transform="translate(-9.778 61.035)"/><path class="e" d="M127.812-33.3v-.1c0-5.172-3.5-8.572-7.66-8.572s-7.813,3.45-7.813,8.572v.1c0,5.124,3.653,8.577,7.813,8.577,4.211,0,7.66-3.3,7.66-8.577M106.351-44.1A3.033,3.033,0,0,1,109.4-47.2a3.076,3.076,0,0,1,3.094,3.094v1.829c1.979-2.789,4.768-5.022,9.133-5.022,6.29,0,12.43,4.97,12.43,13.9v.1c0,8.88-6.088,13.9-12.43,13.9a10.954,10.954,0,0,1-9.133-4.715v9.482a3.034,3.034,0,0,1-3.094,3.051,3.025,3.025,0,0,1-3.046-3.051V-44.1" transform="translate(-13.097 61.049)"/><path class="e" d="M140.6-44.086a3.03,3.03,0,0,1,3.041-3.094,3.075,3.075,0,0,1,3.1,3.094v1.476c.306-2.3,4.057-4.57,6.747-4.57a2.849,2.849,0,0,1,3.044,3.042,2.882,2.882,0,0,1-2.436,2.942c-4.363.761-7.355,4.579-7.355,9.861v8.851a3.063,3.063,0,0,1-3.1,3.045,3.02,3.02,0,0,1-3.041-3.045v-21.6" transform="translate(-17.314 61.035)"/><path class="e" d="M161.41-44.072a3.037,3.037,0,0,1,3.046-3.1,3.077,3.077,0,0,1,3.095,3.1v21.6a3.031,3.031,0,0,1-3.095,3.04,3.019,3.019,0,0,1-3.046-3.04v-21.6" transform="translate(-19.878 61.033)"/><path class="e" d="M171.942-44.06a3.031,3.031,0,0,1,3.042-3.093,3.074,3.074,0,0,1,3.1,3.093v1.26a9.5,9.5,0,0,1,8.37-4.368c6.037,0,9.54,4.061,9.54,10.249v14.44a2.992,2.992,0,0,1-3.046,3.045,3.033,3.033,0,0,1-3.094-3.045V-35.042c0-4.158-2.08-6.544-5.733-6.544-3.551,0-6.037,2.486-6.037,6.649V-22.48a3.033,3.033,0,0,1-3.1,3.045,3.021,3.021,0,0,1-3.042-3.045V-44.06" transform="translate(-21.175 61.033)"/><path class="e" d="M215.92-24.783c-4.215,0-7.661-3.3-7.661-8.576v-.1c0-5.174,3.5-8.573,7.661-8.573s7.813,3.451,7.813,8.573v.1c0,5.125-3.652,8.576-7.813,8.576m10.75-22.476a3.076,3.076,0,0,0-3.092,3.1v1.826c-1.98-2.789-4.768-5.021-9.129-5.021-6.295,0-12.431,4.97-12.431,13.9v.1c0,8.879,6.086,13.9,12.431,13.9a10.936,10.936,0,0,0,9.1-4.677c-.307,4.824-3.261,7.371-8.441,7.371a16.384,16.384,0,0,1-8.221-2.136,2.442,2.442,0,0,0-1.112-.249,2.592,2.592,0,0,0-2.591,2.534,2.513,2.513,0,0,0,1.729,2.436,23.092,23.092,0,0,0,10.344,2.385c4.823,0,8.578-1.166,11.013-3.6,2.227-2.234,3.445-5.578,3.445-10.1v-18.67a3.035,3.035,0,0,0-3.047-3.1" transform="translate(-24.878 61.057)"/><path class="e" d="M167.572-56.034a3.1,3.1,0,0,1-3.1,3.1,3.1,3.1,0,0,1-3.094-3.1,3.09,3.09,0,0,1,3.094-3.094,3.093,3.093,0,0,1,3.1,3.094" transform="translate(-19.874 62.506)"/><path class="e" d="M50.193-23.217C43.388-14.15,28.85-17.21,19.529-16.77c0,0-1.65.092-3.312.365,0,0,.628-.268,1.43-.544,6.546-2.264,9.64-2.719,13.618-4.762C38.738-25.54,46.177-33.879,47.69-42.542c-2.845,8.332-11.5,15.5-19.375,18.415A132.012,132.012,0,0,1,13.17-20.2c0,.007-.389-.2-.394-.209C6.145-23.635,5.953-38,18-42.628c5.281-2.031,10.332-.916,16.04-2.274,6.089-1.448,13.14-6.011,16.007-11.978C53.258-47.35,57.118-32.439,50.193-23.217Zm.118-36.617a25.427,25.427,0,0,1-2.939,5.211,27.521,27.521,0,0,0-19.761-8.357A27.643,27.643,0,0,0,0-35.37,27.537,27.537,0,0,0,8.837-15.147l.6.536A2.362,2.362,0,0,1,9.1-17.928a2.362,2.362,0,0,1,3.318-.349,2.36,2.36,0,0,1,.347,3.32,2.358,2.358,0,0,1-3.316.348l.411.364A27.478,27.478,0,0,0,27.612-7.756,27.64,27.64,0,0,0,55.14-33.377c.758-7-1.31-15.887-4.828-26.457" transform="translate(0 62.981)"/><path class="e" d="M241.327-45.291h-.965v1.277h.965a.652.652,0,0,0,.654-.623A.658.658,0,0,0,241.327-45.291Zm.6,3.161-.936-1.425h-.623v1.425h-.5v-3.607h1.468a1.123,1.123,0,0,1,1.174,1.1,1.057,1.057,0,0,1-.921,1.069l.966,1.439Zm-.862-4.482a2.661,2.661,0,0,0-2.673,2.673,2.671,2.671,0,0,0,2.673,2.672,2.68,2.68,0,0,0,2.671-2.672A2.671,2.671,0,0,0,241.06-46.613Zm0,5.82a3.149,3.149,0,0,1-3.147-3.147,3.139,3.139,0,0,1,3.147-3.148,3.13,3.13,0,0,1,3.147,3.148,3.14,3.14,0,0,1-3.147,3.147" transform="translate(-29.299 61.023)"/></g><g transform="translate(367.005 7159.109)"><path class="f" d="M76.467,34.95,62.89,58.491h0L49.323,34.95,62.9,11.443Z" transform="translate(-49.323 -11.443)"/><path class="g" d="M108.182,11.445H81.039L94.611,34.952h27.15Z" transform="translate(-67.459 -11.444)"/><path class="f" d="M144.414,89.911,157.991,66.37h0l13.567,23.541-13.572,23.505Z" transform="translate(-103.699 -42.852)"/><path class="g" d="M94.565,144.854H121.71l-13.573-23.507-27.15,0Z" transform="translate(-67.429 -74.289)"/></g><g transform="translate(347.869 7242.074)"><path class="f" d="M16.06,219.8V205.4h-2.3v5.95h-6.8V205.4H4.631V219.8H6.955v-6.46h6.8v6.46Z" transform="translate(-4.631 -205.32)"/><path class="f" d="M43.8,219.8V205.4H41.471V219.8Z" transform="translate(-25.697 -205.32)"/><path class="f" d="M66.618,215.362a3.225,3.225,0,0,0-2.751-3.284v-.043a3.519,3.519,0,0,0,2.452-3.282c0-2.219-1.62-3.5-4.754-3.5-1.749,0-3.391.043-4.521.063v14.394c1.6.021,3.05.063,3.924.063,4.413,0,5.65-2.536,5.65-4.412Zm-2.729-6.247c0,1.45-1.13,2.325-3.284,2.325-.49,0-.853,0-1.237-.021v-4.264c.554-.023,1.173-.044,1.813-.044,2.047,0,2.707.832,2.707,2Zm.277,6.29c0,1.451-1,2.473-3.112,2.473a10.471,10.471,0,0,1-1.685-.107v-4.584c.321-.021,1.066-.021,1.3-.021,2.026,0,3.5.6,3.5,2.238Z" transform="translate(-34.602 -205.234)"/><path class="f" d="M95.01,219.8v-1.982H89.744v-4.478h5.01v-1.9h-5.01v-4.094H95.01V205.4H87.419V219.8Z" transform="translate(-51.971 -205.32)"/><path class="f" d="M123.435,219.685l-3.794-5.011c-.362-.469-.81-1.024-1.215-1.535,2.346-.258,4.072-1.727,4.072-4.031,0-2.858-2.046-3.9-5.031-3.9-1.621,0-2.815.021-3.86.083v14.395h2.324v-6.226h.107l4.478,6.226Zm-3.369-10.32c0,1.428-1.13,2.39-3.006,2.39-.512,0-.918-.024-1.13-.044v-4.563c.341-.021.768-.044,1.215-.044,1.94,0,2.921.683,2.921,2.261Z" transform="translate(-66.946 -205.207)"/><path class="g" d="M154.933,219.8V205.4h-2.259v4.266c0,2.111.063,5.2.149,6.845-.533-1.044-1.108-2.2-1.749-3.262L146.32,205.4h-3.049V219.8h2.26v-4.84c0-2.048-.043-4.968-.128-6.376a29.87,29.87,0,0,0,1.6,3.028l4.925,8.188h3.006Z" transform="translate(-83.909 -205.32)"/><path class="g" d="M189.092,219.8,183.868,205.4h-2.579l-5.16,14.394h2.345l1.11-3.177H185.4l1.11,3.177Zm-4.307-5.032H180.18l1.62-4.456a16.981,16.981,0,0,0,.662-2.281h.042a15.673,15.673,0,0,0,.641,2.217l1.642,4.52Z" transform="translate(-102.698 -205.32)"/><path class="g" d="M215.489,207.367V205.4H205.255v1.963H209.2V219.8h2.324V207.367Z" transform="translate(-119.353 -205.32)"/><path class="g" d="M242.362,219.8v-1.982H237.1v-4.478h5.01v-1.9H237.1v-4.094h5.266V205.4h-7.591V219.8Z" transform="translate(-136.231 -205.32)"/></g><path class="h" d="M-18.458,6.58H149.966V123.318H-18.458Z" transform="translate(542.821 7133.296)"/><path class="i" d="M36.22,109.907h-4.56q-.242-11.545-1.331-21.712h-.041l-6.942,21.712H19.875l-6.9-21.712h-.04q-.768,9.764-.968,21.712H7.81q.4-14.529,2.017-27.243h5.651l6.577,20.018H22.1l6.618-20.018h5.407q1.776,14.892,2.1,27.243M56,89.807q-2.785,15.112-7.346,21.964-3.553,5.276-7.789,5.278a7.656,7.656,0,0,1-2.784-.678v-2.429a13.411,13.411,0,0,0,1.9.122,4.583,4.583,0,0,0,3.19-1.091,3.979,3.979,0,0,0,1.451-2.985,19.863,19.863,0,0,0-1.13-4.642l-5-15.539h4.48l3.591,11.622a15.682,15.682,0,0,1,1.009,5.531,75.914,75.914,0,0,0,4.117-17.153H56v0Z" transform="translate(539.698 7124.25)"/><path class="j" d="M123.579,109.852H110.626V82.609h4.357V106.5h8.6Zm-16.343.658-5.008-2.471a9.308,9.308,0,0,0,1.251-1.217q3.193-3.751,3.19-11.1,0-13.519-10.613-13.521a10.051,10.051,0,0,0-8.112,3.432q-3.19,3.754-3.189,11.059,0,7.183,2.824,10.53,2.584,3.028,7.792,3.029a12.554,12.554,0,0,0,3.567-.478l6.52,3.8ZM91.012,104.4q-1.655-2.662-1.655-8.553,0-10.289,6.256-10.293a5.248,5.248,0,0,1,4.8,2.46q1.652,2.666,1.656,8.475,0,10.374-6.255,10.374a5.238,5.238,0,0,1-4.8-2.464m-8.156-2.1a7.228,7.228,0,0,1-2.541,5.69,10.009,10.009,0,0,1-6.817,2.22,13.652,13.652,0,0,1-7.748-2.545l1.171-2.339a13.255,13.255,0,0,0,5.849,1.613,6.143,6.143,0,0,0,3.855-1.086,3.7,3.7,0,0,0,1.484-3.025c0-1.619-1.129-3-3.2-4.161-1.909-1.049-5.728-3.241-5.728-3.241a6.521,6.521,0,0,1-3.106-5.8,6.768,6.768,0,0,1,2.319-5.347,8.741,8.741,0,0,1,5.994-2.04,12.428,12.428,0,0,1,6.9,2.019l-1.05,2.34a13.338,13.338,0,0,0-5.243-1.129,4.671,4.671,0,0,0-3.225,1.01,3.375,3.375,0,0,0-1.222,2.584c0,1.611,1.152,3.012,3.279,4.193,1.935,1.05,5.849,3.28,5.849,3.28a6.438,6.438,0,0,1,3.183,5.757" transform="translate(532.81 7124.305)"/><path class="i" d="M131.575,67.35a15.211,15.211,0,0,0-6.386.923c-.494.2-1.28.2-1.349.822.267.264.3.691.53,1.056a7.649,7.649,0,0,0,1.711,2.005c.69.529,1.382,1.052,2.108,1.513,1.28.792,2.731,1.253,3.979,2.042.727.459,1.449,1.053,2.177,1.547.358.263.587.691,1.051.856v-.1c-.233-.3-.3-.724-.527-1.054l-.989-.953a15.666,15.666,0,0,0-3.422-3.323c-1.054-.726-3.359-1.713-3.786-2.927l-.067-.067a13.113,13.113,0,0,0,2.271-.532c1.12-.3,2.141-.228,3.29-.523.529-.132,1.053-.3,1.583-.461v-.3c-.6-.593-1.02-1.381-1.647-1.941a43.826,43.826,0,0,0-5.431-4.049c-1.022-.66-2.337-1.085-3.425-1.646-.392-.2-1.053-.3-1.284-.626a13.41,13.41,0,0,1-1.351-2.535c-.952-1.809-1.876-3.816-2.7-5.729a35.6,35.6,0,0,0-1.679-3.751A33.2,33.2,0,0,0,103.5,35.29a15.786,15.786,0,0,0-4.211-1.351l-2.47-.13A13.086,13.086,0,0,1,95.3,32.655c-1.879-1.184-6.715-3.751-8.1-.362-.89,2.142,1.316,4.248,2.074,5.334A15.129,15.129,0,0,1,90.957,40.1c.232.56.3,1.153.529,1.745A39.427,39.427,0,0,0,93.2,46.253a15.707,15.707,0,0,0,1.217,2.037c.264.365.724.526.825,1.121a9.446,9.446,0,0,0-.759,2.468c-1.184,3.719-.722,8.326.957,11.06.525.823,1.778,2.635,3.454,1.94,1.484-.592,1.155-2.468,1.582-4.113.1-.4.033-.658.231-.919v.064c.459.921.923,1.808,1.348,2.731a18.768,18.768,0,0,0,4.28,4.407c.789.6,1.413,1.614,2.4,1.978v-.1h-.065a3.688,3.688,0,0,0-.755-.656A15.983,15.983,0,0,1,106.2,66.3a42.4,42.4,0,0,1-3.685-5.992c-.53-1.022-.988-2.139-1.415-3.16-.2-.394-.2-.988-.53-1.186A12.312,12.312,0,0,0,98.993,58.2a18.618,18.618,0,0,0-.924,4.975l-.13.063c-1.049-.263-1.413-1.348-1.812-2.269a14.256,14.256,0,0,1-.3-8.79c.229-.69,1.22-2.863.825-3.52-.2-.63-.857-.989-1.219-1.485a13.38,13.38,0,0,1-1.186-2.106c-.789-1.842-1.187-3.884-2.037-5.725A17.732,17.732,0,0,0,90.569,36.8a16.307,16.307,0,0,1-1.813-2.567c-.164-.362-.394-.954-.13-1.348a.524.524,0,0,1,.461-.429c.426-.36,1.645.1,2.072.3A16.677,16.677,0,0,1,94.418,34.4c.461.33.955.956,1.546,1.121h.693c1.051.229,2.236.063,3.226.361a21.189,21.189,0,0,1,4.74,2.27,29.206,29.206,0,0,1,10.267,11.259c.394.756.561,1.449.921,2.237.693,1.614,1.551,3.26,2.239,4.84a21.688,21.688,0,0,0,2.338,4.41c.493.691,2.472,1.053,3.359,1.415a23.219,23.219,0,0,1,2.271.92c1.12.69,2.235,1.482,3.288,2.241.524.395,2.172,1.218,2.27,1.877M98,38.746a5.128,5.128,0,0,0-1.347.166v.066h.063a10.74,10.74,0,0,0,1.055,1.35c.265.528.5,1.051.755,1.578l.063-.065a1.85,1.85,0,0,0,.7-1.646,7.526,7.526,0,0,1-.4-.691c-.194-.33-.621-.493-.887-.758" transform="translate(530.283 7130.439)"/><g transform="translate(566.016 7033.688)"><g transform="translate(0 0)"><g transform="translate(0 0)"><path class="k" d="M1.021,41.7a7.668,7.668,0,0,1,0-7.645L18.446,3.823A7.626,7.626,0,0,1,25.058,0H59.909a7.633,7.633,0,0,1,6.612,3.823L83.946,34.05a7.666,7.666,0,0,1,0,7.645L66.521,71.924a7.625,7.625,0,0,1-6.612,3.822H25.058a7.639,7.639,0,0,1-6.612-3.822Z" transform="translate(0)"/><path class="l" d="M93.25,62.886,73.767,43.4,63.325,47.12l3.87,3.87.239,1.341-7.753-7.747-6.89.9L50.5,50.34l-5.583-5.589-8.231,1.48L34.961,61.844,63.9,90.792l12.792-.119Z" transform="translate(-11.934 -14.813)"/></g><g transform="translate(22.988 28.623)"><g transform="translate(0 0)"><path class="m" d="M4.286.131A3.926,3.926,0,0,0,.635,3.782V18.545H4.286v-7.3H7.937v7.3h3.651V3.782A3.926,3.926,0,0,0,7.937.131Zm0,7.461V3.775H7.937V7.592Z" transform="translate(-0.635 -0.124)"/><path class="m" d="M26.962.128a3.926,3.926,0,0,0-3.651,3.651V18.542h3.651v-7.3h3.651a3.926,3.926,0,0,0,3.651-3.651V3.772A3.926,3.926,0,0,0,30.613.121H26.962Zm0,7.461V3.772h3.651V7.589Z" transform="translate(-8.375 -0.121)"/><path class="m" d="M47.194,3.782V14.894H43.709v3.651H54.33V14.894H50.845V3.782H54.33V.131H43.709V3.782Z" transform="translate(-15.338 -0.124)"/></g></g></g></g></g></svg>