<svg xmlns="http://www.w3.org/2000/svg" xmlns:xlink="http://www.w3.org/1999/xlink" width="278" height="278" viewBox="0 0 278 278"><defs><style>.a{fill:url(#a);}.b{fill:#91fbff;}.c{filter:url(#b);}</style><linearGradient id="a" x1="0.121" y1="0.197" x2="0.888" y2="0.773" gradientUnits="objectBoundingBox"><stop offset="0" stop-color="#0c2a92"/><stop offset="0.498" stop-color="#203387"/><stop offset="1" stop-color="#05103a"/></linearGradient><filter id="b" x="0" y="0" width="278" height="278" filterUnits="userSpaceOnUse"><feOffset dy="9" input="SourceAlpha"/><feGaussianBlur stdDeviation="6" result="c"/><feFlood flood-opacity="0.188"/><feComposite operator="in" in2="c"/><feComposite in="SourceGraphic"/></filter></defs><g transform="translate(-1442 -1192)"><g class="c" transform="matrix(1, 0, 0, 1, 1442, 1192)"><circle class="a" cx="121" cy="121" r="121" transform="translate(18 9)"/></g><g transform="translate(1503 1269.14)"><path class="b" d="M86.55,20.84,52.87,49.748h67.352Z" transform="translate(-6.231 -2.456)"/><path class="b" d="M85.177,129.279,47.43,62.95h75.485Z" transform="translate(-5.59 -7.419)"/><path class="b" d="M87.378,9.192,64.76,0H110Z" transform="translate(-7.632)"/><path class="b" d="M24.956,7.19,0,37.818,27.708,46.6Z" transform="translate(0 -0.847)"/><path class="b" d="M32.969,62.056,8.76,54.27l56.409,63.986Z" transform="translate(-1.032 -6.396)"/><path class="b" d="M74.48,15.84,40.888,44.712,38.85,4.61Z" transform="translate(-4.579 -0.543)"/><path class="b" d="M152.293,7.19l24.965,30.628L149.55,46.6Z" transform="translate(-17.625 -0.847)"/><path class="b" d="M143.725,61.456l22.169-7.186-57.169,66.386Z" transform="translate(-13.988 -6.396)"/><path class="b" d="M101.72,15.84l33.592,28.873,2.038-40.1Z" transform="translate(-11.988 -0.543)"/></g></g></svg>