<svg xmlns="http://www.w3.org/2000/svg" xmlns:xlink="http://www.w3.org/1999/xlink" width="278" height="278" viewBox="0 0 278 278"><defs><style>.a{fill:url(#a);}.b{fill:#91fbff;}.c{filter:url(#b);}</style><linearGradient id="a" x1="0.121" y1="0.197" x2="0.888" y2="0.773" gradientUnits="objectBoundingBox"><stop offset="0" stop-color="#0c2a92"/><stop offset="0.498" stop-color="#203387"/><stop offset="1" stop-color="#05103a"/></linearGradient><filter id="b" x="0" y="0" width="278" height="278" filterUnits="userSpaceOnUse"><feOffset dy="9" input="SourceAlpha"/><feGaussianBlur stdDeviation="6" result="c"/><feFlood flood-opacity="0.188"/><feComposite operator="in" in2="c"/><feComposite in="SourceGraphic"/></filter></defs><g transform="translate(-912 -1192)"><g class="c" transform="matrix(1, 0, 0, 1, 912, 1192)"><circle class="a" cx="121" cy="121" r="121" transform="translate(18 9)"/></g><g transform="translate(965.96 1261.461)"><g transform="translate(0.04 -0.001)"><path class="b" d="M31.167,67.2A25.77,25.77,0,1,1,5.4,92.968,25.77,25.77,0,0,1,31.167,67.2m0-5.388A31.158,31.158,0,1,0,62.356,92.968,31.158,31.158,0,0,0,31.167,61.81Z" transform="translate(-0.04 -14.233)"/><path class="b" d="M171.868,67.388a25.77,25.77,0,1,1-25.77,25.77,25.77,25.77,0,0,1,25.77-25.77m0-5.388a31.158,31.158,0,1,0,31.158,31.158A31.158,31.158,0,0,0,171.868,62Z" transform="translate(-32.434 -14.277)"/><path class="b" d="M63.779,84Q66.234,72.638,68.7,61.277a5.388,5.388,0,0,1,1.663-2.571,5.457,5.457,0,0,1,3.317-1.285l26.063-.3a5.95,5.95,0,0,1,4.464,2.263,5.665,5.665,0,0,1,1.055,3.171l6.158,24.631c-.339-1.67-2.84-15.348,6.7-26.278,7.2-8.244,19.474-12.893,31.4-8.867A29.2,29.2,0,0,1,169.192,78l2.378-.57c-.354-2.625-.7-5.257-1.047-7.882-5.5-10.183-10.26-18.473-13.855-24.693-10.422-17.85-7.7-11.654-9.121-14.625-2.14-4.48-4.949-11.546-9.021-12.054a21.644,21.644,0,0,1-3.795-.67,21.552,21.552,0,0,1-3.995-1.616C125.595,13.139,124.586,3.317,118.444.7c-3.533-1.47-7.79-.216-10.353,1.716-3.749,2.817-4.349,7.389-4.464,8.259-.824,6.3,3.564,8.282,2.309,13.485-1.039,4.218-4.149,3.795-4.842,8.259-.554,3.564,1.1,5.95-.57,8.736a6.928,6.928,0,0,1-2.656,2.471l-21.752.092A3.6,3.6,0,0,1,73.369,42.4c-.77-1.178-.054-2.756.185-3.518,1.393-4.364-3.433-7.7-4.842-13.678-1.539-6.52,2.987-7.92,1.539-14.525-.97-4.164-4.041-9.337-8.5-10.445-5.734-1.432-13.739,3.849-17,13.955a7.074,7.074,0,0,1-2.186,2.471A7.9,7.9,0,0,1,37.947,17.9c-2.555,0-10.006,9.175-29.057,42.542A31.843,31.843,0,0,1,30.065,50.432c1.97-.1,13.324-.5,21.552,7.312,4.4,4.18,6.4,9.237,9.021,15.956A71.753,71.753,0,0,1,63.779,84Z" transform="translate(-2.078 0.001)"/></g></g></g></svg>