<svg xmlns="http://www.w3.org/2000/svg" width="730.896" height="703.796" viewBox="0 0 730.896 703.796"><defs><style>.a{fill:#f5f5f5;}.b{fill:#e0e0e0;}.c{fill:#27debf;}.d{opacity:0.15;}.e,.g,.i,.j,.z{fill:#fff;}.f{opacity:0.2;}.g,.q{opacity:0.7;}.h{opacity:0.05;}.i{opacity:0.9;}.j{opacity:0.75;}.k{opacity:0.4;}.l{opacity:0.3;}.m{fill:#37474f;}.aa,.n{fill:#455a64;}.o{fill:#ebebeb;}.p{opacity:0.1;}.r{fill:#0d41e9;}.s{fill:#fafafa;}.t{fill:#ff3551;}.u{fill:#ffa8a7;}.v{fill:#263238;}.w{fill:#b16668;}.x{fill:#f28f8f;}.y{fill:#f0f0f0;}.z{opacity:0.5;}.aa{font-size:11px;font-family:SegoeUI-Bold, Segoe UI;font-weight:700;}.ab{letter-spacing:-0.01em;}</style></defs><g transform="translate(0 303.71)"><ellipse class="a" cx="365.448" cy="200.043" rx="365.448" ry="200.043"/></g><g transform="translate(58.633 391.166)"><path class="b" d="M197.739,411.675l80.523-46.536c3.769-2.172,3.769-5.708,0-7.88L99.3,253.809a15.109,15.109,0,0,0-13.651,0L5.095,300.237c-3.769,2.172-3.769,5.708,0,7.88L184.041,411.675A15.155,15.155,0,0,0,197.739,411.675Z" transform="translate(387.658 -252.18)"/><path class="b" d="M245.667,397.451,237.1,402.4a4.406,4.406,0,0,1-4.033,0L73.3,310.149c-1.117-.652-1.117-1.691,0-2.327l8.563-4.948a4.405,4.405,0,0,1,4.033,0l159.774,92.25C246.784,395.775,246.784,396.815,245.667,397.451Z" transform="translate(313.358 -224.506)"/><path class="b" d="M351.954,405.195l-8.563,4.948a4.5,4.5,0,0,1-4.033,0l-89.52-51.609a1.225,1.225,0,0,1,0-2.327l8.578-4.948a4.5,4.5,0,0,1,4.033,0l89.5,51.609a1.225,1.225,0,0,1,0,2.327Z" transform="translate(-66.778 -197.829)"/><path class="b" d="M469.43,337.167l-8.578,4.948a4.405,4.405,0,0,1-4.033,0L367.3,290.507a1.225,1.225,0,0,1,0-2.327l8.656-5.01a4.5,4.5,0,0,1,4.033,0L469.43,334.84a1.225,1.225,0,0,1,0,2.327Z" transform="translate(-366.458 -235.361)"/><ellipse class="b" cx="80.492" cy="46.474" rx="80.492" ry="46.474" transform="translate(300.3 173.363)"/></g><g transform="translate(22.647 308.975)"><g transform="translate(621.158 93.615)"><path class="c" d="M6.965,383.184C2.73,335.174,11.712,311.208,22,293.649c7.973-13.635,21.717-25.905,29.473-30.466s18.475-5.041,25.176-.264c6.2,4.39,5.864,9.617,4.436,15.186-2.7,10.75-26.557,27.658-34.98,36.593-14.256,15.171-26.122,32.467-26.8,74.737Z" transform="translate(-3.995 -259.544)"/><path class="d" d="M6.965,383.184C2.73,335.174,11.712,311.208,22,293.649c7.973-13.635,21.717-25.905,29.473-30.466s18.475-5.041,25.176-.264c6.2,4.39,5.864,9.617,4.436,15.186-2.7,10.75-26.557,27.658-34.98,36.593-14.256,15.171-26.122,32.467-26.8,74.737Z" transform="translate(-3.995 -259.544)"/><path class="e" d="M16.6,373.441h0a.838.838,0,0,0,.729-.915c-6.98-58.946,38.64-98.8,53.284-106.04a.822.822,0,1,0-.729-1.474c-14.907,7.368-61.288,47.886-54.2,107.7a.822.822,0,0,0,.915.729Z" transform="translate(-7.175 -256.58)"/><path class="c" d="M16.729,368.66c.372.326,3.568,2.094,4.018,2.311,5.166,2.5,12.41,2.87,18.925,2.994,4.328.093,10.16.186,13.821-2.42a5.646,5.646,0,0,0,2.528-5.739c-.6-2.311-3.18-4-3.009-6.406,4.855-.745,10.067,1.381,14.612-.481a17.063,17.063,0,0,0,7.756-7.229,9.307,9.307,0,0,0,1.551-6.748c-.745-2.482-3.583-3.537-6.05-4.343a4.747,4.747,0,0,1-1.815-.9,1.737,1.737,0,0,1-.558-1.83c.31-.776,1.256-1.039,2.094-1.163,1.768-.248,3.583-.279,5.336-.62a8.113,8.113,0,0,0,4.654-2.451,10.517,10.517,0,0,0,1.8-6.034,90.854,90.854,0,0,0,.372-10.858,72.905,72.905,0,0,1,.729-9.307c-8.408-3.428-17.932-4.3-26.913-3.971-5.026.2-12.41,1.257-15.512,5.957a9.54,9.54,0,0,0-1.319,4.452,16.6,16.6,0,0,0,.124,2.156c0,.45.171,2.2-.745,1.256a1.861,1.861,0,0,1-.372-.791l-2.249-7.384a4.359,4.359,0,0,0-1.055-2.017c-1.225-1.086-4.995-1.055-9.385,1.365a14.985,14.985,0,0,0-6.2,7.6c-2,4.917-2.048,10.378-2.063,15.683l-2.528-5.181c-2.963-6.05-7.027,3.382-7.554,5.491A47.529,47.529,0,0,0,7.468,352C9.19,358.375,11.765,364.239,16.729,368.66Z" transform="translate(-6.53 -235.371)"/><path class="e" d="M12.971,366.573a.714.714,0,0,0,.589-.5C20.866,343.4,55.567,313.428,68.814,308.9a.721.721,0,0,0-.465-1.365c-13.5,4.654-48.739,35.057-56.169,58.108a.714.714,0,0,0,.465.9A.776.776,0,0,0,12.971,366.573Z" transform="translate(-1.05 -233.113)"/><path class="e" d="M52.381,342.886a.682.682,0,0,0,.558-.279.667.667,0,0,0-.264-.915,41.246,41.246,0,0,0-27.922-2.482,61.707,61.707,0,0,0-2.482-25.75v-.2a.7.7,0,0,0-.838-.481.683.683,0,0,0-.465.838v.2a59.876,59.876,0,0,1,2.3,26.215.667.667,0,0,0,.233.6.636.636,0,0,0,.636.14,39.866,39.866,0,0,1,27.922,2.094.636.636,0,0,0,.326.015Z" transform="translate(1.577 -230.213)"/></g><g transform="translate(0)"><path class="c" d="M475.554,297.239c0-17.342.077-34.793-9.044-59.334-7.663-20.584-27.518-39.711-40.331-38.671-11.913.993-14.364,15.683-3.459,28.573,5.026,5.957,13.883,12.906,21.577,22.1,8.981,10.719,16.024,25.827,17.482,33.63a194.168,194.168,0,0,1,2.094,20.166Z" transform="translate(-412.217 -199.194)"/><path class="f" d="M475.554,297.239c0-17.342.077-34.793-9.044-59.334-7.663-20.584-27.518-39.711-40.331-38.671-11.913.993-14.364,15.683-3.459,28.573,5.026,5.957,13.883,12.906,21.577,22.1,8.981,10.719,16.024,25.827,17.482,33.63a194.168,194.168,0,0,1,2.094,20.166Z" transform="translate(-412.217 -199.194)"/><path class="e" d="M461.169,288.847a.76.76,0,0,1-.558-.729c-.62-36.453-25.533-72.457-41.464-81.841a.765.765,0,1,1,.776-1.319c16.226,9.555,41.588,46.133,42.208,83.144a.76.76,0,0,1-.745.776Z" transform="translate(-403.479 -196.075)"/><path class="c" d="M468.377,291.168c-.807-6.081-6.531-16.737-16.877-26.37-11.448-10.657-26.991-17.063-29.706-24.447-3.258-8.873,4.948-15.853,18.025-13.232,15.714,3.1,32.932,22.942,36.329,59.52Z" transform="translate(-421.08 -184.11)"/><path class="e" d="M462.919,282.629a.744.744,0,0,1-.574-.589c-6.422-31.924-28-45.962-38.516-48.925a.744.744,0,0,1-.527-.931.76.76,0,0,1,.946-.543c11.618,3.273,33.041,17.513,39.6,50.088a.791.791,0,0,1-.605.915A.774.774,0,0,1,462.919,282.629Z" transform="translate(-412.194 -181.326)"/></g></g><g transform="translate(292.824 32.191)"><path class="c" d="M254.633,29.414h0a.915.915,0,0,1,.962.155l1.892,1.443.372,1.21a2.311,2.311,0,0,1-.7,2.172,8.975,8.975,0,0,0-.977,1.039,1.334,1.334,0,0,1-1.877.295l-4.421-3.351a.931.931,0,0,0-.946-.171Zm5.988,17.451c.9-3.707,3.413-5.414,6.5-4.964a9.2,9.2,0,0,0-.791,2.156c-1.412,5.879,1.784,14.55,7.151,19.39a11.525,11.525,0,0,0,5.771,3.1c-2.125,3.862-6.856,3.925-11.479-.233C262.4,61.462,259.209,52.744,260.621,46.865Zm1.551-25.409h0a.961.961,0,0,1,.372-.124l3.537-.558A1.908,1.908,0,0,1,268,21.829l2.854,6.469a2.946,2.946,0,0,0,.682.884h0a2.264,2.264,0,0,0,.527.4l-1.256,3.351a1.194,1.194,0,0,1-1.691.636,19.186,19.186,0,0,0-2.094-.853,3.552,3.552,0,0,1-1.21-.729,2.777,2.777,0,0,1-.683-.884l-2.854-6.469a1.923,1.923,0,0,0-1.923-1.055l-3.537.558a1.21,1.21,0,0,0-.357.109Zm5.817,61.148a.946.946,0,0,0,.357-.5l1.443-3.847a1.194,1.194,0,0,1,1.706-.636,16.971,16.971,0,0,0,2.094.853,2.562,2.562,0,0,1,.652.326l-.186.5a1.055,1.055,0,0,1-.481.574h0Zm10.5-56.821a.729.729,0,0,1,.4-.078,1.04,1.04,0,0,1,.62.295l4.948,4.436a.821.821,0,0,1,.2.2l.124.155a3.611,3.611,0,0,1,.4.853v.217h0a2.31,2.31,0,0,1,.093.838l-.651,4.964a3.94,3.94,0,0,0,.667,2.451,35.791,35.791,0,0,1,2.2,3.366,2.482,2.482,0,0,0,1.1.962,1.674,1.674,0,0,0,.434.171h3.971a.884.884,0,0,1,.279,0,.683.683,0,0,1,.233,0h0a.868.868,0,0,1,.264.14,2.5,2.5,0,0,1,.465.326,1.908,1.908,0,0,1,.5.729l2.715,7.508a1.365,1.365,0,0,1-.636,1.675l-3.878,1.892a1.551,1.551,0,0,0-.14.962,32.683,32.683,0,0,1,.357,3.413,4.157,4.157,0,0,0,.977,2.373h0l4.3,4.514a1.782,1.782,0,0,1,.217.264h0a1.984,1.984,0,0,1,.171.31,2.792,2.792,0,0,1,.233,1.722l-1.21,4.979a1.04,1.04,0,0,1-.45.667l-5.693,2.792a1.024,1.024,0,0,0,.434-.652l1.21-4.979a2.869,2.869,0,0,0-.636-2.342l-4.3-4.514h0a4.157,4.157,0,0,1-.977-2.373,29.469,29.469,0,0,0-.372-3.413,1.691,1.691,0,0,1,1.07-1.8l2.792-.977a1.365,1.365,0,0,0,.822-1.753l-2.7-7.275a1.985,1.985,0,0,0-.481-.729,2.141,2.141,0,0,0-1.365-.589h-3.382a2.156,2.156,0,0,1-.946-.248,2.715,2.715,0,0,1-1.1-.977c-.683-1.148-1.427-2.28-2.2-3.366a3.723,3.723,0,0,1-.651-2.451l.636-4.948a2.126,2.126,0,0,0-.078-.869,2.746,2.746,0,0,0-.776-1.412l-4.948-4.452a.9.9,0,0,0-1.024-.217Zm4.359,53.206a2.3,2.3,0,0,1,.683-2.172,8.969,8.969,0,0,0,.977-1.039,1.334,1.334,0,0,1,1.877-.295l2.528,1.908,1.551,5.321a1.148,1.148,0,0,1-.558,1.381h0L284.184,86.9a1.132,1.132,0,0,0,.558-1.4Z" transform="translate(-247.19 -20.762)"/><path class="g" d="M254.633,29.414h0a.915.915,0,0,1,.962.155l1.892,1.443.372,1.21a2.311,2.311,0,0,1-.7,2.172,8.975,8.975,0,0,0-.977,1.039,1.334,1.334,0,0,1-1.877.295l-4.421-3.351a.931.931,0,0,0-.946-.171Zm5.988,17.451c.9-3.707,3.413-5.414,6.5-4.964a9.2,9.2,0,0,0-.791,2.156c-1.412,5.879,1.784,14.55,7.151,19.39a11.525,11.525,0,0,0,5.771,3.1c-2.125,3.862-6.856,3.925-11.479-.233C262.4,61.462,259.209,52.744,260.621,46.865Zm1.551-25.409h0a.961.961,0,0,1,.372-.124l3.537-.558A1.908,1.908,0,0,1,268,21.829l2.854,6.469a2.946,2.946,0,0,0,.682.884h0a2.264,2.264,0,0,0,.527.4l-1.256,3.351a1.194,1.194,0,0,1-1.691.636,19.186,19.186,0,0,0-2.094-.853,3.552,3.552,0,0,1-1.21-.729,2.777,2.777,0,0,1-.683-.884l-2.854-6.469a1.923,1.923,0,0,0-1.923-1.055l-3.537.558a1.21,1.21,0,0,0-.357.109Zm5.817,61.148a.946.946,0,0,0,.357-.5l1.443-3.847a1.194,1.194,0,0,1,1.706-.636,16.971,16.971,0,0,0,2.094.853,2.562,2.562,0,0,1,.652.326l-.186.5a1.055,1.055,0,0,1-.481.574h0Zm10.5-56.821a.729.729,0,0,1,.4-.078,1.04,1.04,0,0,1,.62.295l4.948,4.436a.821.821,0,0,1,.2.2l.124.155a3.611,3.611,0,0,1,.4.853v.217h0a2.31,2.31,0,0,1,.093.838l-.651,4.964a3.94,3.94,0,0,0,.667,2.451,35.791,35.791,0,0,1,2.2,3.366,2.482,2.482,0,0,0,1.1.962,1.674,1.674,0,0,0,.434.171h3.971a.884.884,0,0,1,.279,0,.683.683,0,0,1,.233,0h0a.868.868,0,0,1,.264.14,2.5,2.5,0,0,1,.465.326,1.908,1.908,0,0,1,.5.729l2.715,7.508a1.365,1.365,0,0,1-.636,1.675l-3.878,1.892a1.551,1.551,0,0,0-.14.962,32.683,32.683,0,0,1,.357,3.413,4.157,4.157,0,0,0,.977,2.373h0l4.3,4.514a1.782,1.782,0,0,1,.217.264h0a1.984,1.984,0,0,1,.171.31,2.792,2.792,0,0,1,.233,1.722l-1.21,4.979a1.04,1.04,0,0,1-.45.667l-5.693,2.792a1.024,1.024,0,0,0,.434-.652l1.21-4.979a2.869,2.869,0,0,0-.636-2.342l-4.3-4.514h0a4.157,4.157,0,0,1-.977-2.373,29.469,29.469,0,0,0-.372-3.413,1.691,1.691,0,0,1,1.07-1.8l2.792-.977a1.365,1.365,0,0,0,.822-1.753l-2.7-7.275a1.985,1.985,0,0,0-.481-.729,2.141,2.141,0,0,0-1.365-.589h-3.382a2.156,2.156,0,0,1-.946-.248,2.715,2.715,0,0,1-1.1-.977c-.683-1.148-1.427-2.28-2.2-3.366a3.723,3.723,0,0,1-.651-2.451l.636-4.948a2.126,2.126,0,0,0-.078-.869,2.746,2.746,0,0,0-.776-1.412l-4.948-4.452a.9.9,0,0,0-1.024-.217Zm4.359,53.206a2.3,2.3,0,0,1,.683-2.172,8.969,8.969,0,0,0,.977-1.039,1.334,1.334,0,0,1,1.877-.295l2.528,1.908,1.551,5.321a1.148,1.148,0,0,1-.558,1.381h0L284.184,86.9a1.132,1.132,0,0,0,.558-1.4Z" transform="translate(-247.19 -20.762)"/><path class="h" d="M254.633,29.414h0a.915.915,0,0,1,.962.155l1.892,1.443.372,1.21a2.311,2.311,0,0,1-.7,2.172,8.975,8.975,0,0,0-.977,1.039,1.334,1.334,0,0,1-1.877.295l-4.421-3.351a.931.931,0,0,0-.946-.171Zm5.988,17.451c.9-3.707,3.413-5.414,6.5-4.964a9.2,9.2,0,0,0-.791,2.156c-1.412,5.879,1.784,14.55,7.151,19.39a11.525,11.525,0,0,0,5.771,3.1c-2.125,3.862-6.856,3.925-11.479-.233C262.4,61.462,259.209,52.744,260.621,46.865Zm1.551-25.409h0a.961.961,0,0,1,.372-.124l3.537-.558A1.908,1.908,0,0,1,268,21.829l2.854,6.469a2.946,2.946,0,0,0,.682.884h0a2.264,2.264,0,0,0,.527.4l-1.256,3.351a1.194,1.194,0,0,1-1.691.636,19.186,19.186,0,0,0-2.094-.853,3.552,3.552,0,0,1-1.21-.729,2.777,2.777,0,0,1-.683-.884l-2.854-6.469a1.923,1.923,0,0,0-1.923-1.055l-3.537.558a1.21,1.21,0,0,0-.357.109Zm5.817,61.148a.946.946,0,0,0,.357-.5l1.443-3.847a1.194,1.194,0,0,1,1.706-.636,16.971,16.971,0,0,0,2.094.853,2.562,2.562,0,0,1,.652.326l-.186.5a1.055,1.055,0,0,1-.481.574h0Zm10.5-56.821a.729.729,0,0,1,.4-.078,1.04,1.04,0,0,1,.62.295l4.948,4.436a.821.821,0,0,1,.2.2l.124.155a3.611,3.611,0,0,1,.4.853v.217h0a2.31,2.31,0,0,1,.093.838l-.651,4.964a3.94,3.94,0,0,0,.667,2.451,35.791,35.791,0,0,1,2.2,3.366,2.482,2.482,0,0,0,1.1.962,1.674,1.674,0,0,0,.434.171h3.971a.884.884,0,0,1,.279,0,.683.683,0,0,1,.233,0h0a.868.868,0,0,1,.264.14,2.5,2.5,0,0,1,.465.326,1.908,1.908,0,0,1,.5.729l2.715,7.508a1.365,1.365,0,0,1-.636,1.675l-3.878,1.892a1.551,1.551,0,0,0-.14.962,32.683,32.683,0,0,1,.357,3.413,4.157,4.157,0,0,0,.977,2.373h0l4.3,4.514a1.782,1.782,0,0,1,.217.264h0a1.984,1.984,0,0,1,.171.31,2.792,2.792,0,0,1,.233,1.722l-1.21,4.979a1.04,1.04,0,0,1-.45.667l-5.693,2.792a1.024,1.024,0,0,0,.434-.652l1.21-4.979a2.869,2.869,0,0,0-.636-2.342l-4.3-4.514h0a4.157,4.157,0,0,1-.977-2.373,29.469,29.469,0,0,0-.372-3.413,1.691,1.691,0,0,1,1.07-1.8l2.792-.977a1.365,1.365,0,0,0,.822-1.753l-2.7-7.275a1.985,1.985,0,0,0-.481-.729,2.141,2.141,0,0,0-1.365-.589h-3.382a2.156,2.156,0,0,1-.946-.248,2.715,2.715,0,0,1-1.1-.977c-.683-1.148-1.427-2.28-2.2-3.366a3.723,3.723,0,0,1-.651-2.451l.636-4.948a2.126,2.126,0,0,0-.078-.869,2.746,2.746,0,0,0-.776-1.412l-4.948-4.452a.9.9,0,0,0-1.024-.217Zm4.359,53.206a2.3,2.3,0,0,1,.683-2.172,8.969,8.969,0,0,0,.977-1.039,1.334,1.334,0,0,1,1.877-.295l2.528,1.908,1.551,5.321a1.148,1.148,0,0,1-.558,1.381h0L284.184,86.9a1.132,1.132,0,0,0,.558-1.4Z" transform="translate(-247.19 -20.762)"/><path class="c" d="M248.92,51.221l4.3,4.514a2.606,2.606,0,0,1,.636,1.365l5.693-2.808a4.1,4.1,0,0,0-.217-.745,1.989,1.989,0,0,0-.171-.31h0a1.782,1.782,0,0,0-.217-.264l-4.3-4.514Z" transform="translate(-207.599 -5.495)"/><path class="c" d="M252,38.724a2.156,2.156,0,0,0,.946.248h3.382a2.141,2.141,0,0,1,1.365.589l5.739-2.746a2.5,2.5,0,0,0-.465-.326.869.869,0,0,0-.264-.14h0a.682.682,0,0,0-.233,0,.884.884,0,0,0-.279,0H258.22l-.419-.171h0Z" transform="translate(-216.263 -12.264)"/><path class="c" d="M275.509,29.158a.931.931,0,0,1,.946.171l4.421,3.351a1.35,1.35,0,0,0,1.877-.295,10.625,10.625,0,0,1,.977-1.055,2.28,2.28,0,0,0,.7-2.156l-.372-1.21-1.892-1.443a.884.884,0,0,0-.946-.155h0Z" transform="translate(-273.774 -17.714)"/><path class="c" d="M266.69,24.228a1.21,1.21,0,0,1,.357-.109l3.537-.558a1.924,1.924,0,0,1,1.923,1.055l2.854,6.469a2.777,2.777,0,0,0,.683.884l5.708-2.808a2.948,2.948,0,0,1-.683-.884l-2.9-6.437a1.908,1.908,0,0,0-1.923-1.055l-3.537.558a.962.962,0,0,0-.372.124h0Z" transform="translate(-257.37 -20.757)"/><path class="c" d="M257.88,26.8a.9.9,0,0,1,1.024.217l4.948,4.452a2.745,2.745,0,0,1,.776,1.412l5.708-2.792v-.217a3.615,3.615,0,0,0-.4-.853l-.124-.155a.822.822,0,0,0-.2-.2l-4.948-4.452a1.039,1.039,0,0,0-.62-.295.729.729,0,0,0-.4.078Z" transform="translate(-232.288 -19.029)"/><path class="i" d="M248.92,51.221l4.3,4.514a2.606,2.606,0,0,1,.636,1.365l5.693-2.808a4.1,4.1,0,0,0-.217-.745,1.989,1.989,0,0,0-.171-.31h0a1.782,1.782,0,0,0-.217-.264l-4.3-4.514Z" transform="translate(-207.599 -5.495)"/><path class="i" d="M252,38.724a2.156,2.156,0,0,0,.946.248h3.382a2.141,2.141,0,0,1,1.365.589l5.739-2.746a2.5,2.5,0,0,0-.465-.326.869.869,0,0,0-.264-.14h0a.682.682,0,0,0-.233,0,.884.884,0,0,0-.279,0H258.22l-.419-.171h0Z" transform="translate(-216.263 -12.264)"/><path class="i" d="M275.509,29.158a.931.931,0,0,1,.946.171l4.421,3.351a1.35,1.35,0,0,0,1.877-.295,10.625,10.625,0,0,1,.977-1.055,2.28,2.28,0,0,0,.7-2.156l-.372-1.21-1.892-1.443a.884.884,0,0,0-.946-.155h0Z" transform="translate(-273.774 -17.714)"/><path class="i" d="M266.69,24.228a1.21,1.21,0,0,1,.357-.109l3.537-.558a1.924,1.924,0,0,1,1.923,1.055l2.854,6.469a2.777,2.777,0,0,0,.683.884l5.708-2.808a2.948,2.948,0,0,1-.683-.884l-2.9-6.437a1.908,1.908,0,0,0-1.923-1.055l-3.537.558a.962.962,0,0,0-.372.124h0Z" transform="translate(-257.37 -20.757)"/><path class="i" d="M257.88,26.8a.9.9,0,0,1,1.024.217l4.948,4.452a2.745,2.745,0,0,1,.776,1.412l5.708-2.792v-.217a3.615,3.615,0,0,0-.4-.853l-.124-.155a.822.822,0,0,0-.2-.2l-4.948-4.452a1.039,1.039,0,0,0-.62-.295.729.729,0,0,0-.4.078Z" transform="translate(-232.288 -19.029)"/><path class="c" d="M252.622,36.866l1.194-4.979a.838.838,0,0,1,1.427-.512l4.421,3.351a1.334,1.334,0,0,0,1.877-.295,8.962,8.962,0,0,1,.977-1.039,2.358,2.358,0,0,0,.7-2.172l-1.939-6.531a1.179,1.179,0,0,1,.962-1.551l3.537-.543a1.892,1.892,0,0,1,1.923,1.039l2.854,6.469a3.475,3.475,0,0,0,1.892,1.551,19.187,19.187,0,0,1,2.094.853,1.194,1.194,0,0,0,1.691-.636l1.443-3.847a.869.869,0,0,1,1.551-.357l4.948,4.452a2.885,2.885,0,0,1,.853,2.28l-.651,4.948a3.94,3.94,0,0,0,.621,2.5,37.143,37.143,0,0,1,2.2,3.382,2.73,2.73,0,0,0,2.063,1.21h3.366a2.172,2.172,0,0,1,1.846,1.3l2.684,7.291a1.35,1.35,0,0,1-.807,1.753l-2.792.977a1.675,1.675,0,0,0-1.055,1.8,33.131,33.131,0,0,1,.357,3.413,4.157,4.157,0,0,0,.977,2.373L298.181,70a2.839,2.839,0,0,1,.636,2.327l-1.21,4.995a.838.838,0,0,1-1.412.512l-4.436-3.413a1.334,1.334,0,0,0-1.877.295,10.419,10.419,0,0,1-.977,1.039,2.3,2.3,0,0,0-.683,2.172l1.939,6.531a1.179,1.179,0,0,1-.977,1.551l-3.537.543a1.893,1.893,0,0,1-1.908-1.039l-2.87-6.437a3.428,3.428,0,0,0-1.877-1.551,18.2,18.2,0,0,1-2.11-.853,1.179,1.179,0,0,0-1.691.636l-1.443,3.831a.869.869,0,0,1-1.551.372l-4.948-4.452a2.9,2.9,0,0,1-.838-2.28l.745-5.01a3.971,3.971,0,0,0-.651-2.466,38.2,38.2,0,0,1-2.218-3.366,2.653,2.653,0,0,0-2.048-1.21h-3.382a2.156,2.156,0,0,1-1.846-1.319l-2.684-7.275a1.365,1.365,0,0,1,.822-1.753l2.792-.977a1.691,1.691,0,0,0,.993-1.8,33.046,33.046,0,0,1-.372-3.428,4.157,4.157,0,0,0-.977-2.358l-4.39-4.607a2.792,2.792,0,0,1-.574-2.342Zm20.522,28.387c5.367,4.824,10.858,3.971,12.286-1.908s-1.784-14.566-7.151-19.39-10.858-3.971-12.286,1.908,1.784,14.6,7.151,19.39Z" transform="translate(-252.563 -19.76)"/><path class="j" d="M252.622,36.866l1.194-4.979a.838.838,0,0,1,1.427-.512l4.421,3.351a1.334,1.334,0,0,0,1.877-.295,8.962,8.962,0,0,1,.977-1.039,2.358,2.358,0,0,0,.7-2.172l-1.939-6.531a1.179,1.179,0,0,1,.962-1.551l3.537-.543a1.892,1.892,0,0,1,1.923,1.039l2.854,6.469a3.475,3.475,0,0,0,1.892,1.551,19.187,19.187,0,0,1,2.094.853,1.194,1.194,0,0,0,1.691-.636l1.443-3.847a.869.869,0,0,1,1.551-.357l4.948,4.452a2.885,2.885,0,0,1,.853,2.28l-.651,4.948a3.94,3.94,0,0,0,.621,2.5,37.143,37.143,0,0,1,2.2,3.382,2.73,2.73,0,0,0,2.063,1.21h3.366a2.172,2.172,0,0,1,1.846,1.3l2.684,7.291a1.35,1.35,0,0,1-.807,1.753l-2.792.977a1.675,1.675,0,0,0-1.055,1.8,33.131,33.131,0,0,1,.357,3.413,4.157,4.157,0,0,0,.977,2.373L298.181,70a2.839,2.839,0,0,1,.636,2.327l-1.21,4.995a.838.838,0,0,1-1.412.512l-4.436-3.413a1.334,1.334,0,0,0-1.877.295,10.419,10.419,0,0,1-.977,1.039,2.3,2.3,0,0,0-.683,2.172l1.939,6.531a1.179,1.179,0,0,1-.977,1.551l-3.537.543a1.893,1.893,0,0,1-1.908-1.039l-2.87-6.437a3.428,3.428,0,0,0-1.877-1.551,18.2,18.2,0,0,1-2.11-.853,1.179,1.179,0,0,0-1.691.636l-1.443,3.831a.869.869,0,0,1-1.551.372l-4.948-4.452a2.9,2.9,0,0,1-.838-2.28l.745-5.01a3.971,3.971,0,0,0-.651-2.466,38.2,38.2,0,0,1-2.218-3.366,2.653,2.653,0,0,0-2.048-1.21h-3.382a2.156,2.156,0,0,1-1.846-1.319l-2.684-7.275a1.365,1.365,0,0,1,.822-1.753l2.792-.977a1.691,1.691,0,0,0,.993-1.8,33.046,33.046,0,0,1-.372-3.428,4.157,4.157,0,0,0-.977-2.358l-4.39-4.607a2.792,2.792,0,0,1-.574-2.342Zm20.522,28.387c5.367,4.824,10.858,3.971,12.286-1.908s-1.784-14.566-7.151-19.39-10.858-3.971-12.286,1.908,1.784,14.6,7.151,19.39Z" transform="translate(-252.563 -19.76)"/><path class="c" d="M206.637,40.858h0a1.256,1.256,0,0,1,1.319.2l2.606,1.986.5,1.675a3.1,3.1,0,0,1-.946,2.994,13.235,13.235,0,0,0-1.334,1.443,1.877,1.877,0,0,1-2.606.388l-6.1-4.654a1.241,1.241,0,0,0-1.288-.233ZM214.858,64.9c1.225-5.1,4.654-7.477,8.935-6.841a13.449,13.449,0,0,0-1.086,2.963c-1.954,8.1,2.466,20.057,9.866,26.712a15.854,15.854,0,0,0,7.927,4.188c-2.916,5.321-9.431,5.414-15.807-.326C217.356,84.943,212.95,73,214.858,64.9Zm2.172-35h0a1.815,1.815,0,0,1,.512-.171l4.917-.729a2.59,2.59,0,0,1,2.637,1.427l3.956,8.919a3.739,3.739,0,0,0,.931,1.21h0a3.724,3.724,0,0,0,.729.574l-1.722,4.654a1.629,1.629,0,0,1-2.327.869,25.717,25.717,0,0,0-2.9-1.163,5.072,5.072,0,0,1-1.66-1.008,3.629,3.629,0,0,1-.931-1.225l-3.94-8.9a2.621,2.621,0,0,0-2.637-1.443l-4.886.76a1.691,1.691,0,0,0-.5.155Zm8.02,84.23a1.551,1.551,0,0,0,.5-.7l2.032-5.321a1.551,1.551,0,0,1,2.327-.884,21.361,21.361,0,0,0,2.9,1.163,4.869,4.869,0,0,1,.9.45l-.264.683a1.241,1.241,0,0,1-.667.791h0ZM239.476,35.77a1.07,1.07,0,0,1,.543-.109,1.349,1.349,0,0,1,.853.4l6.825,6.2a1.551,1.551,0,0,1,.264.279,1.118,1.118,0,0,1,.171.233,4.655,4.655,0,0,1,.558,1.179,2.582,2.582,0,0,0,0,.279h0A3.429,3.429,0,0,1,248.8,45.4l-.884,6.825a5.538,5.538,0,0,0,1.07,3.3,54.609,54.609,0,0,1,3.1,4.654,3.6,3.6,0,0,0,1.551,1.319,2.42,2.42,0,0,0,.6.233h.31a1.692,1.692,0,0,0,.4,0h4.778a1.039,1.039,0,0,1,.372,0l.326.093h0l.357.171a4.945,4.945,0,0,1,.651.465,2.854,2.854,0,0,1,.683.993L265.815,73.5a1.846,1.846,0,0,1-.884,2.3l-5.46,2.854a2.42,2.42,0,0,0-.2,1.319,45.222,45.222,0,0,1,.5,4.654,5.8,5.8,0,0,0,1.35,3.273h0l5.926,6.2a1.677,1.677,0,0,1,.279.372h0a1.9,1.9,0,0,1,.217.434,3.723,3.723,0,0,1,.326,2.358l-1.675,6.872a1.349,1.349,0,0,1-.6.9l-7.834,3.847a1.318,1.318,0,0,0,.589-.884l1.66-6.872a3.211,3.211,0,0,0,0-1.334,3.707,3.707,0,0,0-.869-1.877l-5.91-6.2h-.078a5.988,5.988,0,0,1-1.35-3.258,41.346,41.346,0,0,0-.5-4.654,2.327,2.327,0,0,1,1.458-2.5l3.987-1.241a1.861,1.861,0,0,0,1.148-2.4l-3.707-10.036a2.777,2.777,0,0,0-.683-.993,2.932,2.932,0,0,0-1.861-.807l-4.654-.093a2.978,2.978,0,0,1-1.319-.341,3.614,3.614,0,0,1-1.551-1.334c-.946-1.551-1.97-3.1-3.1-4.654a5.243,5.243,0,0,1-.9-3.382l.931-6.841a3.1,3.1,0,0,0-.093-1.194,4,4,0,0,0-1.07-1.97l-6.825-6.2a1.21,1.21,0,0,0-1.4-.295Zm5.988,73.372a3.2,3.2,0,0,1,.946-2.978,10.736,10.736,0,0,0,1.334-1.443,1.861,1.861,0,0,1,2.606-.4l3.475,2.622,2.218,7.384a1.551,1.551,0,0,1-.776,1.908h0l-7.88,3.878a1.551,1.551,0,0,0,.776-1.923Z" transform="translate(-138.216 -16.229)"/><path class="g" d="M206.637,40.858h0a1.256,1.256,0,0,1,1.319.2l2.606,1.986.5,1.675a3.1,3.1,0,0,1-.946,2.994,13.235,13.235,0,0,0-1.334,1.443,1.877,1.877,0,0,1-2.606.388l-6.1-4.654a1.241,1.241,0,0,0-1.288-.233ZM214.858,64.9c1.225-5.1,4.654-7.477,8.935-6.841a13.449,13.449,0,0,0-1.086,2.963c-1.954,8.1,2.466,20.057,9.866,26.712a15.854,15.854,0,0,0,7.927,4.188c-2.916,5.321-9.431,5.414-15.807-.326C217.356,84.943,212.95,73,214.858,64.9Zm2.172-35h0a1.815,1.815,0,0,1,.512-.171l4.917-.729a2.59,2.59,0,0,1,2.637,1.427l3.956,8.919a3.739,3.739,0,0,0,.931,1.21h0a3.724,3.724,0,0,0,.729.574l-1.722,4.654a1.629,1.629,0,0,1-2.327.869,25.717,25.717,0,0,0-2.9-1.163,5.072,5.072,0,0,1-1.66-1.008,3.629,3.629,0,0,1-.931-1.225l-3.94-8.9a2.621,2.621,0,0,0-2.637-1.443l-4.886.76a1.691,1.691,0,0,0-.5.155Zm8.02,84.23a1.551,1.551,0,0,0,.5-.7l2.032-5.321a1.551,1.551,0,0,1,2.327-.884,21.361,21.361,0,0,0,2.9,1.163,4.869,4.869,0,0,1,.9.45l-.264.683a1.241,1.241,0,0,1-.667.791h0ZM239.476,35.77a1.07,1.07,0,0,1,.543-.109,1.349,1.349,0,0,1,.853.4l6.825,6.2a1.551,1.551,0,0,1,.264.279,1.118,1.118,0,0,1,.171.233,4.655,4.655,0,0,1,.558,1.179,2.582,2.582,0,0,0,0,.279h0A3.429,3.429,0,0,1,248.8,45.4l-.884,6.825a5.538,5.538,0,0,0,1.07,3.3,54.609,54.609,0,0,1,3.1,4.654,3.6,3.6,0,0,0,1.551,1.319,2.42,2.42,0,0,0,.6.233h.31a1.692,1.692,0,0,0,.4,0h4.778a1.039,1.039,0,0,1,.372,0l.326.093h0l.357.171a4.945,4.945,0,0,1,.651.465,2.854,2.854,0,0,1,.683.993L265.815,73.5a1.846,1.846,0,0,1-.884,2.3l-5.46,2.854a2.42,2.42,0,0,0-.2,1.319,45.222,45.222,0,0,1,.5,4.654,5.8,5.8,0,0,0,1.35,3.273h0l5.926,6.2a1.677,1.677,0,0,1,.279.372h0a1.9,1.9,0,0,1,.217.434,3.723,3.723,0,0,1,.326,2.358l-1.675,6.872a1.349,1.349,0,0,1-.6.9l-7.834,3.847a1.318,1.318,0,0,0,.589-.884l1.66-6.872a3.211,3.211,0,0,0,0-1.334,3.707,3.707,0,0,0-.869-1.877l-5.91-6.2h-.078a5.988,5.988,0,0,1-1.35-3.258,41.346,41.346,0,0,0-.5-4.654,2.327,2.327,0,0,1,1.458-2.5l3.987-1.241a1.861,1.861,0,0,0,1.148-2.4l-3.707-10.036a2.777,2.777,0,0,0-.683-.993,2.932,2.932,0,0,0-1.861-.807l-4.654-.093a2.978,2.978,0,0,1-1.319-.341,3.614,3.614,0,0,1-1.551-1.334c-.946-1.551-1.97-3.1-3.1-4.654a5.243,5.243,0,0,1-.9-3.382l.931-6.841a3.1,3.1,0,0,0-.093-1.194,4,4,0,0,0-1.07-1.97l-6.825-6.2a1.21,1.21,0,0,0-1.4-.295Zm5.988,73.372a3.2,3.2,0,0,1,.946-2.978,10.736,10.736,0,0,0,1.334-1.443,1.861,1.861,0,0,1,2.606-.4l3.475,2.622,2.218,7.384a1.551,1.551,0,0,1-.776,1.908h0l-7.88,3.878a1.551,1.551,0,0,0,.776-1.923Z" transform="translate(-138.216 -16.229)"/><path class="h" d="M206.637,40.858h0a1.256,1.256,0,0,1,1.319.2l2.606,1.986.5,1.675a3.1,3.1,0,0,1-.946,2.994,13.235,13.235,0,0,0-1.334,1.443,1.877,1.877,0,0,1-2.606.388l-6.1-4.654a1.241,1.241,0,0,0-1.288-.233ZM214.858,64.9c1.225-5.1,4.654-7.477,8.935-6.841a13.449,13.449,0,0,0-1.086,2.963c-1.954,8.1,2.466,20.057,9.866,26.712a15.854,15.854,0,0,0,7.927,4.188c-2.916,5.321-9.431,5.414-15.807-.326C217.356,84.943,212.95,73,214.858,64.9Zm2.172-35h0a1.815,1.815,0,0,1,.512-.171l4.917-.729a2.59,2.59,0,0,1,2.637,1.427l3.956,8.919a3.739,3.739,0,0,0,.931,1.21h0a3.724,3.724,0,0,0,.729.574l-1.722,4.654a1.629,1.629,0,0,1-2.327.869,25.717,25.717,0,0,0-2.9-1.163,5.072,5.072,0,0,1-1.66-1.008,3.629,3.629,0,0,1-.931-1.225l-3.94-8.9a2.621,2.621,0,0,0-2.637-1.443l-4.886.76a1.691,1.691,0,0,0-.5.155Zm8.02,84.23a1.551,1.551,0,0,0,.5-.7l2.032-5.321a1.551,1.551,0,0,1,2.327-.884,21.361,21.361,0,0,0,2.9,1.163,4.869,4.869,0,0,1,.9.45l-.264.683a1.241,1.241,0,0,1-.667.791h0ZM239.476,35.77a1.07,1.07,0,0,1,.543-.109,1.349,1.349,0,0,1,.853.4l6.825,6.2a1.551,1.551,0,0,1,.264.279,1.118,1.118,0,0,1,.171.233,4.655,4.655,0,0,1,.558,1.179,2.582,2.582,0,0,0,0,.279h0A3.429,3.429,0,0,1,248.8,45.4l-.884,6.825a5.538,5.538,0,0,0,1.07,3.3,54.609,54.609,0,0,1,3.1,4.654,3.6,3.6,0,0,0,1.551,1.319,2.42,2.42,0,0,0,.6.233h.31a1.692,1.692,0,0,0,.4,0h4.778a1.039,1.039,0,0,1,.372,0l.326.093h0l.357.171a4.945,4.945,0,0,1,.651.465,2.854,2.854,0,0,1,.683.993L265.815,73.5a1.846,1.846,0,0,1-.884,2.3l-5.46,2.854a2.42,2.42,0,0,0-.2,1.319,45.222,45.222,0,0,1,.5,4.654,5.8,5.8,0,0,0,1.35,3.273h0l5.926,6.2a1.677,1.677,0,0,1,.279.372h0a1.9,1.9,0,0,1,.217.434,3.723,3.723,0,0,1,.326,2.358l-1.675,6.872a1.349,1.349,0,0,1-.6.9l-7.834,3.847a1.318,1.318,0,0,0,.589-.884l1.66-6.872a3.211,3.211,0,0,0,0-1.334,3.707,3.707,0,0,0-.869-1.877l-5.91-6.2h-.078a5.988,5.988,0,0,1-1.35-3.258,41.346,41.346,0,0,0-.5-4.654,2.327,2.327,0,0,1,1.458-2.5l3.987-1.241a1.861,1.861,0,0,0,1.148-2.4l-3.707-10.036a2.777,2.777,0,0,0-.683-.993,2.932,2.932,0,0,0-1.861-.807l-4.654-.093a2.978,2.978,0,0,1-1.319-.341,3.614,3.614,0,0,1-1.551-1.334c-.946-1.551-1.97-3.1-3.1-4.654a5.243,5.243,0,0,1-.9-3.382l.931-6.841a3.1,3.1,0,0,0-.093-1.194,4,4,0,0,0-1.07-1.97l-6.825-6.2a1.21,1.21,0,0,0-1.4-.295Zm5.988,73.372a3.2,3.2,0,0,1,.946-2.978,10.736,10.736,0,0,0,1.334-1.443,1.861,1.861,0,0,1,2.606-.4l3.475,2.622,2.218,7.384a1.551,1.551,0,0,1-.776,1.908h0l-7.88,3.878a1.551,1.551,0,0,0,.776-1.923Z" transform="translate(-138.216 -16.229)"/><path class="c" d="M198.77,70.916l5.91,6.2A3.708,3.708,0,0,1,205.549,79l7.849-3.863a4.65,4.65,0,0,0-.31-1.024,1.893,1.893,0,0,0-.217-.434h0a1.677,1.677,0,0,0-.279-.372l-5.926-6.2Z" transform="translate(-83.658 4.779)"/><path class="c" d="M203.05,53.723a2.978,2.978,0,0,0,1.319.341l4.654.093a2.932,2.932,0,0,1,1.861.807l7.865-3.863a4.952,4.952,0,0,0-.651-.465l-.357-.171h0l-.326-.093a1.039,1.039,0,0,0-.372,0h-4.778a1.691,1.691,0,0,1-.4,0h-.31l-.589-.233h0Z" transform="translate(-95.648 -4.569)"/><path class="c" d="M235.4,40.512a1.21,1.21,0,0,1,1.288.233l6.1,4.654a1.877,1.877,0,0,0,2.606-.419,10.855,10.855,0,0,1,1.349-1.443,3.1,3.1,0,0,0,.931-2.978l-.5-1.675-2.606-1.97a1.241,1.241,0,0,0-1.319-.217h0Z" transform="translate(-174.828 -12.035)"/><path class="c" d="M223.25,33.774a1.691,1.691,0,0,1,.5-.155l4.886-.76A2.622,2.622,0,0,1,231.27,34.3l3.94,8.9a3.631,3.631,0,0,0,.931,1.225l7.865-3.878a3.738,3.738,0,0,1-.931-1.21l-3.956-8.919A2.591,2.591,0,0,0,236.482,29l-4.871.76a1.815,1.815,0,0,0-.512.171h0Z" transform="translate(-152.239 -16.234)"/><path class="c" d="M211.11,37.262a1.21,1.21,0,0,1,1.4.295l6.825,6.2a4,4,0,0,1,1.07,1.97l7.865-3.862a2.59,2.59,0,0,1,0-.279,4.654,4.654,0,0,0-.559-1.179,1.116,1.116,0,0,0-.171-.233,1.552,1.552,0,0,0-.264-.279l-6.825-6.2a1.349,1.349,0,0,0-.853-.4,1.07,1.07,0,0,0-.543.109Z" transform="translate(-117.668 -13.858)"/><path class="i" d="M198.77,70.916l5.91,6.2A3.708,3.708,0,0,1,205.549,79l7.849-3.863a4.65,4.65,0,0,0-.31-1.024,1.893,1.893,0,0,0-.217-.434h0a1.677,1.677,0,0,0-.279-.372l-5.926-6.2Z" transform="translate(-83.658 4.779)"/><path class="i" d="M203.05,53.723a2.978,2.978,0,0,0,1.319.341l4.654.093a2.932,2.932,0,0,1,1.861.807l7.865-3.863a4.952,4.952,0,0,0-.651-.465l-.357-.171h0l-.326-.093a1.039,1.039,0,0,0-.372,0h-4.778a1.691,1.691,0,0,1-.4,0h-.31l-.589-.233h0Z" transform="translate(-95.648 -4.569)"/><path class="i" d="M235.4,40.512a1.21,1.21,0,0,1,1.288.233l6.1,4.654a1.877,1.877,0,0,0,2.606-.419,10.855,10.855,0,0,1,1.349-1.443,3.1,3.1,0,0,0,.931-2.978l-.5-1.675-2.606-1.97a1.241,1.241,0,0,0-1.319-.217h0Z" transform="translate(-174.828 -12.035)"/><path class="i" d="M223.25,33.774a1.691,1.691,0,0,1,.5-.155l4.886-.76A2.622,2.622,0,0,1,231.27,34.3l3.94,8.9a3.631,3.631,0,0,0,.931,1.225l7.865-3.878a3.738,3.738,0,0,1-.931-1.21l-3.956-8.919A2.591,2.591,0,0,0,236.482,29l-4.871.76a1.815,1.815,0,0,0-.512.171h0Z" transform="translate(-152.239 -16.234)"/><path class="i" d="M211.11,37.262a1.21,1.21,0,0,1,1.4.295l6.825,6.2a4,4,0,0,1,1.07,1.97l7.865-3.862a2.59,2.59,0,0,1,0-.279,4.654,4.654,0,0,0-.559-1.179,1.116,1.116,0,0,0-.171-.233,1.552,1.552,0,0,0-.264-.279l-6.825-6.2a1.349,1.349,0,0,0-.853-.4,1.07,1.07,0,0,0-.543.109Z" transform="translate(-117.668 -13.858)"/><path class="c" d="M203.823,51.128l1.66-6.872a1.148,1.148,0,0,1,1.955-.7l6.081,4.654a1.877,1.877,0,0,0,2.606-.419,14.634,14.634,0,0,1,1.334-1.427,3.1,3.1,0,0,0,.946-2.994l-2.668-9a1.551,1.551,0,0,1,1.334-2.11l4.871-.76a2.622,2.622,0,0,1,2.637,1.443l3.956,8.9a4.654,4.654,0,0,0,2.59,2.234,22.163,22.163,0,0,1,2.885,1.179,1.66,1.66,0,0,0,2.342-.9l1.986-5.274a1.194,1.194,0,0,1,2.063-.512l6.825,6.2a4,4,0,0,1,1.163,3.1l-.884,6.825a5.538,5.538,0,0,0,.9,3.382c1.086,1.551,2.11,3.1,3.1,4.654a3.769,3.769,0,0,0,2.823,1.691h4.654a2.994,2.994,0,0,1,2.56,1.8l3.692,10.036a1.846,1.846,0,0,1-1.117,2.4l-3.847,1.35a2.311,2.311,0,0,0-1.458,2.482,45.488,45.488,0,0,1,.5,4.654,5.863,5.863,0,0,0,1.349,3.258l5.988,6.2a3.956,3.956,0,0,1,.869,3.211l-1.66,6.872a1.148,1.148,0,0,1-1.954.7l-6.1-4.654a1.846,1.846,0,0,0-2.59.4,11.96,11.96,0,0,1-1.35,1.443,3.1,3.1,0,0,0-.946,2.978l2.668,9.012a1.551,1.551,0,0,1-1.334,2.094l-4.871.76A2.59,2.59,0,0,1,246.745,118l-3.94-8.9a4.809,4.809,0,0,0-2.606-2.234,24.4,24.4,0,0,1-2.885-1.163,1.644,1.644,0,0,0-2.342.884L233,111.858a1.21,1.21,0,0,1-2.079.512l-6.825-6.2a4.08,4.08,0,0,1-1.163-3.1l.822-6.593a5.413,5.413,0,0,0-.9-3.4c-1.086-1.551-2.11-3.1-3.1-4.654a3.707,3.707,0,0,0-2.823-1.675l-4.654-.078a2.963,2.963,0,0,1-2.482-1.8l-3.707-10.036a1.846,1.846,0,0,1,1.132-2.4l3.831-1.365a2.3,2.3,0,0,0,1.458-2.482,45.654,45.654,0,0,1-.5-4.654,5.755,5.755,0,0,0-1.35-3.273l-5.988-6.282a3.878,3.878,0,0,1-.853-3.242ZM232.1,90.219c7.384,6.639,14.969,5.476,16.924-2.622s-2.466-20.057-9.85-26.7-14.969-5.476-16.924,2.622,2.451,20.042,9.85,26.7Z" transform="translate(-145.563 -14.849)"/><path class="j" d="M203.823,51.128l1.66-6.872a1.148,1.148,0,0,1,1.955-.7l6.081,4.654a1.877,1.877,0,0,0,2.606-.419,14.634,14.634,0,0,1,1.334-1.427,3.1,3.1,0,0,0,.946-2.994l-2.668-9a1.551,1.551,0,0,1,1.334-2.11l4.871-.76a2.622,2.622,0,0,1,2.637,1.443l3.956,8.9a4.654,4.654,0,0,0,2.59,2.234,22.163,22.163,0,0,1,2.885,1.179,1.66,1.66,0,0,0,2.342-.9l1.986-5.274a1.194,1.194,0,0,1,2.063-.512l6.825,6.2a4,4,0,0,1,1.163,3.1l-.884,6.825a5.538,5.538,0,0,0,.9,3.382c1.086,1.551,2.11,3.1,3.1,4.654a3.769,3.769,0,0,0,2.823,1.691h4.654a2.994,2.994,0,0,1,2.56,1.8l3.692,10.036a1.846,1.846,0,0,1-1.117,2.4l-3.847,1.35a2.311,2.311,0,0,0-1.458,2.482,45.488,45.488,0,0,1,.5,4.654,5.863,5.863,0,0,0,1.349,3.258l5.988,6.2a3.956,3.956,0,0,1,.869,3.211l-1.66,6.872a1.148,1.148,0,0,1-1.954.7l-6.1-4.654a1.846,1.846,0,0,0-2.59.4,11.96,11.96,0,0,1-1.35,1.443,3.1,3.1,0,0,0-.946,2.978l2.668,9.012a1.551,1.551,0,0,1-1.334,2.094l-4.871.76A2.59,2.59,0,0,1,246.745,118l-3.94-8.9a4.809,4.809,0,0,0-2.606-2.234,24.4,24.4,0,0,1-2.885-1.163,1.644,1.644,0,0,0-2.342.884L233,111.858a1.21,1.21,0,0,1-2.079.512l-6.825-6.2a4.08,4.08,0,0,1-1.163-3.1l.822-6.593a5.413,5.413,0,0,0-.9-3.4c-1.086-1.551-2.11-3.1-3.1-4.654a3.707,3.707,0,0,0-2.823-1.675l-4.654-.078a2.963,2.963,0,0,1-2.482-1.8l-3.707-10.036a1.846,1.846,0,0,1,1.132-2.4l3.831-1.365a2.3,2.3,0,0,0,1.458-2.482,45.654,45.654,0,0,1-.5-4.654,5.755,5.755,0,0,0-1.35-3.273l-5.988-6.282a3.878,3.878,0,0,1-.853-3.242ZM232.1,90.219c7.384,6.639,14.969,5.476,16.924-2.622s-2.466-20.057-9.85-26.7-14.969-5.476-16.924,2.622,2.451,20.042,9.85,26.7Z" transform="translate(-145.563 -14.849)"/></g><g transform="translate(442.295 54.013)"><g transform="translate(24.633)"><path class="c" d="M72.2,36.114l157.23,90.807a16.924,16.924,0,0,1,8.47,14.054V506.563c0,5.755-3.552,12.41-7.942,15.016s-11.991,2.249-16.97-.636L56.318,430.492a20.057,20.057,0,0,1-9.028-15.636V50.509c0-5.755,4.809-9.7,9.2-12.223S67.207,33.244,72.2,36.114Z" transform="translate(-47.29 -34.826)"/><path class="k" d="M47.33,487.023c4.824,1.877,11.029,1.784,14.814-.4,4.374-2.528,7.942-9.307,7.942-15.016V106.016a15.962,15.962,0,0,0-2.28-7.756L53.24,106.528a17.7,17.7,0,0,1,4.2,10.533V478.925C57.506,485.859,53.116,489.148,47.33,487.023Z" transform="translate(120.464 0.133)"/><path class="l" d="M48.76,49.753c.341-5.166,4.25-7.2,9-4.452l160.984,92.933a15.156,15.156,0,0,1,3.769,3.273l14.566-8.268a15.977,15.977,0,0,0-5.414-5.864L73.657,36.117c-4.995-2.885-11.355-.372-15.729,2.172S49.008,44.168,48.76,49.753Z" transform="translate(-48.744 -34.83)"/><path class="c" d="M64.437,42.016l160.984,92.948a17.653,17.653,0,0,1,7.973,13.79V510.619c0,7.756-5.522,10.951-12.255,7.058L64.468,427.21a20.026,20.026,0,0,1-9.028-15.636V47.228C55.409,41.488,59.473,39.146,64.437,42.016Z" transform="translate(-55.425 -31.545)"/><path class="f" d="M64.437,42.016l160.984,92.948a17.653,17.653,0,0,1,7.973,13.79V510.619c0,7.756-5.522,10.951-12.255,7.058L64.468,427.21a20.026,20.026,0,0,1-9.028-15.636V47.228C55.409,41.488,59.473,39.146,64.437,42.016Z" transform="translate(-55.425 -31.545)"/><path class="m" d="M60.31,63.3V391.441a19,19,0,0,0,8.578,14.86l145.131,83.765c4.731,2.746,8.578.527,8.578-4.948V154.371a19.25,19.25,0,0,0-6.019-12.937l-.822-.729a13.849,13.849,0,0,0-1.737-1.194L194.582,128.28l-1.551-.915-1.923-1.07-4.654-2.637c-3.366-1.846-7.011-.853-7.011,3.1v12.255c0,4.018-3.009,5.538-6.717,3.4l-60.7-35.383a14.411,14.411,0,0,1-6.841-11.153V82.054a9.819,9.819,0,0,0-4.142-7.88L72.006,57.529l-.853-.5C65.2,53.589,60.31,56.4,60.31,63.3Z" transform="translate(-52.182 -23.403)"/><path class="n" d="M60.33,382.691V56.83L89.369,73.474a9.819,9.819,0,0,1,4.126,7.88V95.176a14.411,14.411,0,0,0,6.717,11.153l60.714,35.383a4.762,4.762,0,0,0,5.088.419c1.008-.683,10.595-7.213,11.82-8.113a4.421,4.421,0,0,0,1.551-3.754V125.61l1.923,1.07,1.551.915L202.3,138.827a13.852,13.852,0,0,1,1.737,1.194l.822.729a19.25,19.25,0,0,1,6.019,12.937V479.533l-142-81.981A19,19,0,0,1,60.33,382.691Z" transform="translate(-40.49 -22.704)"/><path class="n" d="M127.328,102.094l-21.81-12.58c-1.3-.76-2.358-.233-2.358,1.179a5.088,5.088,0,0,0,2.358,3.925l21.81,12.58c1.3.76,2.358.217,2.358-1.194A5.072,5.072,0,0,0,127.328,102.094Z" transform="translate(-25.739 -4.88)"/><path class="n" d="M126.8,85.309c-1.225-.714-2.218-.14-2.218,1.272a4.9,4.9,0,0,0,2.218,3.832c1.225.7,2.2.124,2.2-1.272a4.855,4.855,0,0,0-2.2-3.831Z" transform="translate(-58.282 -7.175)"/><path class="n" d="M132.448,82.017c-1.225-.7-2.218-.14-2.218,1.272a4.871,4.871,0,0,0,2.218,3.831c1.21.7,2.2.14,2.2-1.272A4.9,4.9,0,0,0,132.448,82.017Z" transform="translate(-72.696 -8.986)"/><path class="n" d="M92.558,105.046c-1.225-.7-2.218-.124-2.218,1.288a4.871,4.871,0,0,0,2.218,3.816c1.21.714,2.2.14,2.2-1.272a4.917,4.917,0,0,0-2.2-3.831Z" transform="translate(29.072 3.709)"/><path class="n" d="M98.258,101.769c-1.225-.714-2.218-.14-2.218,1.272a4.917,4.917,0,0,0,2.2,3.909c1.225.7,2.218.124,2.218-1.287A4.871,4.871,0,0,0,98.258,101.769Z" transform="translate(14.53 1.898)"/></g><g transform="translate(0 61.137)"><path class="o" d="M88.012,74.968c1.97-1.132,4.654-.977,7.663.745h0l29.907,17.063a9.8,9.8,0,0,1,4.142,7.88v13.806a14.411,14.411,0,0,0,6.717,11.153l57.395,33.428v-7.88a3.769,3.769,0,0,1,1.753-3.49l10.067-5.817a5.476,5.476,0,0,1,5.259.388l6.639,3.723,1.551.915,19.437,11.308a13.852,13.852,0,0,1,1.737,1.194l.822.729a19.25,19.25,0,0,1,6.019,12.937V503.829a6.05,6.05,0,0,1-2.5,5.538c-1.551.915-8.547,4.933-10.1,5.833s-3.692.76-6.065-.605L83.328,430.829a19,19,0,0,1-8.578-14.86V87.827c0-3.459,1.225-5.879,3.211-7.011Z" transform="translate(-74.501 -74.243)"/><path class="a" d="M76.66,123.717a5.724,5.724,0,0,1,4.979.543l6.624,3.723,1.551.915L109.3,140.129a13.853,13.853,0,0,1,1.737,1.194l.822.729a19.343,19.343,0,0,1,3.1,3.878l10.067-5.817a19.266,19.266,0,0,0-3.1-3.878l-.822-.729a13.852,13.852,0,0,0-1.737-1.194L99.928,123.081l-1.551-.915-6.639-3.707a5.445,5.445,0,0,0-5.259-.4Z" transform="translate(44.66 -50.365)"/><path class="a" d="M151.22,80.751c1.955-1.148,4.654-.993,7.663.745l29.892,17.156a7.88,7.88,0,0,1,2.963,3.335L201.8,96.17a7.942,7.942,0,0,0-2.947-3.335L168.95,75.772c-2.978-1.722-5.693-1.877-7.663-.745Z" transform="translate(-147.776 -74.21)"/><path class="p" d="M148.31,94.19a10.145,10.145,0,0,1,1.194,4.545v13.852a13.666,13.666,0,0,0,3.3,8.159l10.083-5.817a13.821,13.821,0,0,1-3.32-8.159V92.965a10.145,10.145,0,0,0-1.194-4.545Z" transform="translate(-104.349 -66.428)"/><path class="c" d="M92.128,79.465h0l29.907,17.156a9.85,9.85,0,0,1,4.142,7.88v13.837a14.41,14.41,0,0,0,6.717,11.153l60.683,35.383c3.723,2.141,6.717.62,6.717-3.4V149.223c0-3.956,3.661-4.948,7.027-3.1l6.624,3.723,1.551.915,19.483,11.184a13.852,13.852,0,0,1,1.737,1.194l.822.729a19.251,19.251,0,0,1,6.019,12.937V507.582c0,5.476-3.847,7.756-8.578,4.948L89.848,428.765A19,19,0,0,1,81.27,413.9V85.763C81.27,78.829,86.156,76.006,92.128,79.465Z" transform="translate(-81.022 -72.179)"/><g class="q" transform="translate(0.248 5.809)"><path class="r" d="M92.128,79.465h0l29.907,17.156a9.85,9.85,0,0,1,4.142,7.88v13.837a14.41,14.41,0,0,0,6.717,11.153l60.683,35.383c3.723,2.141,6.717.62,6.717-3.4V149.223c0-3.956,3.661-4.948,7.027-3.1l6.624,3.723,1.551.915,19.483,11.184a13.852,13.852,0,0,1,1.737,1.194l.822.729a19.251,19.251,0,0,1,6.019,12.937V507.582c0,5.476-3.847,7.756-8.578,4.948L89.848,428.765A19,19,0,0,1,81.27,413.9V85.763C81.27,78.829,86.156,76.006,92.128,79.465Z" transform="translate(-81.27 -77.988)"/></g><path class="c" d="M243.805,261.237l-55.425-72.751-64.158,41.34L139.13,213.94l-21.608-32.73L81.27,205.533v73.9l162.535,93.832Z" transform="translate(-81.27 -15.282)"/><path class="c" d="M152.862,162.9c-5.228-3.009-9.462-.558-9.462,5.46a20.848,20.848,0,0,0,9.462,16.365c5.212,3.1,9.447.574,9.447-5.445A20.926,20.926,0,0,0,152.862,162.9Z" transform="translate(-96.15 -26.085)"/><path class="s" d="M81.25,330.745V235.9c21.112-11.479,49.918-9.416,81.655,8.9,31.257,18.041,59.628,48.568,80.663,83.765v95.942c0,5.476-3.847,7.756-8.578,4.948L89.859,345.7A19,19,0,0,1,81.25,330.745Z" transform="translate(-81.002 10.95)"/><path class="o" d="M84.422,232.37v96.407a16.055,16.055,0,0,0,7.027,12.177L236.6,424.719a4.932,4.932,0,0,0,2.28.76c1.427,0,1.551-1.908,1.551-3.025V321.471c1.039,1.66,2.079,3.351,3.1,5.072v95.942c0,3.878-1.923,6.127-4.654,6.127a7.864,7.864,0,0,1-3.847-1.179L89.9,343.669a19,19,0,0,1-8.578-14.86V233.937C82.251,233.44,83.29,232.913,84.422,232.37Z" transform="translate(-81.072 12.918)"/><path class="t" d="M185.2,295.105l-68.9-39.773c-1.846-1.07-3.351-.31-3.351,1.691a7.2,7.2,0,0,0,3.366,5.584L185.2,302.38c1.846,1.07,3.351.31,3.351-1.706a7.167,7.167,0,0,0-3.351-5.569Z" transform="translate(-75.137 25.307)"/><path class="t" d="M176.659,301.9l-56.293-32.5c-1.861-1.07-3.366-.31-3.366,1.691a7.2,7.2,0,0,0,3.366,5.584l56.293,32.5c1.846,1.07,3.351.31,3.351-1.691A7.213,7.213,0,0,0,176.659,301.9Z" transform="translate(-72.899 33.062)"/><path class="t" d="M176.659,278.478,120.366,245.9c-1.861-1.07-3.366-.31-3.366,1.691a7.2,7.2,0,0,0,3.366,5.584l56.293,32.575c1.846,1.07,3.351.31,3.351-1.706A7.213,7.213,0,0,0,176.659,278.478Z" transform="translate(-72.899 20.109)"/><path class="c" d="M169.236,324.574v2.668c0,4.281-3.009,6.019-6.717,3.878l-30.683-17.715a14.829,14.829,0,0,1-6.717-11.634V299.1c0-4.281,3.009-6.019,6.717-3.878L162.52,312.94a14.829,14.829,0,0,1,6.717,11.634Z" transform="translate(-74.721 47.059)"/><path class="n" d="M133.5,307.838a2.435,2.435,0,0,0-1.055-.357,1.443,1.443,0,0,0-.822.186,1.35,1.35,0,0,0-.543.558,1.769,1.769,0,0,0-.2.807.527.527,0,0,0,0,.248.264.264,0,0,0,.124.155l1.163.683a.465.465,0,0,0,.2,0,.3.3,0,0,0,.155-.078l.093-.093a.357.357,0,0,1,.171-.109.682.682,0,0,1,.264,0,1.054,1.054,0,0,1,.388.155l.326.217a1.553,1.553,0,0,1,.279.264,3.718,3.718,0,0,1,.2.326,1.071,1.071,0,0,1,0,.388c0,.14,0,.248-.078.295a.372.372,0,0,1-.279.093,1.968,1.968,0,0,1-.543,0l-.822-.217a2.981,2.981,0,0,0-.853-.109.962.962,0,0,0-.6.233,1.179,1.179,0,0,0-.372.62,3.8,3.8,0,0,0-.124,1.039,4.654,4.654,0,0,0,.217,1.381,5.182,5.182,0,0,0,.574,1.272,5.912,5.912,0,0,0,.869,1.1,5.742,5.742,0,0,0,1.1.838,2.543,2.543,0,0,0,1.117.388,1.412,1.412,0,0,0,.853-.155,1.365,1.365,0,0,0,.574-.574,2.141,2.141,0,0,0,.2-.915.7.7,0,0,0,0-.248.341.341,0,0,0-.14-.155l-1.163-.683a.419.419,0,0,0-.2,0,.279.279,0,0,0-.14,0l-.109.109a.621.621,0,0,1-.186.155.869.869,0,0,1-.31,0,.961.961,0,0,1-.45-.171,3.551,3.551,0,0,1-.791-.605,1.132,1.132,0,0,1-.31-.76c0-.14,0-.233.109-.279a.605.605,0,0,1,.357,0,4.1,4.1,0,0,1,.589.109l.853.217a1.3,1.3,0,0,0,1.35-.233,2.466,2.466,0,0,0,.419-1.644,5.056,5.056,0,0,0-.171-1.225,6.546,6.546,0,0,0-.512-1.241,5.6,5.6,0,0,0-.791-1.117A4.56,4.56,0,0,0,133.5,307.838Z" transform="translate(-50.009 54.317)"/><path class="n" d="M134.486,304.752a.124.124,0,0,0-.171,0v1.675a.666.666,0,0,0,0,.295.388.388,0,0,0,.171.2l1.551.915V314.9a.761.761,0,0,0,.078.295.388.388,0,0,0,.171.2l1.163.682a.139.139,0,0,0,.171,0,.279.279,0,0,0,.078-.217V308.8l1.551.915a.139.139,0,0,0,.171,0,.279.279,0,0,0,.078-.217v-1.458a.7.7,0,0,0-.078-.295.512.512,0,0,0-.171-.217Z" transform="translate(-59.222 52.796)"/><path class="n" d="M139.863,303.35H139.6a.481.481,0,0,0-.14.217l-1.939,7.539a.543.543,0,0,0,0,.186.728.728,0,0,0,0,.248.543.543,0,0,0,.14.171l1.132.652h.248a.372.372,0,0,0,.093-.171l.248-1.008,2.373,1.381.248,1.288a1.458,1.458,0,0,0,.093.279.714.714,0,0,0,.264.264l1.117.651a.109.109,0,0,0,.14,0v-.4l-1.955-9.788a1.551,1.551,0,0,0-.124-.372.6.6,0,0,0-.279-.31Zm1.443,6.841-1.443-.838.729-2.87Z" transform="translate(-68.321 52.042)"/><path class="n" d="M144.557,301.37a2.978,2.978,0,0,0-1.055-.419.993.993,0,0,0-.776.124,1.194,1.194,0,0,0-.512.683,4.345,4.345,0,0,0-.171,1.3,5.864,5.864,0,0,0,.279,1.861,4.794,4.794,0,0,0,.791,1.551L142,309.095a.449.449,0,0,0,0,.14.73.73,0,0,0,0,.248.543.543,0,0,0,.14.171l1.21.7h.264a.682.682,0,0,0,.124-.171l.977-2.373.822.481v2.932a.759.759,0,0,0,.078.31.45.45,0,0,0,.171.2l1.163.683h.171a.31.31,0,0,0,0-.217v-8.873a.76.76,0,0,0,0-.31.373.373,0,0,0-.171-.2Zm1.008,4.747-1.008-.589a1.987,1.987,0,0,1-.62-.574,1.753,1.753,0,0,1-.233-.946q0-.574.233-.651a.837.837,0,0,1,.62.14l1.008.651Z" transform="translate(-78.786 50.703)"/><path class="n" d="M145.938,298.212a.124.124,0,0,0-.171,0,.279.279,0,0,0,0,.217v1.458a.7.7,0,0,0,0,.295.419.419,0,0,0,.171.217l1.551.9v7.058a.667.667,0,0,0,0,.295.651.651,0,0,0,.171.217l1.179.667a.124.124,0,0,0,.171,0,.279.279,0,0,0,0-.217v-7.042l1.551.9h.171a.279.279,0,0,0,0-.217V301.5a.666.666,0,0,0,0-.295.651.651,0,0,0-.171-.217Z" transform="translate(-88.234 49.191)"/><path class="n" d="M190.908,171.06l-81.081-46.815c-3.707-2.141-6.717-.62-6.717,3.4a14.457,14.457,0,0,0,6.717,11.169l81.081,46.8c3.707,2.141,6.717.62,6.717-3.4a14.411,14.411,0,0,0-6.717-11.153Z" transform="translate(-68.968 -47.216)"/></g></g><g transform="translate(58.561 23.962)"><path class="n" d="M316.291,130.145a2.155,2.155,0,0,0,1.039-.264,2.575,2.575,0,0,0,1.133-2.358,6.872,6.872,0,0,0-3.1-5.46,2.311,2.311,0,0,0-3.738,2.156,6.934,6.934,0,0,0,3.1,5.46A3.227,3.227,0,0,0,316.291,130.145Zm-2.544-7.384a2.032,2.032,0,0,1,.977.31,5.771,5.771,0,0,1,2.575,4.452,1.443,1.443,0,0,1-.558,1.334,1.458,1.458,0,0,1-1.427-.186,5.771,5.771,0,0,1-2.575-4.452,1.551,1.551,0,0,1,.558-1.35.838.838,0,0,1,.434-.109Z" transform="translate(-129.482 43.02)"/><path class="n" d="M342.083,115.238a1.954,1.954,0,0,0,1.024-.279,2.56,2.56,0,0,0,1.132-2.358,6.841,6.841,0,0,0-3.1-5.445h0a2.544,2.544,0,0,0-2.606-.2,2.575,2.575,0,0,0-1.117,2.358,6.856,6.856,0,0,0,3.1,5.445A3.1,3.1,0,0,0,342.083,115.238Zm-2.56-7.4a1.97,1.97,0,0,1,.993.326h0a5.724,5.724,0,0,1,2.559,4.436,1.179,1.179,0,0,1-1.986,1.148,5.755,5.755,0,0,1-2.559-4.436,1.551,1.551,0,0,1,.543-1.35.854.854,0,0,1,.45-.124Z" transform="translate(-195.295 34.829)"/><path class="n" d="M350.181,131.086a.559.559,0,0,0,.5-.279.589.589,0,0,0-.2-.807l-34.313-19.793a.58.58,0,1,0-.574,1.008l34.3,19.793A.527.527,0,0,0,350.181,131.086Z" transform="translate(-167.514 36.727)"/><path class="n" d="M284.431,208.125a2,2,0,0,0,1.039-.279A2.529,2.529,0,0,0,286.6,205.5a6.872,6.872,0,0,0-3.1-5.46h0a2.311,2.311,0,0,0-3.738,2.156,6.887,6.887,0,0,0,3.1,5.46A3.1,3.1,0,0,0,284.431,208.125Zm-2.544-7.384a2.094,2.094,0,0,1,.977.31h0a5.771,5.771,0,0,1,2.575,4.452,1.184,1.184,0,0,1-1.986,1.148,5.771,5.771,0,0,1-2.575-4.452,1.551,1.551,0,0,1,.543-1.35.931.931,0,0,1,.465-.109Z" transform="translate(-48.201 86.003)"/><path class="n" d="M315.755,277.308a2.094,2.094,0,0,0,1.024-.264,2.559,2.559,0,0,0,1.132-2.358,6.872,6.872,0,0,0-3.1-5.46h0a2.3,2.3,0,0,0-3.723,2.156,6.872,6.872,0,0,0,3.1,5.46A3.1,3.1,0,0,0,315.755,277.308Zm-2.559-7.384a2.094,2.094,0,0,1,.993.31h0a5.755,5.755,0,0,1,2.56,4.452,1.182,1.182,0,0,1-1.986,1.148,5.8,5.8,0,0,1-2.559-4.452,1.551,1.551,0,0,1,.543-1.35.838.838,0,0,1,.45-.109Z" transform="translate(-128.093 124.132)"/><path class="n" d="M363.676,249.655a2.048,2.048,0,0,0,1.039-.279,2.544,2.544,0,0,0,1.117-2.342,6.81,6.81,0,0,0-3.1-5.46h0a2.311,2.311,0,0,0-3.738,2.156,6.887,6.887,0,0,0,3.1,5.46A3.1,3.1,0,0,0,363.676,249.655Zm-1.551-7.074a5.709,5.709,0,0,1,2.559,4.436,1.179,1.179,0,0,1-1.986,1.148,5.77,5.77,0,0,1-2.56-4.436,1.179,1.179,0,0,1,1.986-1.148Z" transform="translate(-250.333 108.894)"/><path class="n" d="M367.815,229.205a.7.7,0,0,0,.295,0,.6.6,0,0,0,.279-.512v-9.9a.558.558,0,0,0-.574-.574.574.574,0,0,0-.589.574v8.888L282.5,178.605a.651.651,0,0,0-.589,0,.6.6,0,0,0-.279.512V222.07a.574.574,0,0,0,.574.59.589.589,0,0,0,.589-.59V180.187l84.851,49A.637.637,0,0,0,367.815,229.205Z" transform="translate(-132.919 74.431)"/><path class="n" d="M340.475,233.8a.559.559,0,0,0,.4-.171l8.547-8.3a.574.574,0,0,0,.124-.667L341,206.558a.558.558,0,0,0-.419-.326.621.621,0,0,0-.512.155l-8.547,8.221a.574.574,0,0,0-.124.667l8.547,18.18a.558.558,0,0,0,.419.326Zm7.849-9.028-7.663,7.461-8.035-17.063,7.756-7.384Z" transform="translate(-191.252 89.695)"/><path class="n" d="M339.05,250.464a.59.59,0,0,0,.574-.574V230.081a.621.621,0,0,0-.279-.512l-20.042-11.6a.589.589,0,0,0-.791.217.574.574,0,0,0,.2.791l19.747,11.494v19.483a.59.59,0,0,0,.589.512Z" transform="translate(-161.238 96.126)"/><path class="c" d="M327.4,245.114l-11.06-6.375c-1.675-.977-3.1-.186-3.1,1.753v2.885a6.732,6.732,0,0,0,3.1,5.274l11.06,6.391c1.691.962,3.1.186,3.1-1.768v-2.885A6.732,6.732,0,0,0,327.4,245.114Z" transform="translate(-144.068 107.385)"/><path class="c" d="M364.253,223.907l-11.06-6.391c-1.675-.962-3.1-.186-3.1,1.768v2.885a6.763,6.763,0,0,0,3.1,5.274l11.06,6.375c1.675.977,3.1.186,3.1-1.753v-2.885a6.732,6.732,0,0,0-3.1-5.274Z" transform="translate(-238.08 95.691)"/><path class="n" d="M321.045,282.871a.6.6,0,0,0,.512-.295.574.574,0,0,0-.217-.791l-5.429-3.1v-29.07a.589.589,0,1,0-1.163,0v29.364a.574.574,0,0,0,.295.512l5.708,3.3A.7.7,0,0,0,321.045,282.871Z" transform="translate(-137.525 113.233)"/><path class="n" d="M342.949,225.058a.574.574,0,0,0,.574-.574v-18.8l19.157,11.029a.6.6,0,0,0,.807-.217.574.574,0,0,0-.217-.791l-20.042-11.525a.543.543,0,0,0-.574,0,.559.559,0,0,0-.295.5v19.809a.574.574,0,0,0,.59.574Z" transform="translate(-222.299 88.521)"/><path class="n" d="M361.589,258.4a.587.587,0,0,0,.574-.574V228.123a.589.589,0,1,0-1.163,0v28.7l-4.84-2.808a.605.605,0,0,0-.807.217.574.574,0,0,0,.217.791l5.724,3.3a.636.636,0,0,0,.295.078Z" transform="translate(-240.939 101.387)"/><path class="n" d="M411.561,117.7a2,2,0,0,0,1.039-.264,2.56,2.56,0,0,0,1.132-2.358,6.887,6.887,0,0,0-3.1-5.46h0a2.311,2.311,0,0,0-3.738,2.156,6.872,6.872,0,0,0,3.1,5.46A3.1,3.1,0,0,0,411.561,117.7Zm-1.551-7.073a5.8,5.8,0,0,1,2.575,4.452,1.179,1.179,0,0,1-1.986,1.148,5.77,5.77,0,0,1-2.575-4.452,1.179,1.179,0,0,1,1.986-1.148Z" transform="translate(-372.535 36.157)"/><path class="n" d="M433.671,24.055a2,2,0,0,0,1.039-.279,2.56,2.56,0,0,0,1.132-2.358,6.841,6.841,0,0,0-3.1-5.445A2.311,2.311,0,0,0,429,18.129a6.841,6.841,0,0,0,3.1,5.445A3.211,3.211,0,0,0,433.671,24.055Zm-2.513-7.337a1.923,1.923,0,0,1,.977.31,5.739,5.739,0,0,1,2.575,4.436,1.179,1.179,0,0,1-1.986,1.148,5.74,5.74,0,0,1-2.575-4.436,1.551,1.551,0,0,1,.543-1.35A.931.931,0,0,1,431.158,16.718Z" transform="translate(-428.943 -15.457)"/><path class="n" d="M433.652,45.393a2,2,0,0,0,1.039-.264,2.56,2.56,0,0,0,1.132-2.358,6.887,6.887,0,0,0-3.1-5.46,2.575,2.575,0,0,0-2.606-.186,2.544,2.544,0,0,0-1.132,2.342,6.841,6.841,0,0,0,3.1,5.46A3.1,3.1,0,0,0,433.652,45.393Zm-2.513-7.384a2.094,2.094,0,0,1,.977.31,5.8,5.8,0,0,1,2.575,4.452,1.179,1.179,0,0,1-1.986,1.148,5.77,5.77,0,0,1-2.575-4.452,1.551,1.551,0,0,1,.543-1.35A1.132,1.132,0,0,1,431.139,38.01Z" transform="translate(-428.924 -3.662)"/><path class="n" d="M433.72,66.761a2,2,0,0,0,1.039-.264,2.56,2.56,0,0,0,1.1-2.373,6.888,6.888,0,0,0-3.1-5.46,2.311,2.311,0,0,0-3.738,2.156,6.872,6.872,0,0,0,3.1,5.46A3.1,3.1,0,0,0,433.72,66.761Zm-2.513-7.384a2.094,2.094,0,0,1,.977.31,5.77,5.77,0,0,1,2.544,4.436,1.179,1.179,0,0,1-1.985,1.148,5.771,5.771,0,0,1-2.575-4.452,1.551,1.551,0,0,1,.543-1.35A1.132,1.132,0,0,1,431.207,59.377Z" transform="translate(-428.991 8.073)"/><path class="n" d="M433.671,88.055a2.156,2.156,0,0,0,1.039-.264,2.56,2.56,0,0,0,1.132-2.358,6.887,6.887,0,0,0-3.1-5.46A2.311,2.311,0,0,0,429,82.129a6.872,6.872,0,0,0,3.1,5.46A3.1,3.1,0,0,0,433.671,88.055Zm-2.513-7.322a2.094,2.094,0,0,1,.977.31A5.771,5.771,0,0,1,434.71,85.5a1.179,1.179,0,0,1-1.986,1.148,5.77,5.77,0,0,1-2.575-4.452,1.551,1.551,0,0,1,.543-1.35.93.93,0,0,1,.465-.109Z" transform="translate(-428.942 19.82)"/><path class="n" d="M439.72,162.049a.574.574,0,0,0,.5-.295.559.559,0,0,0-.2-.791l-11.153-6.437V29.452a.6.6,0,0,0-.279-.512l-17.156-9.912a.584.584,0,0,0-.589,1.008L427.7,29.762V154.851a.559.559,0,0,0,.295.5l11.432,6.608a.636.636,0,0,0,.295.093Z" transform="translate(-404.821 -13.533)"/><path class="n" d="M435.653,51.3a.574.574,0,0,0,.279-1.086l-17.141-9.9a.558.558,0,0,0-.791.2.589.589,0,0,0,.2.807l17.156,9.9a.636.636,0,0,0,.295.078Z" transform="translate(-412.186 -1.801)"/><path class="n" d="M435.653,72.6a.574.574,0,0,0,.279-1.086l-17.141-9.9a.558.558,0,0,0-.791.2.589.589,0,0,0,.2.807l17.156,9.9a.636.636,0,0,0,.295.078Z" transform="translate(-412.186 9.94)"/><path class="n" d="M435.664,93.936a.574.574,0,0,0,.279-1.086L418.8,82.938a.591.591,0,1,0-.589,1.024l17.156,9.9a.636.636,0,0,0,.295.078Z" transform="translate(-412.197 21.695)"/><path class="n" d="M263.31,358.59a.589.589,0,0,0,.5-.295.574.574,0,0,0-.217-.791l-37.508-21.717V146.928a.605.605,0,0,0-.295-.512l-25.207-14.55a.589.589,0,0,0-.791.217.574.574,0,0,0,.217.791l24.912,14.4V336.1a.6.6,0,0,0,.295.512l37.8,21.825a.636.636,0,0,0,.295.155Z" transform="translate(98.661 48.667)"/><path class="n" d="M244.989,136.9a2.109,2.109,0,0,0,1.039-.264,2.559,2.559,0,0,0,1.132-2.358,6.887,6.887,0,0,0-3.1-5.46h0a2.575,2.575,0,0,0-2.606-.2,2.544,2.544,0,0,0-1.117,2.358,6.887,6.887,0,0,0,3.1,5.46,3.226,3.226,0,0,0,1.551.465Zm-1.551-7.073a5.8,5.8,0,0,1,2.56,4.452,1.182,1.182,0,0,1-1.986,1.148,5.755,5.755,0,0,1-2.544-4.514,1.182,1.182,0,0,1,1.986-1.148Z" transform="translate(52.374 46.77)"/><path class="n" d="M200.711,284.445a2.031,2.031,0,0,0,1.039-.264,2.559,2.559,0,0,0,1.132-2.358,6.887,6.887,0,0,0-3.1-5.46,2.311,2.311,0,0,0-3.738,2.156,6.872,6.872,0,0,0,3.1,5.46A3.1,3.1,0,0,0,200.711,284.445Zm-2.544-7.384a2.1,2.1,0,0,1,.977.31,5.771,5.771,0,0,1,2.575,4.452,1.192,1.192,0,0,1-2,1.148,5.8,5.8,0,0,1-2.559-4.452,1.551,1.551,0,0,1,.543-1.349A1.086,1.086,0,0,1,198.167,277.061Z" transform="translate(165.386 128.07)"/></g><g transform="translate(332.564 240.737)"><path class="u" d="M260.428,449.558s2.3-48.491-.248-67c-2.187-15.884-5.181-23.1-5.631-26.7,0,0-2.466-37.368-2.792-69.06-.155-15.264-1.551-26.122-9.912-44.256l-52.57,11.929c-1.086,8.066-5.988,62.576-6.872,110.228-.76,41.712.434,78.243.434,78.243v2.187c0,2.435-.527,4.142-2.094,8.066a47.744,47.744,0,0,1-8.33,13.775c-1.117,1.194-8.78,7.9-9.788,9.307-3.289,3.847,3.521,6.019,8.594,5.336,5.352-.714,13.651-2.746,16.008-6,1.551-2.172,2.746-9.773,4.359-11.96,5.445-7.415,7.678-10.61,7.756-12.984,0-4.281-1.4-5.972-1.924-8.392.45-5.041,11.355-46.614,11.541-61.319.093-7.011-.388-16.675-.388-16.675l8.47-48.568c3.273,12.13,9.2,34.747,11.122,46.3,2.373,14.116,10.393,55.238,15.512,73.915a98.958,98.958,0,0,1,3.366,14.752s.171,1.644.171,1.66c.109,2.094,1.024,24.416,1.846,29.116,1.722,9.835,10.471,8.594,11.867.636,1.194-6.763-.295-27.7-.326-30.28Z" transform="translate(-113.98 -107.058)"/><path class="m" d="M173.813,376c2.466,0,.838,9.586,1.474,15.729.683,6.577,2.839,11.386,3.459,16.784a21.934,21.934,0,0,1-2.063,13.821c-1.706,3.94-10.347,9.307-13.635,3.707a31.753,31.753,0,0,1-3.614-18.227c.388-6.345.776-10.983.9-15.807.124-4.25-3.1-14.24,0-14.861l.171,1.66c1.148,2.3,12.084,3.878,13.387-.527Z" transform="translate(-27.365 -33.5)"/><path class="v" d="M209.408,380.07c.76,3.1,0,11.51,0,11.51a11.184,11.184,0,0,1-6.081,4.84L201.2,384.693Z" transform="translate(-123.519 -31.257)"/><path d="M218.328,395.124,207.873,391.7l-2.513-9.276,11.743,5.941Z" transform="translate(-138.551 -29.961)"/><path class="m" d="M224.66,374.17v-2.187c-1.427.683-4.545,12.13-8.78,19.98-3.863,7.167-11.51,11.153-13.961,14.271-3.32,4.173,3.1,9.555,13.5,7.337,5.15-1.1,12.937-4.39,15.047-7.865s2.839-9.85,4.561-12.41,5.833-5.491,6.7-8.408a15.946,15.946,0,0,0,0-8.02c-.822-2.637-1.551-5.833-2.435-5.553v2.017c-.683,1.412-3.2,3.1-8.423,3.335C228.212,376.823,225.808,376.451,224.66,374.17Z" transform="translate(-155.756 -36.091)"/><path class="c" d="M169.409,246.358s-6.422,46.272-7.57,81.221-.124,80.011-.124,80.011,3.614,2.59,11.541,2.947,10.688-2.3,10.688-2.3,4.855-15.838,5.615-26.975a113.737,113.737,0,0,0,0-18.134l7.089-46.614s8.485,44.194,9.509,49.747,10.7,45.45,10.7,45.45a21.888,21.888,0,0,0,13.961,3.475c7.585-1.008,10.734-4.654,10.734-4.654s.419-20.321-1.055-31.567-5.15-19.855-5.662-27.193-.217-46.707-1.055-62.622c-.962-17.87-1.381-21.794-9.307-43.806Z" transform="translate(-93.478 -105.515)"/><path class="k" d="M169.409,246.358s-6.422,46.272-7.57,81.221-.124,80.011-.124,80.011,3.614,2.59,11.541,2.947,10.688-2.3,10.688-2.3,4.855-15.838,5.615-26.975a113.737,113.737,0,0,0,0-18.134l7.089-46.614s8.485,44.194,9.509,49.747,10.7,45.45,10.7,45.45a21.888,21.888,0,0,0,13.961,3.475c7.585-1.008,10.734-4.654,10.734-4.654s.419-20.321-1.055-31.567-5.15-19.855-5.662-27.193-.217-46.707-1.055-62.622c-.962-17.87-1.381-21.794-9.307-43.806Z" transform="translate(-93.478 -105.515)"/><path class="d" d="M211.268,304.815l-5.895-29.209s-10.285-2.684-15.093-8.966c0,0,1.334,6.965,11.913,11.417l6.2,29.1-2.141,30.062Z" transform="translate(-108.098 -93.78)"/><path class="u" d="M202.876,180.044c5.46-7.492,8.113-6.065,10.316,1.66a87.433,87.433,0,0,0,4.235,11.169,29.925,29.925,0,0,1,2.032-6.313,3.568,3.568,0,0,1,4.111-2.172c.651.279-.186,2.668,0,5.538.186,3.676.822,6.2,0,10.036a13.744,13.744,0,0,0,.838,6.422c4.157,7.353,19.08,27.922,19.08,27.922,2.916-1.722,12.27-6.887,24.819-13.061,10.765-5.321,11.851-6.127,19.328-6.437l.4,20.895c-12.192,5.243-21.981,10.284-41.743,17.653-6.2,2.3-11.184,2.715-14.364-2.094s-12.6-20.647-19.312-32.575c-3.785-6.748-7.089-13.713-8.935-17.327C197.338,188.808,200.968,182.7,202.876,180.044Z" transform="translate(-200.1 -144.232)"/><path class="n" d="M211.768,200.59l16.846,2.187a61.924,61.924,0,0,0,3.1,30.466l-5.553,25.238c.2,2.932,5.429,10.548,9.307,22.663-8.888,11.882-47.4,14.457-61.614,4.033,1.1-13.573,2.3-20.631,2.73-24.819l-.295-16.257c-17.792-14.612,3.1-36.128,11.014-43.2h7.4Z" transform="translate(-99.772 -130.187)"/><path class="u" d="M211.69,222.691a2.172,2.172,0,0,0-1.784-1.21,6.856,6.856,0,0,0-2.249.233,68.907,68.907,0,0,1-13.449,1.551c-1.194,0-2.622-.109-3.242-1.132s.171-2.761.745-4.1a8.47,8.47,0,0,0,.527-4.793c-.186-.962-1.07-2.808-2.265-1.381a36.963,36.963,0,0,1-5.693,5.817c-3.738,3.1-4.964,5.817-8.625,8.9A270.354,270.354,0,0,1,145.95,245.2c-13.247-21.453-19.793-42.519-30.124-43.279-5.491,5.29-5.166,23.377.527,32.032,6.127,9.307,13.961,20.662,19,26.541,3.925,4.5,9.478,7.291,16.862,2.342,9.54-6.375,18.32-13.7,22.384-16.815,2.637-2.032,5.569-4.654,8.64-6.05a15.233,15.233,0,0,1,4.964-1.458c1.955-.155,3.925-.279,5.91-.388a40.921,40.921,0,0,0,8.857-1.443,8.469,8.469,0,0,0,3.8-1.892,8.19,8.19,0,0,0,1.551-2.684c.326-.869.931-1.551,1.288-2.389a3.94,3.94,0,0,0-.217-3.738,6.779,6.779,0,0,0,1.784-1.3A2.156,2.156,0,0,0,211.69,222.691Z" transform="translate(13.017 -129.454)"/><path class="v" d="M215.221,220.752c0-2.715,9.168-10.253,13.713-17.063,4.2-6.36,9.121-22.865-3.956-30.3.326-10.641-5.228-13.883-13.542-16.8-6.608-2.311-20.042-2.017-29.845,2.994a16.039,16.039,0,0,0-7.632,7.554,9.835,9.835,0,0,0-.155,7.554c.543,1.861.078,1.97-.977,3.444a5.4,5.4,0,0,0-1.055,3.894c.419,2.978,3.258,3.723,3.6,5.2a1.458,1.458,0,0,1-2.5,1.3,3.009,3.009,0,0,0,3.537,2.389c3.211-.186,6.081-4.545,6.081-4.545Z" transform="translate(-101.503 -155.204)"/><path class="u" d="M184.385,166.32c-4.126,1.784-8.035,8.1-7.989,25.734,0,14.954,4.654,18.739,6.965,19.855s6.825.543,11.231-.14v8.609s-4.483,6.639-2.327,12.317c18.382-3.227,21.3-12.813,21.3-12.813l.326-19.607a6.2,6.2,0,0,0,6.98-.372c3.925-2.9,4.995-8.733,2.234-11.758s-6.3-3.273-9.493.109c0,0-6.7.915-15.512-4.654S185.269,172.028,184.385,166.32Z" transform="translate(-99.939 -149.076)"/><path class="v" d="M206.723,180.349a2,2,0,0,1-1.908,2.125,2.063,2.063,0,1,1,1.908-2.125Z" transform="translate(-122.664 -142.443)"/><path class="v" d="M196.65,180.971a2.125,2.125,0,1,1-2.2-2.141,2.156,2.156,0,0,1,2.2,2.141Z" transform="translate(-96.769 -142.181)"/><path class="w" d="M201.08,187.74l-7.182,2.234a3.661,3.661,0,0,0,4.654,2.761,4.126,4.126,0,0,0,2.528-4.995Z" transform="translate(-103.681 -137.27)"/><path class="x" d="M193.98,192.255a3.552,3.552,0,0,1,3.552-3.521,3.61,3.61,0,0,1,.589,0,3.987,3.987,0,0,1-2.684,3.335A3.335,3.335,0,0,1,193.98,192.255Z" transform="translate(-100.692 -136.728)"/><path class="v" d="M202.864,178.61l5.119-2.032a2.637,2.637,0,0,0-3.537-1.551A2.854,2.854,0,0,0,202.864,178.61Z" transform="translate(-124.08 -144.396)"/><path class="v" d="M187.529,178.89V187.2a3.909,3.909,0,0,1-3.987-4.033,4.3,4.3,0,0,1,3.987-4.281Z" transform="translate(-73.904 -142.148)"/><path class="x" d="M205.3,178.91l-1.6,12.146-5.4-2.637Z" transform="translate(-114.567 -142.137)"/><path class="x" d="M185.646,198.133c4.654-.527,14.178-3.2,15.729-7.073a10.222,10.222,0,0,1-3.428,4.933c-2.885,2.466-12.317,5.041-12.317,5.041Z" transform="translate(-90.992 -135.44)"/></g><g transform="translate(69.016 0)"><g transform="translate(181.643 85.098)"><path class="b" d="M257.834,55.351a5.212,5.212,0,0,1,5.228.5h0l14.628,8.532a6.7,6.7,0,0,1,2.823,5.367v9.307a9.819,9.819,0,0,0,4.561,7.585l27.58,16.07V97.342a2.528,2.528,0,0,1,1.21-2.373l6.841-3.956a3.707,3.707,0,0,1,3.583.264l4.5,2.575,1.086.62,7.368,4.266a10.628,10.628,0,0,1,1.179.807l.558.5a13.123,13.123,0,0,1,4.1,8.8V292.049a4.142,4.142,0,0,1-1.691,3.769l-6.872,3.971a4.111,4.111,0,0,1-4.126-.419l-75.745-43.728a12.906,12.906,0,0,1-5.832-10.114V64.069a5.134,5.134,0,0,1,2.172-4.762Z" transform="translate(-248.759 -54.87)"/><path class="y" d="M250.08,82.138a3.893,3.893,0,0,1,3.382.372l4.514,2.528,1.086.62,7.306,4.266a11.533,11.533,0,0,1,1.194.807l.558.5a14.318,14.318,0,0,1,2.141,2.637L277.1,89.91a13.091,13.091,0,0,0-2.125-2.637l-.558-.5a9.311,9.311,0,0,0-1.179-.807L265.871,81.7l-1.086-.62-4.514-2.528a3.707,3.707,0,0,0-3.583-.264Z" transform="translate(-184.79 -42.147)"/><path class="y" d="M289.65,59.279a5.119,5.119,0,0,1,5.212.512L309.49,68.23a5.475,5.475,0,0,1,2.017,2.28l6.841-3.971a5.4,5.4,0,0,0-2-2.187L301.7,55.9a5.181,5.181,0,0,0-5.212-.5Z" transform="translate(-287.416 -54.842)"/><path class="p" d="M287.67,66.422a6.841,6.841,0,0,1,.807,3.1v9.307a9.307,9.307,0,0,0,2.249,5.553l6.856-4a9.462,9.462,0,0,1-2.249-5.553V65.522a6.981,6.981,0,0,0-.822-3.1Z" transform="translate(-263.58 -50.708)"/><path class="s" d="M260.686,58.4h0l14.628,8.454a6.7,6.7,0,0,1,2.823,5.429V81.6a9.8,9.8,0,0,0,4.654,7.585l29.783,17.42c2.513,1.458,4.561.419,4.561-2.311V95.944c0-2.684,2.482-3.366,4.778-2.11l4.514,2.528,1.086.62,7.306,4.266a9.307,9.307,0,0,1,1.179.807l.558.5a13.123,13.123,0,0,1,4.1,8.811V294.606c0,3.723-2.622,5.228-5.833,3.366l-75.745-43.728a12.906,12.906,0,0,1-5.833-10.114V62.671C253.3,57.986,256.622,56.062,260.686,58.4Z" transform="translate(-253.24 -53.471)"/><path class="b" d="M257.4,58.806c-2.5,0-2.7,2.963-2.7,3.862V244.159a11.51,11.51,0,0,0,5.135,8.888l75.745,43.7a3.972,3.972,0,0,0,1.908.62c1.644,0,1.815-1.939,1.815-2.761V111.361a11.618,11.618,0,0,0-3.614-7.756l-.2-.171-.31-.279a7.307,7.307,0,0,0-1.008-.7l-7.353-4.25-1.07-.62-4.514-2.513a3.242,3.242,0,0,0-1.551-.434c-.807,0-1.179.419-1.179,1.3v8.345a3.909,3.909,0,0,1-3.847,4.374,5.647,5.647,0,0,1-2.854-.853L281.937,90.342a11.246,11.246,0,0,1-5.274-8.811V72.286a5.305,5.305,0,0,0-2.11-4.142L259.926,59.69a5.444,5.444,0,0,0-2.591-.822m0-1.4a6.794,6.794,0,0,1,3.289.993l14.628,8.454a6.7,6.7,0,0,1,2.885,5.367v9.307a9.8,9.8,0,0,0,4.654,7.585l29.783,17.42a4.328,4.328,0,0,0,2.141.651c1.443,0,2.42-1.07,2.42-2.963V95.942a2.466,2.466,0,0,1,2.591-2.715,4.654,4.654,0,0,1,2.187.6l4.514,2.528,1.086.62,7.306,4.266a9.306,9.306,0,0,1,1.179.807l.558.5a13.123,13.123,0,0,1,4.1,8.811V294.6c0,2.637-1.319,4.173-3.227,4.173a5.258,5.258,0,0,1-2.606-.807l-75.745-43.728a12.906,12.906,0,0,1-5.833-10.114V62.669c0-3.335,1.675-5.259,4.1-5.259Z" transform="translate(-253.24 -53.469)"/><g class="q" transform="translate(8.578 37.292)"><path class="r" d="M328.429,118.512,259.85,78.91v66l68.579,39.618Z" transform="translate(-259.85 -78.91)"/></g><path class="c" d="M328.429,169.054V142.637l-22.849-29.706-28.573,16.5,5.864-5.895L271.856,106.99,259.85,117.057v12.379Z" transform="translate(-251.272 -26.141)"/><path class="f" d="M291.439,97.339c-3.1-1.768-5.569-.341-5.569,3.211a12.3,12.3,0,0,0,5.569,9.648c3.1,1.768,5.553.341,5.553-3.211a12.3,12.3,0,0,0-5.553-9.648Z" transform="translate(-260.198 -31.878)"/><path class="t" d="M265.564,149.4c-3.1-1.815-5.724-.341-5.724,3.3a12.627,12.627,0,0,0,5.708,9.9c3.1,1.815,5.724.341,5.724-3.3a12.658,12.658,0,0,0-5.708-9.9Z" transform="translate(-194.1 -3.194)"/><path class="t" d="M303.413,150.569l-30.7-17.7c-1.024-.589-1.83-.109-1.815,1.055v.6a4.111,4.111,0,0,0,1.846,3.1L303.4,155.316c1.008.589,1.83.109,1.83-1.055v-.589A4.033,4.033,0,0,0,303.413,150.569Z" transform="translate(-245.212 -12.015)"/><path class="t" d="M319.112,160.288l-46.908-27.1a.828.828,0,0,0-1.334.776v.45a2.978,2.978,0,0,0,1.35,2.311l46.924,27.1c.745.434,1.35.078,1.35-.776v-.434a2.978,2.978,0,0,0-1.381-2.327Z" transform="translate(-260.43 -11.791)"/><path class="c" d="M270.284,208.243h.186a.326.326,0,0,0,.171-.295v-6.577l1.675.962a.357.357,0,0,0,.434,0,.326.326,0,0,0,0-.419l-6.484-11.076a.357.357,0,0,0-.465-.124l-6.484,3.583a.326.326,0,0,0-.186.295.341.341,0,0,0,.171.31l2.016,1.163v6.98a.356.356,0,0,0,.171.31l8.625,4.886a.357.357,0,0,0,.171,0Zm0-7.88a.357.357,0,0,0-.171,0,.326.326,0,0,0-.171.295v6.577l-7.88-4.545v-6.856a.341.341,0,0,0-.186-.295l-1.644-.962,5.631-3.1,5.615,9.555-1.055-.6Z" transform="translate(-194.555 19.986)"/><path class="c" d="M302.536,184.97h0l1.319-.248a5.848,5.848,0,0,0,4.654-5.739,8.33,8.33,0,0,0-2.606-6.624,2.281,2.281,0,0,0-2.218-.481,2.094,2.094,0,0,0-1.055.993,6.2,6.2,0,0,0-3.1-4.188,1.83,1.83,0,0,0-1.815.217,4.111,4.111,0,0,0-1.1,3.645,23.5,23.5,0,0,0,4.328,10.471l1.287,1.815A.388.388,0,0,0,302.536,184.97Zm1.83-12.518a1.923,1.923,0,0,1,1.132.465,7.523,7.523,0,0,1,2.311,6,5.119,5.119,0,0,1-4.033,5.1l-1.086.217-1.163-1.551a22.772,22.772,0,0,1-4.2-10.114,3.584,3.584,0,0,1,.822-3.1,1.148,1.148,0,0,1,1.148-.109c1.3.465,2.528,2.5,2.885,4.654v.124a.372.372,0,0,0,.078.217.341.341,0,0,0,.326.233h0a.357.357,0,0,0,.357-.295,2.11,2.11,0,0,1,1.039-1.768,1.162,1.162,0,0,1,.388-.078Z" transform="translate(-288.28 7.783)"/><path class="c" d="M286.681,194.906a.31.31,0,0,0,.171,0,.341.341,0,0,0,.186-.295v-2.017a7.493,7.493,0,0,0-3.1-5.941l-1.675-.962a2.218,2.218,0,0,0-2.28-.155,2.947,2.947,0,0,0-1.194,2.684v1.908a.326.326,0,0,0,.171.295l7.585,4.374a.31.31,0,0,0,.14.109Zm-5.8-8.857a2.048,2.048,0,0,1,.993.31h0l1.691.977a6.7,6.7,0,0,1,2.761,5.321v1.287l-6.872-3.956v-1.706a2.3,2.3,0,0,1,.853-2.079,1.225,1.225,0,0,1,.636-.155Zm1.179,0Z" transform="translate(-239.23 17.02)"/><path class="c" d="M283.419,187.768a1.66,1.66,0,0,0,.822-.2,2.59,2.59,0,0,0,1.055-2.342,6.3,6.3,0,0,0-2.7-5.119,1.954,1.954,0,0,0-2-.14,2.575,2.575,0,0,0-1.039,2.342,6.329,6.329,0,0,0,2.684,5.119A2.373,2.373,0,0,0,283.419,187.768Zm-2-7.322a1.722,1.722,0,0,1,.822.264,5.631,5.631,0,0,1,2.358,4.514,1.924,1.924,0,0,1-.7,1.722,1.334,1.334,0,0,1-1.3-.124,5.678,5.678,0,0,1-2.342-4.514,1.939,1.939,0,0,1,.7-1.737,1.039,1.039,0,0,1,.465-.124Z" transform="translate(-238.697 13.967)"/><path class="c" d="M262.928,141.319l62.5,36.1a6.763,6.763,0,0,1,3.1,5.274v6.2c0,1.939-1.365,2.73-3.1,1.753l-62.513-36.065a6.763,6.763,0,0,1-3.1-5.29v-6.2C259.888,141.133,261.253,140.342,262.928,141.319Z" transform="translate(-251.309 -7.449)"/><path class="z" d="M262.928,141.319l62.5,36.1a6.763,6.763,0,0,1,3.1,5.274v6.2c0,1.939-1.365,2.73-3.1,1.753l-62.513-36.065a6.763,6.763,0,0,1-3.1-5.29v-6.2C259.888,141.133,261.253,140.342,262.928,141.319Z" transform="translate(-251.309 -7.449)"/><path class="c" d="M262.928,154.089l62.5,36.1a6.732,6.732,0,0,1,3.1,5.274v6.2c0,1.954-1.365,2.746-3.1,1.768l-62.513-36.081a6.717,6.717,0,0,1-3.1-5.274v-6.2C259.888,153.9,261.253,153.111,262.928,154.089Z" transform="translate(-251.309 -0.41)"/><path class="g" d="M262.928,154.089l62.5,36.1a6.732,6.732,0,0,1,3.1,5.274v6.2c0,1.954-1.365,2.746-3.1,1.768l-62.513-36.081a6.717,6.717,0,0,1-3.1-5.274v-6.2C259.888,153.9,261.253,153.111,262.928,154.089Z" transform="translate(-251.309 -0.41)"/></g><g transform="translate(34.278)"><path class="b" d="M352.832.491A5.15,5.15,0,0,1,358.044,1h0l14.55,8.439a6.7,6.7,0,0,1,2.823,5.367v9.307a9.8,9.8,0,0,0,4.576,7.585l27.658,16.148V42.5a2.559,2.559,0,0,1,1.194-2.389l6.841-3.956a3.8,3.8,0,0,1,3.583.264l4.514,2.528,1.086.62,7.368,4.266a9.914,9.914,0,0,1,1.179.807l.558.5a13.123,13.123,0,0,1,4.1,8.811V237.189a4.142,4.142,0,0,1-1.691,3.769l-6.872,3.971a4.111,4.111,0,0,1-4.126-.419l-75.745-43.728a12.906,12.906,0,0,1-5.833-10.114V9.3a5.2,5.2,0,0,1,2.172-4.778Z" transform="translate(-343.757 -0.01)"/><path class="y" d="M345.08,27.278a3.894,3.894,0,0,1,3.382.372l4.514,2.544,1.086.62,7.322,4.25a8.485,8.485,0,0,1,1.179.822l.558.5a12.41,12.41,0,0,1,2.141,2.637l6.856-3.956a13.353,13.353,0,0,0-2.141-2.653l-.558-.5a9.911,9.911,0,0,0-1.179-.807l-7.368-4.25-1.086-.636-4.514-2.513a3.676,3.676,0,0,0-3.583-.279Z" transform="translate(-279.805 12.712)"/><path class="y" d="M384.66,4.446a5.15,5.15,0,0,1,5.212.512L404.5,13.4a5.475,5.475,0,0,1,2.017,2.28l6.841-3.956a5.336,5.336,0,0,0-2.079-2.28L396.728,1a5.15,5.15,0,0,0-5.212-.512C390.291,1.2,385.9,3.748,384.66,4.446Z" transform="translate(-382.442 -0.01)"/><path class="p" d="M382.68,11.516a6.841,6.841,0,0,1,.807,3.1v9.307a9.307,9.307,0,0,0,2.249,5.553l6.856-3.956a9.431,9.431,0,0,1-2.249-5.553V10.662a6.873,6.873,0,0,0-.822-3.1Z" transform="translate(-358.605 4.151)"/><path class="s" d="M355.67,3.557h0L370.3,12a6.7,6.7,0,0,1,2.823,5.367V26.67a9.773,9.773,0,0,0,4.576,7.6l29.861,17.467c2.528,1.458,4.654.419,4.654-2.311V41.1c0-2.7,2.482-3.382,4.762-2.11l4.514,2.513,1.086.62,7.244,4.266a9.917,9.917,0,0,1,1.179.807l.558.5a13.124,13.124,0,0,1,4.1,8.811V239.744c0,3.723-2.606,5.243-5.833,3.366l-75.745-43.728a12.906,12.906,0,0,1-5.833-10.114V7.9C348.287,3.123,351.606,1.2,355.67,3.557Z" transform="translate(-348.24 1.391)"/><path class="b" d="M352.4,3.951c-2.513,0-2.7,2.947-2.7,3.862V189.3a11.526,11.526,0,0,0,5.134,8.9l75.745,43.728a4,4,0,0,0,1.893.6c1.644,0,1.83-1.924,1.83-2.761V56.49a11.7,11.7,0,0,0-3.63-7.756l-.2-.171-.31-.279a5.959,5.959,0,0,0-.993-.683L421.8,43.336l-1.07-.62-4.5-2.513a3.289,3.289,0,0,0-1.551-.434c-.807,0-1.179.419-1.179,1.319v8.33a3.909,3.909,0,0,1-3.847,4.374,5.646,5.646,0,0,1-2.854-.853L376.953,35.471a11.168,11.168,0,0,1-5.274-8.811V17.353a5.274,5.274,0,0,0-2.125-4.142L354.972,4.788a5.413,5.413,0,0,0-2.575-.807m0-1.412a6.654,6.654,0,0,1,3.273,1.008L370.3,12.017a6.7,6.7,0,0,1,2.823,5.367v9.307a9.773,9.773,0,0,0,4.576,7.57l29.861,17.467a4.359,4.359,0,0,0,2.141.667c1.443,0,2.435-1.086,2.435-2.978v-8.33a2.466,2.466,0,0,1,2.575-2.73,4.436,4.436,0,0,1,2.187.62l4.514,2.513,1.086.62,7.322,4.266a9.917,9.917,0,0,1,1.179.807l.558.5a13.124,13.124,0,0,1,4.1,8.811V239.734c0,2.637-1.3,4.173-3.227,4.173a5.352,5.352,0,0,1-2.606-.807l-75.745-43.728a12.906,12.906,0,0,1-5.833-10.114V7.891c0-3.335,1.675-5.274,4.111-5.274Z" transform="translate(-348.24 1.401)"/><g class="q" transform="translate(8.563 37.291)"><path class="r" d="M423.444,63.668,354.85,24.05v79.344l68.594,39.618Z" transform="translate(-354.85 -24.05)"/></g><path class="c" d="M423.444,124.447V98.03l-23.563-40.3L372.006,81.541l5.708-9.912-8.764-13.9-14.1,11.525V84.83Z" transform="translate(-346.287 31.805)"/><path class="f" d="M386.439,41.539c-3.1-1.768-5.569-.341-5.569,3.211a12.316,12.316,0,0,0,5.569,9.648c3.1,1.784,5.569.341,5.569-3.211a12.409,12.409,0,0,0-5.569-9.649Z" transform="translate(-355.213 22.463)"/><path class="c" d="M365.329,153.4a.31.31,0,0,0,.171,0,.326.326,0,0,0,.171-.295v-6.577l1.691.962a.357.357,0,0,0,.419,0,.372.372,0,0,0,0-.434l-6.5-11.06a.341.341,0,0,0-.465-.14l-6.484,3.583a.372.372,0,0,0-.186.31.357.357,0,0,0,.186.31l2.017,1.163v6.98a.341.341,0,0,0,.186.295l8.563,4.948a.418.418,0,0,0,.233-.047Zm0-7.88h-.186a.341.341,0,0,0-.171.31v6.577l-7.865-4.545v-6.98a.357.357,0,0,0-.171-.31l-1.66-.962,5.646-3.1,5.631,9.617-1.055-.6a.31.31,0,0,0-.171,0Z" transform="translate(-289.599 74.845)"/><path class="c" d="M378.533,141.069h0l1.319-.264a5.832,5.832,0,0,0,4.654-5.739,8.33,8.33,0,0,0-2.59-6.608,2.28,2.28,0,0,0-2.234-.5,2.233,2.233,0,0,0-1.055.993,6.205,6.205,0,0,0-3.1-4.173,1.846,1.846,0,0,0-1.815.217,4.111,4.111,0,0,0-1.086,3.645,23.438,23.438,0,0,0,4.312,10.471l1.3,1.815a.326.326,0,0,0,.295.14Zm1.83-12.518a1.924,1.924,0,0,1,1.132.465,7.508,7.508,0,0,1,2.327,6,5.15,5.15,0,0,1-4.049,5.1l-1.086.2-1.163-1.629a22.8,22.8,0,0,1-4.188-10.114,3.49,3.49,0,0,1,.822-3.1,1.148,1.148,0,0,1,1.148-.124,6.205,6.205,0,0,1,2.885,4.654.279.279,0,0,0,0,.326.341.341,0,0,0,.326.248h0a.341.341,0,0,0,.341-.295,2.11,2.11,0,0,1,1.039-1.768A.9.9,0,0,1,380.364,128.551Z" transform="translate(-334.82 68.684)"/><path class="c" d="M400.2,129.317a.418.418,0,0,0,.186,0,.326.326,0,0,0,.171-.295v-1.908a7.43,7.43,0,0,0-3.1-5.926l-1.691-.977h0a2.218,2.218,0,0,0-2.28-.155,2.947,2.947,0,0,0-1.194,2.684v1.908a.341.341,0,0,0,.186.295l7.57,4.374A.31.31,0,0,0,400.2,129.317Zm-4.809-8.547,1.691.977a6.717,6.717,0,0,1,2.777,5.321v1.288l-6.872-3.956v-1.706a2.3,2.3,0,0,1,.838-2.079,1.551,1.551,0,0,1,1.551.155Z" transform="translate(-381.443 66.026)"/><path class="c" d="M396.971,122.232a1.706,1.706,0,0,0,.822-.217,2.575,2.575,0,0,0,1.039-2.342,6.3,6.3,0,0,0-2.7-5.119,1.939,1.939,0,0,0-1.986-.14,2.59,2.59,0,0,0-1.055,2.342,6.3,6.3,0,0,0,2.7,5.119,2.4,2.4,0,0,0,1.179.357Zm-2-7.337a1.831,1.831,0,0,1,.822.264,5.662,5.662,0,0,1,2.342,4.514,1.924,1.924,0,0,1-.7,1.722,1.3,1.3,0,0,1-1.3-.124,5.677,5.677,0,0,1-2.342-4.514,1.97,1.97,0,0,1,.7-1.737,1.055,1.055,0,0,1,.481-.124Z" transform="translate(-380.994 62.935)"/><path class="t" d="M403.27,113.311,357.912,87.158c-1.675-.977-3.1-.295-3.1,1.551a6.562,6.562,0,0,0,3.1,5.057l45.357,26.184c1.691.977,3.1.279,3.1-1.551a6.468,6.468,0,0,0-3.1-5.088Z" transform="translate(-329.153 47.781)"/><path class="t" d="M417.742,124.818l-59.83-34.561c-1.691-.977-3.1-.279-3.1,1.551a6.484,6.484,0,0,0,3.1,5.057l59.83,34.561c1.691.977,3.1.279,3.1-1.551a6.468,6.468,0,0,0-3.1-5.057Z" transform="translate(-343.626 49.491)"/><path class="c" d="M360.558,121.2c-3.1-1.815-5.708-.341-5.708,3.3a12.627,12.627,0,0,0,5.708,9.9c3.1,1.815,5.708.341,5.708-3.3A12.565,12.565,0,0,0,360.558,121.2Z" transform="translate(-289.11 66.36)"/><path class="t" d="M398.408,122.376l-30.7-17.7c-1.008-.574-1.815-.109-1.8,1.055v.6a4.079,4.079,0,0,0,1.846,3.1l30.652,17.684c1.008.589,1.815.109,1.815-1.055v-.589a3.986,3.986,0,0,0-1.815-3.1Z" transform="translate(-340.222 57.547)"/><path class="c" d="M414.087,132.091l-46.908-27.084c-.745-.434-1.334-.093-1.318.776v.434a2.994,2.994,0,0,0,1.365,2.311l46.924,27.1a.825.825,0,0,0,1.334-.776v-.434A2.963,2.963,0,0,0,414.087,132.091Z" transform="translate(-355.405 57.761)"/></g><g transform="translate(181.643 326.143)"><path class="b" d="M257.833,210.755a5.134,5.134,0,0,1,5.228.5h0l14.628,8.454a6.67,6.67,0,0,1,2.823,5.352v9.307a9.819,9.819,0,0,0,4.56,7.585l27.58,16.164v-5.367a2.575,2.575,0,0,1,1.21-2.389c.931-.527,6.112-3.537,6.841-3.94a3.707,3.707,0,0,1,3.583.264l4.5,2.528,1.086.62,7.353,4.25a9.654,9.654,0,0,1,1.194.822l.558.5a13.076,13.076,0,0,1,4.1,8.8V447.438a4.157,4.157,0,0,1-1.691,3.785l-6.872,3.956a4.064,4.064,0,0,1-4.126-.4l-75.745-43.728a12.937,12.937,0,0,1-5.832-10.114V219.442a5.166,5.166,0,0,1,2.172-4.778Z" transform="translate(-248.759 -210.262)"/><path class="y" d="M250.08,237.538a3.847,3.847,0,0,1,3.382.372l4.514,2.528,1.086.62,7.306,4.266a9.509,9.509,0,0,1,1.194.807l.558.5a13.822,13.822,0,0,1,2.141,2.637l6.841-3.956a12.673,12.673,0,0,0-2.125-2.637l-.558-.5a9.314,9.314,0,0,0-1.179-.807l-7.368-4.266-1.086-.62-4.514-2.528a3.707,3.707,0,0,0-3.583-.264Z" transform="translate(-184.79 -197.535)"/><path class="y" d="M289.65,214.708a5.119,5.119,0,0,1,5.212.5l14.612,8.454a5.321,5.321,0,0,1,2.017,2.265l6.856-3.956a5.4,5.4,0,0,0-2-2.265L301.7,211.248a5.228,5.228,0,0,0-5.212-.512C295.265,211.4,290.875,213.994,289.65,214.708Z" transform="translate(-287.416 -210.258)"/><path class="p" d="M287.67,221.771a6.981,6.981,0,0,1,.822,3.1v9.307a9.307,9.307,0,0,0,2.249,5.538l6.856-3.956a9.447,9.447,0,0,1-2.265-5.553V220.9a6.887,6.887,0,0,0-.807-3.1Z" transform="translate(-263.595 -206.107)"/><path class="s" d="M260.686,213.806h0l14.628,8.454a6.67,6.67,0,0,1,2.823,5.352v9.307a9.8,9.8,0,0,0,4.654,7.585l29.861,17.482c2.513,1.443,4.561.419,4.561-2.311V251.33c0-2.684,2.482-3.366,4.778-2.11l4.514,2.528,1.086.62,7.229,4.266a9.5,9.5,0,0,1,1.179.822l.558.5a13.077,13.077,0,0,1,4.1,8.8V450.008c0,3.723-2.622,5.228-5.833,3.366l-75.745-43.728a12.937,12.937,0,0,1-5.833-10.114V218.041C253.3,213.372,256.622,211.464,260.686,213.806Z" transform="translate(-253.24 -208.86)"/><path class="b" d="M257.4,214.228c-2.5,0-2.7,2.963-2.7,3.863V399.581a11.541,11.541,0,0,0,5.134,8.888l75.745,43.7a3.97,3.97,0,0,0,1.908.62c1.644,0,1.815-1.939,1.815-2.761V266.767a11.681,11.681,0,0,0-3.614-7.756l-.2-.186-.31-.264a7.3,7.3,0,0,0-1.008-.7l-7.353-4.25-1.07-.62-4.514-2.513a3.1,3.1,0,0,0-1.551-.45c-.807,0-1.179.419-1.179,1.319v8.314a3.909,3.909,0,0,1-3.831,4.374,5.8,5.8,0,0,1-2.854-.853L282,245.7a11.215,11.215,0,0,1-5.274-8.811v-9.307a5.274,5.274,0,0,0-2.125-4.142L259.988,215a5.289,5.289,0,0,0-2.591-.822m0-1.412a6.671,6.671,0,0,1,3.289,1.008l14.628,8.454a6.67,6.67,0,0,1,2.823,5.352v9.307a9.8,9.8,0,0,0,4.654,7.585l29.861,17.482a4.484,4.484,0,0,0,2.141.651c1.443,0,2.42-1.07,2.42-2.963V251.3a2.466,2.466,0,0,1,2.591-2.715,4.654,4.654,0,0,1,2.187.6l4.514,2.528,1.086.62,7.229,4.312a9.5,9.5,0,0,1,1.179.822l.558.5a13.077,13.077,0,0,1,4.1,8.8V450.027c0,2.637-1.319,4.157-3.227,4.157a5.213,5.213,0,0,1-2.606-.791l-75.745-43.728a12.937,12.937,0,0,1-5.833-10.114V218.06c0-3.335,1.675-5.274,4.1-5.274Z" transform="translate(-253.24 -208.879)"/><path class="c" d="M270.29,363.655h.186a.357.357,0,0,0,.171-.31v-6.577l1.675.977a.372.372,0,0,0,.434,0,.357.357,0,0,0,0-.419l-6.484-11.076a.341.341,0,0,0-.465-.124l-6.484,3.583a.31.31,0,0,0-.186.295.356.356,0,0,0,.171.31l2.017,1.163v6.887a.357.357,0,0,0,.171.31l8.578,4.948A.311.311,0,0,0,270.29,363.655Zm0-7.9a.31.31,0,0,0-.171,0,.357.357,0,0,0-.171.31v6.577l-7.88-4.545v-6.98a.341.341,0,0,0-.186-.295l-1.644-.962,5.631-3.1,5.615,9.664-1.055-.62a.417.417,0,0,0-.14-.046Z" transform="translate(-194.56 -135.398)"/><path class="c" d="M283.519,351.319h0l1.319-.248a5.817,5.817,0,0,0,4.654-5.739,8.268,8.268,0,0,0-2.591-6.624,2.249,2.249,0,0,0-2.218-.481,2.1,2.1,0,0,0-1.055.993,6.2,6.2,0,0,0-3.1-4.188,1.846,1.846,0,0,0-1.815.217,4.111,4.111,0,0,0-1.1,3.645,23.5,23.5,0,0,0,4.328,10.471l1.287,1.815A.341.341,0,0,0,283.519,351.319Zm1.815-12.518a1.924,1.924,0,0,1,1.148.465,7.57,7.57,0,0,1,2.311,6,5.134,5.134,0,0,1-4.033,5.1l-1.086.217-1.163-1.629a22.679,22.679,0,0,1-4.2-10.129,3.568,3.568,0,0,1,.822-3.025,1.148,1.148,0,0,1,1.148-.109c1.3.465,2.528,2.5,2.885,4.654a.232.232,0,0,0,0,.109.372.372,0,0,0,.078.217.341.341,0,0,0,.326.233h0a.372.372,0,0,0,.357-.295,2.11,2.11,0,0,1,1.039-1.768,1.087,1.087,0,0,1,.372-.047Z" transform="translate(-239.79 -141.568)"/><path class="c" d="M305.2,339.58a.31.31,0,0,0,.171,0,.357.357,0,0,0,.171-.31v-1.892a7.461,7.461,0,0,0-3.1-5.941l-1.675-.977a2.265,2.265,0,0,0-2.28-.155,2.994,2.994,0,0,0-1.194,2.7V334.9a.357.357,0,0,0,.171.31l7.57,4.374Zm-5.8-8.857a1.892,1.892,0,0,1,.993.31h0l1.691.962a6.7,6.7,0,0,1,2.761,5.336v1.287l-6.872-3.971v-1.691a2.311,2.311,0,0,1,.838-2.079,1.163,1.163,0,0,1,.589-.155ZM300.558,330.723Z" transform="translate(-286.426 -144.224)"/><path class="c" d="M301.95,332.482a1.676,1.676,0,0,0,.822-.217,2.59,2.59,0,0,0,1.055-2.342,6.344,6.344,0,0,0-2.7-5.119,1.924,1.924,0,0,0-2-.124,2.544,2.544,0,0,0-1.039,2.342,6.329,6.329,0,0,0,2.684,5.1,2.4,2.4,0,0,0,1.179.357Zm-2-7.322a1.707,1.707,0,0,1,.822.248,5.631,5.631,0,0,1,2.342,4.514,1.955,1.955,0,0,1-.683,1.737,1.334,1.334,0,0,1-1.3-.14,5.646,5.646,0,0,1-2.342-4.5,1.892,1.892,0,0,1,.7-1.737.869.869,0,0,1,.465-.124Z" transform="translate(-285.973 -147.317)"/><g class="q" transform="translate(28.527 80.983)"><path class="r" d="M300.475,278.805,272.8,262.735c-1.024-.589-1.861-.171-1.861.946a3.986,3.986,0,0,0,1.861,3.1l27.7,15.993c1.024.589,1.861.171,1.861-.946A4,4,0,0,0,300.475,278.805Z" transform="translate(-270.94 -262.468)"/></g><g class="q" transform="translate(24.075 86.613)"><path class="r" d="M306.518,287.461l-36.546-21.1c-1.024-.589-1.861-.171-1.861.946a4,4,0,0,0,1.861,3.1l36.546,21.1c1.024.589,1.861.171,1.861-.931A4.033,4.033,0,0,0,306.518,287.461Z" transform="translate(-268.11 -266.098)"/></g><path class="n" d="M292.318,300.676l-30.7-17.7c-1.008-.574-1.815-.109-1.8,1.07v.651a4.111,4.111,0,0,0,1.861,3.1l30.636,17.7c1.008.574,1.83.109,1.83-1.055v-.605a4.064,4.064,0,0,0-1.83-3.165Z" transform="translate(-216.945 -170.316)"/><path class="b" d="M326.935,315.323l-65.554-37.849c-.838-.481-1.551-.093-1.551.884v6.375a3.351,3.351,0,0,0,1.551,2.637l65.538,37.849c.838.5,1.551.093,1.551-.869V317.96a3.35,3.35,0,0,0-1.536-2.637Z" transform="translate(-251.283 -173.328)"/><path class="b" d="M326.935,332.293l-65.554-37.849c-.838-.481-1.551-.093-1.551.884V301.7a3.351,3.351,0,0,0,1.551,2.637L326.92,342.2c.838.481,1.551.093,1.551-.884V334.93a3.382,3.382,0,0,0-1.536-2.637Z" transform="translate(-251.283 -163.974)"/><path class="n" d="M292.318,317.643l-30.7-17.684c-1.008-.589-1.815-.109-1.8,1.055v.589a4.141,4.141,0,0,0,1.861,3.18l30.636,17.684c1.008.589,1.83.109,1.83-1.055v-.6A4.064,4.064,0,0,0,292.318,317.643Z" transform="translate(-216.945 -160.959)"/><g class="q" transform="translate(48.63 173.353)"><path class="r" d="M286.563,336.666l-24.912-14.4c-1.008-.589-1.83-.124-1.83,1.055v8.966a4.064,4.064,0,0,0,1.83,3.18l24.912,14.442c1.024.574,1.83.109,1.83-1.055V339.83a3.987,3.987,0,0,0-1.83-3.164Z" transform="translate(-259.82 -322.016)"/></g><g class="q" transform="translate(8.594 150.25)"><path class="r" d="M312.383,321.762l-24.928-14.4c-1.008-.574-1.815-.109-1.815,1.055V317.4a4.018,4.018,0,0,0,1.815,3.1l24.928,14.4c1.008.589,1.815.124,1.815-1.055v-8.919A4.048,4.048,0,0,0,312.383,321.762Z" transform="translate(-285.64 -307.122)"/></g><text class="aa" transform="matrix(-1, 0, 0, 1, 61.645, 85.245)"><tspan x="0" y="0">Si</tspan><tspan class="ab" y="0">g</tspan><tspan y="0">n in</tspan></text></g><g transform="translate(0 221.18)"><path class="b" d="M374.927,143.083a5.181,5.181,0,0,1,5.228.5h0l14.628,8.454a6.67,6.67,0,0,1,2.823,5.367v9.307a9.819,9.819,0,0,0,4.561,7.539l27.58,16.148V185.1a2.528,2.528,0,0,1,1.21-2.373l6.841-3.956a3.707,3.707,0,0,1,3.583.264l4.514,2.528,1.086.62,7.368,4.266a10.627,10.627,0,0,1,1.179.807l.558.5a13.077,13.077,0,0,1,4.1,8.8V379.781a4.142,4.142,0,0,1-1.691,3.769l-6.872,3.971a4.11,4.11,0,0,1-4.126-.419l-75.745-43.775a12.937,12.937,0,0,1-5.833-10.114V151.723a5.166,5.166,0,0,1,2.172-4.762Z" transform="translate(-365.886 -142.596)"/><path class="y" d="M367.16,169.868a3.894,3.894,0,0,1,3.382.372l4.514,2.528,1.086.62,7.368,4.266a13.3,13.3,0,0,1,1.179.807l.558.5a13.149,13.149,0,0,1,2.141,2.637l6.856-3.956A13.266,13.266,0,0,0,392.1,175l-.558-.5a8.353,8.353,0,0,0-1.179-.807L383,169.434l-1.086-.62-4.514-2.529a3.708,3.708,0,0,0-3.583-.264Z" transform="translate(-301.904 -129.873)"/><path class="y" d="M406.77,147.037a5.1,5.1,0,0,1,5.212.5l14.628,8.454a5.538,5.538,0,0,1,2.017,2.265l6.841-3.956a5.4,5.4,0,0,0-2-2.265l-14.628-8.454a5.212,5.212,0,0,0-5.228-.5Z" transform="translate(-404.571 -142.595)"/><path class="p" d="M404.79,154.1a6.95,6.95,0,0,1,.807,3.1v9.307a9.307,9.307,0,0,0,2.249,5.553l6.856-3.971a9.385,9.385,0,0,1-2.249-5.538v-9.307a6.981,6.981,0,0,0-.822-3.1Z" transform="translate(-380.734 -138.438)"/><path class="s" d="M377.654,146.135h0l14.628,8.454a6.7,6.7,0,0,1,2.823,5.367v9.307a9.8,9.8,0,0,0,4.654,7.585l29.861,17.482c2.513,1.458,4.561.419,4.561-2.311v-8.314c0-2.684,2.482-3.366,4.778-2.11l4.514,2.528,1.086.62,7.368,4.266a8.35,8.35,0,0,1,1.179.807l.558.5a13.123,13.123,0,0,1,4.1,8.811V382.337c0,3.723-2.622,5.228-5.833,3.366L376.1,341.928a12.937,12.937,0,0,1-5.833-10.114V150.324C370.27,145.717,373.589,143.793,377.654,146.135Z" transform="translate(-370.242 -141.197)"/><path class="b" d="M374.382,146.5c-2.5,0-2.684,2.963-2.684,3.862V331.855a11.525,11.525,0,0,0,5.119,8.888l75.745,43.728a3.971,3.971,0,0,0,1.908.62c1.644,0,1.815-1.939,1.815-2.761V199.118a11.619,11.619,0,0,0-3.614-7.756l-.186-.171-.326-.279a6.487,6.487,0,0,0-1.008-.7l-7.353-4.25-1.07-.62-4.5-2.513a3.351,3.351,0,0,0-1.551-.434c-.807,0-1.179.4-1.179,1.3v8.345a3.909,3.909,0,0,1-3.831,4.374,5.647,5.647,0,0,1-2.854-.853L398.953,178.1a11.246,11.246,0,0,1-5.274-8.811v-9.307a5.305,5.305,0,0,0-2.11-4.142l-14.628-8.454a5.444,5.444,0,0,0-2.56-.884m0-1.4a6.623,6.623,0,0,1,3.289.993l14.628,8.454a6.7,6.7,0,0,1,2.823,5.367v9.307a9.8,9.8,0,0,0,4.654,7.585l29.861,17.482a4.328,4.328,0,0,0,2.141.651c1.443,0,2.42-1.07,2.42-2.963V183.73a2.467,2.467,0,0,1,2.591-2.715,4.654,4.654,0,0,1,2.187.6l4.514,2.528,1.086.62,7.368,4.266a8.357,8.357,0,0,1,1.179.807l.558.5a13.123,13.123,0,0,1,4.1,8.811V382.362c0,2.637-1.319,4.157-3.226,4.157a5.212,5.212,0,0,1-2.606-.791l-75.87-43.775a12.937,12.937,0,0,1-5.833-10.114V150.349c0-3.335,1.675-5.259,4.1-5.259Z" transform="translate(-370.212 -141.222)"/><path class="c" d="M387.4,295.983a.419.419,0,0,0,.186,0,.357.357,0,0,0,.171-.31V289.1l1.691.977a.341.341,0,0,0,.419,0,.326.326,0,0,0,0-.419l-6.484-11.076a.357.357,0,0,0-.465-.124l-6.484,3.583a.326.326,0,0,0-.186.295.341.341,0,0,0,.171.31l2.032,1.163v6.98a.357.357,0,0,0,.171.31l8.609,4.84Zm0-7.88h-.171a.326.326,0,0,0-.171.295v6.577l-7.88-4.545v-6.98a.326.326,0,0,0-.171-.295l-1.66-.962,5.631-3.1,5.646,9.633-1.055-.6Z" transform="translate(-311.709 -67.733)"/><path class="c" d="M400.653,283.658h0l1.319-.248a5.848,5.848,0,0,0,4.654-5.739,8.33,8.33,0,0,0-2.606-6.624,2.265,2.265,0,0,0-2.218-.481,2.094,2.094,0,0,0-1.055.993,6.2,6.2,0,0,0-3.1-4.188,1.83,1.83,0,0,0-1.815.233,4.126,4.126,0,0,0-1.1,3.63,23.424,23.424,0,0,0,4.328,10.471l1.287,1.815a.4.4,0,0,0,.31.14Zm1.83-12.534a1.924,1.924,0,0,1,1.132.465,7.6,7.6,0,0,1,2.327,6,5.135,5.135,0,0,1-4.049,5.1l-1.086.217-1.163-1.551a22.523,22.523,0,0,1-4.188-10.114,3.49,3.49,0,0,1,.807-3.025,1.117,1.117,0,0,1,1.148-.124,6.2,6.2,0,0,1,2.885,4.654v.109a.372.372,0,0,0,.078.217.357.357,0,0,0,.326.248h0a.372.372,0,0,0,.357-.31,2.125,2.125,0,0,1,1.039-1.768A1.164,1.164,0,0,1,402.483,271.124Z" transform="translate(-356.959 -73.899)"/><path class="c" d="M422.291,271.909a.309.309,0,0,0,.171,0,.372.372,0,0,0,.186-.31v-1.893a7.477,7.477,0,0,0-3.1-5.941l-1.675-.962a2.187,2.187,0,0,0-2.28-.155,2.947,2.947,0,0,0-1.194,2.684v1.892a.357.357,0,0,0,.171.31l7.585,4.374a.309.309,0,0,0,.14,0Zm-5.8-8.857a2.048,2.048,0,0,1,.993.31h0l1.691.962a6.7,6.7,0,0,1,2.761,5.336v1.287l-6.872-3.971v-1.691a2.3,2.3,0,0,1,.853-2.079A1.07,1.07,0,0,1,416.49,263.052Zm1.179,0Z" transform="translate(-403.556 -76.561)"/><path class="c" d="M419.069,264.85a1.552,1.552,0,0,0,.822-.217,2.591,2.591,0,0,0,1.055-2.342,6.329,6.329,0,0,0-2.7-5.119,1.955,1.955,0,0,0-2-.124,2.559,2.559,0,0,0-1.039,2.342,6.375,6.375,0,0,0,2.684,5.119A2.373,2.373,0,0,0,419.069,264.85Zm-2-7.322a1.551,1.551,0,0,1,.822.264,5.615,5.615,0,0,1,2.358,4.5,1.955,1.955,0,0,1-.7,1.737,1.288,1.288,0,0,1-1.3-.14,5.646,5.646,0,0,1-2.342-4.5,1.892,1.892,0,0,1,.7-1.737.868.868,0,0,1,.465-.186Z" transform="translate(-403.126 -79.631)"/><g class="q" transform="translate(28.477 81.011)"><path class="r" d="M417.63,211.045,389.941,195.1c-1.039-.6-1.861-.186-1.861.931a3.94,3.94,0,0,0,1.861,3.1l27.689,15.993c1.024.589,1.861.171,1.861-.946A4.033,4.033,0,0,0,417.63,211.045Z" transform="translate(-388.08 -194.821)"/></g><g class="q" transform="translate(24.025 86.606)"><path class="r" d="M423.673,219.807l-36.562-21.112c-1.039-.589-1.861-.171-1.861.946a3.94,3.94,0,0,0,1.861,3.1l36.531,21.1c1.024.6,1.861.171,1.861-.931a3.986,3.986,0,0,0-1.83-3.1Z" transform="translate(-385.25 -198.428)"/></g><path class="n" d="M409.458,233l-30.7-17.684c-1.008-.589-1.815-.109-1.8,1.055v.589a4.111,4.111,0,0,0,1.861,3.1l30.636,17.7c1.024.574,1.83.109,1.83-1.055v-.6A4.065,4.065,0,0,0,409.458,233Z" transform="translate(-334.15 -102.65)"/><path class="b" d="M444.105,247.653,378.551,209.8c-.838-.481-1.551-.093-1.551.884v6.375a3.35,3.35,0,0,0,1.551,2.637l65.461,37.849c.853.5,1.551.093,1.551-.869V250.29A3.351,3.351,0,0,0,444.105,247.653Z" transform="translate(-368.487 -105.665)"/><path class="b" d="M444.105,264.623l-65.554-37.849c-.838-.481-1.551-.093-1.551.884v6.375a3.413,3.413,0,0,0,1.551,2.653l65.461,37.849c.853.481,1.551.093,1.551-.884V267.26a3.4,3.4,0,0,0-1.458-2.637Z" transform="translate(-368.487 -96.311)"/><path class="n" d="M409.458,249.989l-30.7-17.7c-1.008-.589-1.815-.109-1.8,1.055v.6a4.126,4.126,0,0,0,1.861,3.1l30.636,17.684c1.024.589,1.83.109,1.83-1.055v-.589A4,4,0,0,0,409.458,249.989Z" transform="translate(-334.15 -93.296)"/><g class="q" transform="translate(48.565 173.348)"><path class="r" d="M403.713,268.995l-24.928-14.4c-1.008-.589-1.815-.109-1.815,1.055v9.012a4.018,4.018,0,0,0,1.83,3.1l24.912,14.4c1.008.574,1.815.109,1.815-1.055v-8.982A4.018,4.018,0,0,0,403.713,268.995Z" transform="translate(-376.97 -254.347)"/></g><g class="q" transform="translate(8.544 150.242)"><path class="r" d="M429.518,254.092,404.59,239.7c-1.024-.574-1.83-.109-1.83,1.055v8.981a4.033,4.033,0,0,0,1.83,3.1L429.5,267.247c1.008.574,1.83.109,1.83-1.055V257.21a4.064,4.064,0,0,0-1.815-3.118Z" transform="translate(-402.76 -239.452)"/></g><text class="aa" transform="matrix(-1, 0, 0, 1, 64.154, 87.208)"><tspan x="0" y="0">Si</tspan><tspan class="ab" y="0">g</tspan><tspan y="0">n up</tspan></text></g></g></svg>